<svg xmlns="http://www.w3.org/2000/svg" xmlns:xlink="http://www.w3.org/1999/xlink" viewBox="1324.724 8870.247 54.201 22.707">
  <defs>
    <style>
      .cls-1 {
        fill: #f2f2f2;
      }

      .cls-2 {
        fill: #292929;
      }

      .cls-3 {
        stroke: rgba(242,242,242,0.5);
        stroke-width: 0.15px;
      }

      .cls-4 {
        fill: #931f1f;
      }

      .cls-5 {
        fill: #9d761f;
      }

      .cls-6 {
        clip-path: url(#clip-path);
      }

      .cls-7 {
        stroke: none;
      }

      .cls-8 {
        fill: none;
      }
    </style>
    <clipPath id="clip-path">
      <ellipse id="guld" class="cls-1" cx="4.541" cy="4.541" rx="4.541" ry="4.541"/>
    </clipPath>
  </defs>
  <g id="icn_block_ultra_sonic" transform="translate(666.315 8209.204)">
    <rect id="Rectangle_1" data-name="Rectangle 1" class="cls-2" width="28.236" height="20.338" transform="translate(673.021 661.932)"/>
    <rect id="Rectangle_2" data-name="Rectangle 2" width="16.487" height="11.452" transform="translate(677.958 666.474)"/>
    <g id="eye1" transform="translate(658.41 661.044)">
      <g id="sort" class="cls-3" transform="translate(0 0)">
        <ellipse class="cls-7" cx="11.354" cy="11.354" rx="11.354" ry="11.354"/>
        <ellipse class="cls-8" cx="11.354" cy="11.354" rx="11.279" ry="11.279"/>
      </g>
      <ellipse id="rød" class="cls-4" cx="7.01" cy="7.01" rx="7.01" ry="7.01" transform="translate(4.344 4.344)"/>
      <ellipse id="guld-3" data-name="guld" class="cls-5" cx="5.232" cy="5.232" rx="5.232" ry="5.232" transform="translate(6.121 6.121)"/>
      <ellipse id="guld-4" data-name="guld" class="cls-1" cx="4.541" cy="4.541" rx="4.541" ry="4.541" transform="translate(6.812 6.812)"/>
      <g id="Group_5" data-name="Group 5" transform="translate(6.812 6.812)">
        <g id="Mask_Group_8" data-name="Mask Group 8" class="cls-6">
          <g id="Group_17" data-name="Group 17" transform="translate(-4.652 2.089) rotate(-30)">
            <rect id="Rectangle_84" data-name="Rectangle 84" class="cls-5" width="0.395" height="14.834" transform="translate(1.333 0)"/>
            <rect id="Rectangle_91" data-name="Rectangle 91" class="cls-5" width="0.395" height="14.649" transform="translate(0 13.081) rotate(-90)"/>
            <rect id="Rectangle_85" data-name="Rectangle 85" class="cls-5" width="0.395" height="14.834" transform="translate(3.209 0)"/>
            <rect id="Rectangle_97" data-name="Rectangle 97" class="cls-5" width="0.395" height="14.649" transform="translate(0 11.205) rotate(-90)"/>
            <rect id="Rectangle_86" data-name="Rectangle 86" class="cls-5" width="0.395" height="14.834" transform="translate(5.084 0)"/>
            <rect id="Rectangle_96" data-name="Rectangle 96" class="cls-5" width="0.395" height="14.649" transform="translate(0 9.33) rotate(-90)"/>
            <rect id="Rectangle_87" data-name="Rectangle 87" class="cls-5" width="0.395" height="14.834" transform="translate(6.96 0)"/>
            <rect id="Rectangle_95" data-name="Rectangle 95" class="cls-5" width="0.395" height="14.649" transform="translate(0 7.454) rotate(-90)"/>
            <rect id="Rectangle_88" data-name="Rectangle 88" class="cls-5" width="0.395" height="14.834" transform="translate(8.836 0)"/>
            <rect id="Rectangle_94" data-name="Rectangle 94" class="cls-5" width="0.395" height="14.649" transform="translate(0 5.578) rotate(-90)"/>
            <rect id="Rectangle_89" data-name="Rectangle 89" class="cls-5" width="0.395" height="14.834" transform="translate(10.712 0)"/>
            <rect id="Rectangle_93" data-name="Rectangle 93" class="cls-5" width="0.395" height="14.649" transform="translate(0 3.702) rotate(-90)"/>
            <rect id="Rectangle_90" data-name="Rectangle 90" class="cls-5" width="0.395" height="14.834" transform="translate(12.588 0)"/>
            <rect id="Rectangle_92" data-name="Rectangle 92" class="cls-5" width="0.395" height="14.649" transform="translate(0 1.826) rotate(-90)"/>
          </g>
        </g>
      </g>
    </g>
    <g id="eye2" transform="translate(689.903 661.044)">
      <g id="sort-2" data-name="sort" class="cls-3" transform="translate(0 0)">
        <ellipse class="cls-7" cx="11.354" cy="11.354" rx="11.354" ry="11.354"/>
        <ellipse class="cls-8" cx="11.354" cy="11.354" rx="11.279" ry="11.279"/>
      </g>
      <ellipse id="rød-2" data-name="rød" class="cls-4" cx="7.01" cy="7.01" rx="7.01" ry="7.01" transform="translate(4.344 4.344)"/>
      <ellipse id="guld-5" data-name="guld" class="cls-5" cx="5.232" cy="5.232" rx="5.232" ry="5.232" transform="translate(6.121 6.121)"/>
      <ellipse id="guld-6" data-name="guld" class="cls-1" cx="4.541" cy="4.541" rx="4.541" ry="4.541" transform="translate(6.812 6.812)"/>
      <g id="Group_18" data-name="Group 18" transform="translate(6.812 6.812)">
        <g id="Mask_Group_8-2" data-name="Mask Group 8" class="cls-6">
          <g id="Group_17-2" data-name="Group 17" transform="translate(-4.652 2.089) rotate(-30)">
            <rect id="Rectangle_84-2" data-name="Rectangle 84" class="cls-5" width="0.395" height="14.834" transform="translate(1.333 0)"/>
            <rect id="Rectangle_91-2" data-name="Rectangle 91" class="cls-5" width="0.395" height="14.649" transform="translate(0 13.081) rotate(-90)"/>
            <rect id="Rectangle_85-2" data-name="Rectangle 85" class="cls-5" width="0.395" height="14.834" transform="translate(3.209 0)"/>
            <rect id="Rectangle_97-2" data-name="Rectangle 97" class="cls-5" width="0.395" height="14.649" transform="translate(0 11.205) rotate(-90)"/>
            <rect id="Rectangle_86-2" data-name="Rectangle 86" class="cls-5" width="0.395" height="14.834" transform="translate(5.084 0)"/>
            <rect id="Rectangle_96-2" data-name="Rectangle 96" class="cls-5" width="0.395" height="14.649" transform="translate(0 9.33) rotate(-90)"/>
            <rect id="Rectangle_87-2" data-name="Rectangle 87" class="cls-5" width="0.395" height="14.834" transform="translate(6.96 0)"/>
            <rect id="Rectangle_95-2" data-name="Rectangle 95" class="cls-5" width="0.395" height="14.649" transform="translate(0 7.454) rotate(-90)"/>
            <rect id="Rectangle_88-2" data-name="Rectangle 88" class="cls-5" width="0.395" height="14.834" transform="translate(8.836 0)"/>
            <rect id="Rectangle_94-2" data-name="Rectangle 94" class="cls-5" width="0.395" height="14.649" transform="translate(0 5.578) rotate(-90)"/>
            <rect id="Rectangle_89-2" data-name="Rectangle 89" class="cls-5" width="0.395" height="14.834" transform="translate(10.712 0)"/>
            <rect id="Rectangle_93-2" data-name="Rectangle 93" class="cls-5" width="0.395" height="14.649" transform="translate(0 3.702) rotate(-90)"/>
            <rect id="Rectangle_90-2" data-name="Rectangle 90" class="cls-5" width="0.395" height="14.834" transform="translate(12.588 0)"/>
            <rect id="Rectangle_92-2" data-name="Rectangle 92" class="cls-5" width="0.395" height="14.649" transform="translate(0 1.826) rotate(-90)"/>
          </g>
        </g>
      </g>
    </g>
  </g>
</svg>
