<svg xmlns="http://www.w3.org/2000/svg" xmlns:xlink="http://www.w3.org/1999/xlink" viewBox="1327.274 8333.921 23.497 21.72">
  <defs>
    <style>
      .cls-1 {
        fill: #a8a9a8;
      }

      .cls-2 {
        clip-path: url(#clip-path);
      }

      .cls-3 {
        fill: url(#linear-gradient);
      }

      .cls-4 {
        fill: #b72b1c;
      }

      .cls-5 {
        fill: #f2f2f2;
      }

      .cls-6 {
        filter: url(#Path_1);
      }
    </style>
    <clipPath id="clip-path">
      <path id="Union_5" data-name="Union 5" class="cls-1" d="M2.543,21.72c-.7,0-1.26-.4-1.26-.9V17.968H.494A.494.494,0,0,1,0,17.475V4.64a.494.494,0,0,1,.494-.494h.79V.9c0-.5.564-.9,1.26-.9H20.954c.7,0,1.26.4,1.26.9v3.25H23a.494.494,0,0,1,.494.494V17.475a.494.494,0,0,1-.494.494h-.79v2.855c0,.5-.564.9-1.26.9Z"/>
    </clipPath>
    <linearGradient id="linear-gradient" x1="0.5" y1="0.901" x2="0.5" y2="1.068" gradientUnits="objectBoundingBox">
      <stop offset="0" stop-color="#a8a9a8"/>
      <stop offset="1" stop-color="#545554"/>
    </linearGradient>
    <filter id="Path_1" x="1319.557" y="8327.921" width="38.93" height="39.72" filterUnits="userSpaceOnUse">
      <feOffset dy="3" input="SourceAlpha"/>
      <feGaussianBlur stdDeviation="3" result="blur"/>
      <feFlood flood-opacity="0.502"/>
      <feComposite operator="in" in2="blur"/>
      <feComposite in="SourceGraphic"/>
    </filter>
  </defs>
  <g id="icn_block_color_sensor" transform="translate(666.315 8209.204)">
    <g id="Mask_Group_5" data-name="Mask Group 5" class="cls-2" transform="translate(660.959 124.718)">
      <g id="Group_4" data-name="Group 4" transform="translate(0)">
        <g id="Group_2" data-name="Group 2">
          <path id="Path_28" data-name="Path 28" class="cls-1" d="M.494,0H23A.494.494,0,0,1,23.5.494V13.328a.494.494,0,0,1-.494.494H.494A.494.494,0,0,1,0,13.328V.494A.494.494,0,0,1,.494,0Z" transform="translate(0 4.147)"/>
          <g class="cls-6" transform="matrix(1, 0, 0, 1, -1327.27, -8333.92)">
            <path id="Path_1-2" data-name="Path 1" class="cls-3" d="M1.26,0H19.67c.7,0,1.26.4,1.26.9V20.823c0,.5-.564.9-1.26.9H1.26c-.7,0-1.26-.4-1.26-.9V.9C0,.4.564,0,1.26,0Z" transform="translate(1328.56 8333.92)"/>
          </g>
          <rect id="Rectangle_2" data-name="Rectangle 2" width="0.494" height="3.949" transform="translate(22.51 6.121)"/>
          <rect id="Rectangle_5" data-name="Rectangle 5" width="0.494" height="3.949" transform="translate(0.592 6.121)"/>
          <rect id="Rectangle_3" data-name="Rectangle 3" width="0.494" height="3.949" transform="translate(22.51 11.748)"/>
          <rect id="Rectangle_4" data-name="Rectangle 4" width="0.494" height="3.949" transform="translate(0.592 11.748)"/>
        </g>
        <path id="Union_1" data-name="Union 1" class="cls-4" d="M1.678,11.551a4.557,4.557,0,0,1,.1-.973,6.22,6.22,0,1,1,8.874,0,4.542,4.542,0,1,1-8.979.973Z" transform="translate(5.529 2.666)"/>
        <path id="Union_2" data-name="Union 2" d="M1.738,10.614A3.5,3.5,0,0,1,1.98,9.332,5.233,5.233,0,1,1,8.5,9.317a3.507,3.507,0,1,1-6.765,1.3Z" transform="translate(6.516 3.602)"/>
        <g id="Group_3" data-name="Group 3" transform="translate(9.379 6.615)">
          <ellipse id="Ellipse_5" data-name="Ellipse 5" class="cls-5" cx="2.369" cy="2.369" rx="2.369" ry="2.369"/>
          <ellipse id="Ellipse_6" data-name="Ellipse 6" class="cls-5" cx="1.283" cy="1.283" rx="1.283" ry="1.283" transform="translate(1.086 6.22)"/>
        </g>
      </g>
    </g>
  </g>
</svg>
