<svg xmlns="http://www.w3.org/2000/svg" xmlns:xlink="http://www.w3.org/1999/xlink" viewBox="1344 8191 55 41">
  <defs>
    <style>
      .cls-1 {
        fill: #fff;
      }

      .cls-2 {
        fill: #a8a9a8;
      }

      .cls-3 {
        clip-path: url(#clip-path);
      }

      .cls-4 {
        clip-path: url(#clip-path-2);
      }

      .cls-5 {
        fill: #919191;
      }

      .cls-6 {
        clip-path: url(#clip-path-3);
      }

      .cls-7 {
        fill: #f2f2f2;
      }

      .cls-8 {
        clip-path: url(#clip-path-4);
      }

      .cls-9 {
        fill: #6a6a6a;
      }

      .cls-10 {
        fill: #9a9a9a;
      }

      .cls-11 {
        fill: #d02e26;
      }

      .cls-12 {
        fill: #242424;
      }

      .cls-13 {
        filter: url(#rød);
      }

      .cls-14 {
        filter: url(#Path_4);
      }

      .cls-15 {
        filter: url(#Path_1-2);
      }

      .cls-16 {
        filter: url(#Path_2);
      }

      .cls-17 {
        filter: url(#Path_1);
      }

      .cls-18 {
        filter: url(#Path_34);
      }
    </style>
    <clipPath id="clip-path">
      <rect id="Rectangle_119" data-name="Rectangle 119" class="cls-1" width="55" height="41" transform="translate(-10.923 65.26)"/>
    </clipPath>
    <clipPath id="clip-path-2">
      <path id="Union_6" data-name="Union 6" class="cls-2" d="M0,88.889A11.109,11.109,0,0,1,9.191,77.947L8.954,77.7,8.947,54.41c0-.273.093-.261.255-.438l7.1-6.846V40.6l-.488-.5v-.516H11.39a2.6,2.6,0,0,1-2.6-2.6V20.163a2.6,2.6,0,0,1,2.6-2.6h4.421V12.236a3.765,3.765,0,0,1,3.766-3.765h4.241c0-.059-.005-.117-.005-.176V3.941a3,3,0,0,1,1.882-2.785V.4a.4.4,0,0,1,.4-.4H43.183a.394.394,0,0,1,.394.4v1a3,3,0,0,1,1.412,2.546V8.294c0,.059,0,.118-.005.176h2.359a3.765,3.765,0,0,1,3.765,3.765V31.528c-6.749,9.152-11.8,15.533-11.8,15.533h-.387s-4.616-.035-8.906-.062l.022,7.681h4.479a2.6,2.6,0,0,1,2.6,2.6V74.093a2.6,2.6,0,0,1-2.6,2.6H30.1l.022,7.664c0,.545-.1.545-.3.74l-6.78,6.569-.139.124a.989.989,0,0,1-1.036-.154A11.108,11.108,0,0,1,0,88.889Z"/>
    </clipPath>
    <filter id="Path_34" x="1375.234" y="8125.181" width="24.177" height="13.354" filterUnits="userSpaceOnUse">
      <feOffset input="SourceAlpha"/>
      <feGaussianBlur stdDeviation="0.5" result="blur"/>
      <feFlood flood-opacity="0.502"/>
      <feComposite operator="in" in2="blur"/>
      <feComposite in="SourceGraphic"/>
    </filter>
    <filter id="Path_1" x="1360.37" y="8169.796" width="24.177" height="49.327" filterUnits="userSpaceOnUse">
      <feOffset input="SourceAlpha"/>
      <feGaussianBlur stdDeviation="0.5" result="blur-2"/>
      <feFlood flood-opacity="0.502"/>
      <feComposite operator="in" in2="blur-2"/>
      <feComposite in="SourceGraphic"/>
    </filter>
    <filter id="Path_2" x="1367.722" y="8164.375" width="16.687" height="17.582" filterUnits="userSpaceOnUse">
      <feOffset input="SourceAlpha"/>
      <feGaussianBlur stdDeviation="0.5" result="blur-3"/>
      <feFlood flood-opacity="0.502"/>
      <feComposite operator="in" in2="blur-3"/>
      <feComposite in="SourceGraphic"/>
    </filter>
    <filter id="Path_1-2" x="1367.234" y="8132.71" width="38.296" height="41.59" filterUnits="userSpaceOnUse">
      <feOffset input="SourceAlpha"/>
      <feGaussianBlur stdDeviation="0.5" result="blur-4"/>
      <feFlood flood-opacity="0.502"/>
      <feComposite operator="in" in2="blur-4"/>
      <feComposite in="SourceGraphic"/>
    </filter>
    <clipPath id="clip-path-3">
      <path id="Path_9" data-name="Path 9" class="cls-2" d="M3.765,0H31.531A3.765,3.765,0,0,1,35.3,3.765V23.057C28.547,32.209,23.5,38.59,23.5,38.59h-.387s-12.667-.1-15.533-.1a1.484,1.484,0,0,1-1.548-.641L0,31.62V3.765A3.765,3.765,0,0,1,3.765,0Z"/>
    </clipPath>
    <filter id="Path_4" x="1370.999" y="8136.004" width="30.766" height="34.531" filterUnits="userSpaceOnUse">
      <feOffset input="SourceAlpha"/>
      <feGaussianBlur stdDeviation="0.5" result="blur-5"/>
      <feFlood flood-opacity="0.502"/>
      <feComposite operator="in" in2="blur-5"/>
      <feComposite in="SourceGraphic"/>
    </filter>
    <clipPath id="clip-path-4">
      <path id="Path_10" data-name="Path 10" class="cls-2" d="M3.765,0H24a3.765,3.765,0,0,1,3.765,3.765v14.48c-5.628,7.331-10.127,13.286-10.127,13.286H3.765A3.765,3.765,0,0,1,0,27.766v-24A3.765,3.765,0,0,1,3.765,0Z"/>
    </clipPath>
    <filter id="rød" x="1351.423" y="8202.021" width="25.213" height="25.214" filterUnits="userSpaceOnUse">
      <feOffset input="SourceAlpha"/>
      <feGaussianBlur stdDeviation="0.5" result="blur-6"/>
      <feFlood flood-opacity="0.502"/>
      <feComposite operator="in" in2="blur-6"/>
      <feComposite in="SourceGraphic"/>
    </filter>
  </defs>
  <g id="icn_block_Large_motor" transform="translate(666.315 8209.204)">
    <g id="Symbol_13_1" data-name="Symbol 13 – 1" transform="translate(688.608 -83.464)">
      <g id="Mask_Group_12" data-name="Mask Group 12" class="cls-3">
        <g id="Mask_Group_6" data-name="Mask Group 6" class="cls-4" transform="translate(-2)">
          <g id="Large_motor" data-name="Large motor" transform="translate(-1.056 0)">
            <g id="Group_23" data-name="Group 23">
              <path id="Subtraction_1" data-name="Subtraction 1" class="cls-5" d="M-2806.659-5548.724h-3.653a3.558,3.558,0,0,1-3.554-3.554v-14.908a3.558,3.558,0,0,1,3.554-3.555h3.653a3.558,3.558,0,0,1,3.554,3.555v14.908A3.558,3.558,0,0,1-2806.659-5548.724Zm.1-5.923a2.47,2.47,0,0,0-2.468,2.467,2.471,2.471,0,0,0,2.468,2.469,2.471,2.471,0,0,0,2.468-2.469A2.47,2.47,0,0,0-2806.56-5554.647Zm.062-.99h.01a2.859,2.859,0,0,1,1.425.37c.112.054.238.116.378.176a.67.67,0,0,0,.267.063c.364,0,.427-.425.428-.429v-1.145s-.111-.449-.454-.449a.556.556,0,0,0-.241.063l-.211.1a2.988,2.988,0,0,1-1.591.4h-.023a4.281,4.281,0,0,1-1.831-.5.642.642,0,0,0-.262-.059c-.167,0-.392.077-.517.444,0,0-.011.628,0,1.145.007.32.3.388.537.388a1.414,1.414,0,0,0,.239-.021A4.678,4.678,0,0,1-2806.5-5555.637Zm-1.218-3.3h.006c.048,0,.469.012.469.422v.844s.136.2.639.2c.039,0,.079,0,.123,0a2.375,2.375,0,0,0,.914-.2v-.844a.437.437,0,0,1,.429-.422c.145,0,.287,0,.394,0,.22,0,.391,0,.42,0,.005,0,.168-.134.19-.861.021-.7-.165-.883-.186-.9h-.818c-.022,0-.524-.049-.532-.5-.006-.386,0-1.306,0-1.684v-.022a.326.326,0,0,1,.048-.21.1.1,0,0,1,.076-.033.219.219,0,0,1,.093.025l.79.379a.668.668,0,0,0,.256.062.255.255,0,0,0,.189-.07.4.4,0,0,0,.084-.292c-.008-.485,0-1.013,0-1.163v-.008a.214.214,0,0,0-.215-.179.654.654,0,0,0-.315.111,2.7,2.7,0,0,1-1.524.458c-.075.006-.151.009-.224.009a3.3,3.3,0,0,1-1.72-.468,1.044,1.044,0,0,0-.545-.253.225.225,0,0,0-.167.065.4.4,0,0,0-.087.255v1.171a.423.423,0,0,0,.451.4.709.709,0,0,0,.349-.1c.357-.2.564-.326.633-.366l.022-.013a.216.216,0,0,1,.088-.021c.067,0,.147.042.147.238v1.706a.578.578,0,0,1-.138.378.427.427,0,0,1-.319.121h-.018c-.136,0-.288,0-.449,0-.219,0-.384,0-.445,0,0,0-.2.165-.2.9,0,.717.184.855.192.861Zm1.156-10.815a2.471,2.471,0,0,0-2.468,2.469,2.47,2.47,0,0,0,2.468,2.467,2.47,2.47,0,0,0,2.468-2.467A2.471,2.471,0,0,0-2806.56-5569.753Z" transform="translate(2841.282 5625.42)"/>
            </g>
            <path id="Path_36" data-name="Path 36" class="cls-2" d="M.395,0H17.488a.4.4,0,0,1,.395.395V3.841a.4.4,0,0,1-.395.395H.395A.4.4,0,0,1,0,3.841V.395A.4.4,0,0,1,.395,0Z" transform="translate(26.751 0)"/>
            <g class="cls-18" transform="matrix(1, 0, 0, 1, -1351.87, -8125.74)">
              <path id="Path_34-2" data-name="Path 34" class="cls-2" d="M.395,0H20.782a.4.4,0,0,1,.395.395V9.958a.4.4,0,0,1-.395.395H.395A.4.4,0,0,1,0,9.958V.395A.4.4,0,0,1,.395,0Z" transform="translate(1376.73 8126.68)"/>
            </g>
            <g class="cls-17" transform="matrix(1, 0, 0, 1, -1351.87, -8125.74)">
              <path id="Path_1-3" data-name="Path 1" class="cls-5" d="M-.121,4,8.6-4.416,20.69-3.98,20.8,34.388c0,.545-.1.545-.3.74l-6.78,6.57-.138.124c-.38.26-1.293-.075-1.293-.62L-.368,27.722-.375,4.438C-.375,4.165-.283,4.176-.121,4Z" transform="translate(1362.25 8175.71)"/>
            </g>
            <g class="cls-16" transform="matrix(1, 0, 0, 1, -1351.87, -8125.74)">
              <path id="Path_2-2" data-name="Path 2" class="cls-2" d="M1484.037,521.285v11.229s.012.55.2.729,2.289,2.36,2.289,2.36a1.019,1.019,0,0,0,.753.262c.493-.016,7.567,0,7.567,0l2.883-3.057v-5.183l-6.94-.369Z" transform="translate(-114.81 7644.59)"/>
            </g>
            <g id="Group_4" data-name="Group 4" transform="translate(9.843 17.559)">
              <path id="Path_44" data-name="Path 44" class="cls-2" d="M3.554,0H7.207a3.554,3.554,0,0,1,3.554,3.554V18.462a3.554,3.554,0,0,1-3.554,3.554H3.554A3.554,3.554,0,0,1,0,18.462V3.554A3.554,3.554,0,0,1,3.554,0Z" transform="translate(0 0)"/>
              <ellipse id="Ellipse_3" data-name="Ellipse 3" class="cls-1" cx="2.468" cy="2.468" rx="2.468" ry="2.468" transform="translate(0.691 0.987)"/>
              <ellipse id="Ellipse_4" data-name="Ellipse 4" class="cls-1" cx="2.468" cy="2.468" rx="2.468" ry="2.468" transform="translate(0.691 16.092)"/>
              <path id="Path_5" data-name="Path 5" class="cls-1" d="M5607.868,939.1a2.7,2.7,0,0,1-1.524.459,3.338,3.338,0,0,1-1.945-.459c-.818-.606-.8.067-.8.067v1.172c0,.293.36.55.8.3s.654-.378.654-.378.235-.12.235.218v1.705s.013.512-.475.5-.9,0-.9,0-.191.161-.191.9.191.86.191.86h.9s.475-.016.475.422v.844s.147.234.761.2a2.341,2.341,0,0,0,.914-.2v-.844a.436.436,0,0,1,.43-.422c.41-.006.818,0,.818,0s.164-.124.187-.86-.187-.9-.187-.9h-.818s-.524-.034-.533-.5,0-1.705,0-1.705-.03-.335.216-.218l.791.378s.541.265.53-.3,0-1.172,0-1.172S5608.345,938.813,5607.868,939.1Z" transform="translate(-5602.81 -932.641)"/>
              <path id="Path_6" data-name="Path 6" class="cls-1" d="M5601.894,1015.1a.54.54,0,0,1,.778-.386,4.241,4.241,0,0,0,1.854.5,3.287,3.287,0,0,0,1.8-.5c.54-.263.695.386.695.386v1.145a.462.462,0,0,1-.695.365,3.768,3.768,0,0,0-1.8-.545,4.6,4.6,0,0,0-1.854.545s-.767.155-.778-.365S5601.894,1015.1,5601.894,1015.1Z" transform="translate(-5601.296 -1000.958)"/>
            </g>
            <g class="cls-15" transform="matrix(1, 0, 0, 1, -1351.87, -8125.74)">
              <path id="Path_1-4" data-name="Path 1" class="cls-2" d="M3.765,0H31.531A3.765,3.765,0,0,1,35.3,3.765V23.057C28.547,32.209,23.5,38.59,23.5,38.59h-.387s-12.667-.1-15.533-.1a1.484,1.484,0,0,1-1.548-.641L0,31.62V3.765A3.765,3.765,0,0,1,3.765,0Z" transform="translate(1368.73 8134.21)"/>
            </g>
            <g id="hvid" transform="translate(16.868 8.471)">
              <g id="Mask_Group_1" data-name="Mask Group 1" class="cls-6">
                <path id="hvid-2" data-name="hvid" class="cls-7" d="M1498.578,448.445l4.657,4.8,15.484,20.229v9.67l8.5-10.5V452.321l-.646-5.006Z" transform="translate(-1491.247 -448.708)"/>
              </g>
            </g>
            <g class="cls-14" transform="matrix(1, 0, 0, 1, -1351.87, -8125.74)">
              <path id="Path_4-2" data-name="Path 4" class="cls-2" d="M3.765,0H24a3.765,3.765,0,0,1,3.765,3.765v14.48c-5.628,7.331-10.127,13.286-10.127,13.286H3.765A3.765,3.765,0,0,1,0,27.766v-24A3.765,3.765,0,0,1,3.765,0Z" transform="translate(1372.5 8137.51)"/>
            </g>
            <g id="Group_3" data-name="Group 3" transform="translate(20.633 11.963)">
              <g id="Mask_Group_2" data-name="Mask Group 2" class="cls-8" transform="translate(0 0)">
                <path id="Union_1" data-name="Union 1" class="cls-9" d="M9.412,18.589V.706a.706.706,0,1,1,1.412,0V18.589a.706.706,0,1,1-1.412,0Zm-2.353,0V.706a.706.706,0,1,1,1.412,0V18.589a.706.706,0,1,1-1.412,0Zm-2.353,0V.706a.706.706,0,1,1,1.412,0V18.589a.706.706,0,1,1-1.412,0Zm-2.353,0V.706a.706.706,0,1,1,1.412,0V18.589a.706.706,0,1,1-1.412,0ZM0,18.589V.706a.706.706,0,1,1,1.412,0V18.589a.706.706,0,1,1-1.412,0Z" transform="translate(10.353 -3.492)"/>
              </g>
            </g>
            <ellipse id="Ellipse_1" data-name="Ellipse 1" class="cls-10" cx="1.461" cy="1.461" rx="1.461" ry="1.461" transform="translate(18.925 10.528)"/>
            <ellipse id="Ellipse_2" data-name="Ellipse 2" class="cls-10" cx="1.461" cy="1.461" rx="1.461" ry="1.461" transform="translate(37.584 43.404)"/>
            <g class="cls-13" transform="matrix(1, 0, 0, 1, -1351.87, -8125.74)">
              <ellipse id="rød-2" data-name="rød" class="cls-11" cx="11.107" cy="11.107" rx="11.107" ry="11.107" transform="translate(1352.92 8203.52)"/>
            </g>
            <g id="Group_2" data-name="Group 2" transform="matrix(0.966, 0.259, -0.259, 0.966, 5.162, 76.726)">
              <ellipse id="Ellipse_4-2" data-name="Ellipse 4" cx="2.468" cy="2.468" rx="2.468" ry="2.468" transform="translate(7.503 0)"/>
              <ellipse id="Ellipse_7" data-name="Ellipse 7" cx="2.468" cy="2.468" rx="2.468" ry="2.468" transform="translate(15.006 7.503)"/>
              <ellipse id="Ellipse_5" data-name="Ellipse 5" cx="2.468" cy="2.468" rx="2.468" ry="2.468" transform="translate(7.503 15.006)"/>
              <ellipse id="Ellipse_6" data-name="Ellipse 6" cx="2.468" cy="2.468" rx="2.468" ry="2.468" transform="translate(0 7.503)"/>
              <path id="Path_4-3" data-name="Path 4" class="cls-12" d="M1.564,1.019s.014.512-.475.5-.9,0-.9,0S0,1.68,0,2.421s.191.86.191.86h.9s.475-.016.475.422,0,.844,0,.844.147.234.761.2a2.339,2.339,0,0,0,.914-.2V3.7a.436.436,0,0,1,.43-.422c.41-.006.818,0,.818,0s.164-.124.187-.86-.187-.9-.187-.9H3.669s-.524-.034-.532-.5A8.122,8.122,0,0,1,3.179.2,1.884,1.884,0,0,0,1.646.138C1.595.533,1.564,1.019,1.564,1.019Z" transform="translate(7.602 12.277) rotate(-90)"/>
              <path id="Path_5-2" data-name="Path 5" d="M.3.1,1.312,0,2.369.1a.3.3,0,0,1,.3.3V1.779a.3.3,0,0,1-.3.3L1.36,1.939.3,2.075a.3.3,0,0,1-.3-.3V.4A.3.3,0,0,1,.3.1Z" transform="translate(8.618 5.261)"/>
              <path id="Path_7" data-name="Path 7" d="M.3.1,1.312,0,2.369.1a.3.3,0,0,1,.3.3V1.779a.3.3,0,0,1-.3.3L1.36,1.939.3,2.075a.3.3,0,0,1-.3-.3V.4A.3.3,0,0,1,.3.1Z" transform="translate(5.26 11.285) rotate(-90)"/>
              <path id="Path_6-2" data-name="Path 6" d="M.3.1,1.312,0,2.369.1a.3.3,0,0,1,.3.3V1.779a.3.3,0,0,1-.3.3L1.36,1.939.3,2.075a.3.3,0,0,1-.3-.3V.4A.3.3,0,0,1,.3.1Z" transform="translate(11.284 14.642) rotate(180)"/>
              <path id="Path_8" data-name="Path 8" d="M.3.1,1.312,0,2.369.1a.3.3,0,0,1,.3.3V1.779a.3.3,0,0,1-.3.3L1.36,1.939.3,2.075a.3.3,0,0,1-.3-.3V.4A.3.3,0,0,1,.3.1Z" transform="translate(14.641 8.619) rotate(90)"/>
            </g>
          </g>
        </g>
      </g>
    </g>
  </g>
</svg>
