<svg xmlns="http://www.w3.org/2000/svg" xmlns:xlink="http://www.w3.org/1999/xlink" viewBox="1306.936 8729.215 61.393 44.083">
  <defs>
    <style>
      .cls-1 {
        fill: #d5277e;
      }

      .cls-2 {
        fill: #a8a9a8;
      }

      .cls-3 {
        clip-path: url(#clip-path);
      }

      .cls-4 {
        clip-path: url(#clip-path-2);
      }

      .cls-11, .cls-5 {
        fill: #9a9a9a;
      }

      .cls-6 {
        fill: #f2f2f2;
      }

      .cls-7 {
        opacity: 0.6;
        fill: url(#linear-gradient);
      }

      .cls-8 {
        fill: url(#linear-gradient-2);
      }

      .cls-9 {
        fill: #b72b1c;
      }

      .cls-10, .cls-11 {
        stroke: none;
      }

      .cls-12 {
        filter: url(#Path_12);
      }
    </style>
    <clipPath id="clip-path">
      <path id="Path_88" data-name="Path 88" class="cls-1" d="M1162.538,3051.215l1.79,38.862h-31.593l-5.221,5.221h-11.692l-5.221-5.221h-7.666l1.729-38.862Z" transform="translate(-1124.637 -3056.569)"/>
    </clipPath>
    <clipPath id="clip-path-2">
      <path id="Union_7" data-name="Union 7" class="cls-2" d="M6.318,39.688a6.076,6.076,0,0,1-1.291-.3H2.271A1.283,1.283,0,0,1,.987,38.108V35.147H.494A.494.494,0,0,1,0,34.653V4.542a.494.494,0,0,1,.494-.494H.987V1.284A1.283,1.283,0,0,1,2.271,0h8.237V.395h2.226V0h8.3a1.284,1.284,0,0,1,1.284,1.284V4.048H22.9a.494.494,0,0,1,.494.494V34.653a.494.494,0,0,1-.494.493h-.592v2.962a1.284,1.284,0,0,1-1.284,1.283h-2.7c-.111.2-1.244.3-1.451.3Z"/>
    </clipPath>
    <filter id="Path_12" x="1328.499" y="8733.444" width="23.575" height="33.349" filterUnits="userSpaceOnUse">
      <feOffset input="SourceAlpha"/>
      <feGaussianBlur stdDeviation="0.375" result="blur"/>
      <feFlood flood-opacity="0.502"/>
      <feComposite operator="in" in2="blur"/>
      <feComposite in="SourceGraphic"/>
    </filter>
    <linearGradient id="linear-gradient" x1="0.5" x2="0.5" y2="1" gradientUnits="objectBoundingBox">
      <stop offset="0" stop-color="#fff" stop-opacity="0"/>
      <stop offset="1" stop-color="#404040"/>
    </linearGradient>
    <linearGradient id="linear-gradient-2" x1="0.5" x2="0.5" y2="1" gradientUnits="objectBoundingBox">
      <stop offset="0" stop-color="#fff"/>
      <stop offset="1" stop-color="gray"/>
    </linearGradient>
  </defs>
  <g id="icn_block_gyro" transform="translate(666.315 8209.204)">
    <g id="Mask_Group_11" data-name="Mask Group 11" class="cls-3" transform="translate(662.322 525.366)">
      <g id="Group_16" data-name="Group 16">
        <g id="Mask_Group_7" data-name="Mask Group 7" class="cls-4" transform="translate(0 0)">
          <g id="Group_9" data-name="Group 9" transform="translate(0 0)">
            <path id="Path_29" data-name="Path 29" class="cls-2" d="M.494,0H22.9A.494.494,0,0,1,23.4.494V30.605a.494.494,0,0,1-.494.494H.494A.494.494,0,0,1,0,30.605V.494A.494.494,0,0,1,.494,0Z" transform="translate(0 4.048)"/>
            <rect id="Rectangle_11" data-name="Rectangle 11" class="cls-5" width="3.752" height="10.268" transform="translate(9.774 0.395)"/>
            <g class="cls-12" transform="matrix(1, 0, 0, 1, -1328.64, -8734.57)">
              <path id="Path_12-2" data-name="Path 12" class="cls-2" d="M1.283,0H9.52V10.424l2.226-.163V0h8.3a1.283,1.283,0,0,1,1.283,1.283V29.815A1.283,1.283,0,0,1,20.041,31.1H1.283A1.283,1.283,0,0,1,0,29.815V1.283A1.283,1.283,0,0,1,1.283,0Z" transform="translate(1329.62 8734.57)"/>
            </g>
            <g id="hvid" transform="translate(0.987 19.252)">
              <g id="hvid-2" data-name="hvid" transform="translate(0)">
                <path id="Path_57" data-name="Path 57" class="cls-6" d="M.79,0H20.535a.79.79,0,0,1,.79.79V18.857a1.283,1.283,0,0,1-1.283,1.283H1.283A1.283,1.283,0,0,1,0,18.857V.79A.79.79,0,0,1,.79,0Z" transform="translate(0)"/>
                <path id="Path_59" data-name="Path 59" class="cls-7" d="M0,0H21.325V1.975a1.283,1.283,0,0,1-1.283,1.283H1.283A1.283,1.283,0,0,1,0,1.975Z" transform="translate(0 16.882)"/>
              </g>
              <g id="Path_1" data-name="Path 1" class="cls-8" transform="translate(15.935 18.955)">
                <path class="cls-10" d="M -0.03972615301609039 1.355897426605225 L -10.6034460067749 1.355897426605225 C -10.8238697052002 1.355897426605225 -11.76168155670166 1.143560767173767 -12.02564239501953 0.9932262897491455 L -11.25642585754395 0.3544974625110626 C -11.06739616394043 0.1967574656009674 -10.78548622131348 0.1249974593520164 -10.6034460067749 0.1249974593520164 L -0.03972615301609039 0.1249974593520164 C 0.08689384907484055 0.1249974593520164 0.1953838467597961 0.221777468919754 0.3209938406944275 0.3338374495506287 C 0.3559758961200714 0.3650458753108978 0.3912657201290131 0.3964739441871643 0.4275123476982117 0.4264010488986969 L 1.240363001823425 1.159494996070862 C 0.997438907623291 1.265054941177368 0.2347392439842224 1.355897426605225 -0.03972615301609039 1.355897426605225 Z"/>
                <path class="cls-11" d="M -0.03972615301609039 1.230897426605225 C 0.1518102586269379 1.230897426605225 0.6746260523796082 1.174463033676147 0.9910745024681091 1.102993011474609 L 0.3458296954631805 0.5210594534873962 C 0.3090922832489014 0.490643322467804 0.2732802927494049 0.4587787985801697 0.2377838492393494 0.4271174669265747 C 0.1312438398599625 0.3320774734020233 0.03924384713172913 0.249997466802597 -0.03972615301609039 0.249997466802597 L -10.6034460067749 0.249997466802597 C -10.76875591278076 0.249997466802597 -11.01853656768799 0.3187874555587769 -11.1765661239624 0.4506674706935883 L -11.78844928741455 0.9587525725364685 C -11.43126487731934 1.086030006408691 -10.7613353729248 1.230897426605225 -10.6034460067749 1.230897426605225 L -0.03972615301609039 1.230897426605225 M -0.03972615301609039 1.480897426605225 L -10.6034460067749 1.480897426605225 C -10.82154655456543 1.480897426605225 -12.20312595367432 1.196227431297302 -12.20312595367432 0.9781274795532227 L -11.33627605438232 0.258327454328537 C -11.12889575958252 0.08526746183633804 -10.82154655456543 -2.538394937801058e-06 -10.6034460067749 -2.538394937801058e-06 L -0.03972615301609039 -2.538394937801058e-06 C 0.1783738434314728 -2.538394937801058e-06 0.3312638401985168 0.1853174567222595 0.5091438293457031 0.3316974639892578 L 1.42017388343811 1.153337478637695 C 1.42017388343811 1.371437430381775 0.1783738434314728 1.480897426605225 -0.03972615301609039 1.480897426605225 Z"/>
              </g>
            </g>
            <g id="red_things" data-name="red things" transform="translate(2.962 5.529)">
              <ellipse id="red_dot" data-name="red dot" class="cls-9" cx="1.975" cy="1.975" rx="1.975" ry="1.975" transform="translate(6.713 3.85)"/>
              <path id="red_arrow_1" data-name="red arrow 1" class="cls-9" d="M3121.088-1937.325a6.718,6.718,0,0,1-.494-7.01c.151.093.443.226.592.3.42.239.482-.2.4-.494l-.79-2.468-2.468.691a.939.939,0,0,0-.3.1c-.129.082-.24.258,0,.395l.691.395a8.146,8.146,0,0,0,.691,9.28C3120.449-1936.882,3121.088-1937.325,3121.088-1937.325Z" transform="translate(-3117.592 1947)"/>
              <path id="red_arrow_2" data-name="red arrow 2" class="cls-9" d="M3118.12-1937.325a6.718,6.718,0,0,0,.493-7.01c-.151.093-.443.226-.592.3-.42.239-.482-.2-.395-.494l.79-2.468,2.468.691a.943.943,0,0,1,.3.1c.128.082.24.258,0,.395l-.691.395a8.147,8.147,0,0,1-.691,9.28C3118.758-1936.882,3118.12-1937.325,3118.12-1937.325Z" transform="translate(-3104.259 1947)"/>
            </g>
          </g>
        </g>
      </g>
    </g>
  </g>
</svg>
