<?xml version="1.0" standalone="no"?>
<!DOCTYPE svg PUBLIC "-//W3C//DTD SVG 20010904//EN"
 "http://www.w3.org/TR/2001/REC-SVG-20010904/DTD/svg10.dtd">
<svg version="1.0" xmlns="http://www.w3.org/2000/svg"
 width="326.000000pt" height="326.000000pt" viewBox="0 0 326.000000 326.000000"
 preserveAspectRatio="xMidYMid meet">
<metadata>
Created by potrace 1.11, written by Peter Selinger 2001-2013
</metadata>
<g transform="translate(0.000000,326.000000) scale(0.100000,-0.100000)"
fill="#000000" stroke="none">
<path d="M1535 3046 c-5 -2 -35 -9 -65 -16 -30 -7 -69 -23 -85 -36 -38 -30
-29 -49 37 -81 131 -64 395 -46 468 32 l22 23 -39 26 c-53 35 -134 53 -239 54
-49 1 -93 -1 -99 -2z"/>
<path d="M1122 2799 l-64 -30 56 -41 c74 -54 87 -92 93 -269 5 -129 4 -139
-20 -190 -97 -213 -600 -265 -788 -82 -38 37 -49 55 -58 101 -6 30 -11 75 -11
98 0 24 -4 45 -9 48 -8 5 -228 -88 -243 -102 -3 -4 78 -58 180 -121 295 -181
588 -360 987 -606 204 -125 375 -228 381 -228 6 0 154 87 330 193 175 107 330
200 344 208 14 7 165 98 335 202 171 103 365 221 432 262 67 40 119 76 115 79
-18 18 -236 109 -242 102 -4 -4 -10 -37 -13 -73 -10 -105 -22 -134 -79 -184
-29 -25 -57 -46 -64 -46 -7 0 -33 -9 -58 -20 -39 -16 -128 -31 -201 -34 -62
-2 -186 18 -248 41 -106 38 -171 87 -204 152 -24 48 -27 63 -24 145 6 224 14
253 93 316 l57 45 -71 33 c-39 17 -74 32 -78 32 -5 0 -8 -19 -7 -43 2 -78 -21
-134 -72 -177 -153 -132 -500 -137 -674 -9 -39 28 -50 44 -65 93 -11 33 -19
77 -18 98 2 47 -6 47 -92 7z m729 -454 c163 -53 253 -149 252 -270 -1 -268
-14 -325 -95 -396 -38 -33 -77 -55 -138 -78 -74 -26 -203 -49 -250 -44 -8 1
-46 5 -85 8 -105 10 -220 56 -288 117 -74 66 -87 106 -92 293 -4 128 -2 145
18 195 29 69 110 135 212 170 92 31 138 37 271 35 90 -2 127 -8 195 -30z"/>
<path d="M1619 2246 c-2 -2 -33 -7 -69 -10 -91 -10 -176 -43 -222 -87 -46 -43
-45 -64 3 -115 27 -28 112 -66 179 -79 36 -8 188 -8 230 -1 120 20 220 82 220
137 0 65 -118 130 -260 145 -36 3 -68 8 -71 10 -3 2 -8 2 -10 0z"/>
<path d="M1297 1873 c-3 -2 -1 -18 5 -35 68 -194 612 -185 653 11 7 31 5 33
-11 26 -193 -80 -377 -88 -561 -25 -45 16 -84 26 -86 23z"/>
<path d="M1350 2775 c0 -68 96 -119 240 -128 144 -9 288 34 309 94 13 39 -1
45 -59 24 -112 -40 -311 -38 -432 4 -47 16 -58 17 -58 6z"/>
<path d="M680 2674 c-99 -19 -210 -72 -223 -108 -10 -25 31 -64 91 -87 75 -28
256 -35 335 -13 107 32 177 77 177 115 0 22 -42 53 -101 74 -44 16 -229 28
-279 19z"/>
<path d="M2448 2675 c-2 -2 -30 -5 -63 -8 -99 -8 -184 -54 -185 -99 0 -26 74
-75 149 -99 96 -30 262 -31 352 0 66 21 90 39 102 73 16 46 -149 121 -285 131
-37 2 -69 3 -70 2z"/>
<path d="M1050 2380 c-34 -19 -149 -52 -200 -58 -121 -14 -268 -4 -332 23 -48
19 -48 19 -48 -9 0 -35 37 -71 101 -97 45 -18 74 -22 174 -22 101 -1 130 3
185 23 78 28 125 61 138 99 12 33 3 53 -18 41z"/>
<path d="M2184 2363 c2 -16 7 -36 11 -45 13 -32 112 -84 200 -104 11 -3 65 -5
120 -6 154 -1 253 41 271 116 6 26 5 28 -12 22 -87 -34 -252 -48 -364 -32 -51
8 -161 42 -202 63 -27 13 -28 13 -24 -14z"/>
<path d="M11 2146 c4 -31 10 -88 14 -128 4 -40 9 -80 10 -89 2 -9 6 -40 10
-70 6 -55 32 -266 40 -329 5 -36 11 -93 20 -177 3 -27 8 -65 11 -85 5 -35 28
-53 716 -553 391 -284 712 -514 715 -512 2 3 6 237 7 521 2 369 0 520 -8 530
-9 11 -465 295 -576 358 -19 11 -47 29 -62 39 -14 11 -31 19 -37 19 -6 0 -11
4 -11 8 0 5 -12 14 -27 21 -14 7 -49 27 -77 45 -52 34 -467 288 -515 316 -14
8 -68 41 -120 73 -126 79 -119 78 -110 13z"/>
<path d="M2816 1930 c-236 -143 -431 -260 -433 -260 -3 0 -17 -8 -31 -19 -15
-10 -166 -103 -337 -206 -170 -103 -313 -191 -316 -196 -7 -13 -12 -1049 -4
-1049 4 0 382 267 500 354 11 8 135 96 275 196 140 100 262 186 270 193 8 7
94 68 190 136 96 68 180 128 187 135 10 9 28 108 38 214 2 18 6 45 9 60 3 15
8 52 11 82 4 30 11 87 16 125 5 39 12 88 15 110 2 22 7 56 9 76 3 20 8 56 10
80 3 24 7 60 10 79 10 67 17 150 14 150 -2 0 -197 -117 -433 -260z"/>
</g>
</svg>
