<?xml version="1.0" encoding="UTF-8" standalone="no"?>
<svg
   xmlns:dc="http://purl.org/dc/elements/1.1/"
   xmlns:cc="http://creativecommons.org/ns#"
   xmlns:rdf="http://www.w3.org/1999/02/22-rdf-syntax-ns#"
   xmlns:svg="http://www.w3.org/2000/svg"
   xmlns="http://www.w3.org/2000/svg"
   xmlns:sodipodi="http://sodipodi.sourceforge.net/DTD/sodipodi-0.dtd"
   xmlns:inkscape="http://www.inkscape.org/namespaces/inkscape"
   id="svg10"
   width="236.9"
   height="56.7"
   version="1.1"
   sodipodi:docname="lego-logo-white.svg"
   inkscape:export-filename="C:\gh\pxt-ev3\docs\static\lego_education_logo_white.png"
   inkscape:export-xdpi="138.33701"
   inkscape:export-ydpi="138.33701"
   inkscape:version="0.92.1 r15371">
  <metadata
     id="metadata54">
    <rdf:RDF>
      <cc:Work
         rdf:about="">
        <dc:format>image/svg+xml</dc:format>
        <dc:type
           rdf:resource="http://purl.org/dc/dcmitype/StillImage" />
      </cc:Work>
    </rdf:RDF>
  </metadata>
  <sodipodi:namedview
     pagecolor="#ffffff"
     bordercolor="#666666"
     borderopacity="1"
     objecttolerance="10"
     gridtolerance="10"
     guidetolerance="10"
     inkscape:pageopacity="0"
     inkscape:pageshadow="2"
     inkscape:window-width="1600"
     inkscape:window-height="837"
     id="namedview52"
     showgrid="false"
     inkscape:zoom="4.8374843"
     inkscape:cx="118.45"
     inkscape:cy="28.35"
     inkscape:window-x="-8"
     inkscape:window-y="-8"
     inkscape:window-maximized="1"
     inkscape:current-layer="svg10" />
  <defs
     id="defs14">
    <clipPath
       id="clipPath26">
      <path
         d="M332 275.6h177.7v42.5H332z"
         id="path24" />
    </clipPath>
    <clipPath
       id="clipPath76">
      <path
         d="M332 275.6h177.7v42.5H332z"
         id="path74" />
    </clipPath>
  </defs>
  <g
     id="g18"
     transform="matrix(1.33333 0 0 -1.33333 0 56.7)"
     inkscape:export-xdpi="138.33701"
     inkscape:export-ydpi="138.33701">
    <g
       id="g130"
       transform="translate(-332 -275.6)">
      <g
         id="g20">
        <g
           clip-path="url(#clipPath26)"
           id="g22">
          <g
             transform="translate(387.6 297.7)"
             id="g28">
            <path
               id="path30"
               d="M0 0h6.3c0 1.4-.2 2.2-.5 2.6-.4.3-1.3.5-2.7.5C1.7 3 .8 2.9.5 2.5.2 2 0 1.3 0 0m6.3-4.1h3.4c0-2-.6-3.3-1.8-4-.8-.4-2.4-.6-4.8-.6-2.6 0-4.4.5-5.3 1.6-.8 1-1.2 2.8-1.2 5.5S-3 3-2.2 4C-1.4 5.1.4 5.7 3 5.7 6 5.7 7.8 5 8.6 4c.7-1 1.1-3 1.1-6.2H0c0-1.7.1-2.7.4-3.2.4-.6 1.3-.8 2.7-.8 1.2 0 2 0 2.3.2.6.3 1 .9 1 1.8"
               fill="#fff" />
          </g>
          <g
             transform="translate(406.4 300.7)"
             id="g32">
            <path
               id="path34"
               d="M0 0c-1.4 0-2.2-.4-2.6-1.1a7 7 0 0 1-.5-3c0-2 .2-3.3.4-3.8.4-.9 1.3-1.3 2.7-1.3 1.6 0 2.6.4 3 1.2.3.6.4 1.8.4 3.8a7 7 0 0 1-.5 3.1C2.4-.4 1.5 0 0 0m3.4-11.7v2.2C2.7-11 1.2-11.8-1-11.8c-2.4 0-4 .7-4.7 2.2-.5 1-.7 2.7-.7 5.4 0 2.3.3 4 .9 5C-4.8 2-3.3 2.5-1 2.5s3.7-.7 4.2-2h.2v7.9h3.3v-20.2z"
               fill="#fff" />
          </g>
          <g
             transform="translate(428.8 289)"
             id="g36">
            <path
               id="path38"
               d="M0 0h-3.3v2.2C-4 .6-5.6-.1-7.9-.1c-3.2 0-4.8 1.3-4.8 4v10.2h3.4V5.2c0-1 .1-1.8.4-2.1.3-.4 1-.7 2-.7 1.2 0 2.1.3 2.6.9.5.5.8 1.4.8 2.7v8H0z"
               fill="#fff" />
          </g>
          <g
             transform="translate(441 294.4)"
             id="g40">
            <path
               id="path42"
               d="M0 0h3.4c0-2.3-.5-3.8-1.6-4.6-.8-.6-2.4-1-4.8-1-2.7 0-4.4.6-5.2 1.7-.8 1-1.1 2.8-1.1 5.6 0 2.7.3 4.5 1 5.4C-7.3 8.3-5.6 9-3 9c2.3 0 3.9-.3 4.8-1 1-.6 1.6-2 1.6-4.1H0c0 1-.2 1.8-.7 2-.4.4-1.2.5-2.3.5-1.4 0-2.3-.3-2.6-1-.2-.5-.4-1.7-.4-3.6 0-2 .1-3.2.4-3.6.3-.7 1.2-1 2.6-1 1.3 0 2 .1 2.4.5.4.3.6 1.1.6 2.4"
               fill="#fff" />
          </g>
          <g
             transform="translate(452.8 295.4)"
             id="g44">
            <path
               id="path46"
               d="M0 0c-1.1 0-1.8 0-2.2-.2-.6-.3-1-1-1-1.8 0-1 .3-1.6.8-1.8.4-.3 1.2-.4 2.4-.4 1.1 0 1.8.1 2.2.3.6.3 1 1 1 1.9 0 .9-.4 1.4-1 1.7A6 6 0 0 1 0 0m3.1-6.3l.1 1.7c-.3-.8-1-1.3-1.9-1.6-.5-.2-1.4-.3-2.5-.3-1.8 0-3.1.3-4 .9C-6-5-6.4-3.8-6.4-2-6.5-.3-6 .8-5 1.5c.7.5 2 .8 3.8.8 1.1 0 2 0 2.5-.2C2 1.8 2.7 1.4 3 .7h.1v1.8c0 1.2-.1 2-.4 2.4-.4.5-1.3.7-2.6.7-.9 0-1.5 0-1.9-.3-.5-.3-.7-.8-.7-1.7H-6c0 1.9.6 3.1 1.8 3.7.8.4 2.2.6 4.2.6 2.4 0 4-.3 4.9-1 1-.7 1.5-2.2 1.5-4.4v-8.8z"
               fill="#fff" />
          </g>
          <g
             transform="translate(460.9 300.6)"
             id="g48">
            <path
               id="path50"
               d="M0 0v2.6h1.8v3.2H5V2.6h5.5V0H5v-7.2c0-.7 0-1.2.2-1.4.2-.3.6-.5 1.3-.5.8 0 1.3.3 1.5 1l.2 2h3c0-2-.3-3.4-.8-4.2-.7-.9-2-1.4-3.9-1.4-1.8 0-3 .3-3.7.9-.8.6-1.1 1.8-1.1 3.6V0z"
               fill="#fff" />
          </g>
          <path
             id="path52"
             d="M478.2 289h-3.4v14.2h3.4zm0 17.3h-3.4v3h3.4z"
             fill="#fff" />
          <g
             transform="translate(487.5 300.7)"
             id="g54">
            <path
               id="path56"
               d="M0 0c-1.4 0-2.4-.3-2.8-1-.3-.4-.5-1.7-.5-3.6 0-2 .2-3.2.5-3.7.4-.6 1.3-1 2.8-1 1.5 0 2.4.4 2.8 1 .3.5.5 1.7.5 3.7S3-1.4 2.8-1C2.4-.3 1.5 0 0 0m0 2.6C2.8 2.6 4.7 2 5.5 1c.8-.9 1.1-2.7 1.1-5.6 0-2.9-.3-4.8-1-5.6-1-1-2.8-1.6-5.6-1.6s-4.7.5-5.5 1.6c-.8.8-1.1 2.7-1.1 5.6 0 2.9.3 4.7 1 5.6 1 1 2.8 1.6 5.6 1.6"
               fill="#fff" />
          </g>
          <g
             transform="translate(497 303.2)"
             id="g58">
            <path
               id="path60"
               d="M0 0h3.4v-2.1A3 3 0 0 0 5.3-.2C6 0 6.7 0 8 0c1.8 0 3-.3 3.8-1 .7-.9 1-2.1 1-4v-9H9.4v9c0 1-.2 1.7-.6 2-.3.5-1 .7-2 .7-1.4 0-2.4-.4-2.8-1-.4-.6-.6-1.5-.6-3V-14H0z"
               fill="#fff" />
          </g>
          <path
             id="path62"
             d="M384.5 316.4h125.2v1.7H384.5z"
             fill="#006cb6" />
          <path
             id="path64"
             d="M384.5 275.6H471v1.7h-86.5z"
             fill="#006cb6" />
          <path
             id="path66"
             d="M482.3 275.6h27.4v1.7h-27.4z"
             fill="#006cb6" />
        </g>
      </g>
      <path
         id="path68"
         d="M332.3 275.9h42v42h-42z"
         fill="#fff" />
      <g
         id="g70">
        <g
           clip-path="url(#clipPath76)"
           id="g72">
          <g
             transform="translate(371.5 300.4)"
             id="g78">
            <path
               id="path80"
               d="M0 0c0-1.3-.5-3-.9-4C-2.3-8.4-4-11.1-8-11.1c-1.2 0-3.2.3-4 2.4l-.2.5-.3-.5a6.5 6.5 0 0 0-5-2.4c-1.6 0-2.8.5-3.6 1.4l-.2.3-.2-.3c-.8-.9-2.3-1.4-4-1.4-1.4 0-2.5.4-3.3 1.3l-.2.2-.2-.2c-.8-.9-2.2-1.3-3.9-1.3-2 0-3.2 1.2-3.3 3 0 3 2.7 9 3.9 10.8a3.4 3.4 0 0 0 3.1 1.8c1 0 1.6-.2 2-.6.3-.4.4-.7.4-1.4v-1l.5.9c1.2 2 3.3 2.2 5.3 2.2 1.3 0 2.6-.5 3-1.3l.2-.3.3.2a6 6 0 0 0 4 1.4c1.8 0 3.1-.5 3.9-1.3l.4-.7.2-.4.3.3c1.1 1.4 2.6 2 4.5 2 1.5 0 2.6-.4 3.4-1.2C0 2.3 0 1 0 0m-39.2-24.5h42v42h-42z"
               fill="#ffed00" />
          </g>
          <g
             transform="translate(372.7 298.8)"
             id="g82">
            <path
               id="path84"
               d="M0 0a24 24 0 0 0-1.8-5.5c-1.4-3-3.4-5.3-7.2-5.3-2 0-3.7.6-4.7 1.8a7.6 7.6 0 0 0-5-1.9 6 6 0 0 0-3.8 1.2 7.3 7.3 0 0 0-7.7 0 7 7 0 0 0-4-1.1C-37-10.8-39-9-39-6.5c0 3.3 2.7 9.4 4 11.5a5 5 0 0 0 4.4 2.4c2 0 2.7-.5 3-1.3 1.6 1.4 3.6 1.4 5 1.4 1.7 0 2.7-.4 3.5-1 1.2.6 2.6 1 4.2 1 2 0 3.6-.5 4.7-1.5a7 7 0 0 0 4.6 1.5c2.3 0 3.8-.9 4.7-2.1C.5 3.6.2 1.9 0 0m-40.3-22.9h42v42h-42z"
               fill="#e20614" />
          </g>
          <path
             id="path86"
             d="M374 276.2h-41.4v41.3H374zm-42-.6h42.6v42.5H332z"
             fill="#1c1c1b" />
          <g
             transform="translate(372.7 306.3)"
             id="g88">
            <path
               id="path90"
               d="M0 0a1 1 0 0 1-1-1c0-.6.4-1 1-1s1 .4 1 1C1-.5.6 0 0 0m0-.2a.8.8 0 1 0 0-1.6.8.8 0 0 0 0 1.6m.5-1.4l-.1.3-.2.2.3.3c0 .2-.2.3-.4.3h-.5v-1h.2v.4H0l.2-.3v-.2zm-.7.7v.2H0l.2-.1L0-.9z"
               fill="#1c1c1b" />
          </g>
          <g
             transform="translate(367.4 300.5)"
             id="g92">
            <path
               id="path94"
               d="M0 0c0-1-1.6-5.4-2.2-6.4-.2-.4-.5-.7-1-.7s-.6.3-.7.6c0 1 1.8 6 2.4 6.7.3.4.6.5 1 .5C0 .7 0 .3 0 0m2.9-1.8c-.4-1.8-1.2-3.9-2-5.5-1.5-2.6-3.2-3-4.8-3-1.5 0-3.2.7-3.2 3 0 1.7.7 4 1.3 5.7 1 2.8 2.2 5.1 5.7 5 4 0 3.3-3.6 3-5.2m-13 2.5c-.5 0-.9-.3-1.2-.7-.6-1-2-4.5-2.2-6-.1-1 .3-1.1.8-1.1.7 0 1.6.8 1.9 2.1 0 0-1.5 0-1 1.3.3 1.3 1 1.5 2.2 1.6 2.4 0 2.2-1.7 2-2.6-.6-3-2.8-5.5-5.9-5.5-2 0-3.4 1.1-3.4 3.3 0 1.5.8 3.9 1.4 5.3 1.3 3 2.6 5 6 5 2 0 3.7-.7 3.5-2.6-.2-1.4-1-2.2-2.2-2.3-.4 0-1.8 0-1.3 1.4.1.5.2.8-.5.8m-10.7-5.2l-.6-2a7 7 0 0 0 2 .2c1.1 0 1.8-.4 1.8-1.3 0-2-2.3-2.6-3.9-2.6-1.7 0-3.2 1-3.2 2.8A21 21 0 0 0-22.3.4c1.4 2.8 2.8 3.1 5.2 3.1 1.1 0 2.3-.4 2.3-1.4 0-1.4-1.2-2-2.3-2H-19s-.4-.6-.8-1.7c2.2.3 3.1-.2 2.8-1.5-.5-1.7-2-1.8-3.8-1.4m-7-2c2.2.4 2.7-.4 2.6-1.1-.2-2.2-2.1-2.6-3.8-2.6-1.2 0-2.3.6-2.4 2 0 2.5 2.5 8.3 3.7 10.2.6 1 1.3 1.4 2.3 1.4 1 0 1.3-.5 1.3-1.1 0-1.7-2.8-6.8-3.6-8.8M-.3 4.7a6 6 0 0 1-4.7-2l-.5.7c-.9 1-2.2 1.4-4 1.4-1.8 0-3.3-.6-4.3-1.4-.5.8-1.8 1.4-3.3 1.4-2 0-4.2-.3-5.5-2.4 0 .8-.1 1.2-.5 1.6-.6.6-1.4.7-2.2.7-1.5 0-2.6-.6-3.4-2-1.1-1.8-4-7.9-3.9-10.8 0-2 1.3-3.3 3.6-3.4 1.8 0 3.2.5 4.1 1.4.8-.9 2-1.4 3.5-1.4 1.6 0 3.2.5 4.2 1.6.8-1 2.1-1.6 3.8-1.6 2.1 0 4 1 5.2 2.6.7-1.9 2.4-2.6 4.3-2.6 4.1 0 6 2.8 7.4 7.3.4 1 .8 2.7.9 4.1.1 2.4-.9 4.8-4.7 4.8"
               fill="#1c1c1b" />
          </g>
        </g>
      </g>
    </g>
  </g>
</svg>
