<?xml version="1.0" encoding="utf-8"?>
<!-- Generator: Adobe Illustrator 22.0.1, SVG Export Plug-In . SVG Version: 6.00 Build 0)  -->
<svg version="1.1"
	 id="svg2" inkscape:version="0.91 r13725" sodipodi:docname="avatar.svg" xmlns:cc="http://creativecommons.org/ns#" xmlns:dc="http://purl.org/dc/elements/1.1/" xmlns:inkscape="http://www.inkscape.org/namespaces/inkscape" xmlns:rdf="http://www.w3.org/1999/02/22-rdf-syntax-ns#" xmlns:sodipodi="http://sodipodi.sourceforge.net/DTD/sodipodi-0.dtd" xmlns:svg="http://www.w3.org/2000/svg"
	 xmlns="http://www.w3.org/2000/svg" xmlns:xlink="http://www.w3.org/1999/xlink" x="0px" y="0px" viewBox="0 0 32 32"
	 style="enable-background:new 0 0 32 32;" xml:space="preserve">
<style type="text/css">
	.st0{fill:#303030;}
</style>
<sodipodi:namedview  bordercolor="#666666" borderopacity="1" gridtolerance="10" guidetolerance="10" id="namedview15" inkscape:current-layer="svg2" inkscape:cx="16" inkscape:cy="16" inkscape:pageopacity="0" inkscape:pageshadow="2" inkscape:window-height="661" inkscape:window-maximized="0" inkscape:window-width="997" inkscape:window-x="0" inkscape:window-y="0" inkscape:zoom="5.2149125" objecttolerance="10" pagecolor="#ffffff" showgrid="false">
	</sodipodi:namedview>
<g id="avatar_mf" transform="translate(-5304.979 8145.745)">
	<path id="Path_180" class="st0" d="M5317.1-8125.6c0.2,0,0.3-0.1,0.5-0.1l2.9-0.6c1.3-0.3,2.5-0.5,3.8-0.8c0.5-0.1,1-0.2,1.5-0.3
		c0.1,0,0.1,0,0.1-0.1c0-0.5,0-1-0.1-1.5c-0.1-0.6-0.2-1.1-0.3-1.7c-0.1-0.4-0.1-0.8-0.2-1.2c-0.1-0.7-0.2-1.4-0.3-2
		c-0.1-0.6-0.2-1.1-0.3-1.7c0-0.2-0.2-0.4-0.4-0.4c0,0,0,0-0.1,0c-0.2,0-0.5,0.1-0.7,0.1c-0.5,0.1-1,0.1-1.5,0.2
		c-0.5,0.1-1,0.1-1.6,0.2c-0.5,0.1-1,0.1-1.4,0.2c-0.2,0-0.3,0-0.5,0.1c-0.2,0-0.4,0.2-0.5,0.4c0,0.2-0.1,0.4-0.1,0.5
		c0,0.4-0.1,0.8-0.1,1.2c-0.1,0.5-0.1,1-0.2,1.5c0,0.4-0.1,0.9-0.1,1.3l-0.1,1.3l-0.1,1.3c-0.1,0.5-0.1,1-0.2,1.5
		C5317.1-8126,5317.1-8125.8,5317.1-8125.6z"/>
	<path id="Path_181" class="st0" d="M5316.1-8140c0,0.6,0.1,1.2,0.1,1.8c0,0.4,0.2,0.8,0.6,1c0.3,0.2,0.7,0.3,1.1,0.3
		c0.7,0.1,1.4,0.1,2.1,0c0.6,0,1.2-0.1,1.8-0.2c0.4,0,0.9-0.2,1.2-0.5c0.3-0.3,0.5-0.7,0.5-1.1c0-1.2,0-2.3-0.1-3.5
		c0-0.3-0.1-0.6-0.3-0.8c-0.3-0.4-0.8-0.6-1.4-0.6c0,0,0,0-0.1,0c-0.2,0.1-0.4,0.1-0.6,0.1c-0.9,0-1.8,0.1-2.7,0.1
		c-0.1,0-0.3,0-0.4,0c-0.4-0.1-0.8,0-1.2,0.2c-0.4,0.2-0.6,0.6-0.7,1c0,0.1,0,0.2,0,0.3C5316-8141.2,5316.1-8140.6,5316.1-8140
		L5316.1-8140z"/>
	<path id="Path_182" class="st0" d="M5312-8129.2c0,0.6,0,1.2,0,1.8c0,0.1,0,0.1,0.1,0.1c0.3,0,0.6,0.1,0.9,0.1c0.3,0,0.7,0,1,0
		c0.1,0,0.2,0,0.3,0c0.1,0,0.1,0,0.1-0.1c0.1-0.4,0.2-0.8,0.2-1.2c0.1-0.5,0.2-1,0.3-1.4c0-0.1,0.1-0.1,0.1-0.1
		c0.4-0.2,0.8-0.5,1.2-0.8c0.4-0.4,0.7-0.9,0.8-1.5c0.1-0.6,0-1.2-0.4-1.7c-0.2-0.3-0.6-0.4-0.9-0.3c-0.3,0.1-0.6,0.3-0.9,0.5
		c-0.7,0.6-1.5,1.2-2.2,1.8c-0.3,0.2-0.5,0.5-0.6,0.8c0,0.2-0.1,0.4-0.1,0.6C5311.9-8130.2,5311.9-8129.7,5312-8129.2
		C5311.9-8129.2,5312-8129.2,5312-8129.2z"/>
	<path id="Path_183" class="st0" d="M5315.5-8124.7c0,0.2-0.1,0.5-0.1,0.7c-0.1,0.5-0.4,0.9-0.8,1.1c0,0,0,0,0,0
		c-0.1,0-0.2,0.2-0.2,0.3c-0.4,1.4-0.9,2.7-1.3,4.1c0,0,0,0.1,0,0.1c0.8,1.1,1.6,2.2,2.4,3.3c0,0,0,0,0.1,0.1
		c0.1-0.2,0.1-0.3,0.2-0.5c0.1-0.3,0.2-0.5,0.3-0.8c0,0,0-0.1,0-0.1c-0.2-0.3-0.5-0.7-0.7-1c0,0,0-0.1,0-0.2
		c0.3-0.9,0.6-1.7,0.9-2.6c0,0,0-0.1,0.1-0.1c0.5-0.2,0.9-0.6,1.1-1.1c0.1-0.3,0.1-0.7,0.1-1.1c0-0.4-0.1-0.8-0.3-1.2
		c-0.2-0.4-0.5-0.8-1-1C5315.9-8124.7,5315.7-8124.7,5315.5-8124.7z"/>
	<path id="Path_184" class="st0" d="M5314.7-8134.2c0.1-0.1,0.2-0.1,0.3-0.2c0.3-0.2,0.7-0.3,1-0.3c0.4,0,0.7,0.2,0.8,0.6
		c0.6,1.1,0.5,2.4-0.4,3.3c-0.4,0.4-0.8,0.7-1.3,1c0,0-0.1,0.1-0.1,0.1c-0.2,0.8-0.3,1.6-0.5,2.5c0,0,0,0.1,0,0.1
		c0,0.2,0,0.2-0.2,0.2c-0.1,0-0.1,0-0.2,0c0,0.1,0,0.2,0,0.3c0,0,0,0,0.1,0.1l1.9,0.7c0.2,0.1,0.4,0.2,0.7,0.2c0-0.1,0-0.2,0-0.2
		c0-0.3,0-0.6,0-0.8l0.2-1.5l0.2-1.5c0.1-0.5,0.1-1,0.2-1.5c0.1-0.5,0.1-1.1,0.2-1.6c0.1-0.5,0.1-1,0.2-1.5c0-0.2,0-0.4,0-0.6
		c0-0.2-0.1-0.4-0.3-0.4c0,0,0,0,0,0c-0.1,0-0.1,0-0.2,0c-0.6-0.1-1.2-0.2-1.9-0.3c-0.1,0-0.2,0-0.3,0c-0.1,0-0.2,0.1-0.3,0.3
		C5314.8-8135,5314.7-8134.6,5314.7-8134.2z"/>
	<path id="Path_185" class="st0" d="M5324.5-8117.2c-0.2-0.7-0.5-1.3-0.7-2l-0.7,0.3c0,0-0.1,0-0.1,0c-0.1,0.1-0.2,0-0.2-0.1
		c-0.1-0.3-0.2-0.5-0.3-0.8c-0.2-0.7-0.5-1.4-0.7-2.1c0,0,0-0.1,0-0.1c0,0,0,0.1-0.1,0.1c-0.1,0.2-0.3,0.3-0.5,0.5c0,0-0.1,0-0.1,0
		c-0.3,0.1-0.6,0.1-0.8,0.2c0,0-0.1,0-0.1,0c0,0.2-0.1,0.3-0.1,0.5c0.6,1.5,1.1,3.1,1.7,4.6c0,0,0,0,0,0.1
		C5322.7-8116.3,5323.6-8116.7,5324.5-8117.2z"/>
	<path id="Path_186" class="st0" d="M5325.4-8123.1c-0.7,0.2-1.3,0.3-2,0.5c-0.5,0.1-0.9,0.2-1.4,0.3c-0.1,0-0.2,0.1-0.1,0.2
		c0,0,0,0,0,0.1c0.2,0.5,0.3,0.9,0.5,1.4c0.2,0.5,0.4,1.1,0.6,1.6c0,0,0,0,0,0c0.1-0.1,0.2-0.1,0.3-0.2c0.2-0.1,0.3-0.2,0.5-0.2
		c0.2-0.1,0.4-0.1,0.6-0.2c0.7-0.2,1.5-0.4,2.2-0.6c0,0,0,0,0.1,0C5326.3-8121.1,5325.9-8122.1,5325.4-8123.1z"/>
	<path id="Path_187" class="st0" d="M5320.7-8124.4c-0.4,0.1-0.8,0.2-1.2,0.3c-0.6,0.1-1.3,0.3-1.9,0.4c0,0-0.1,0-0.1,0
		c-0.1,0-0.2-0.1-0.3-0.1c0,0,0,0.1,0,0.1c0.3,0.7,0.4,1.5,0.3,2.2c-0.1,0.4-0.3,0.8-0.5,1.1c0,0,0,0-0.1,0.1
		c0.2-0.1,0.4-0.1,0.6-0.1l2.5-0.6c0.5-0.1,0.9-0.6,1-1.1c0.1-0.5,0-1-0.1-1.5C5320.8-8124,5320.8-8124.2,5320.7-8124.4z"/>
	<path id="Path_188" class="st0" d="M5325.5-8127c-2.7,0.5-5.3,1.1-7.9,1.6c0,0.5,0,0.9,0.1,1.4c0.1,0,0.2,0,0.3-0.1
		c1.2-0.3,2.3-0.5,3.5-0.8c1.2-0.3,2.4-0.5,3.6-0.8c0.1,0,0.3-0.1,0.4-0.1c0,0,0.1,0,0.1-0.1
		C5325.6-8126.2,5325.5-8126.6,5325.5-8127z"/>
	<path id="Path_189" class="st0" d="M5328.6-8118.4c-0.2-0.4-0.3-0.7-0.5-1.1c-0.1-0.2-0.2-0.5-0.3-0.7c0-0.1,0-0.1-0.1,0
		c-1.2,0.3-2.4,0.6-3.6,1c0,0,0,0-0.1,0c0.2,0.7,0.5,1.3,0.7,2C5326-8117.6,5327.3-8118,5328.6-8118.4z"/>
	<path id="Path_190" class="st0" d="M5319.9-8120.9l-0.6,0.1c-1,0.2-2,0.5-3,0.7c-0.1,0-0.1,0.1-0.1,0.1c-0.3,0.7-0.5,1.5-0.8,2.2
		c0,0,0,0,0,0.1c0.2,0,0.4-0.1,0.5-0.1c1-0.3,2-0.5,3.1-0.8c0.1,0,0.2-0.1,0.3-0.2C5319.5-8119.5,5319.7-8120.2,5319.9-8120.9z"/>
	<path id="Path_191" class="st0" d="M5325.1-8125.4c-1.1,0.2-2.2,0.5-3.3,0.7c0.3,0.7,0.4,1.4,0.3,2.2c0.2,0,0.4-0.1,0.5-0.1
		c0.9-0.2,1.8-0.4,2.7-0.6c0.1,0,0.1,0,0.1-0.1c0.1-0.4,0-0.9-0.1-1.3C5325.3-8124.9,5325.2-8125.1,5325.1-8125.4
		C5325.1-8125.3,5325.1-8125.4,5325.1-8125.4z"/>
	<path id="Path_192" class="st0" d="M5325.6-8132c0.2,0,0.4,0,0.5,0c0.2,0,0.4,0,0.6,0c0.3,0,0.6-0.2,0.8-0.4c0.3-0.4,0.7-0.8,1-1.2
		c-0.1-0.1-0.1-0.1-0.1-0.2c0,0,0,0-0.1,0c-0.7-0.1-1.3-0.5-1.4-1.2c-0.1-0.2-0.1-0.4-0.1-0.6c-0.2,0.1-0.3,0.3-0.5,0.4
		c-0.1,0.1-0.2,0.1-0.3,0.2c0,0-0.1,0.1-0.2,0c-0.2,0-0.5-0.1-0.7-0.1c0,0,0,0-0.1,0C5325.3-8134.1,5325.4-8133.1,5325.6-8132z"/>
	<path id="Path_193" class="st0" d="M5328.4-8134.2c0.2-0.3,0.5-0.5,0.8-0.7c0.4-0.4,0.6-0.8,0.7-1.4c0-0.1,0-0.2-0.1-0.3
		c-0.3-0.5-0.7-1.1-1-1.6c0-0.1-0.1-0.1-0.1,0c-0.4,0.2-0.8,0.5-1.1,0.8c-0.2,0.2-0.4,0.4-0.6,0.6c-0.1,0.1-0.1,0.3,0,0.4
		c0.5,0.7,1,1.5,1.4,2.2C5328.4-8134.2,5328.4-8134.2,5328.4-8134.2z"/>
	<path id="Path_194" class="st0" d="M5314.3-8126.1c-0.1-0.1-0.1-0.1-0.2-0.2c-0.1,0-0.1-0.1-0.1-0.2c0-0.1,0-0.3,0-0.4h-0.1
		c-0.6,0-1.2-0.1-1.7-0.2c0,0-0.1,0-0.1,0c-0.4,0.2-0.7,0.4-1,0.8c-0.4,0.6-0.4,1.4,0.1,1.9c0.2,0.2,0.4,0.4,0.6,0.6
		c0.1,0.1,0.2,0.2,0.3,0.2c-0.2-0.6,0-1.3,0.5-1.8C5313-8125.9,5313.6-8126.2,5314.3-8126.1z"/>
	<path id="Path_195" class="st0" d="M5315.7-8114.9c0.5-0.1,0.9-0.3,1.4-0.4c0.8-0.2,1.6-0.4,2.4-0.7c0.1,0,0.1,0,0.1-0.1
		c0.1-0.4,0.2-0.7,0.4-1.1c0,0,0,0,0-0.1c-0.1,0-0.2,0-0.3,0.1c-1.2,0.3-2.3,0.6-3.5,1c-0.1,0-0.1,0.1-0.1,0.1
		c-0.1,0.4-0.3,0.7-0.4,1.1C5315.7-8115,5315.7-8115,5315.7-8114.9z"/>
	<path id="Path_196" class="st0" d="M5315.4-8117.4c0.2,0.3,0.4,0.6,0.6,0.9c0,0,0.1,0,0.1,0c1-0.3,1.9-0.5,2.9-0.8
		c0.3-0.1,0.6-0.2,0.9-0.2c-0.1-0.1-0.1-0.2-0.2-0.2c-0.2-0.2-0.3-0.4-0.5-0.6c0,0-0.1-0.1-0.1,0c-0.9,0.3-1.9,0.5-2.8,0.8
		C5316-8117.5,5315.7-8117.5,5315.4-8117.4z"/>
	<path id="Path_197" class="st0" d="M5321.3-8143.6c0-0.3,0-0.7,0-1c0,0-0.1,0-0.1,0c-0.7,0-1.5,0-2.2,0.1c-0.4,0-0.7,0-1.1,0.1
		c-0.1,0-0.1,0-0.1,0.1c0,0.3,0,0.6,0,0.8c0,0,0,0.1,0.1,0.1c0.4,0,0.8,0,1.1,0c0.5,0,1.1,0,1.6-0.1
		C5320.9-8143.5,5321.1-8143.6,5321.3-8143.6z"/>
	<path id="Path_198" class="st0" d="M5329.2-8134.3c0.1,0,0.2,0,0.2-0.1c0.4-0.2,0.8-0.4,1.1-0.7c0.3-0.2,0.4-0.5,0.6-0.8
		c0.1-0.3,0.1-0.6-0.1-0.9c-0.4-0.5-0.7-1-1.1-1.6c0,0,0,0-0.1-0.1c-0.2,0.2-0.4,0.4-0.6,0.6c0,0,0,0,0,0c0,0,0,0.1,0,0.1
		c0.2,0.4,0.5,0.7,0.7,1c0.1,0.2,0.2,0.4,0.1,0.6c0,0.5-0.1,0.9-0.4,1.3c-0.1,0.1-0.2,0.2-0.3,0.3
		C5329.4-8134.5,5329.3-8134.4,5329.2-8134.3C5329.2-8134.3,5329.2-8134.3,5329.2-8134.3z"/>
	<path id="Path_199" class="st0" d="M5317.5-8136.7c0,0.2,0,0.3,0,0.5c0,0,0,0.1,0.1,0.1c0.2,0,0.3,0.1,0.5,0.1c0.7,0.1,1.4,0.1,2,0
		c0.4,0,0.8-0.1,1.2-0.1c0.2,0,0.5-0.1,0.7-0.1c0.1,0,0.1,0,0.1-0.1c0-0.2,0-0.3,0-0.5C5320.5-8136.6,5319-8136.5,5317.5-8136.7z"/>
	<path id="Path_200" class="st0" d="M5312.5-8123.2c0.1-0.4,0.1-0.8,0.2-1.2c0.1-0.6,0.6-1,1.2-1c0.3,0,0.5,0.1,0.7,0.3
		c0.2,0.2,0.2,0.4,0.2,0.7c-0.1,0.3-0.2,0.6-0.2,0.9c0,0.1-0.1,0.2-0.1,0.4c0,0,0,0,0,0c0.1-0.1,0.2-0.2,0.3-0.3
		c0.3-0.4,0.4-0.9,0.4-1.4c0-0.6-0.4-1-0.9-1.1c-0.1,0-0.1,0-0.2,0c-0.5,0-1,0.3-1.4,0.7c-0.3,0.3-0.4,0.6-0.5,1
		c-0.1,0.3,0,0.7,0.2,1C5312.5-8123.2,5312.5-8123.2,5312.5-8123.2z"/>
	<path id="Path_201" class="st0" d="M5314.3-8123.2c0.1-0.5,0.3-0.9,0.4-1.4c0.1-0.2,0-0.4-0.2-0.5c-0.4-0.2-0.9-0.1-1.2,0.2
		c0,0,0,0,0,0.1c0,0.2,0,0.4,0.1,0.6c0,0.1,0.1,0.2,0.2,0.3C5313.7-8123.6,5314-8123.4,5314.3-8123.2
		C5314.2-8123.2,5314.3-8123.2,5314.3-8123.2z"/>
	<path id="Path_202" class="st0" d="M5317.4-8124.1c0-0.4,0-0.9-0.1-1.3c-0.1,0-0.1,0-0.2,0c-0.1,0-0.2,0-0.3,0
		c-0.7-0.3-1.4-0.5-2.1-0.8c0,0,0,0,0,0c0.1,0.1,0.1,0.1,0.2,0.2c0.3,0.2,0.5,0.6,0.6,0.9c0,0,0,0,0,0c0.1,0,0.3,0,0.4,0.1
		c0.3,0.1,0.6,0.3,0.9,0.5c0,0,0.1,0.1,0.1,0.1C5317.1-8124.2,5317.2-8124.1,5317.4-8124.1z"/>
	<path id="Path_203" class="st0" d="M5321.6-8124.6c-0.2,0-0.4,0.1-0.6,0.1c0.1,0.2,0.1,0.4,0.2,0.6c0.1,0.4,0.2,0.8,0.1,1.2
		c0,0.5-0.1,0.9-0.4,1.3c0,0,0,0,0,0c0.3,0,0.6-0.2,0.7-0.5c0.2-0.3,0.3-0.6,0.3-0.9C5321.9-8123.4,5321.8-8124,5321.6-8124.6z"/>
	<path id="Path_204" class="st0" d="M5315.7-8135.8c0.2,0,0.3,0.1,0.5,0.1c0.5,0.1,1,0.2,1.5,0.2c0.2,0,0.5,0,0.7,0
		c0.7-0.1,1.4-0.2,2.1-0.2c0.6-0.1,1.2-0.2,1.8-0.2c0.5-0.1,1.1-0.1,1.6-0.2l-1.5-0.2c0,0,0,0,0,0c0,0.2-0.1,0.3-0.2,0.3
		c0,0,0,0,0,0c-0.3,0.1-0.5,0.1-0.8,0.2c-0.8,0.1-1.6,0.1-2.3,0.1c-0.4,0-0.9,0-1.3-0.1c-0.1,0-0.2-0.1-0.3-0.2c0,0-0.1,0-0.1,0
		c-0.3,0-0.6,0.1-0.9,0.1L5315.7-8135.8L5315.7-8135.8z"/>
	<path id="Path_205" class="st0" d="M5327.3-8117.7c-0.3,0.1-0.5,0.2-0.8,0.2c-0.6,0.2-1.1,0.3-1.7,0.5c0,0-0.1,0-0.1,0.1
		c-0.5,0.2-1,0.5-1.5,0.7c0,0,0,0,0,0c0.3-0.1,0.5-0.1,0.8-0.2c0.5-0.2,1.1-0.3,1.6-0.5c0.1,0,0.2-0.1,0.2-0.1
		C5326.2-8117.2,5326.8-8117.5,5327.3-8117.7C5327.3-8117.7,5327.3-8117.7,5327.3-8117.7C5327.3-8117.7,5327.3-8117.7,5327.3-8117.7
		z"/>
	<path id="Path_206" class="st0" d="M5327-8135.8c0,0.1,0,0.2,0,0.4c0.1,0.5,0.3,0.9,0.7,1.1c0.1,0.1,0.3,0.1,0.4,0.2l0,0
		C5327.8-8134.7,5327.4-8135.2,5327-8135.8L5327-8135.8z"/>
	<path id="Path_207" class="st0" d="M5329-8134.4c-0.1,0.1-0.2,0.2-0.3,0.4c0,0,0,0,0,0.1c0,0.1,0,0.1,0.1,0.1c0.1,0,0.2,0,0.3-0.1
		c0.1,0,0.2-0.1,0.3-0.1c-0.1,0-0.1-0.1-0.2-0.1C5329-8134.2,5329-8134.3,5329-8134.4z"/>
</g>
</svg>
