<?xml version="1.0" encoding="utf-8"?>
<!-- Generator: Adobe Illustrator 22.0.1, SVG Export Plug-In . SVG Version: 6.00 Build 0)  -->
<svg version="1.1"
	 id="svg2" inkscape:version="0.91 r13725" sodipodi:docname="avatar.svg" xmlns:cc="http://creativecommons.org/ns#" xmlns:dc="http://purl.org/dc/elements/1.1/" xmlns:inkscape="http://www.inkscape.org/namespaces/inkscape" xmlns:rdf="http://www.w3.org/1999/02/22-rdf-syntax-ns#" xmlns:sodipodi="http://sodipodi.sourceforge.net/DTD/sodipodi-0.dtd" xmlns:svg="http://www.w3.org/2000/svg"
	 xmlns="http://www.w3.org/2000/svg" xmlns:xlink="http://www.w3.org/1999/xlink" x="0px" y="0px" viewBox="0 0 32 32"
	 style="enable-background:new 0 0 32 32;" xml:space="preserve">
<style type="text/css">
	.st0{fill:#DE0612;}
	.st1{fill:#FFFFFF;stroke:#FFFFFF;stroke-width:0.4;stroke-miterlimit:10;}
</style>
<sodipodi:namedview  bordercolor="#666666" borderopacity="1" gridtolerance="10" guidetolerance="10" id="namedview15" inkscape:current-layer="svg2" inkscape:cx="16" inkscape:cy="16" inkscape:pageopacity="0" inkscape:pageshadow="2" inkscape:window-height="661" inkscape:window-maximized="0" inkscape:window-width="997" inkscape:window-x="0" inkscape:window-y="0" inkscape:zoom="5.2149125" objecttolerance="10" pagecolor="#ffffff" showgrid="false">
	</sodipodi:namedview>
<g>
	<polygon class="st0" points="2,9.9 5.8,8.2 5.8,8 6.2,7.4 6.9,6.9 8,6.6 9.1,6.5 9.5,6.6 13.1,5 13.1,4.8 13.4,4.3 14,3.9 
		14.9,3.6 16,3.5 17.1,3.6 18,3.9 18.6,4.3 18.9,4.8 18.9,5 22.4,6.6 23,6.6 24,6.7 25,7 25.8,7.5 26.2,8 26.2,8.3 29.9,10 
		28.8,19.3 15.9,28.5 3.1,19.2 	"/>
	<g>
		<path class="st1" d="M15.9,28.6C15.9,28.6,15.9,28.6,15.9,28.6L15.9,28.6C15.9,28.6,15.9,28.6,15.9,28.6
			C15.9,28.6,15.9,28.6,15.9,28.6L15.9,28.6C15.9,28.6,15.9,28.6,15.9,28.6L15.9,28.6C15.9,28.6,15.9,28.6,15.9,28.6L15.9,28.6
			C15.9,28.6,15.9,28.6,15.9,28.6L15.9,28.6C15.9,28.6,15.9,28.6,15.9,28.6C15.9,28.6,15.9,28.6,15.9,28.6
			C15.9,28.6,15.9,28.6,15.9,28.6C15.9,28.6,15.9,28.6,15.9,28.6L3.1,19.3c0,0,0,0,0,0L2,9.9c0,0,0,0,0,0c0,0,0,0,0,0l0,0
			c0,0,0,0,0,0c0,0,0,0,0,0c0,0,0,0,0,0l0,0c0,0,0,0,0,0v0c0,0,0,0,0,0c0,0,0,0,0,0c0,0,0,0,0,0h0c0,0,0,0,0,0c0,0,0,0,0,0
			c0,0,0,0,0,0l3.8-1.7l0-0.1l0-0.1c0,0,0,0,0,0l0.4-0.6c0,0,0,0,0,0l0.7-0.5c0,0,0,0,0,0l1-0.3c0,0,0,0,0,0l1.2-0.1c0,0,0,0,0,0
			l0.4,0l3.6-1.6l0-0.1c0,0,0,0,0,0c0,0,0,0,0,0l0,0l0.2-0.5c0,0,0,0,0,0L14,3.8c0,0,0,0,0,0l0.9-0.3c0,0,0,0,0,0L16,3.4
			c0,0,0,0,0,0l1.1,0.1c0,0,0,0,0,0L18,3.8c0,0,0,0,0,0l0.6,0.4c0,0,0,0,0,0l0.3,0.5c0,0,0,0,0,0v0c0,0,0,0,0,0l0,0.2l3.6,1.6l0.4,0
			c0,0,0,0,0,0L24,6.6c0,0,0,0,0,0l1,0.3c0,0,0,0,0,0l0.8,0.5c0,0,0,0,0,0L26.2,8c0,0,0,0,0,0c0,0,0,0,0,0l0,0.2L30,9.9c0,0,0,0,0,0
			l0,0c0,0,0,0,0,0l0,0c0,0,0,0,0,0c0,0,0,0,0,0c0,0,0,0,0,0c0,0,0,0,0,0l0,0c0,0,0,0,0,0c0,0,0,0,0,0c0,0,0,0,0,0c0,0,0,0,0,0
			c0,0,0,0,0,0c0,0,0,0,0,0c0,0,0,0,0,0c0,0,0,0,0,0l-1.2,9.3c0,0,0,0,0,0L15.9,28.6C15.9,28.6,15.9,28.6,15.9,28.6
			C15.9,28.6,15.9,28.6,15.9,28.6L15.9,28.6C15.9,28.6,15.9,28.6,15.9,28.6z M16,18.5L16,28.4l12.8-9.1l1.2-9.2L16,18.5z M3.2,19.2
			l12.7,9.2l0.1-9.9L2.1,10L3.2,19.2z M2.1,9.9L16,18.4L29.9,10l-3.6-1.6L26.1,10L26,10.6c0,0,0,0,0,0l-0.6,0.5c0,0,0,0,0,0
			l-0.9,0.4c0,0,0,0,0,0l-1.2,0.1c0,0,0,0,0,0L22,11.5c0,0,0,0,0,0l-1.1-0.4c0,0,0,0,0,0l-0.7-0.5c0,0,0,0,0,0L19.9,10c0,0,0,0,0,0
			L20,8c0,0,0,0,0,0v0c0,0,0,0,0,0s0,0,0,0v0c0,0,0,0,0,0l0.2-0.6c0,0,0,0,0,0l0.6-0.5c0,0,0,0,0,0l0.9-0.3c0,0,0,0,0,0l0.5-0.1
			l-3.3-1.5l0,1.5c0,0,0,0,0,0l-0.2,0.5c0,0,0,0,0,0l-0.6,0.4c0,0,0,0,0,0l-0.9,0.3c0,0,0,0,0,0L16,8c0,0,0,0,0,0l-1.1-0.1
			c0,0,0,0,0,0l-0.9-0.3c0,0,0,0,0,0l-0.6-0.5c0,0,0,0,0,0l-0.2-0.5c0,0,0,0,0,0l0-1.5L9.7,6.5l0.5,0.1c0,0,0,0,0,0l0.9,0.3
			c0,0,0,0,0,0l0,0c0,0,0,0,0,0l0.6,0.5c0,0,0,0,0,0L12,8c0,0,0,0,0,0l0.1,1.9c0,0,0,0,0,0l-0.3,0.5l0,0.1c0,0,0,0,0,0L11,11.1
			c0,0,0,0,0,0L10,11.5c0,0,0,0,0,0l-1.2,0.1c0,0,0,0,0,0l-1.2-0.1c0,0,0,0,0,0l-0.9-0.4c0,0,0,0,0,0L6,10.5c0,0,0,0,0,0L5.9,9.9
			L5.8,8.3L2.1,9.9z M22,11.4l1.2,0.1l1.2-0.1l0.9-0.3l0.5-0.5L26,9.9l0.1-1.2L26,8.8l-0.1,0.1l-0.3,0.3c0,0,0,0,0,0l-1,0.3
			c0,0,0,0,0,0l-1.2,0.1c0,0,0,0,0,0l-1.2-0.1c0,0,0,0,0,0L21,9.2c0,0,0,0,0,0l-0.7-0.5c0,0,0,0,0,0l-0.2-0.4L20,9.9l0.3,0.6L21,11
			L22,11.4z M7.6,11.3l1.2,0.1l1.2-0.1l1-0.3l0.7-0.5l0,0L12,9.9l-0.1-1.7l-0.2,0.4c0,0,0,0,0,0L11,9.2c0,0,0,0,0,0L9.9,9.5
			c0,0,0,0,0,0L8.7,9.6c0,0,0,0,0,0L7.4,9.5c0,0,0,0,0,0l-1-0.4c0,0,0,0,0,0L5.9,8.7L6,9.9l0.1,0.6L6.7,11L7.6,11.3z M22.1,9.4
			l1.2,0.1l1.2-0.1l1-0.3l0.3-0.3l0.1-0.1L26,8.6l0.1-0.5l0,0l-0.3-0.5L25,7l-1-0.3l-1.2-0.1l-0.4,0l-0.7,0.1L20.8,7l-0.6,0.5
			L20.1,8l0.3,0.5l0.7,0.5L22.1,9.4z M7.4,9.4l1.2,0.1l1.2-0.1l1.1-0.3l0.7-0.5L11.9,8l-0.2-0.5L11.1,7l-0.9-0.3L9.5,6.6
			c0,0,0,0,0,0l-0.4,0l0,0L8,6.7L6.9,7L6.2,7.4L5.9,8l0,0c0,0,0,0,0,0L6,8.5L6.5,9L7.4,9.4z M14.9,7.8L16,7.9l1.1-0.1l0.1,0L18,7.5
			l0.6-0.4l0.2-0.5l0-1.4l-0.1,0.2c0,0,0,0,0,0l-0.6,0.4c0,0,0,0,0,0l-0.9,0.3c0,0,0,0,0,0L16,6.2c0,0,0,0,0,0l-1.1-0.1c0,0,0,0,0,0
			l-0.9-0.3c0,0,0,0,0,0l-0.6-0.4c0,0,0,0,0,0l-0.1-0.2l0,1.5l0.2,0.5L14,7.5L14.9,7.8z M14.9,5.9L16,6.1L17.1,6L18,5.7l0.6-0.4
			l0.2-0.5l-0.2-0.5L18,3.9L17,3.6L16,3.6l-1.1,0.1L14,3.9l-0.6,0.4l-0.2,0.5l0.2,0.5L14,5.7L14.9,5.9z M16,15.8
			C16,15.8,16,15.8,16,15.8l-1.3-0.2c0,0,0,0,0,0l-1.1-0.4c0,0,0,0,0,0l-0.7-0.6c0,0,0,0,0,0l-0.2-0.7c0,0,0,0,0,0l0-2l0,0
			c0,0,0,0,0,0l0.3-0.7c0,0,0,0,0,0l0.7-0.6c0,0,0,0,0,0l1.1-0.4c0,0,0,0,0,0L16,10c0,0,0,0,0,0l1.3,0.1c0,0,0,0,0,0l1.1,0.4
			c0,0,0,0,0,0l0.7,0.6c0,0,0,0,0,0l0.3,0.7c0,0,0,0,0,0l0,0l-0.1,2c0,0,0,0,0,0l-0.2,0.7c0,0,0,0,0,0l-0.7,0.6c0,0,0,0,0,0
			l-1.1,0.4c0,0,0,0,0,0L16,15.8C16,15.8,16,15.8,16,15.8z M14.7,15.5l1.3,0.1l1.3-0.1l1.1-0.4l0.7-0.6l0.2-0.7v0l0-1.5l-0.1,0.2
			c0,0,0,0,0,0l-0.7,0.6c0,0,0,0,0,0l-1.1,0.4c0,0,0,0,0,0L16,13.7c0,0,0,0,0,0l-1.3-0.1c0,0,0,0,0,0l-1.1-0.4c0,0,0,0,0,0l-0.7-0.6
			c0,0,0,0,0,0l-0.1-0.3l0,1.5l0.2,0.7l0.7,0.6L14.7,15.5z M14.7,13.5l1.3,0.1l1.3-0.1l1.1-0.4l0.7-0.6l0.1-0.3l0,0c0,0,0,0,0,0
			l0-0.1l0,0c0,0,0,0,0,0l0,0l0-0.1L19,11.2l-0.7-0.5l-1.1-0.4L16,10.2l-1.2,0.1l-1.1,0.4L13,11.2l-0.3,0.6l0,0c0,0,0,0,0,0l0.2,0.7
			l0.7,0.6L14.7,13.5z"/>
	</g>
</g>
</svg>
