<svg xmlns="http://www.w3.org/2000/svg" width="236.9" height="56.7"><defs><clipPath id="a"><path d="M332 275.6h177.7v42.5H332z"/></clipPath><clipPath id="b"><path d="M332 275.6h177.7v42.5H332z"/></clipPath></defs><g clip-path="url(#a)" transform="matrix(1.33333 0 0 -1.33333 -442.7 424.2)"><path d="M387.6 297.7h6.3c0 1.4-.2 2.2-.5 2.6-.4.3-1.3.5-2.7.5-1.4-.1-2.3-.2-2.6-.6-.3-.5-.5-1.2-.5-2.5m6.3-4.1h3.4c0-2-.6-3.3-1.8-4-.8-.4-2.4-.6-4.8-.6-2.6 0-4.4.5-5.3 1.6-.8 1-1.2 2.8-1.2 5.5s.4 4.6 1.2 5.6c.8 1.1 2.6 1.7 5.2 1.7 3 0 4.8-.7 5.6-1.7.7-1 1.1-3 1.1-6.2h-9.7c0-1.7.1-2.7.4-3.2.4-.6 1.3-.8 2.7-.8 1.2 0 2 0 2.3.2.6.3 1 .9 1 1.8M406.4 300.7c-1.4 0-2.2-.4-2.6-1.1a7 7 0 0 1-.5-3c0-2 .2-3.3.4-3.8.4-.9 1.3-1.3 2.7-1.3 1.6 0 2.6.4 3 1.2.3.6.4 1.8.4 3.8a7 7 0 0 1-.5 3.1c-.5.7-1.4 1.1-2.9 1.1m3.4-11.7v2.2c-.7-1.5-2.2-2.3-4.4-2.3-2.4 0-4 .7-4.7 2.2-.5 1-.7 2.7-.7 5.4 0 2.3.3 4 .9 5 .7 1.2 2.2 1.7 4.5 1.7s3.7-.7 4.2-2h.2v7.9h3.3v-20.2zM428.8 289h-3.3v2.2c-.7-1.6-2.3-2.3-4.6-2.3-3.2 0-4.8 1.3-4.8 4v10.2h3.4v-8.9c0-1 .1-1.8.4-2.1.3-.4 1-.7 2-.7 1.2 0 2.1.3 2.6.9.5.5.8 1.4.8 2.7v8h3.5zM441 294.4h3.4c0-2.3-.5-3.8-1.6-4.6-.8-.6-2.4-1-4.8-1-2.7 0-4.4.6-5.2 1.7-.8 1-1.1 2.8-1.1 5.6 0 2.7.3 4.5 1 5.4 1 1.2 2.7 1.9 5.3 1.9 2.3 0 3.9-.3 4.8-1 1-.6 1.6-2 1.6-4.1H441c0 1-.2 1.8-.7 2-.4.4-1.2.5-2.3.5-1.4 0-2.3-.3-2.6-1-.2-.5-.4-1.7-.4-3.6 0-2 .1-3.2.4-3.6.3-.7 1.2-1 2.6-1 1.3 0 2 .1 2.4.5.4.3.6 1.1.6 2.4M452.8 295.4c-1.1 0-1.8 0-2.2-.2-.6-.3-1-1-1-1.8 0-1 .3-1.6.8-1.8.4-.3 1.2-.4 2.4-.4 1.1 0 1.8.1 2.2.3.6.3 1 1 1 1.9 0 .9-.4 1.4-1 1.7a6 6 0 0 1-2.2.3m3.1-6.3l.1 1.7c-.3-.8-1-1.3-1.9-1.6-.5-.2-1.4-.3-2.5-.3-1.8 0-3.1.3-4 .9-.8.6-1.2 1.8-1.2 3.6-.1 1.7.4 2.8 1.4 3.5.7.5 2 .8 3.8.8 1.1 0 2 0 2.5-.2.7-.3 1.4-.7 1.7-1.4h.1v1.8c0 1.2-.1 2-.4 2.4-.4.5-1.3.7-2.6.7-.9 0-1.5 0-1.9-.3-.5-.3-.7-.8-.7-1.7h-3.5c0 1.9.6 3.1 1.8 3.7.8.4 2.2.6 4.2.6 2.4 0 4-.3 4.9-1 1-.7 1.5-2.2 1.5-4.4v-8.8zM460.9 300.6v2.6h1.8v3.2h3.2v-3.2h5.5v-2.6h-5.5v-7.2c0-.7 0-1.2.2-1.4.2-.3.6-.5 1.3-.5.8 0 1.3.3 1.5 1l.2 2h3c0-2-.3-3.4-.8-4.2-.7-.9-2-1.4-3.9-1.4-1.8 0-3 .3-3.7.9-.8.6-1.1 1.8-1.1 3.6v7.2zM478.2 289h-3.4v14.2h3.4zm0 17.3h-3.4v3h3.4zM487.5 300.7c-1.4 0-2.4-.3-2.8-1-.3-.4-.5-1.7-.5-3.6 0-2 .2-3.2.5-3.7.4-.6 1.3-1 2.8-1 1.5 0 2.4.4 2.8 1 .3.5.5 1.7.5 3.7s-.3 3.2-.5 3.6c-.4.7-1.3 1-2.8 1m0 2.6c2.8 0 4.7-.6 5.5-1.6.8-.9 1.1-2.7 1.1-5.6 0-2.9-.3-4.8-1-5.6-1-1-2.8-1.6-5.6-1.6s-4.7.5-5.5 1.6c-.8.8-1.1 2.7-1.1 5.6 0 2.9.3 4.7 1 5.6 1 1 2.8 1.6 5.6 1.6M497 303.2h3.4v-2.1a3 3 0 0 0 1.9 1.9c.7.2 1.4.2 2.7.2 1.8 0 3-.3 3.8-1 .7-.9 1-2.1 1-4v-9h-3.4v9c0 1-.2 1.7-.6 2-.3.5-1 .7-2 .7-1.4 0-2.4-.4-2.8-1-.4-.6-.6-1.5-.6-3v-7.7H497z" fill="#fff"/><path d="M384.5 316.4h125.2v1.7H384.5zM384.5 275.6H471v1.7h-86.5zM482.3 275.6h27.4v1.7h-27.4z" fill="#006cb6"/></g><path d="M.4 56.3h56V.3H.4z" fill="#fff"/><g clip-path="url(#b)" transform="matrix(1.33333 0 0 -1.33333 -442.7 424.2)"><path d="M371.5 300.4c0-1.3-.5-3-.9-4-1.4-4.4-3.1-7.1-7.1-7.1-1.2 0-3.2.3-4 2.4l-.2.5-.3-.5a6.5 6.5 0 0 0-5-2.4c-1.6 0-2.8.5-3.6 1.4l-.2.3-.2-.3c-.8-.9-2.3-1.4-4-1.4-1.4 0-2.5.4-3.3 1.3l-.2.2-.2-.2c-.8-.9-2.2-1.3-3.9-1.3-2 0-3.2 1.2-3.3 3 0 3 2.7 9 3.9 10.8a3.4 3.4 0 0 0 3.1 1.8c1 0 1.6-.2 2-.6.3-.4.4-.7.4-1.4v-1l.5.9c1.2 2 3.3 2.2 5.3 2.2 1.3 0 2.6-.5 3-1.3l.2-.3.3.2a6 6 0 0 0 4 1.4c1.8 0 3.1-.5 3.9-1.3l.4-.7.2-.4.3.3c1.1 1.4 2.6 2 4.5 2 1.5 0 2.6-.4 3.4-1.2 1-1 1-2.3 1-3.3m-39.2-24.5h42v42h-42z" fill="#ffed00"/><path d="M372.7 298.8a24 24 0 0 0-1.8-5.5c-1.4-3-3.4-5.3-7.2-5.3-2 0-3.7.6-4.7 1.8a7.6 7.6 0 0 0-5-1.9 6 6 0 0 0-3.8 1.2 7.3 7.3 0 0 0-7.7 0 7 7 0 0 0-4-1.1c-2.8 0-4.8 1.8-4.8 4.3 0 3.3 2.7 9.4 4 11.5a5 5 0 0 0 4.4 2.4c2 0 2.7-.5 3-1.3 1.6 1.4 3.6 1.4 5 1.4 1.7 0 2.7-.4 3.5-1 1.2.6 2.6 1 4.2 1 2 0 3.6-.5 4.7-1.5a7 7 0 0 0 4.6 1.5c2.3 0 3.8-.9 4.7-2.1 1.4-1.8 1.1-3.5.9-5.4m-40.3-22.9h42v42h-42z" fill="#e20614"/><path d="M374 276.2h-41.4v41.3H374zm-42-.6h42.6v42.5H332z" fill="#1c1c1b"/><path d="M372.7 306.3a1 1 0 0 1-1-1c0-.6.4-1 1-1s1 .4 1 1c0 .5-.4 1-1 1m0-.2a.8.8 0 1 0 0-1.6.8.8 0 0 0 0 1.6m.5-1.4l-.1.3-.2.2.3.3c0 .2-.2.3-.4.3h-.5v-1h.2v.4h.2l.2-.3v-.2zm-.7.7v.2h.2l.2-.1-.2-.1zM367.4 300.5c0-1-1.6-5.4-2.2-6.4-.2-.4-.5-.7-1-.7s-.6.3-.7.6c0 1 1.8 6 2.4 6.7.3.4.6.5 1 .5.5 0 .5-.4.5-.7m2.9-1.8c-.4-1.8-1.2-3.9-2-5.5-1.5-2.6-3.2-3-4.8-3-1.5 0-3.2.7-3.2 3 0 1.7.7 4 1.3 5.7 1 2.8 2.2 5.1 5.7 5 4 0 3.3-3.6 3-5.2m-13 2.5c-.5 0-.9-.3-1.2-.7-.6-1-2-4.5-2.2-6-.1-1 .3-1.1.8-1.1.7 0 1.6.8 1.9 2.1 0 0-1.5 0-1 1.3.3 1.3 1 1.5 2.2 1.6 2.4 0 2.2-1.7 2-2.6-.6-3-2.8-5.5-5.9-5.5-2 0-3.4 1.1-3.4 3.3 0 1.5.8 3.9 1.4 5.3 1.3 3 2.6 5 6 5 2 0 3.7-.7 3.5-2.6-.2-1.4-1-2.2-2.2-2.3-.4 0-1.8 0-1.3 1.4.1.5.2.8-.5.8m-10.7-5.2l-.6-2a7 7 0 0 0 2 .2c1.1 0 1.8-.4 1.8-1.3 0-2-2.3-2.6-3.9-2.6-1.7 0-3.2 1-3.2 2.8a21 21 0 0 0 2.3 7.8c1.4 2.8 2.8 3.1 5.2 3.1 1.1 0 2.3-.4 2.3-1.4 0-1.4-1.2-2-2.3-2h-1.9s-.4-.6-.8-1.7c2.2.3 3.1-.2 2.8-1.5-.5-1.7-2-1.8-3.8-1.4m-7-2c2.2.4 2.7-.4 2.6-1.1-.2-2.2-2.1-2.6-3.8-2.6-1.2 0-2.3.6-2.4 2 0 2.5 2.5 8.3 3.7 10.2.6 1 1.3 1.4 2.3 1.4 1 0 1.3-.5 1.3-1.1 0-1.7-2.8-6.8-3.6-8.8m27.4 11.2a6 6 0 0 1-4.7-2l-.5.7c-.9 1-2.2 1.4-4 1.4-1.8 0-3.3-.6-4.3-1.4-.5.8-1.8 1.4-3.3 1.4-2 0-4.2-.3-5.5-2.4 0 .8-.1 1.2-.5 1.6-.6.6-1.4.7-2.2.7-1.5 0-2.6-.6-3.4-2-1.1-1.8-4-7.9-3.9-10.8 0-2 1.3-3.3 3.6-3.4 1.8 0 3.2.5 4.1 1.4.8-.9 2-1.4 3.5-1.4 1.6 0 3.2.5 4.2 1.6.8-1 2.1-1.6 3.8-1.6 2.1 0 4 1 5.2 2.6.7-1.9 2.4-2.6 4.3-2.6 4.1 0 6 2.8 7.4 7.3.4 1 .8 2.7.9 4.1.1 2.4-.9 4.8-4.7 4.8" fill="#1c1c1b"/></g></svg>