<svg xmlns="http://www.w3.org/2000/svg" width="141.7" height="141.7"><path d="M1 1v139.8h139.8V.9H1z" fill="#fff"/><path d="M1 1v139.8h139.8V.9H1zm130.5 58a56 56 0 0 1-2.8 13.5c-5 14.6-10.7 23.7-23.9 23.7-3.8 0-10.7-1-13.3-8l-.6-1.6-1 1.3A21.5 21.5 0 0 1 73 96.2c-5 0-9-1.6-11.7-4.9l-.7-.8-.8.8c-2.8 3-7.7 4.9-13.4 4.9-4.4 0-8.3-1.6-10.8-4.3l-.7-.8-.7.8c-2.9 2.8-7.3 4.2-13 4.1-6.7-.2-10.8-4-11-10.1-.2-9.6 9-29.7 12.9-35.8 2.5-4 5.9-6 10.4-6 3.1 0 5.2.6 6.5 2 1.1 1.2 1.4 2.2 1.5 4.7v3.1l1.8-2.7c4-6.5 10.7-7.4 17.4-7.4 4.6 0 8.7 1.7 10.3 4.3l.6 1 .8-.7a21 21 0 0 1 13.7-4.6c5.8 0 10 1.5 12.6 4.4a8 8 0 0 1 1.5 2.2l.6 1.3 1-1.1c3.7-4.4 8.8-6.6 15-6.6 5 0 8.9 1.3 11.3 4 3.1 3.2 3.6 7.8 3.4 11z" fill="#f6ec36"/><path d="M1 1v139.8h139.8V.9H1zm134.4 63.4a80 80 0 0 1-5.9 18.3c-4.9 10.1-11.4 17.9-24 17.9-6.8 0-12.3-2.2-15.6-6.3a25.4 25.4 0 0 1-17 6.3c-4.8 0-9.1-1.4-12.4-4a24.2 24.2 0 0 1-25.7.5 23.3 23.3 0 0 1-13.6 3.3c-9-.2-15.3-5.9-15.5-14.2-.2-11 9.1-31.3 13.5-38.3 3.3-5.4 8.3-8.3 14.4-8.3 6.7 0 9.1 2 10.3 4.3 5.1-4.3 12-4.6 16.8-4.6 5.4 0 8.7 1.4 11.6 3.7 4-2.3 8.4-3.6 13.8-3.6 7 0 12 1.6 15.6 5.2 4.2-3.5 9.4-5 15.3-5 7.7 0 12.8 2.7 15.8 6.8 4.2 6 3.4 11.8 2.6 18z" fill="#d01012"/><path d="M0 0v141.7h141.7V0H0zm139.8 2v137.8H2V2h137.8z"/><path d="M134.8 42.5v-1h.6c.5 0 .7.2.7.5s-.1.5-.6.5h-.7zm2.3 2l-.4-.7c-.4-.6-.5-.7-.8-.8.6 0 1-.5 1-1 0-.6-.4-1-1.1-1H134v3.5h.8v-1.4c.4 0 .5 0 .7.2l.4.7.3.5h.9zm-1.7-4.5a2.7 2.7 0 1 1 0 5.5 2.7 2.7 0 0 1 0-5.5zm0-.6a3.4 3.4 0 1 0 0 6.8 3.4 3.4 0 1 0 0-6.8zM116.9 43c-7.3 0-12.4 3-15.8 7a9 9 0 0 0-1.7-2.5c-2.8-3.2-7.3-4.6-13.3-4.6-6 0-10.9 1.8-14.3 4.7-1.8-2.9-6-4.8-11.1-4.8-6.7 0-14 1-18.3 8 0-2.6-.3-4-1.7-5.4-1.7-1.8-4.5-2.3-7.2-2.3-4.9 0-8.6 2.2-11.2 6.5-4 6.2-13.3 26.5-13 36.3 0 6.3 4.3 11 12 11 6 .2 10.6-1.4 13.6-4.4 2.6 3 6.7 4.6 11.5 4.6 5.5 0 11-1.6 14.1-5.1 2.7 3.3 7 5.2 12.5 5.2 7.2 0 13.5-3.4 17.6-8.7 2.3 6.2 8 8.6 14.2 8.6 13.7 0 19.8-9.4 24.8-24.3a57 57 0 0 0 2.9-13.7c.4-7.8-3-16.1-15.6-16.1zM25.7 80.5c7-1.3 8.8 1.3 8.6 3.7-.6 7-7.2 8.7-12.8 8.5-4.1 0-7.8-2-8-6.7-.1-8.3 8.4-27.6 12.4-34 1.9-3 4.1-4.6 7.7-4.6 3.4 0 4.2 1.8 4.2 3.9-.1 5.6-9.2 22.5-12.1 29.2zm23-6.6c-.4 1.3-1.3 4-2 6.8 2.3-.6 4-1 7-1 3.5.1 5.6 1.6 5.6 4.4 0 6.8-7.5 8.8-12.7 8.8-5.8 0-10.8-3.3-10.8-9.6 0-7.3 4-18.5 7.7-26C48.1 48.2 52.8 47 60.9 47c3.6 0 7.7 1.5 7.7 4.9 0 4.6-4 6.4-7.9 6.6a55 55 0 0 1-5.8.1s-1.3 2-2.7 5.5c7.3-1 10.4.7 9.1 4.9-1.6 5.6-6.5 6-12.5 5zm35.7-17.6c-2 0-3.2 1.2-4.2 2.6-2 3-6.6 14.8-7.3 19.6-.5 3.3 1 4 2.5 4 2.5 0 5.3-2.6 6.3-7 0 0-4.8-.2-3.5-4.4 1.3-4.1 3.8-5 7.8-5.2 8-.3 7.2 5.6 6.5 8.7-2 10.2-9.3 18.3-19.5 18.3-7 0-11.4-3.8-11.4-11 0-5 2.5-13 4.5-17.8 4.3-10 8.8-17 20.2-17 6.8 0 12.2 2.5 11.4 9-.6 4.6-3 7.4-7.2 7.7-1.2.1-6 0-4.5-4.6.6-1.6.8-3-1.6-3zm43 8.4c-1.1 6-3.8 13.1-6.8 18.4-4.8 8.6-10.6 9.8-15.7 9.8-5 0-10.8-2-10.9-9.8 0-5.7 2.4-13.6 4.5-18.8 3.6-9.5 7.3-17.2 19-17 13.5.1 11 12.2 10 17.4zM116 56.5c-1.2 0-2.2.2-3.1 1.6-2 2.7-8 19-8 22.3.1 1.2.7 2.2 2.2 2.2 1.7 0 2.6-1.1 3.4-2.5a95 95 0 0 0 7.3-21.3c0-1-.1-2.3-1.8-2.3z"/></svg>