<?xml version="1.0" encoding="utf-8"?>
<!-- Generator: Adobe Illustrator 27.0.1, SVG Export Plug-In . SVG Version: 6.00 Build 0)  -->
<svg version="1.1" xmlns="http://www.w3.org/2000/svg" xmlns:xlink="http://www.w3.org/1999/xlink" x="0px" y="0px"
	 viewBox="0 0 52.7 52.7" style="enable-background:new 0 0 52.7 52.7;" xml:space="preserve">
<style type="text/css">
	.st0{display:none;}
	.st1{display:inline;}
	.st2{fill:#FFEECC;}
	.st3{display:inline;fill:#FFFFFF;}
	.st4{fill:#FFFFFF;}
</style>
<g id="Слой_4" class="st0">
	<g class="st1">
		<rect x="0" class="st2" width="52.7" height="52.7"/>
	</g>
</g>
<g id="svg2" xmlns:inkscape="http://www.inkscape.org/namespaces/inkscape" xmlns:rdf="http://www.w3.org/1999/02/22-rdf-syntax-ns#" xmlns:svg="http://www.w3.org/2000/svg" xmlns:sodipodi="http://sodipodi.sourceforge.net/DTD/sodipodi-0.dtd" xmlns:cc="http://creativecommons.org/ns#" xmlns:dc="http://purl.org/dc/elements/1.1/">
	<g id="Right">
		<g class="st0">
			<polygon class="st3" points="26.5,31.1 52.1,15.7 50.1,32.7 26.5,49.9 			"/>
		</g>
		<g>
			<polygon class="st4" points="26.8,31.2 51.8,16.2 49.9,32.6 26.8,49.4 			"/>
		</g>
	</g>
	<g id="Left">
		<g class="st0">
			<polygon class="st3" points="2.6,32.7 0.6,15.7 26.2,31.1 26.2,49.9 			"/>
		</g>
		<g>
			<polygon class="st4" points="2.8,32.6 0.9,16.2 26,31.2 26,49.4 			"/>
		</g>
	</g>
	<g>
		<g>
			<path class="st4" d="M11.6,17.2c2.9,0,5.3-1.1,5.3-2.4V13c-0.9,1-2.9,1.8-5.3,1.8c-2.2,0-4.1-0.6-5.1-1.5l-0.3,0.1v1.4
				C6.3,16.1,8.6,17.2,11.6,17.2z"/>
		</g>
		<g>
			<path class="st4" d="M26.4,10.5c2.7,0,5.1-1.1,5.1-2.3V6.6c-0.8,1-2.8,1.7-5.1,1.7c-2.3,0-4.2-0.7-5.1-1.7v1.7
				C21.3,9.5,23.6,10.5,26.4,10.5z"/>
		</g>
		<g>
			<path class="st4" d="M21.7,6.3c0.8,0.8,2.6,1.4,4.7,1.4c2.1,0,4-0.6,4.7-1.5l-4.6-2.1L21.7,6.3z"/>
		</g>
		<g>
			<path class="st4" d="M35.9,14.8c0,1.3,2.4,2.4,5.3,2.4c2.9,0,5.3-1.1,5.3-2.4v-1.5l-0.2-0.1c-1,0.9-2.9,1.6-5.1,1.6
				c-2.4,0-4.5-0.7-5.3-1.8V14.8z"/>
		</g>
		<g>
			<path class="st4" d="M35.9,11.7c0,0.1,0,0.1,0,0.1c0,1.3,2.4,2.5,5.3,2.5c2,0,3.8-0.5,4.7-1.3l-7.2-3.3
				C37.1,10.1,36,10.9,35.9,11.7z"/>
		</g>
		<g>
			<path class="st4" d="M47,13.5v1.2c0,1.6-2.6,2.9-5.8,2.9c-3.3,0-5.8-1.2-5.8-2.9v-2.9h0c0,0,0-0.1,0-0.1c0.1-1,1.1-1.8,2.6-2.3
				l-6.1-2.8v1.6c0,1.5-2.5,2.7-5.5,2.7c-3.1,0-5.5-1.2-5.5-2.7V6.7l-6,2.7c1.4,0.5,2.4,1.3,2.5,2.2c0,0.1,0,0.1,0,0.2h0v2.9
				c0,1.6-2.6,2.9-5.8,2.9c-3.3,0-5.8-1.2-5.8-2.9v-1.2l-4.4,2l25.1,15.1l25.2-15.1L47,13.5z M32.5,23c0,1.7-2.8,3.1-6.1,3.1
				c-3.5,0-6.1-1.3-6.1-3.1v-3.1h0c0,0,0-0.1,0-0.1c0.2-1.7,2.8-3,6.1-3c3.3,0,5.9,1.3,6.1,2.9c0,0.1,0,0.1,0,0.2h0V23z"/>
		</g>
		<g>
			<path class="st4" d="M26.4,17.3c-3,0-5.5,1.1-5.6,2.5c0,0.1,0,0.1,0,0.1c0,1.4,2.6,2.6,5.6,2.6c3.1,0,5.6-1.2,5.6-2.6
				c0,0,0,0,0-0.1C31.8,18.4,29.3,17.3,26.4,17.3z"/>
		</g>
		<g>
			<path class="st4" d="M16.9,11.8c-0.1-0.9-1.2-1.6-2.7-2L7,13.1c0.9,0.7,2.7,1.2,4.6,1.2C14.5,14.3,16.9,13.2,16.9,11.8
				C16.9,11.8,16.9,11.8,16.9,11.8z"/>
		</g>
		<g>
			<path class="st4" d="M20.7,21.2V23c0,1.4,2.5,2.6,5.6,2.6c3.1,0,5.6-1.2,5.6-2.6v-1.8c-0.9,1.1-3.1,1.9-5.6,1.9
				S21.6,22.3,20.7,21.2z"/>
		</g>
	</g>
	<path class="st4" d="M26.4,3.1c2.6,0,4.9,1,5,2.3c0,0,0,0,0,0.1c0,1.3-2.3,2.3-5.1,2.3s-5.1-1.1-5.1-2.3c0,0,0,0,0-0.1
		C21.4,4.1,23.7,3.1,26.4,3.1z"/>
	<path class="st4" d="M26.4,17.3c3,0,5.5,1.1,5.6,2.5c0,0,0,0,0,0.1c0,1.4-2.6,2.6-5.6,2.6c-3.1,0-5.6-1.2-5.6-2.6c0,0,0,0,0-0.1
		C20.9,18.4,23.4,17.3,26.4,17.3z"/>
	<path class="st4" d="M41.2,9.4c2.8,0,5.2,1,5.3,2.4c0,0,0,0,0,0.1c0,1.3-2.4,2.5-5.3,2.5c-2.9,0-5.3-1.1-5.3-2.5c0,0,0,0,0-0.1
		C36,10.5,38.4,9.4,41.2,9.4z"/>
	<path class="st4" d="M11.6,9.4c2.8,0,5.2,1,5.3,2.4c0,0,0,0,0,0.1c0,1.3-2.4,2.5-5.3,2.5s-5.3-1.1-5.3-2.5c0,0,0,0,0-0.1
		C6.4,10.5,8.8,9.4,11.6,9.4z"/>
</g>
</svg>
