<?xml version="1.0" encoding="utf-8"?>
<!-- Generator: Adobe Illustrator 26.0.1, SVG Export Plug-In . SVG Version: 6.00 Build 0)  -->
<!DOCTYPE svg PUBLIC "-//W3C//DTD SVG 1.1//EN" "http://www.w3.org/Graphics/SVG/1.1/DTD/svg11.dtd" [
	<!ENTITY ns_extend "http://ns.adobe.com/Extensibility/1.0/">
	<!ENTITY ns_ai "http://ns.adobe.com/AdobeIllustrator/10.0/">
	<!ENTITY ns_graphs "http://ns.adobe.com/Graphs/1.0/">
	<!ENTITY ns_vars "http://ns.adobe.com/Variables/1.0/">
	<!ENTITY ns_imrep "http://ns.adobe.com/ImageReplacement/1.0/">
	<!ENTITY ns_sfw "http://ns.adobe.com/SaveForWeb/1.0/">
	<!ENTITY ns_custom "http://ns.adobe.com/GenericCustomNamespace/1.0/">
	<!ENTITY ns_adobe_xpath "http://ns.adobe.com/XPath/1.0/">
]>
<svg version="1.1"
	 id="svg2" xmlns:x="&ns_extend;" xmlns:i="&ns_ai;" xmlns:graph="&ns_graphs;" sodipodi:docname="logo.square.white.svg" xmlns:cc="http://creativecommons.org/ns#" xmlns:dc="http://purl.org/dc/elements/1.1/" xmlns:inkscape="http://www.inkscape.org/namespaces/inkscape" xmlns:rdf="http://www.w3.org/1999/02/22-rdf-syntax-ns#" xmlns:sodipodi="http://sodipodi.sourceforge.net/DTD/sodipodi-0.dtd" xmlns:svg="http://www.w3.org/2000/svg"
	 xmlns="http://www.w3.org/2000/svg" xmlns:xlink="http://www.w3.org/1999/xlink" x="0px" y="0px" viewBox="0 0 52.7 52.7"
	 style="enable-background:new 0 0 52.7 52.7;" xml:space="preserve">
<style type="text/css">
	.st0{fill:#FFFFFF;}
	.st1{fill:#BABABA;}
	.st2{fill:#FCFCFC;}
	.st3{fill:#B5B5B5;}
</style>
<metadata  id="metadata37">
	<rdf:rdf>
		<cc:work  rdf:about="">
			<dc:format>image/svg+xml</dc:format>
			<dc:type  rdf:resource="http://purl.org/dc/dcmitype/StillImage"></dc:type>
			<dc:title></dc:title>
		</cc:work>
	</rdf:rdf>
	<rdf:RDF>
		<cc:Work  rdf:about="">
			<dc:format>image/svg+xml</dc:format>
			<dc:type  rdf:resource="http://purl.org/dc/dcmitype/StillImage"></dc:type>
			<dc:title>BBC micro:bit</dc:title>
		</cc:Work>
	</rdf:RDF>
	<sfw  xmlns="&ns_sfw;">
		<slices></slices>
		<sliceSourceBounds  bottomLeftOrigin="true" height="46.7" width="52.7" x="0" y="2.5"></sliceSourceBounds>
	</sfw>
</metadata>
<path id="path21" inkscape:connector-curvature="0" sodipodi:nodetypes="csssccsssccsssscccsssssc" class="st0" d="M37.4,29.4
	c-1.7,0-3-1.4-3-3s1.4-3,3-3c1.7,0,3,1.4,3,3S39,29.4,37.4,29.4 M15.1,23.3c-1.7,0-3,1.4-3,3s1.4,3,3,3c1.7,0,3-1.4,3-3
	S16.7,23.3,15.1,23.3 M15,17.3h22.6c5,0,9,4,9,9c0,5-4,9-9,9H15c-5,0-9-4.1-9-9C6,21.4,10.1,17.3,15,17.3 M37.6,41.4
	c8.3,0,15-6.8,15-15s-6.7-15.1-15-15.1H15C6.8,11.3,0,18,0,26.3s6.8,15,15,15H37.6"/>
<g>
	<polygon class="st0" points="26.5,31.1 52.1,15.7 50.1,32.7 26.5,49.9 	"/>
	<path class="st1" d="M51.9,15.9l-2,16.7l-23.4,17V31.2L51.9,15.9 M52.2,15.5L26.3,31v19.1l23.8-17.3L52.2,15.5L52.2,15.5z"/>
</g>
<g>
	<polygon class="st0" points="2.6,32.7 0.6,15.7 26.2,31.1 26.2,49.9 	"/>
	<path class="st1" d="M0.7,15.9l25.3,15.2v18.5l-23.4-17L0.7,15.9 M0.4,15.5l2.1,17.4l23.8,17.3V31L0.4,15.5L0.4,15.5z"/>
</g>
<g>
	<polygon class="st0" points="0.7,15.5 26.3,3.8 52,15.5 26.3,30.9 	"/>
	<path class="st1" d="M26.3,4l25.4,11.5L26.3,30.7L1,15.5L26.3,4 M26.3,3.7L0.4,15.5L26.3,31l25.9-15.6L26.3,3.7L26.3,3.7z"/>
</g>
<g id="Слой_2">
	<g>
		<path class="st2" d="M26.3,25.5c-2.5,0-3.9-0.7-4.7-1.3c-0.9-0.7-1.3-1.5-1.3-2v-2.6c0.5,0.9,1.9,2.3,5.9,2.5c4,0,5.4-1.6,6-2.5
			v2.6C32.3,23.1,30.9,25.5,26.3,25.5z"/>
		<path class="st3" d="M32.2,20l0,2.2c0,0.3-0.3,1.1-1.2,1.9c-0.8,0.6-2.2,1.3-4.6,1.3c-2.4,0-3.8-0.7-4.6-1.3
			c-1-0.7-1.2-1.5-1.2-1.9c0-0.7,0-1.5,0-2.2c0.7,0.9,2.2,2.1,5.8,2.2C29.9,22.2,31.5,21,32.2,20 M32.4,19c0,0-0.7,2.9-6.1,3
			c-5.5-0.2-6.1-3-6.1-3s0,1.9,0,3.2c0,0.9,1.5,3.4,6.1,3.4s6.1-2.5,6.1-3.4C32.4,21,32.4,19,32.4,19L32.4,19z"/>
	</g>
	<g>
		<ellipse class="st0" cx="26.3" cy="19" rx="5.9" ry="3.1"/>
		<path class="st1" d="M26.3,16.1c3.2,0,5.8,1.3,5.8,2.9S29.5,22,26.3,22s-5.8-1.3-5.8-2.9S23.2,16.1,26.3,16.1 M26.3,15.8
			c-3.3,0-6.1,1.4-6.1,3.2c0,1.8,2.7,3.2,6.1,3.2s6.1-1.4,6.1-3.2C32.4,17.3,29.7,15.8,26.3,15.8L26.3,15.8z"/>
	</g>
	<g>
		<path class="st2" d="M14,18.9c-4.5,0-5.9-2.4-5.9-3.3v-2.6c0.5,0.9,1.9,2.3,5.9,2.5c4,0,5.4-1.6,6-2.5l0,2.6
			C19.9,16.5,18.5,18.9,14,18.9z"/>
		<path class="st3" d="M19.8,13.5l0,2.2c0,0.3-0.3,1.1-1.2,1.9c-0.8,0.6-2.2,1.3-4.6,1.3c-2.4,0-3.8-0.7-4.6-1.3
			c-1-0.7-1.2-1.5-1.2-1.9c0-0.7,0-1.5,0-2.2c0.7,0.9,2.2,2.1,5.8,2.2C17.5,15.6,19.1,14.4,19.8,13.5 M20.1,12.4c0,0-0.7,2.9-6.1,3
			c-5.5-0.2-6.1-3-6.1-3s0,1.9,0,3.2c0,0.9,1.5,3.4,6.1,3.4s6.1-2.5,6.1-3.4C20.1,14.4,20.1,12.4,20.1,12.4L20.1,12.4z"/>
	</g>
	<g>
		<path class="st0" d="M14,15.5c-3.3,0-5.9-1.4-5.9-3.1s2.7-3.1,5.9-3.1c3.3,0,5.9,1.4,5.9,3.1S17.3,15.5,14,15.5z"/>
		<path class="st1" d="M14,9.5c3.2,0,5.8,1.3,5.8,2.9s-2.7,2.9-5.8,2.9S8.2,14,8.2,12.4S10.8,9.5,14,9.5 M14,9.3
			c-3.3,0-6.1,1.4-6.1,3.2c0,1.8,2.7,3.2,6.1,3.2s6.1-1.4,6.1-3.2C20.1,10.7,17.3,9.3,14,9.3L14,9.3z"/>
	</g>
	<g>
		<path class="st2" d="M38.7,18.9c-4.5,0-5.9-2.4-5.9-3.3v-2.6c0.5,0.9,1.9,2.3,5.9,2.5c4,0,5.5-1.6,6-2.5v2.6
			C44.7,16.5,43.3,18.9,38.7,18.9z"/>
		<path class="st3" d="M44.5,13.5l0,2.2c0,0.3-0.3,1.1-1.2,1.9c-0.8,0.6-2.2,1.3-4.6,1.3c-2.4,0-3.8-0.7-4.6-1.3
			c-1-0.7-1.2-1.5-1.2-1.9c0-0.7,0-1.5,0-2.2c0.7,0.9,2.2,2.1,5.8,2.2C42.3,15.6,43.9,14.4,44.5,13.5 M44.8,12.4c0,0-0.7,2.9-6.1,3
			c-5.5-0.2-6.1-3-6.1-3s0,1.9,0,3.2c0,0.9,1.5,3.4,6.1,3.4s6.1-2.5,6.1-3.4C44.8,14.4,44.8,12.4,44.8,12.4L44.8,12.4z"/>
	</g>
	<g>
		<ellipse class="st0" cx="38.7" cy="12.4" rx="5.9" ry="3.1"/>
		<path class="st1" d="M38.7,9.5c3.2,0,5.8,1.3,5.8,2.9s-2.7,2.9-5.8,2.9s-5.8-1.3-5.8-2.9S35.6,9.5,38.7,9.5 M38.7,9.3
			c-3.3,0-6.1,1.4-6.1,3.2s2.7,3.2,6.1,3.2s6.1-1.4,6.1-3.2S42.1,9.3,38.7,9.3L38.7,9.3z"/>
	</g>
	<g>
		<path class="st2" d="M26.3,12c-4,0-5.3-2.1-5.3-2.9V6.9c0.5,0.8,1.8,2.1,5.3,2.2c3.5,0,4.8-1.4,5.3-2.2l0,2.3
			C31.6,9.9,30.4,12,26.3,12z"/>
		<path class="st3" d="M31.5,7.3l0,1.9c0,0.3-0.2,1-1.1,1.6c-0.7,0.5-1.9,1.2-4.1,1.2c-2.2,0-3.4-0.6-4.1-1.2
			c-0.9-0.7-1.1-1.4-1.1-1.6c0-0.6,0-1.3,0-1.9c0.6,0.8,2,1.8,5.2,1.9C29.4,9.1,30.9,8.1,31.5,7.3 M31.8,6.3c0,0-0.6,2.6-5.4,2.6
			c-4.9-0.1-5.4-2.6-5.4-2.6s0,1.7,0,2.8c0,0.8,1.3,3,5.4,3s5.4-2.2,5.4-3C31.8,8,31.8,6.3,31.8,6.3L31.8,6.3z"/>
	</g>
	<g>
		<ellipse class="st0" cx="26.3" cy="6.3" rx="5.3" ry="2.7"/>
		<path class="st1" d="M26.3,3.7c2.8,0,5.2,1.2,5.2,2.6s-2.4,2.6-5.2,2.6s-5.2-1.2-5.2-2.6S23.5,3.7,26.3,3.7 M26.3,3.4
			c-3,0-5.4,1.3-5.4,2.8c0,1.6,2.4,2.8,5.4,2.8c3,0,5.4-1.3,5.4-2.8C31.8,4.7,29.3,3.4,26.3,3.4L26.3,3.4z"/>
	</g>
</g>
</svg>
