<svg xmlns="http://www.w3.org/2000/svg" width="301.499" height="179.742" viewBox="0 0 282.655 168.508"><g transform="translate(-41.005 -446.364)"><rect ry="30" rx="30" y="458.77" x="53.41" height="143.698" width="105.312" stroke="#000" stroke-width="17.724" stroke-linecap="round" stroke-linejoin="round"/><rect width="105.668" height="144.183" x="53.232" y="458.527" rx="30.101" ry="30.101" fill="#fff"/></g><g transform="translate(124.66 -243.829)" stroke="#000" stroke-linecap="round" stroke-linejoin="round"><circle r="25.968" cy="356.872" cx="-38.891" fill="none"/><circle cx="-38.891" cy="356.872" r="21.013" stroke-width=".809"/><path d="M-30.581 341.741a13.835 13.835 0 0 1 5.76 4.504l-11.099 8.26z" fill="#fff" stroke-width=".533"/></g><g transform="translate(111.528 -446.364)"><rect width="105.312" height="143.698" x="53.41" y="458.77" rx="30" ry="30" stroke="#000" stroke-width="17.724" stroke-linecap="round" stroke-linejoin="round"/><rect ry="30.101" rx="30.101" y="458.527" x="53.232" height="144.183" width="105.668" fill="#fff"/></g><g transform="translate(277.193 -243.829)" stroke="#000" stroke-linecap="round" stroke-linejoin="round"><circle cx="-38.891" cy="356.872" r="25.968" fill="none"/><circle r="21.013" cy="356.872" cx="-38.891" stroke-width=".809"/><path d="M-30.581 341.741a13.835 13.835 0 0 1 5.76 4.504l-11.099 8.26z" fill="#fff" stroke-width=".533"/></g></svg>