<?xml version="1.0" standalone="no"?> 
<!DOCTYPE svg PUBLIC "-//W3C//DTD SVG 1.1//EN" "http://www.w3.org/Graphics/SVG/1.1/DTD/svg11.dtd" >
<svg xmlns="http://www.w3.org/2000/svg">
<defs>
  <font id="iconfont" horiz-adv-x="40">
    <font-face font-family="iconfont"
      units-per-em="40" ascent="40"
      descent="0" />
    <missing-glyph horiz-adv-x="0" />
    <glyph glyph-name="ultrasonic"
      unicode="&#xF101;"
      horiz-adv-x="40" d=" M26.8 13H13.1C15.6 14.6 17 17.3 17 20.2C17 21.8 16.6 23.3 15.8 24.7S13.8 27 12.4 27.8H27.6C26.2 27 25.1 26.1 24.2 24.7S23 21.8 23 20.2C22.9 17.3 24.3 14.6 26.8 13L26.8 13L26.8 13z M8.6 12C4.1 12 0.4 15.7 0.4 20.2S4.1 28.4 8.6 28.4S16.8 24.7 16.8 20.2C16.7 15.7 13.1 12 8.6 12zM8.6 23.4C6.8 23.4 5.4 22 5.4 20.2S6.8 16.9 8.6 16.9S11.9 18.4 11.9 20.2S10.4 23.4 8.6 23.4z M31.4 12C26.9 12 23.2 15.7 23.2 20.2S26.9 28.4 31.4 28.4S39.6 24.7 39.6 20.2C39.5 15.7 35.9 12 31.4 12zM31.4 23.4C29.6 23.4 28.1 22 28.1 20.2S29.6 16.9 31.4 16.9S34.6 18.4 34.6 20.2S33.2 23.4 31.4 23.4z" />
    <glyph glyph-name="color"
      unicode="&#xF102;"
      horiz-adv-x="43.35195530726257" d=" M38.7 -0.1H4.7C3.4 -0.1 2.5 0.6 2.5 1.5V6.8H0.9A0.9608938547486034 0.9608938547486034 0 0 0 0 7.7V31.5A0.9608938547486034 0.9608938547486034 0 0 0 0.9 32.4H2.5V38.4C2.5 39.3 3.6 40 4.7 40H38.7C40 40 40.9 39.3 40.9 38.4V32.4H42.5A0.9608938547486034 0.9608938547486034 0 0 0 43.4 31.5V7.8A0.9608938547486034 0.9608938547486034 0 0 0 42.5 6.9H40.9V1.6C41.1 0.7 40 -0.1 38.7 -0.1zM21.7 35.1A11.374301675977657 11.374301675977657 0 0 1 13.6 15.5A4.916201117318437 4.916201117318437 0 0 1 13.4 13.7A8.268156424581006 8.268156424581006 0 0 1 29.9 13.7A4.916201117318437 4.916201117318437 0 0 1 29.7 15.5A12.379888268156424 12.379888268156424 0 0 1 33.1 23.6A11.1731843575419 11.1731843575419 0 0 1 21.7 35.1zM41.6 18.3V10.9H42.5V18.3zM1.1 18.3V10.9H2V18.3zM41.6 28.6V21.2H42.5V28.6zM1.1 28.6V21.2H2V28.6z M21.9 7.4A6.480446927374302 6.480446927374302 0 0 0 15.4 13.9A9.497206703910615 9.497206703910615 0 0 0 15.9 16.3A9.87709497206704 9.87709497206704 0 0 0 12.3 23.9A9.608938547486035 9.608938547486035 0 0 0 31.5 23.9A9.87709497206704 9.87709497206704 0 0 0 27.9 16.3A8.022346368715086 8.022346368715086 0 0 0 28.4 13.9A6.703910614525141 6.703910614525141 0 0 0 21.9 7.4zM21.9 16.3A2.4581005586592184 2.4581005586592184 0 1 1 24.4 13.9A2.837988826815643 2.837988826815643 0 0 1 21.9 16.3zM21.9 27.7A4.46927374301676 4.46927374301676 0 1 1 26.4 23.2A4.804469273743018 4.804469273743018 0 0 1 21.9 27.7z" />
    <glyph glyph-name="touch"
      unicode="&#xF103;"
      horiz-adv-x="40" d=" M34.3 3.3H4.9C3.8 3.3 2.8 3.9 2.8 4.8V9.3H1.5C1.1 9.3 0.7 9.7 0.7 10.1V30.5C0.7 30.9 1.1 31.3 1.5 31.3H2.8V36.6C2.8 37.4 3.7 38.1 4.9 38.1H16V36.6H22.7V38.1H34.2C35.3 38.1 36.3 37.5 36.3 36.6V31.3H37.6C37.9 31.3 38.3 30.9 38.3 30.5V10.1C38.3 9.7 37.9 9.3 37.6 9.3H36.3V4.8C36.3 3.9 35.3 3.3 34.3 3.3L34.3 3.3zM14.1 16.2C14.7 15.3 15.4 14.7 16.2 14.1V5.6H22.6V14.1C23.5 14.7 24.1 15.4 24.7 16.2H33.4V22.6H24.9C24.3 23.5 23.6 24.3 22.6 24.9V33.6H16.2V24.9C15.3 24.3 14.5 23.6 13.9 22.6H5.4V16.2H14.1L14.1 16.2zM36.6 19.2V13H37.4V19.2H36.6zM1.8 19.2V13H2.6V19.2H1.8zM36.6 28.1V21.9H37.4V28.1H36.6zM1.8 28.1V21.9H2.6V28.1H1.8zM19.4 15.4C18.8 15.4 18.5 15.4 18.1 15.6V17.1C18.1 17.5 17.9 17.7 17.5 17.7L17.5 17.7H16C15.8 18.1 15.6 18.6 15.6 19.2C15.6 19.8 15.6 20.3 16 20.7H17.3C18.1 20.7 18.1 21.6 18.1 21.6L18.1 21.6C18.1 21.8 18.1 22.4 18.1 22.9C18.5 23.1 19 23.1 19.4 23.1C20 23.1 20.5 23.1 21.1 22.9C21.1 22.5 21.1 22 21.1 21.6L21.1 21.6V21.4C21.1 21 21.3 20.8 21.7 20.8C21.7 20.8 21.7 20.8 21.9 20.8L21.9 20.8H23.4C23.8 20.4 23.8 19.9 23.8 19.3S23.6 18.2 23.4 17.8L23.4 17.8C23 17.8 22.5 17.6 22.1 17.6C21.7 17.6 21.3 17.4 21.3 17V15.5C20.7 15.3 20.4 15.3 19.8 15.3C19.4 15.4 19.4 15.4 19.4 15.4z" />
    <glyph glyph-name="gyro"
      unicode="&#xF104;"
      horiz-adv-x="23.578015492438215" d=" M17 0H6.4A5.901881224640355 5.901881224640355 0 0 0 5.1 0.3H2.3A1.283659166359277 1.283659166359277 0 0 0 1 1.6V4.5H0.5A0.5016599040944301 0.5016599040944301 0 0 0 0 5V35.4A0.5016599040944301 0.5016599040944301 0 0 0 0.5 35.9H1V38.7A1.283659166359277 1.283659166359277 0 0 0 2.3 40H10.6V39.6H12.8V40H21.2A1.283659166359277 1.283659166359277 0 0 0 22.5 38.7V35.9H23.1A0.5016599040944301 0.5016599040944301 0 0 0 23.6 35.4V5.1A0.5016599040944301 0.5016599040944301 0 0 0 23.1 4.6H22.5V1.6A1.283659166359277 1.283659166359277 0 0 0 21.2 0.4H18.5C18.4 0.1 17.2 0 17 0zM6.2 34.5L3.7 33.8A1.0033198081888601 1.0033198081888601 0 0 1 3.4 33.7A0.2360752489856142 0.2360752489856142 0 0 1 3.3 33.5A0.20656584286241245 0.20656584286241245 0 0 1 3.4 33.3L4.1 32.8A7.657690888970861 7.657690888970861 0 0 1 3.1 30A8.51346366654371 8.51346366654371 0 0 1 4.8 23.5C5.8 24.2 6.5 24.7 6.5 24.7A7.377351530800443 7.377351530800443 0 0 0 5.4 26.9A6.300258207303577 6.300258207303577 0 0 0 6 31.8L6.5 31.5H6.5L6.6 31.5A0.3541128734784213 0.3541128734784213 0 0 1 6.8 31.4A0.17705643673921065 0.17705643673921065 0 0 1 7 31.5A0.6344522316488379 0.6344522316488379 0 0 1 7 32L6.2 34.5zM17.5 31.8H17.5A6.300258207303577 6.300258207303577 0 0 0 18 26.9A7.510143858354851 7.510143858354851 0 0 0 17 24.7L17.1 24.6L18.6 23.5A8.631501291036518 8.631501291036518 0 0 1 20.3 30A7.657690888970861 7.657690888970861 0 0 1 19.3 32.8L19.8 33.1L20 33.2A0.22132054592401326 0.22132054592401326 0 0 1 20.1 33.4A0.26558465510881596 0.26558465510881596 0 0 1 20 33.6A1.0033198081888601 1.0033198081888601 0 0 1 19.7 33.7L17.2 34.5S17.1 34.1 17 33.6S16.6 32.3 16.5 32A0.619697528587237 0.619697528587237 0 0 1 16.5 31.5A0.17705643673921065 0.17705643673921065 0 0 1 16.6 31.4A0.48690520103282936 0.48690520103282936 0 0 1 16.8 31.4L16.8 31.4L17.4 31.7zM11.7 30.6A1.9918849133161198 1.9918849133161198 0 1 1 13.7 28.6A1.9918849133161198 1.9918849133161198 0 0 1 11.7 30.6H11.7z" />
    <glyph glyph-name="addpackage"
      unicode="&#xF105;"
      horiz-adv-x="40" d=" M20 35.7C11.3 35.7 4.3 28.7 4.3 20S11.3 4.3 20 4.3S35.7 11.3 35.7 20S28.7 35.7 20 35.7zM30.4 18.3H21.7V9.6H18.3V18.3H9.6V21.7H18.3V30.4H21.7V21.7H30.4V18.3z" />
    <glyph glyph-name="brick"
      unicode="&#xF106;"
      horiz-adv-x="40" d=" M34.3 0.9H5.7V39.1H34.4V0.9zM10.4 32.7V18.4H29.6V32.7H10.4z" />
    <glyph glyph-name="controls"
      unicode="&#xF107;"
      horiz-adv-x="40" d=" M6.1 33H9.6V5.2H6.1V33z M18.3 33H21.7V5.2H18.3V33z M30.4 33H33.9V5.2H30.4V33z M2.6 15.7H13V7H2.6V15.7z M14.8 31.3H25.2V22.6H14.8V31.3z M27 22.6H37.4V13.9H27V22.6z" />
    <glyph glyph-name="functions"
      unicode="&#xF108;"
      horiz-adv-x="40" d=" M12.2 25.4H9.1C9.1 26.3 9.1 26.5 9.9 26.5C11.5 26.5 12.5 27.2 13.1 28.6C13.8 30.1 14.8 31.5 15.7 33.1C16.5 34.3 18.1 35.3 19.7 35.5C20.7 35.7 21.9 35.3 22.5 34.5C22.8 33.9 22.8 33.4 22.6 32.7C22.3 32.2 21.8 32 21.1 32.2C20.5 32.2 20.2 32.7 20.2 33.3C20.2 33.4 20.2 33.4 20.2 33.6C20.2 33.9 20.4 34.3 20.4 34.6C20 34.6 19.5 34.8 19.2 34.6C18.5 34.3 17.9 33.9 17.4 33.1C16.7 32 16.2 30.6 15.7 29.4C15.3 28.6 15 27.3 14.8 26.5H17.2C17.1 26.1 17.1 25.8 16.9 25.4H14.5C13.9 23.5 13.6 21.9 12.9 20.2C12.2 16.7 10.8 13.4 9.4 10.1C8.7 8.6 7.7 7.3 6.6 6.3C5.8 5.4 4.5 4.9 3.3 4.9C2.6 4.7 1.8 5.1 1.1 5.4C0.7 5.8 0.5 6.5 0.7 7.2C1.1 7.7 1.6 8 2.5 7.9C3 7.9 3.2 7.3 3.2 6.8C3.2 6.6 3 6.5 3 6.5C2.8 6.3 2.8 6.1 2.8 5.9C3 5.9 3.2 5.8 3.5 5.8C4.4 5.8 5.4 6.3 5.9 7.2C6.5 8 7 9.1 7.2 9.9C8.5 15.2 10.1 20.4 11.7 25.4C12.2 25.3 12.2 25.3 12.2 25.4z M32.5 4.7C32.7 4.9 32.7 5.1 32.9 5.3C34.8 6.3 36 8.4 36.4 10.5C37.1 13.9 37.1 17.4 36.2 20.9C35.7 22.8 34.5 24.2 33.1 25.4C32.9 25.6 32.7 25.8 32.7 25.9C36 24.7 39.2 20.6 39.2 15.3C39.3 10.8 36.7 6.5 32.5 4.7z M23.9 25.8C23.9 25.6 23.7 25.4 23.7 25.4C21.8 24.4 20.5 22.3 20.2 20.2C19.5 16.7 19.5 13.3 20.4 9.6C20.9 7.7 22.1 6.3 23.5 5.1C23.7 4.9 23.9 4.9 23.9 4.6C20 6.5 17.4 10.5 17.6 15C17.4 20.7 20.9 24.9 23.9 25.8z M32 12.2C32 12.2 32.2 12.2 32.4 12C32.4 12 32.4 12 32.4 11.9C31.9 11 31.3 10.1 30.3 9.6C29.9 9.3 29.2 9.1 28.5 9.6C28.4 9.8 28.2 9.9 28.2 10.3C27.9 11.3 27.7 12.4 27.5 13.4C27.5 13.6 27.5 13.6 27.3 13.8C27.2 13.4 27 13.1 26.6 12.7C26.1 12 25.6 11 24.7 10.3C24.4 9.9 24 9.6 23.5 9.4C23 9.3 22.5 9.4 21.9 9.9V10.1C21.9 10.5 21.9 10.8 22.3 11C22.5 11.2 22.8 11.2 23.2 11L23.3 10.8C23.9 10.5 24 10.3 24.4 11C25.1 12 25.9 13.4 26.8 14.5C26.8 14.6 26.8 14.8 26.8 15C26.6 15.7 26.5 16.6 26.3 17.3C25.9 18.5 25.4 19 24 19H23.9C23.7 19.2 23.9 19.3 24 19.3C24.7 19.5 25.8 19.7 26.5 19.7C26.6 19.7 26.8 19.7 27 19.5C27.5 18.8 27.9 18.1 28 17.1C28 16.9 28.2 16.6 28.2 16.4C28.4 16.7 28.7 17.3 29.1 17.6C29.6 18.1 30.1 18.8 30.8 19.3C31.2 19.5 31.5 19.7 31.9 19.7C32.4 19.7 32.7 19.3 32.7 18.8V18.6C32.5 18.1 32.2 17.9 31.7 18.1L31.7 18.1C31.5 18.1 31.5 18.1 31.3 18.1C30.8 18.5 30.1 18.3 29.6 17.8L29.6 17.8C29.2 17.3 28.7 16.6 28.4 15.9C28.4 15.7 28.4 15.7 28.4 15.5C28.7 14.3 28.9 12.9 29.2 11.5C29.2 11.3 29.2 11.3 29.4 11.2C29.6 10.6 29.9 10.5 30.3 11C31.3 11.3 31.5 11.9 32 12.2z" />
    <glyph glyph-name="list"
      unicode="&#xF109;"
      horiz-adv-x="40" d=" M11.1 30.4H36.9V27.3H11.1V30.4z M11.1 22.4H36.9V19.3H11.1V22.4z M11.1 14.4H36.9V11.3H11.1V14.4z M5.6 27.3H3.8V33.6H2.4V34.6C3.3 34.6 4 35.1 4.2 36.2H5.6V27.3z M7.7 17.6V16H1.4V16.7C1.4 18.8 2.8 19.7 4 20.3C5.7 21.2 5.7 21.6 5.7 22.1C5.7 22.6 5.4 23.1 4.5 23.1C3.7 23.1 3.1 22.4 3.1 21.6H1.4C1.4 23.1 2.4 24.7 4.5 24.7C6.6 24.7 7.5 23.3 7.5 22.1C7.5 20.3 6.3 19.8 4.9 19C4 18.4 3.3 17.9 3.3 17.4H7.7z M4.5 4.5C2.4 4.5 1.4 5.9 1.2 7.5H3C3 6.6 3.5 6.1 4.5 6.1C5.6 6.1 6.1 6.6 6.1 7.3C6.1 8 5.6 8.5 4.7 8.5H4.2V9.9H4.5C5.6 9.9 5.9 10.4 5.9 11C5.9 11.7 5.4 12 4.7 12C3.8 12 3.3 11.3 3.3 10.6H1.6C1.6 12.2 2.6 13.6 4.5 13.6C6.4 13.6 7.5 12.3 7.5 11.1C7.5 10.4 7.1 9.7 6.3 9.4C7.3 9 7.7 8.2 7.7 7.3C7.8 6.1 6.8 4.5 4.5 4.5z" />
    <glyph glyph-name="logic"
      unicode="&#xF10A;"
      horiz-adv-x="40" d=" M2.8 14.1H7.4C10 14.2 12.2 16 13.1 18.6C15 23.1 18.3 31.3 23.7 31.3S29.8 31.3 29.8 31.3V35.8L36.9 28.3L29.8 21.5V26.4H24.9C22.3 25.7 20.2 24 19.4 21.5C17.3 17 15.2 9.4 8.2 9.2C5.1 9.2 3 9.2 3 9.2V14.1z M2.8 31.1V26.2H8.2C8.2 26.2 11.4 26.2 13.1 22.1C13.8 23.8 14.7 25.4 15.7 26.9C15.7 26.9 12.2 30.9 8.4 30.9S2.8 31.1 2.8 31.1z M19.5 18.4C19.5 18.4 21.8 13.9 24.4 13.9H30V18.4L37.3 11.3L30 4.2V9H23.7C23.7 9 20.2 9 16.9 13.4C18 14.9 18.8 16.7 19.5 18.4z" />
    <glyph glyph-name="loops"
      unicode="&#xF10B;"
      horiz-adv-x="40" d=" M6.3 12.7C4.5 15.2 2.6 17.4 0.9 20H4.5C4.5 24.2 6.3 28.4 9.2 31.3C11.3 33.4 13.7 34.8 16.7 35.3C21.9 36.6 27.3 35 31.1 31.2C30.3 30.3 29.4 29.4 28.7 28.7C24.2 32.6 19.3 33.3 14.1 30.5C10.3 28.4 8.2 24.4 8.2 20.2H11.8C9.7 17.6 7.8 15 6.3 12.7z M32.2 20H28.5C30.4 22.5 32.2 24.7 33.9 27.3C35.8 24.9 37.6 22.6 39.3 20H35.6C35.6 15.7 33.7 11.5 30.6 8.6C28.5 6.6 26.1 5.3 23.3 4.7C18.1 3.5 12.7 5.1 8.9 8.9L11.3 11.3C15.6 7.5 20.7 6.6 25.9 9.6C29.9 11.7 32.2 15.7 32.2 20z" />
    <glyph glyph-name="math"
      unicode="&#xF10C;"
      horiz-adv-x="40" d=" M15.2 5.3C14.9 4.9 14.2 4.2 13.8 3.9L9.3 8.4C7.6 6.7 6.2 5.3 4.8 3.9C4.4 4.2 3.8 4.9 3.4 5.3L7.9 9.8C6.2 11.5 4.8 12.9 3.4 14.3C3.8 14.7 4.4 15.4 4.8 15.7L9.3 11.2L13.8 15.7C14.2 15.4 14.9 14.7 15.2 14.3L10.7 9.8C12.1 8.2 13.7 6.7 15.2 5.3z M1.5 28V30H7.9V36.4C8.6 36.4 9.1 36.4 9.8 36.4V30H16.3V28H9.8V21.6H7.8V28H1.5z M38.4 10.7H22V14.1H38.4V10.7z M38.4 7.2V3.7H22V7.2H38.4z M38.4 31V27.5H22V31H38.4z" />
    <glyph glyph-name="motors"
      unicode="&#xF10D;"
      horiz-adv-x="40" d=" M28.9 25.8C27.5 24.4 25.9 22.9 24.5 21.5H35.7V32.6L32.2 29.1C29.6 32.3 25.9 34.3 21.8 34.9C18.3 35.4 14.6 34.5 11.7 32.6C4.2 28.1 1.9 18.3 6.5 10.9S20.7 1.1 28.2 5.6C30.8 7.2 32.7 9.5 34.1 12.1C32.7 12.6 31.3 13.3 29.9 13.8C28.5 11 25.9 9 23 8.1C20.7 7.4 18.3 7.6 16 8.4C10.3 10.7 7.3 17.1 9.4 22.9C10.6 26.3 13.6 29 17.1 29.8C21.6 31.2 26.3 29.5 28.9 25.8z M16.7 19C16.7 17.1 18.3 15.7 20 15.7S23.3 17.3 23.3 19C23.3 21 21.8 22.3 20 22.3C18.1 22.5 16.7 21 16.7 19C16.7 19 16.7 19 16.7 19z" />
    <glyph glyph-name="music"
      unicode="&#xF10E;"
      horiz-adv-x="40" d=" M24.2 17.7C27.1 17.2 29.9 15.7 31.7 13.2C32.5 13.2 33.4 13.2 33.4 13.2S36 20.9 30.3 26.3S13.4 31.7 9.2 26.3C6.3 22.6 5.2 17.6 6.8 13.2C7.3 13.2 7.7 13.2 8.2 13.2C8.2 13.2 11.1 17.6 15.8 17.7C15.7 10.1 15.7 3.5 15.7 3.5C12.3 4.2 9.6 6.3 8 9.4C4.5 10.1 1.7 13.2 1.7 17C1.7 28.3 10.3 34.8 20 34.8S38.8 27.3 38.1 17C37.7 9.9 31.8 9.4 31.8 9.4C30.4 6.3 27.7 4 24.3 3.5C24.2 11.3 24.2 17.7 24.2 17.7z" />
    <glyph glyph-name="sensors"
      unicode="&#xF10F;"
      horiz-adv-x="40" d=" M20 36.9C10.6 36.9 3 29.2 3 19.8C3 10.4 10.6 2.8 20 2.8S37 10.4 37 19.8C36.9 29.4 29.4 36.9 20 36.9zM20 8.2C13.4 8.2 8.2 13.6 8.2 20S13.6 31.8 20 31.8S31.8 26.4 31.8 20S26.6 8.2 20 8.2z M13.2 20C13.2 16.3 16.3 13.2 20 13.2C23.7 13.2 26.8 16.3 26.8 20C26.8 23.7 23.7 26.8 20 26.8C16.3 26.8 13.2 23.7 13.2 20z" />
    <glyph glyph-name="text"
      unicode="&#xF110;"
      horiz-adv-x="40" d=" M23.1 30.6V2.8H16.5V30.6H7.7V36.7H32.3V30.6H23.1z" />
    <glyph glyph-name="variables"
      unicode="&#xF111;"
      horiz-adv-x="40" d=" M36.8 12V7.8H3.4V12H36.8z M36.8 22.1V17.9H3.4V22.1H36.8z M36.7 32.2V28H3.3V32.2H36.7z" />
    <glyph glyph-name="console"
      unicode="&#xF112;"
      horiz-adv-x="40" d=" M15.6 21.3L2.3 15L2.3 19.8L11.1 23.6L2.3 27.4L2.3 32.2L15.6 25.9L15.6 21.3z M36 9.1L16.6 9.1L16.6 12.2L36 12.2L36 9.1z" />
    <glyph glyph-name="advancedcollapsed"
      unicode="&#xF113;"
      horiz-adv-x="40" d=" M39.7 28.2L36.2 31.5L20 15.3L3.8 31.5L0.3 28.2L18.3 10.3L18.3 10.3L20 8.5L20.5 9L20.5 9z" />
    <glyph glyph-name="advancedexpanded"
      unicode="&#xF114;"
      horiz-adv-x="40" d=" M39.3 12L21.7 29.6L21.7 29.6L20 31.3L19.5 30.8L19.5 30.8L0.7 12L4 8.7L20 24.7L36 8.7z" />
    <glyph glyph-name="cancel"
      unicode="&#xF115;"
      horiz-adv-x="40" d=" M33 29.6L29.4 33.2L20.2 24L11 33.2L7.3 29.6L16.5 20.3L7.3 11.1L11 7.3L20.2 16.5L29.4 7.3L33 11.1L23.8 20.3z" />
    <glyph glyph-name="check"
      unicode="&#xF116;"
      horiz-adv-x="40" d=" M33.7 32.9L15.3 14.4L7.5 22.3L3.8 18.4L11.7 10.8L11.7 10.8L15.3 7.1L37.4 29.2z" />
    <glyph glyph-name="download"
      unicode="&#xF117;"
      horiz-adv-x="40" d=" M5.2 15.7H36.5V1.7H5.2V15.7z M28.5 24.2L26.1 26.6L22.6 23.1L22.6 36.5L19.1 36.5L19.1 23.5L16 26.6L13.6 24.2L20.9 16.7L21 16.9L21.2 16.7z" />
    <glyph glyph-name="save"
      unicode="&#xF118;"
      horiz-adv-x="40" d=" M25 34.5C25 33.6 25 32.8 25 31.9C25 31 24.7 30.9 24 30.9C23.5 30.9 22.8 30.9 22.4 30.9C22.1 30.9 21.4 31 21.4 31.7V31.9V36.9C21.4 37.3 21.6 37.8 22.3 38C22.3 38 22.3 38 22.4 38C23 38 23.7 38 24.2 38C24.7 38 25.2 37.6 25.2 37.1C25.2 37.1 25.2 37.1 25.2 36.9C25 36.3 25 35.2 25 34.5z M37.6 31.2C35.8 32.9 34.3 34.5 32.5 36.3C31 37.8 31 37.8 28.5 37.8C27.5 37.8 27.3 37.6 27.3 36.6V28.4C27.3 27.4 27.1 27.2 26.1 27.2H14.3C13.2 27.2 13 27.4 13 28.4V36.4C13 37.6 12.9 37.8 11.7 37.8H3.8C2.6 37.8 2.4 37.6 2.4 36.4V19.9C2.4 14.3 2.4 8.9 2.4 3.2C2.4 2 2.6 1.8 3.7 1.8H36.9C37.9 1.8 38.1 2.2 38.1 3.2V29.6C38.3 30.5 37.9 30.9 37.6 31.2zM33.7 6.7H7.1V23H33.7V6.7z" />
    <glyph glyph-name="blocks"
      unicode="&#xF119;"
      horiz-adv-x="40" d=" M10.9 23H39V16.9H10.9V23z M39.2 27.1L39.2 33L0.9 33L0.9 31.1L0.9 27.1L0.9 12.9L0.9 7L39.2 7L39.2 12.9L6.9 12.9L6.9 27.1z" />
    <glyph glyph-name="search"
      unicode="&#xF11A;"
      horiz-adv-x="40" d=" M38.6 4.9L29.6 13.9C31.5 16.5 32.7 19.7 32.7 23.1C32.7 31.8 25.7 38.8 17 38.8C8.3 38.8 1.4 31.8 1.4 23.1C1.4 14.4 8.3 7.5 17 7.5C20.3 7.5 23.3 8.5 25.9 10.3L35 1.2L38.6 4.9zM17 12.7C11.3 12.7 6.6 17.4 6.6 23.1S11.3 33.6 17 33.6S27.5 28.9 27.5 23.1S22.8 12.7 17 12.7z" />
  </font>
</defs>
</svg>
