<svg xmlns="http://www.w3.org/2000/svg" width="261.3" height="109.3" viewBox="0 0 69.1 28.9" id="svg9461">
  <defs id="defs9455">
    <clipPath id="clipPath8689">
      <path d="M0 1145.9h1366V0H0z" id="path8687"/>
    </clipPath>
    <clipPath id="clipPath8663">
      <path d="M309.8 89.4h3.7v3.7h-3.7z" id="path8661"/>
    </clipPath>
    <clipPath id="clipPath8647">
      <path d="M0 1145.9h1366V0H0z" id="path8645"/>
    </clipPath>
    <linearGradient x2="1" gradientUnits="userSpaceOnUse" gradientTransform="matrix(0 .6661 -.32488 0 300.7 115)" id="linearGradient8637">
      <stop offset="0" id="stop8633" stop-color="#757575"/>
      <stop offset="1" id="stop8635" stop-color="#393939"/>
    </linearGradient>
    <clipPath id="clipPath8595">
      <path d="M0 1145.9h1366V0H0z" id="path8593"/>
    </clipPath>
    <linearGradient x2="1" gradientUnits="userSpaceOnUse" gradientTransform="matrix(0 12.8096 -17.18704 0 300.7 98.4)" id="linearGradient8585">
      <stop offset="0" id="stop8579" stop-color="#6a6a6a"/>
      <stop offset=".5" id="stop8581" stop-color="#48e400"/>
      <stop offset="1" id="stop8583" stop-color="#6a6a6a"/>
    </linearGradient>
    <clipPath id="clipPath8561">
      <path d="M0 1145.9h1366V0H0z" id="path8559"/>
    </clipPath>
    <linearGradient x2="1" gradientUnits="userSpaceOnUse" gradientTransform="matrix(0 -1.33016 5.597 0 300.7 88.4)" id="linearGradient8551">
      <stop offset="0" id="stop8547" stop-color="#a9aba9"/>
      <stop offset="1" id="stop8549" stop-color="#535453"/>
    </linearGradient>
    <clipPath id="clipPath8525">
      <path d="M0 1145.9h1366V0H0z" id="path8523"/>
    </clipPath>
    <linearGradient x2="1" gradientUnits="userSpaceOnUse" gradientTransform="matrix(0 -.56074 .70884 0 300.7 115.6)" id="linearGradient8515">
      <stop offset="0" id="stop8511" stop-color="#a9aba9"/>
      <stop offset="1" id="stop8513" stop-color="#818181"/>
    </linearGradient>
    <clipPath id="clipPath8493">
      <path d="M0 1145.9h1366V0H0z" id="path8491"/>
    </clipPath>
    <linearGradient x2="1" gradientUnits="userSpaceOnUse" gradientTransform="matrix(0 -2.39765 2.48247 0 300.7 98.1)" id="linearGradient8483">
      <stop offset="0" id="stop8479" stop-color="#f2f2f2"/>
      <stop offset="1" id="stop8481" stop-color="#7a7a7a"/>
    </linearGradient>
    <clipPath id="clipPath8449">
      <path d="M0 1145.9h1366V0H0z" id="path8447"/>
    </clipPath>
    <clipPath id="clipPath8977">
      <path d="M0 1145.9h1366V0H0z" id="path8975"/>
    </clipPath>
    <clipPath id="clipPath8951">
      <path d="M593 101h3.6v3.7H593z" id="path8949"/>
    </clipPath>
    <clipPath id="clipPath8935">
      <path d="M0 1145.9h1366V0H0z" id="path8933"/>
    </clipPath>
    <linearGradient x2="1" gradientUnits="userSpaceOnUse" gradientTransform="matrix(0 .67046 -.32706 0 583.8 126.8)" id="linearGradient8925">
      <stop offset="0" id="stop8921" stop-color="#757575"/>
      <stop offset="1" id="stop8923" stop-color="#393939"/>
    </linearGradient>
    <clipPath id="clipPath8883">
      <path d="M0 1145.9h1366V0H0z" id="path8881"/>
    </clipPath>
    <linearGradient x2="1" gradientUnits="userSpaceOnUse" gradientTransform="matrix(0 12.89405 -17.29507 0 583.7 110)" id="linearGradient8873">
      <stop offset="0" id="stop8867" stop-color="#6a6a6a"/>
      <stop offset=".5" id="stop8869" stop-color="#48e400"/>
      <stop offset="1" id="stop8871" stop-color="#6a6a6a"/>
    </linearGradient>
    <clipPath id="clipPath8849">
      <path d="M0 1145.9h1366V0H0z" id="path8847"/>
    </clipPath>
    <linearGradient x2="1" gradientUnits="userSpaceOnUse" gradientTransform="matrix(0 -1.33884 5.6329 0 583.7 100)" id="linearGradient8839">
      <stop offset="0" id="stop8835" stop-color="#a9aba9"/>
      <stop offset="1" id="stop8837" stop-color="#535453"/>
    </linearGradient>
    <clipPath id="clipPath8813">
      <path d="M0 1145.9h1366V0H0z" id="path8811"/>
    </clipPath>
    <linearGradient x2="1" gradientUnits="userSpaceOnUse" gradientTransform="matrix(0 -.56429 .71345 0 583.7 127.4)" id="linearGradient8803">
      <stop offset="0" id="stop8799" stop-color="#a9aba9"/>
      <stop offset="1" id="stop8801" stop-color="#818181"/>
    </linearGradient>
    <clipPath id="clipPath8781">
      <path d="M0 1145.9h1366V0H0z" id="path8779"/>
    </clipPath>
    <linearGradient x2="1" gradientUnits="userSpaceOnUse" gradientTransform="matrix(0 -2.41323 2.4988 0 583.7 109.8)" id="linearGradient8771">
      <stop offset="0" id="stop8767" stop-color="#f2f2f2"/>
      <stop offset="1" id="stop8769" stop-color="#7a7a7a"/>
    </linearGradient>
    <clipPath id="clipPath8737">
      <path d="M0 1145.9h1366V0H0z" id="path8735"/>
    </clipPath>
    <clipPath id="clipPath9285">
      <path d="M0 1145.9h1366V0H0z" id="path9283"/>
    </clipPath>
    <clipPath id="clipPath9259">
      <path d="M852.5 96.3h3.3v3.3h-3.3z" id="path9257"/>
    </clipPath>
    <clipPath id="clipPath9243">
      <path d="M0 1145.9h1366V0H0z" id="path9241"/>
    </clipPath>
    <linearGradient x2="1" gradientUnits="userSpaceOnUse" gradientTransform="matrix(0 .61565 -.3002 0 844 120)" id="linearGradient9233">
      <stop offset="0" id="stop9229" stop-color="#757575"/>
      <stop offset="1" id="stop9231" stop-color="#393939"/>
    </linearGradient>
    <clipPath id="clipPath9191">
      <path d="M0 1145.9h1366V0H0z" id="path9189"/>
    </clipPath>
    <linearGradient x2="1" gradientUnits="userSpaceOnUse" gradientTransform="matrix(0 11.84237 -15.8829 0 844 104.6)" id="linearGradient9181">
      <stop offset="0" id="stop9175" stop-color="#6a6a6a"/>
      <stop offset=".5" id="stop9177" stop-color="#48e400"/>
      <stop offset="1" id="stop9179" stop-color="#6a6a6a"/>
    </linearGradient>
    <clipPath id="clipPath9157">
      <path d="M0 1145.9h1366V0H0z" id="path9155"/>
    </clipPath>
    <linearGradient x2="1" gradientUnits="userSpaceOnUse" gradientTransform="matrix(0 -1.22922 5.1724 0 844 95.3)" id="linearGradient9147">
      <stop offset="0" id="stop9143" stop-color="#a9aba9"/>
      <stop offset="1" id="stop9145" stop-color="#535453"/>
    </linearGradient>
    <clipPath id="clipPath9121">
      <path d="M0 1145.9h1366V0H0z" id="path9119"/>
    </clipPath>
    <linearGradient x2="1" gradientUnits="userSpaceOnUse" gradientTransform="matrix(0 -.51809 .65506 0 844 120.5)" id="linearGradient9111">
      <stop offset="0" id="stop9107" stop-color="#a9aba9"/>
      <stop offset="1" id="stop9109" stop-color="#818181"/>
    </linearGradient>
    <clipPath id="clipPath9089">
      <path d="M0 1145.9h1366V0H0z" id="path9087"/>
    </clipPath>
    <linearGradient x2="1" gradientUnits="userSpaceOnUse" gradientTransform="matrix(0 -2.21578 2.29436 0 844 104.3)" id="linearGradient9079">
      <stop offset="0" id="stop9075" stop-color="#f2f2f2"/>
      <stop offset="1" id="stop9077" stop-color="#7a7a7a"/>
    </linearGradient>
    <clipPath id="clipPath9009">
      <path d="M0 1145.9h1366V0H0z" id="path9007"/>
    </clipPath>
    <clipPath id="clipPath9041">
      <path d="M779.5 134.7h16.7v-12.6h-16.7z" id="path9039"/>
    </clipPath>
    <clipPath id="clipPath9045">
      <path d="M779.5 134.7h16.7v-12.6h-16.7z" id="path9043"/>
    </clipPath>
    <clipPath id="clipPath8907">
      <path d="M0 1145.9h1366V0H0z" id="path8905"/>
    </clipPath>
    <clipPath id="clipPath8881">
      <path d="M309.8 89.4h3.7v3.7h-3.7z" id="path8879"/>
    </clipPath>
    <clipPath id="clipPath8865">
      <path d="M0 1145.9h1366V0H0z" id="path8863"/>
    </clipPath>
    <clipPath id="clipPath8813-1">
      <path d="M0 1145.9h1366V0H0z" id="path8811-4"/>
    </clipPath>
    <clipPath id="clipPath8779">
      <path d="M0 1145.9h1366V0H0z" id="path8777"/>
    </clipPath>
    <clipPath id="clipPath8743">
      <path d="M0 1145.9h1366V0H0z" id="path8741"/>
    </clipPath>
    <clipPath id="clipPath8711">
      <path d="M0 1145.9h1366V0H0z" id="path8709"/>
    </clipPath>
    <clipPath id="clipPath8667">
      <path d="M0 1145.9h1366V0H0z" id="path8665"/>
    </clipPath>
  </defs>
  <g id="layer1" transform="translate(0 -268)">
    <g id="g11329" transform="matrix(.35278 0 0 -.35278 -42.7 327.3)">
      <g id="g8661">
        <g clip-path="url(#clipPath8667)" id="g8663">
          <g transform="translate(134 148)" id="g8669">
            <path id="path8671" d="M0 0h83a4 4 0 0 0 4-4v-52.5H-4V-4a4 4 0 0 0 4 4" fill="#e6e6e6"/>
          </g>
          <g transform="translate(134 146.5)" id="g8673">
            <path id="path8675" d="M0 0h83c1.3 0 2.4-1.1 2.4-2.5V-52c0-.9-.6-1.5-1.5-1.5H-1c-.8 0-1.5.6-1.5 1.5v49.5C-2.5-1.1-1.4 0 0 0z" fill="none" stroke="#282828" stroke-width="3"/>
          </g>
          <g transform="translate(121 91)" id="g8677">
            <path id="path8679" d="M0 0h108.8v-1.2a3 3 0 0 0-3-3H3a3 3 0 0 0-3 3z" fill="#626262"/>
          </g>
          <g transform="translate(165.8 91)" id="g8681">
            <path id="path8683" d="M0 0h19.3c0-.8-.6-1.4-1.4-1.4H1.4C.6-1.4 0-.8 0 0" fill="#818181"/>
          </g>
        </g>
      </g>
      <g id="g8685">
        <g id="g8687">
          <g id="g8693">
            <g id="g8695">
              <path id="path8703" d="M285 127.8a.6.6 0 0 1-.7-.5V96.9c0-.3.3-.6.6-.6h31.5c.3 0 .6.3.6.6v30.4c0 .3-.3.5-.6.5z" fill="url(#linearGradient8483)"/>
            </g>
          </g>
        </g>
      </g>
      <g id="g8705">
        <g clip-path="url(#clipPath8711)" id="g8707">
          <g transform="translate(286.8 99.6)" id="g8713">
            <path id="path8715" d="M0 0h27.8c.4 0 .6-.3.6-.6v-11.3c0-.4-.2-.6-.6-.6H0c-.3 0-.6.2-.6.6V-.6c0 .3.3.6.6.6" fill="#f2f2f2"/>
          </g>
        </g>
      </g>
      <g id="g8717">
        <g id="g8719">
          <g id="g8725">
            <g id="g8727">
              <path id="path8735-5" d="M286.5 137.2a.6.6 0 0 1-.6-.6v-22.2c0-.3.3-.6.6-.6h28.4c.3 0 .5.3.5.6v22.2c0 .3-.2.6-.5.6z" fill="url(#linearGradient8515)"/>
            </g>
          </g>
        </g>
      </g>
      <g id="g8737">
        <g clip-path="url(#clipPath8743)" id="g8739">
          <g transform="translate(289.7 134.1)" id="g8745">
            <path id="path8747" d="M0 0h22c.6 0 1-.5 1-1.1v-12.4c0-.6-.4-1-1-1H0c-.6 0-1.1.4-1.1 1V-1c0 .5.5 1 1.1 1" fill="#393939"/>
          </g>
          <g transform="translate(291.4 133.5)" id="g8749">
            <path id="path8751" d="M0 0h18.7c.4 0 .8-.4.8-.8v-11.9c0-.4-.4-.8-.8-.8H0c-.4 0-.8.3-.8.8V-.8c0 .4.4.8.8.8" fill="#98b6a7"/>
          </g>
        </g>
      </g>
      <g id="g8753">
        <g id="g8755">
          <g id="g8761">
            <g id="g8763">
              <path id="path8771" d="M286.2 94v-6.4c0-.3.2-.6.6-.6h27.8c.3 0 .6.3.6.6V94z" fill="url(#linearGradient8551)"/>
            </g>
          </g>
        </g>
      </g>
      <g id="g8773">
        <g clip-path="url(#clipPath8779)" id="g8775">
          <g transform="translate(298.7 97.7)" id="g8781">
            <path id="path8783" d="M0 0l-4.2 4.2v.5h-1a2.4 2.4 0 0 0 0 5h1v.5L0 14.4h4l4.2-4.2v-.6h1a2.4 2.4 0 1 0 0-4.9h-1v-.5L4.2 0z" fill="#6a6a6a"/>
          </g>
        </g>
      </g>
      <g id="g8785">
        <g id="g8787">
          <g id="g8793">
            <g id="g8795">
              <path id="path8805" d="M298.7 112.1l-4.2-4.3v-.5h-1c-1.4 0-2.5-1-2.5-2.4s1.1-2.5 2.5-2.5h1v-.5l4.2-4.2h4.2l4 4.2v.5h1c1.4 0 2.5 1.1 2.5 2.5 0 1.3-1.1 2.4-2.5 2.4h-1v.6l-4 4.2z" fill="url(#linearGradient8585)"/>
            </g>
          </g>
        </g>
      </g>
      <g id="g8807">
        <g clip-path="url(#clipPath8813-1)" id="g8809">
          <g transform="translate(293.4 106.7)" id="g8815">
            <path id="path8817" d="M0 0h3v-3.6H0c-1 0-1.8.8-1.8 1.8S-1 0 0 0" fill="#a9aba9"/>
          </g>
          <g transform="translate(308 103.1)" id="g8819">
            <path id="path8821" d="M0 0h-3v3.6h3c1 0 1.8-.8 1.8-1.8S1 0 0 0" fill="#a9aba9"/>
          </g>
          <g transform="translate(299 106.7)" id="g8823">
            <path id="path8825" d="M0 0h3.5l.2-.1v-3.4l-.2-.1H0l-.1.1V0H0" fill="#393939"/>
          </g>
          <g transform="translate(298.8 111.4)" id="g8827">
            <path id="path8829" d="M0 0h3.8l2.8-2.9L5.4-4v-2.1h-1V-5c0 .5-.5.9-1 .9H.2a.7.7 0 0 1-.8-.8V-6h-1v2l-1.2 1.2z" fill="#a9aba9"/>
          </g>
          <g transform="translate(302.6 98.4)" id="g8831">
            <path id="path8833" d="M0 0h-3.7l-2.9 2.9L-5.4 4v2.1h1V5c0-.5.5-.9 1-.9h3.2c.4 0 .8.4.8.8v1.3h1v-2L2.8 3z" fill="#a9aba9"/>
          </g>
          <path id="path8835" d="M300.3 119.6h.9v-4.1h-1z" fill="#393939"/>
          <path id="path8837" d="M300.3 115.7h.9v-1.8h-1z" fill="#9b9b9b"/>
        </g>
      </g>
      <g id="g8839">
        <g id="g8841">
          <g id="g8847">
            <g id="g8849">
              <path id="path8857" d="M300.3 113.8h.9v1.9h-1z" fill="url(#linearGradient8637)"/>
            </g>
          </g>
        </g>
      </g>
      <g id="g8859">
        <g clip-path="url(#clipPath8865)" id="g8861">
          <path id="path8867" d="M300.3 113.8h.9v-1.7h-1z" fill="#818181"/>
          <g transform="translate(288.2 113.8)" id="g8869">
            <path id="path8871" d="M0 0h7v-1.7L5.2-3.4H.6c-.3 0-.6.2-.6.5z" fill="#a9aba9"/>
          </g>
          <path id="path8873" d="M309.9 93h3.6v-3.6h-3.6z" fill="#fff"/>
        </g>
      </g>
      <g id="g8875">
        <g clip-path="url(#clipPath8881)" id="g8877">
          <g transform="translate(313.2 91.6)" id="g8883">
            <path id="path8885" d="M0 0v-.3C-.3-.7-.4-1-.8-1l-.3.2v.1a.6.6 0 0 0-.5-.3c-.1 0-.2 0-.3.2l-.4-.1h-.6c-.2 0-.3 0-.3.2l.3 1h.4V0l.1.1.5.2.3-.1h.3c.2.1.3 0 .4 0V.1l.4.2.3-.1L0 0m-3.4-2.1H.2v3.6h-3.6z" fill="#fe0"/>
          </g>
          <g transform="translate(313.3 91.4)" id="g8887">
            <path id="path8889" d="M0 0c0-.2 0-.3-.2-.5 0-.2-.3-.4-.6-.4l-.4.1a.7.7 0 0 0-.4-.1H-2a.6.6 0 0 0-.4 0H-3c-.3 0-.4.1-.4.3 0 .4.1.7.3 1 0 .2.2.2.4.2h2.1L0 .5V0m-3.5-2H.1v3.6h-3.6z" fill="#d52715"/>
          </g>
          <path id="path8891" d="M313.4 89.5H310V93h3.5zm-3.6 0h3.7V93h-3.7z" fill="#171714"/>
          <g transform="translate(313.3 92)" id="g8893">
            <path id="path8895" d="M0 0v-.2.2m0 0v-.2.1m0 0zm0 0z" fill="#171714"/>
          </g>
          <g transform="translate(312.9 91.6)" id="g8897">
            <path id="path8899" d="M0 0l-.2-.5v-.1h-.1c0 .2 0 .4.2.6H0m.3-.2L0-.6C0-.8-.2-1-.3-1c-.2 0-.3 0-.3.3l.1.5c.1.2.2.4.5.4s.3-.3.3-.5M-1 .1V0l-.3-.5.1-.1.2.2c0 .2 0 .2.2.2s.2-.1.1-.2c0-.3-.2-.5-.5-.5a.3.3 0 0 0-.2.3v.5c.2.2.3.4.6.4.2 0 .3 0 .3-.2 0-.1 0-.2-.2-.2h-.1v.2m-1-.5v-.2h.3c0-.2-.2-.3-.3-.3-.2 0-.3.1-.3.2 0 .3 0 .5.2.7 0 .2.2.3.4.3l.2-.1c0-.1 0-.2-.2-.2h-.1v-.1c.1 0 .2 0 .1-.2h-.3m-.6-.3h.2c0-.2-.1-.3-.3-.3 0 0-.2 0-.2.2l.3.9s.1.1.2 0h.1c0-.3-.1-.5-.3-.8M0 .4C-.2.4-.3.4-.4.2l-.4.2-.4-.1-.3.1c-.2 0-.3 0-.4-.2v.1l-.3.1s-.2 0-.3-.2l-.3-.9c0-.2.1-.3.3-.3l.4.1h.9l.5.1.4-.2c.3 0 .5.3.6.7V0a.4.4 0 0 1-.3.4" fill="#171714"/>
          </g>
        </g>
      </g>
      <g id="g8901">
        <g clip-path="url(#clipPath8907)" id="g8903">
          <g transform="translate(295 91.5)" id="g8909">
            <path id="path8911" d="M0 0v-.3h-.6l-.1-.1v-.4H0v-.4h-1l-.2.1h-.3l-.1-.1v-.5l.1-.1H.6V.5h-2.2v-.6h.5V0H0z" fill="#f2f2f2"/>
          </g>
          <g transform="translate(293 92)" id="g8913">
            <path id="path8915" d="M0 0h-.5l-.1-.1-.6-1.3L-2 0h-.6v-.1l.9-2 .2-.1h.4l.1.1 1 2V0" fill="#f2f2f2"/>
          </g>
          <g transform="translate(290 91.1)" id="g8917">
            <path id="path8919" d="M0 0h.1v-.4L0-.5h-1.5v-.3H0L.1-1v-.4h-2.2v2c0 .1 0 .2.1.1H.1V.4h-1.6V0z" fill="#f2f2f2"/>
          </g>
          <path id="path8921" d="M249 87h-13v7.9h13z" fill="#a9aba9"/>
          <path id="path8923" d="M263.5 87h-12.9v7.9h12.9z"/>
          <path id="path8925" d="M240.7 92.2h-1.3v1.4h1.3z"/>
          <path id="path8927" d="M240.7 88.2h-1.3v1.4h1.3z"/>
          <path id="path8929" d="M258.2 86h-14.5v9.9h14.5z"/>
          <path id="path8931" d="M311.6 141h-5v9h5z" fill="#a9aba9"/>
          <path id="path8933-4" d="M311.2 151.6h-4v9.3h4z"/>
          <path id="path8935" d="M311.2 141.4h-.3v3h.3z"/>
          <path id="path8937" d="M307.3 141.4h-.4v3h.4z"/>
          <path id="path8939" d="M312.9 145h-7.3v12.2h7.3z"/>
          <g transform="translate(309.2 158)" id="g8941">
            <path id="path8943" d="M0 0v8.8h-36.4v-75.5h-15.1" fill="none" stroke="#000" stroke-width="2"/>
          </g>
        </g>
      </g>
    </g>
  </g>
</svg>
