<svg xmlns="http://www.w3.org/2000/svg" width="261.3" height="109.3" viewBox="0 0 69.1 28.9" id="svg9461">
  <defs id="defs9455">
    <clipPath id="clipPath8689">
      <path d="M0 1145.9h1366V0H0z" id="path8687"/>
    </clipPath>
    <clipPath id="clipPath8663">
      <path d="M309.8 89.4h3.7v3.7h-3.7z" id="path8661"/>
    </clipPath>
    <clipPath id="clipPath8647">
      <path d="M0 1145.9h1366V0H0z" id="path8645"/>
    </clipPath>
    <linearGradient x2="1" gradientUnits="userSpaceOnUse" gradientTransform="matrix(0 .6661 -.32488 0 300.7 115)" id="linearGradient8637">
      <stop offset="0" id="stop8633" stop-color="#757575"/>
      <stop offset="1" id="stop8635" stop-color="#393939"/>
    </linearGradient>
    <clipPath id="clipPath8595">
      <path d="M0 1145.9h1366V0H0z" id="path8593"/>
    </clipPath>
    <linearGradient x2="1" gradientUnits="userSpaceOnUse" gradientTransform="matrix(0 12.8096 -17.18704 0 300.7 98.4)" id="linearGradient8585">
      <stop offset="0" id="stop8579" stop-color="#6a6a6a"/>
      <stop offset=".5" id="stop8581" stop-color="#48e400"/>
      <stop offset="1" id="stop8583" stop-color="#6a6a6a"/>
    </linearGradient>
    <clipPath id="clipPath8561">
      <path d="M0 1145.9h1366V0H0z" id="path8559"/>
    </clipPath>
    <linearGradient x2="1" gradientUnits="userSpaceOnUse" gradientTransform="matrix(0 -1.33016 5.597 0 300.7 88.4)" id="linearGradient8551">
      <stop offset="0" id="stop8547" stop-color="#a9aba9"/>
      <stop offset="1" id="stop8549" stop-color="#535453"/>
    </linearGradient>
    <clipPath id="clipPath8525">
      <path d="M0 1145.9h1366V0H0z" id="path8523"/>
    </clipPath>
    <linearGradient x2="1" gradientUnits="userSpaceOnUse" gradientTransform="matrix(0 -.56074 .70884 0 300.7 115.6)" id="linearGradient8515">
      <stop offset="0" id="stop8511" stop-color="#a9aba9"/>
      <stop offset="1" id="stop8513" stop-color="#818181"/>
    </linearGradient>
    <clipPath id="clipPath8493">
      <path d="M0 1145.9h1366V0H0z" id="path8491"/>
    </clipPath>
    <linearGradient x2="1" gradientUnits="userSpaceOnUse" gradientTransform="matrix(0 -2.39765 2.48247 0 300.7 98.1)" id="linearGradient8483">
      <stop offset="0" id="stop8479" stop-color="#f2f2f2"/>
      <stop offset="1" id="stop8481" stop-color="#7a7a7a"/>
    </linearGradient>
    <clipPath id="clipPath8449">
      <path d="M0 1145.9h1366V0H0z" id="path8447"/>
    </clipPath>
    <clipPath id="clipPath8977">
      <path d="M0 1145.9h1366V0H0z" id="path8975"/>
    </clipPath>
    <clipPath id="clipPath8951">
      <path d="M593 101h3.6v3.7H593z" id="path8949"/>
    </clipPath>
    <clipPath id="clipPath8935">
      <path d="M0 1145.9h1366V0H0z" id="path8933"/>
    </clipPath>
    <linearGradient x2="1" gradientUnits="userSpaceOnUse" gradientTransform="matrix(0 .67046 -.32706 0 583.8 126.8)" id="linearGradient8925">
      <stop offset="0" id="stop8921" stop-color="#757575"/>
      <stop offset="1" id="stop8923" stop-color="#393939"/>
    </linearGradient>
    <clipPath id="clipPath8883">
      <path d="M0 1145.9h1366V0H0z" id="path8881"/>
    </clipPath>
    <linearGradient x2="1" gradientUnits="userSpaceOnUse" gradientTransform="matrix(0 12.89405 -17.29507 0 583.7 110)" id="linearGradient8873">
      <stop offset="0" id="stop8867" stop-color="#6a6a6a"/>
      <stop offset=".5" id="stop8869" stop-color="#48e400"/>
      <stop offset="1" id="stop8871" stop-color="#6a6a6a"/>
    </linearGradient>
    <clipPath id="clipPath8849">
      <path d="M0 1145.9h1366V0H0z" id="path8847"/>
    </clipPath>
    <linearGradient x2="1" gradientUnits="userSpaceOnUse" gradientTransform="matrix(0 -1.33884 5.6329 0 583.7 100)" id="linearGradient8839">
      <stop offset="0" id="stop8835" stop-color="#a9aba9"/>
      <stop offset="1" id="stop8837" stop-color="#535453"/>
    </linearGradient>
    <clipPath id="clipPath8813">
      <path d="M0 1145.9h1366V0H0z" id="path8811"/>
    </clipPath>
    <linearGradient x2="1" gradientUnits="userSpaceOnUse" gradientTransform="matrix(0 -.56429 .71345 0 583.7 127.4)" id="linearGradient8803">
      <stop offset="0" id="stop8799" stop-color="#a9aba9"/>
      <stop offset="1" id="stop8801" stop-color="#818181"/>
    </linearGradient>
    <clipPath id="clipPath8781">
      <path d="M0 1145.9h1366V0H0z" id="path8779"/>
    </clipPath>
    <linearGradient x2="1" gradientUnits="userSpaceOnUse" gradientTransform="matrix(0 -2.41323 2.4988 0 583.7 109.8)" id="linearGradient8771">
      <stop offset="0" id="stop8767" stop-color="#f2f2f2"/>
      <stop offset="1" id="stop8769" stop-color="#7a7a7a"/>
    </linearGradient>
    <clipPath id="clipPath8737">
      <path d="M0 1145.9h1366V0H0z" id="path8735"/>
    </clipPath>
  </defs>
  <g id="layer1" transform="translate(0 -268)">
    <g id="g10860" transform="translate(-20.8 -2)">
      <g transform="matrix(.35278 0 0 -.35278 62.8 291.4)" id="g8727">
        <path id="path8729" d="M0 0h24" fill="none" stroke="#000" stroke-width="2"/>
      </g>
      <g id="g8731" transform="matrix(.35278 0 0 -.35278 -129 330.1)">
        <g clip-path="url(#clipPath8737)" id="g8733">
          <g transform="translate(458 159.9)" id="g8739">
            <path id="path8741" d="M0 0h83a4 4 0 0 0 4-4v-52.5H-4V-4a4 4 0 0 0 4 4" fill="#e6e6e6"/>
          </g>
          <g transform="translate(458 158.4)" id="g8743">
            <path id="path8745" d="M0 0h83c1.3 0 2.4-1.1 2.4-2.5V-52c0-.9-.6-1.5-1.5-1.5H-1c-.8 0-1.5.6-1.5 1.5v49.5C-2.5-1.1-1.4 0 0 0z" fill="none" stroke="#282828" stroke-width="3"/>
          </g>
          <g transform="translate(445 102.9)" id="g8747">
            <path id="path8749" d="M0 0h108.8v-1.2a3 3 0 0 0-3-3H3a3 3 0 0 0-3 3z" fill="#626262"/>
          </g>
          <g transform="translate(489.8 102.9)" id="g8751">
            <path id="path8753" d="M0 0h19.3c0-.8-.6-1.4-1.4-1.4H1.4C.6-1.4 0-.8 0 0" fill="#818181"/>
          </g>
        </g>
      </g>
      <g id="g8755" transform="matrix(.35278 0 0 -.35278 -129 330.1)">
        <g id="g8757">
          <g id="g8763">
            <g id="g8765">
              <path id="path8773" d="M567.9 139.7a.6.6 0 0 1-.6-.6v-30.6c0-.3.2-.6.6-.6h31.7c.3 0 .5.3.5.6v30.6c0 .3-.2.6-.5.6z" fill="url(#linearGradient8771)"/>
            </g>
          </g>
        </g>
      </g>
      <g id="g8775" transform="matrix(.35278 0 0 -.35278 -129 330.1)">
        <g clip-path="url(#clipPath8781)" id="g8777">
          <g transform="translate(569.7 111.2)" id="g8783">
            <path id="path8785" d="M0 0h28c.3 0 .6-.3.6-.6V-12c0-.4-.3-.6-.6-.6H0c-.3 0-.6.2-.6.6V-.6c0 .3.3.6.6.6" fill="#f2f2f2"/>
          </g>
        </g>
      </g>
      <g id="g8787" transform="matrix(.35278 0 0 -.35278 -129 330.1)">
        <g id="g8789">
          <g id="g8795">
            <g id="g8797">
              <path id="path8805" d="M569.4 149.1a.6.6 0 0 1-.6-.6v-22.3c0-.3.3-.6.6-.6H598c.3 0 .6.3.6.6v22.3c0 .3-.3.6-.6.6z" fill="url(#linearGradient8803)"/>
            </g>
          </g>
        </g>
      </g>
      <g id="g8807" transform="matrix(.35278 0 0 -.35278 -129 330.1)">
        <g clip-path="url(#clipPath8813)" id="g8809">
          <g transform="translate(572.7 146)" id="g8815">
            <path id="path8817" d="M0 0h22.1c.6 0 1.1-.5 1.1-1.1v-12.5c0-.6-.5-1-1-1H0c-.6 0-1.1.4-1.1 1V-1c0 .5.5 1 1.1 1" fill="#393939"/>
          </g>
          <g transform="translate(574.4 145.4)" id="g8819">
            <path id="path8821" d="M0 0h18.8c.4 0 .8-.4.8-.8v-12c0-.4-.4-.8-.8-.8H0c-.4 0-.8.4-.8.8v12c0 .4.4.8.8.8" fill="#98b6a7"/>
          </g>
        </g>
      </g>
      <g id="g8823" transform="matrix(.35278 0 0 -.35278 -129 330.1)">
        <g id="g8825">
          <g id="g8831">
            <g id="g8833">
              <path id="path8841" d="M569.1 105.6v-6.4c0-.3.3-.6.6-.6h28c.3 0 .6.3.6.6v6.4z" fill="url(#linearGradient8839)"/>
            </g>
          </g>
        </g>
      </g>
      <g id="g8843" transform="matrix(.35278 0 0 -.35278 -129 330.1)">
        <g clip-path="url(#clipPath8849)" id="g8845">
          <g transform="translate(581.7 109.3)" id="g8851">
            <path id="path8853" d="M0 0l-4.2 4.2v.6h-1a2.5 2.5 0 0 0 0 4.9h1v.5L0 14.5h4l4.2-4.2v-.6h1a2.5 2.5 0 0 0 0-5h-1v-.5L4.2 0z" fill="#6a6a6a"/>
          </g>
        </g>
      </g>
      <g id="g8855" transform="matrix(.35278 0 0 -.35278 -129 330.1)">
        <g id="g8857">
          <g id="g8863">
            <g id="g8865">
              <path id="path8875" d="M581.7 123.8l-4.2-4.2v-.6h-1a2.5 2.5 0 1 1 0-5v.1h1v-.5l4.2-4.3h4.2l4.2 4.3v.5h1a2.5 2.5 0 0 1-.1 4.9h-1v.7l-4.1 4.1z" fill="url(#linearGradient8873)"/>
            </g>
          </g>
        </g>
      </g>
      <g id="g8877" transform="matrix(.35278 0 0 -.35278 -129 330.1)">
        <g clip-path="url(#clipPath8883)" id="g8879">
          <g transform="translate(576.4 118.4)" id="g8885">
            <path id="path8887" d="M0 0h3v-3.6H0A1.8 1.8 0 1 0 0 0" fill="#a9aba9"/>
          </g>
          <g transform="translate(591 114.8)" id="g8889">
            <path id="path8891" d="M0 0h-3v3.6h3A1.8 1.8 0 1 0 0 0" fill="#a9aba9"/>
          </g>
          <g transform="translate(582 118.4)" id="g8893">
            <path id="path8895" d="M0 0h3.6v-3.6H-.1V0H0" fill="#393939"/>
          </g>
          <g transform="translate(581.9 123.2)" id="g8897">
            <path id="path8899" d="M0 0h3.8l2.8-2.9L5.5-4v-2H4.3v1c0 .5-.4 1-1 1h-3a.7.7 0 0 1-.8-.8v-1.4h-1V-4l-1.2 1.2z" fill="#a9aba9"/>
          </g>
          <g transform="translate(585.6 110)" id="g8901">
            <path id="path8903" d="M0 0h-3.8l-2.8 2.9 1.2 1.2v2h1V5c0-.5.5-1 1-1h3.2c.5 0 .8.4.8.8v1.4h1.1V4l1.2-1.2z" fill="#a9aba9"/>
          </g>
          <path id="path8905" d="M583.3 131.4h.9v-4.1h-.9z" fill="#393939"/>
          <path id="path8907" d="M583.3 127.4h.9v-1.8h-.9z" fill="#9b9b9b"/>
        </g>
      </g>
      <g id="g8909" transform="matrix(.35278 0 0 -.35278 -129 330.1)">
        <g id="g8911">
          <g id="g8917">
            <g id="g8919">
              <path id="path8927" d="M583.3 125.6h.9v1.8h-.9z" fill="url(#linearGradient8925)"/>
            </g>
          </g>
        </g>
      </g>
      <g id="g8929" transform="matrix(.35278 0 0 -.35278 -129 330.1)">
        <g clip-path="url(#clipPath8935)" id="g8931">
          <path id="path8937" d="M583.3 125.6h.9v-1.8h-.9z" fill="#818181"/>
          <g transform="translate(571.2 125.6)" id="g8939">
            <path id="path8941" d="M0 0h7v-1.7L5.3-3.5H.6c-.3 0-.6.3-.6.6z" fill="#a9aba9"/>
          </g>
          <path id="path8943" d="M593 104.7h3.6V101H593z" fill="#fff"/>
        </g>
      </g>
      <g id="g8945" transform="matrix(.35278 0 0 -.35278 -129 330.1)">
        <g clip-path="url(#clipPath8951)" id="g8947">
          <g transform="translate(596.4 103.2)" id="g8953">
            <path id="path8955" d="M0 0v-.3C-.3-.8-.4-1-.8-1l-.3.2a.6.6 0 0 0-.5-.2c-.1 0-.2 0-.3.2C-2-1-2.1-1-2.2-1h-.6a.3.3 0 0 0-.3.2l.3 1h.5l.5.2.2-.1h.4c.1.1.3 0 .4 0V.1l.4.2.3-.1L0 0m-3.4-2.1H.2v3.6h-3.6z" fill="#fe0"/>
          </g>
          <g transform="translate(596.5 103)" id="g8957">
            <path id="path8959" d="M0 0c0-.2 0-.3-.2-.5 0-.2-.3-.4-.6-.4l-.4.1a.7.7 0 0 0-.4-.1H-2a.7.7 0 0 0-.4 0H-3c-.2 0-.3.1-.4.3 0 .4.2.7.4 1 0 .2.2.2.4.2h2.1L0 .5V0m-3.5-2H.1v3.6h-3.6z" fill="#d52715"/>
          </g>
          <path id="path8961" d="M596.6 101H593v3.6h3.6zm-3.7 0h3.7v3.7H593z" fill="#171714"/>
          <g transform="translate(596.5 103.7)" id="g8963">
            <path id="path8965" d="M0 0v-.2.2m0 0v-.2.1m0 0zm0 0z" fill="#171714"/>
          </g>
          <g transform="translate(596 103.2)" id="g8967">
            <path id="path8969" d="M0 0a3 3 0 0 0-.2-.6h-.1c0 .2 0 .4.2.6H0m.3-.2L0-.6C0-.8-.2-1-.3-1c-.2 0-.3 0-.3.3l.1.4c.1.3.2.5.5.5s.3-.3.3-.5M-1 .1V0l-.3-.5.1-.1.2.2c0 .2 0 .2.2.2s.2-.1.1-.2c0-.3-.2-.5-.5-.5a.3.3 0 0 0-.3.3l.2.5c0 .2.2.4.5.4.2 0 .3 0 .3-.2 0-.1 0-.2-.2-.2h-.1v.2m-1-.5v-.2h.3c0-.2-.2-.3-.3-.3-.2 0-.3.1-.3.2 0 .3 0 .5.2.7 0 .2.2.3.4.3l.2-.1c0-.2 0-.2-.2-.2h-.1v-.1c.1 0 .2 0 .1-.2l-.3-.1m-.6-.2h.2c0-.2-.1-.3-.3-.3 0 0-.2 0-.2.2l.3.9s.1.1.2 0h.1c0-.3-.2-.5-.3-.8M0 .4C-.2.4-.3.4-.4.2l-.4.2-.4-.1-.3.1c-.2 0-.3 0-.4-.2v.1l-.3.1c-.1 0-.2 0-.3-.2-.1-.3-.3-.6-.3-1 0 0 .1-.2.3-.2l.3.1c.1 0 .2-.1.4 0h.6l.5.1.4-.2c.3 0 .5.3.6.6V0a.4.4 0 0 1-.3.4" fill="#171714"/>
          </g>
        </g>
      </g>
      <g id="g8971" transform="matrix(.35278 0 0 -.35278 -129 330.1)">
        <g clip-path="url(#clipPath8977)" id="g8973">
          <g transform="translate(578 103)" id="g8979">
            <path id="path8981" d="M0 0v-.3h-.6l-.1-.1v-.4H0v-.4h-1l-.2.2h-.3l-.1-.1v-.6H.7V.5h-2.3v-.6h.5V0H0z" fill="#f2f2f2"/>
          </g>
          <g transform="translate(576 103.6)" id="g8983">
            <path id="path8985" d="M0 0h-.5l-.1-.1-.6-1.3L-2-.1V0h-.5s-.1 0 0-.1l.9-2 .2-.1h.5l1 2L0 0" fill="#f2f2f2"/>
          </g>
          <g transform="translate(573 102.8)" id="g8987">
            <path id="path8989" d="M0 0h.1v-.4L0-.5h-1.5v-.3H0L.1-1v-.4h-2.2v2l.1.2H.1V.4h-1.6V0z" fill="#f2f2f2"/>
          </g>
          <g transform="translate(583.5 136.6)" id="g8991">
            <path id="path8993" d="M0 0l-.8 1.3-1.4-2.9 4-1c-.5.5-.5.7-.9 1.3.5.1 1 .4 1.4.7.8.4 1.5 1 2 1.9a4 4 0 0 1-.6 3.6c-.4 0-.8 0-1.3-.2C3.5 3 3.5 1 0 0" fill="#303030"/>
          </g>
          <g transform="translate(583.1 141.4)" id="g8995">
            <path id="path8997" d="M0 0l.8-1.2 1.4 2.8-3.8 1 .7-1.3-1.3-.7a4.5 4.5 0 0 1-2-2c-.4-1-.2-2.4.5-3.4.4 0 .8 0 1.2.2C-3.3-3-3.3-1 0 0" fill="#303030"/>
          </g>
        </g>
      </g>
    </g>
  </g>
</svg>
