<?xml version="1.0" encoding="utf-8"?>
<!-- Generator: Adobe Illustrator 22.0.1, SVG Export Plug-In . SVG Version: 6.00 Build 0)  -->
<svg version="1.1" id="svg41" xmlns="http://www.w3.org/2000/svg" xmlns:xlink="http://www.w3.org/1999/xlink" x="0px" y="0px"
	 viewBox="0 0 23 23" style="enable-background:new 0 0 23 23;" xml:space="preserve">
<style type="text/css">
	.st0{fill:#FFFFFF;stroke:#FFFFFF;stroke-width:0.3;}
</style>
<title>color</title>
<g id="menu_icn_FX" transform="translate(-9079.886 11883.081)">
	<path id="Path_166" class="st0" d="M9086.9-11874.7h-1.8c0-0.5,0-0.6,0.5-0.6c0.9,0,1.5-0.4,1.8-1.2c0.4-0.9,1-1.7,1.5-2.6
		c0.5-0.7,1.4-1.3,2.3-1.4c0.6-0.1,1.3,0.1,1.6,0.6c0.2,0.3,0.2,0.6,0.1,1c-0.2,0.3-0.5,0.4-0.9,0.3c-0.3,0-0.5-0.3-0.5-0.6
		c0-0.1,0-0.1,0-0.2c0-0.2,0.1-0.4,0.1-0.6c-0.2,0-0.5-0.1-0.7,0c-0.4,0.2-0.7,0.4-1,0.9c-0.4,0.6-0.7,1.4-1,2.1
		c-0.2,0.5-0.4,1.2-0.5,1.7h1.4c-0.1,0.2-0.1,0.4-0.2,0.6h-1.4c-0.3,1.1-0.5,2-0.9,3c-0.4,2-1.2,3.9-2,5.8c-0.4,0.9-1,1.6-1.6,2.2
		c-0.5,0.5-1.2,0.8-1.9,0.8c-0.4,0.1-0.9-0.1-1.3-0.3c-0.2-0.2-0.3-0.6-0.2-1c0.2-0.3,0.5-0.5,1-0.4c0.3,0,0.4,0.3,0.4,0.6
		c0,0.1-0.1,0.2-0.1,0.2c-0.1,0.1-0.1,0.2-0.1,0.3c0.1,0,0.2,0.1,0.4,0.1c0.5,0,1.1-0.3,1.4-0.8c0.3-0.5,0.6-1.1,0.7-1.6
		c0.8-3,1.7-6,2.6-8.9C9086.9-11874.6,9086.9-11874.6,9086.9-11874.7z"/>
	<path id="Path_167" class="st0" d="M9098.6-11862.8c0.1-0.1,0.1-0.2,0.2-0.3c1.1-0.6,1.8-1.8,2-3c0.4-2,0.4-4-0.1-6
		c-0.3-1.1-1-1.9-1.8-2.6c-0.1-0.1-0.2-0.2-0.2-0.3c1.9,0.7,3.7,3.1,3.7,6.1C9102.5-11866.3,9101-11863.8,9098.6-11862.8z"/>
	<path id="Path_168" class="st0" d="M9093.6-11874.9c0,0.1-0.1,0.2-0.1,0.2c-1.1,0.6-1.8,1.8-2,3c-0.4,2-0.4,4,0.1,6.1
		c0.3,1.1,1,1.9,1.8,2.6c0.1,0.1,0.2,0.1,0.2,0.3c-2.2-1.1-3.7-3.4-3.6-6C9089.9-11872,9091.9-11874.4,9093.6-11874.9z"/>
	<path id="Path_169" class="st0" d="M9098.3-11867.1c0,0,0.1,0,0.2,0.1c0,0,0,0,0,0.1c-0.3,0.5-0.6,1-1.2,1.3c-0.2,0.2-0.6,0.3-1,0
		c-0.1-0.1-0.2-0.2-0.2-0.4c-0.2-0.6-0.3-1.2-0.4-1.8c0-0.1,0-0.1-0.1-0.2c-0.1,0.2-0.2,0.4-0.4,0.6c-0.3,0.4-0.6,1-1.1,1.4
		c-0.2,0.2-0.4,0.4-0.7,0.5c-0.3,0.1-0.6,0-0.9-0.3v-0.1c0-0.2,0-0.4,0.2-0.5c0.1-0.1,0.3-0.1,0.5,0l0.1,0.1
		c0.3,0.2,0.4,0.3,0.6-0.1c0.4-0.6,0.9-1.4,1.4-2c0-0.1,0-0.2,0-0.3c-0.1-0.4-0.2-0.9-0.3-1.3c-0.2-0.7-0.5-1-1.3-1h-0.1
		c-0.1-0.1,0-0.2,0.1-0.2c0.4-0.1,1-0.2,1.4-0.2c0.1,0,0.2,0,0.3,0.1c0.3,0.4,0.5,0.8,0.6,1.4c0,0.1,0.1,0.3,0.1,0.4
		c0.1-0.2,0.3-0.5,0.5-0.7c0.3-0.3,0.6-0.7,1-1c0.2-0.1,0.4-0.2,0.6-0.2c0.3,0,0.5,0.2,0.5,0.5v0.1c-0.1,0.3-0.3,0.4-0.6,0.3l0,0
		c-0.1,0-0.1,0-0.2,0c-0.3-0.2-0.7-0.1-1,0.2l0,0c-0.2,0.3-0.5,0.7-0.7,1.1c0,0.1,0,0.1,0,0.2c0.2,0.7,0.3,1.5,0.5,2.3
		c0,0.1,0,0.1,0.1,0.2c0.1,0.3,0.3,0.4,0.5,0.1C9097.9-11866.6,9098-11866.9,9098.3-11867.1z"/>
</g>
</svg>
