<?xml version="1.0" encoding="utf-8"?>
<!-- Generator: Adobe Illustrator 22.0.1, SVG Export Plug-In . SVG Version: 6.00 Build 0)  -->
<svg version="1.1" id="svg41" xmlns="http://www.w3.org/2000/svg" xmlns:xlink="http://www.w3.org/1999/xlink" x="0px" y="0px"
	 viewBox="0 0 23 23" style="enable-background:new 0 0 23 23;" xml:space="preserve">
<style type="text/css">
	.st0{fill:#FFFFFF;stroke:#FFFFFF;stroke-width:0.3;}
</style>
<title>color</title>
<g id="menu_icn_FX" transform="translate(-9079.886 11883.081)">
	<path id="Path_166" class="st0" d="M9087.2-11874.5h-1.7c0-0.5,0-0.6,0.5-0.6c0.8,0,1.4-0.4,1.7-1.1c0.4-0.8,0.9-1.6,1.4-2.4
		c0.5-0.7,1.3-1.2,2.2-1.3c0.6-0.1,1.2,0.1,1.5,0.6c0.2,0.3,0.2,0.6,0.1,0.9c-0.2,0.3-0.5,0.4-0.8,0.3c-0.3,0-0.5-0.3-0.5-0.6
		c0-0.1,0-0.1,0-0.2c0-0.2,0.1-0.4,0.1-0.6c-0.2,0-0.5-0.1-0.7,0c-0.4,0.2-0.7,0.4-0.9,0.8c-0.4,0.6-0.7,1.3-0.9,2
		c-0.2,0.5-0.4,1.1-0.5,1.6h1.3c-0.1,0.2-0.1,0.4-0.2,0.6h-1.3c-0.3,1-0.5,1.9-0.8,2.8c-0.4,1.9-1.1,3.7-1.9,5.5
		c-0.4,0.8-0.9,1.5-1.5,2.1c-0.5,0.5-1.1,0.8-1.8,0.8c-0.4,0.1-0.8-0.1-1.2-0.3c-0.2-0.2-0.3-0.6-0.2-0.9c0.2-0.3,0.5-0.5,0.9-0.4
		c0.3,0,0.4,0.3,0.4,0.6c0,0.1-0.1,0.2-0.1,0.2c-0.1,0.1-0.1,0.2-0.1,0.3c0.1,0,0.2,0.1,0.4,0.1c0.5,0,1-0.3,1.3-0.8
		c0.3-0.5,0.6-1,0.7-1.5c0.8-2.8,1.6-5.6,2.4-8.4C9087.2-11874.4,9087.2-11874.4,9087.2-11874.5z"/>
	<path id="Path_167" class="st0" d="M9098.2-11863.3c0.1-0.1,0.1-0.2,0.2-0.3c1-0.6,1.7-1.7,1.9-2.8c0.4-1.9,0.4-3.8-0.1-5.6
		c-0.3-1-0.9-1.8-1.7-2.4c-0.1-0.1-0.2-0.2-0.2-0.3c1.8,0.7,3.5,2.9,3.5,5.7C9101.8-11866.6,9100.4-11864.3,9098.2-11863.3z"/>
	<path id="Path_168" class="st0" d="M9093.5-11874.7c0,0.1-0.1,0.2-0.1,0.2c-1,0.6-1.7,1.7-1.9,2.8c-0.4,1.9-0.4,3.8,0.1,5.7
		c0.3,1,0.9,1.8,1.7,2.4c0.1,0.1,0.2,0.1,0.2,0.3c-2.1-1-3.5-3.2-3.4-5.6C9090-11872,9091.9-11874.2,9093.5-11874.7z"/>
	<path id="Path_169" class="st0" d="M9097.9-11867.4c0,0,0.1,0,0.2,0.1c0,0,0,0,0,0.1c-0.3,0.5-0.6,0.9-1.1,1.2
		c-0.2,0.2-0.6,0.3-0.9,0c-0.1-0.1-0.2-0.2-0.2-0.4c-0.2-0.6-0.3-1.1-0.4-1.7c0-0.1,0-0.1-0.1-0.2c-0.1,0.2-0.2,0.4-0.4,0.6
		c-0.3,0.4-0.6,0.9-1,1.3c-0.2,0.2-0.4,0.4-0.7,0.5c-0.3,0.1-0.6,0-0.8-0.3c0,0,0-0.1,0-0.1c0-0.2,0-0.4,0.2-0.5
		c0.1-0.1,0.3-0.1,0.5,0c0,0,0.1,0.1,0.1,0.1c0.3,0.2,0.4,0.3,0.6-0.1c0.4-0.6,0.8-1.3,1.3-1.9c0-0.1,0-0.2,0-0.3
		c-0.1-0.4-0.2-0.8-0.3-1.2c-0.2-0.7-0.5-0.9-1.2-0.9h-0.1c-0.1-0.1,0-0.2,0.1-0.2c0.4-0.1,0.9-0.2,1.3-0.2c0.1,0,0.2,0,0.3,0.1
		c0.3,0.4,0.5,0.8,0.6,1.3c0,0.1,0.1,0.3,0.1,0.4c0.1-0.2,0.3-0.5,0.5-0.7c0.3-0.3,0.6-0.7,0.9-0.9c0.2-0.1,0.4-0.2,0.6-0.2
		c0.3,0,0.5,0.2,0.5,0.5c0,0,0,0.1,0,0.1c-0.1,0.3-0.3,0.4-0.6,0.3c0,0,0,0,0,0c-0.1,0-0.1,0-0.2,0c-0.3-0.2-0.7-0.1-0.9,0.2
		c0,0,0,0,0,0c-0.2,0.3-0.5,0.7-0.7,1c0,0.1,0,0.1,0,0.2c0.2,0.7,0.3,1.4,0.5,2.2c0,0.1,0,0.1,0.1,0.2c0.1,0.3,0.3,0.4,0.5,0.1
		C9097.5-11866.9,9097.6-11867.2,9097.9-11867.4z"/>
</g>
</svg>
