<?xml version="1.0" encoding="utf-8"?>
<!-- Generator: Adobe Illustrator 22.0.1, SVG Export Plug-In . SVG Version: 6.00 Build 0)  -->
<svg version="1.1" id="svg41" xmlns="http://www.w3.org/2000/svg" xmlns:xlink="http://www.w3.org/1999/xlink" x="0px" y="0px"
	 viewBox="0 0 23 23" style="enable-background:new 0 0 23 23;" xml:space="preserve">
<style type="text/css">
	.st0{fill:#FFFFFF;}
	.st1{enable-background:new    ;}
</style>
<title>color</title>
<g id="menu_icn_matrices" transform="translate(-9597 11374)">
	<rect id="Rectangle_253" x="9603.4" y="-11368.5" class="st0" width="14.8" height="1.8"/>
	<rect id="Rectangle_253-2" x="9603.4" y="-11363.9" class="st0" width="14.8" height="1.8"/>
	<rect id="Rectangle_254" x="9603.4" y="-11359.3" class="st0" width="14.8" height="1.8"/>
	<g class="st1">
		<path class="st0" d="M9600.2-11366.7h-1v-3.6h-0.8v-0.6c0.5,0,0.9-0.3,1-0.9h0.8V-11366.7z"/>
	</g>
	<g class="st1">
		<path class="st0" d="M9601.4-11361.1v0.9h-3.6v-0.4c0-1.2,0.8-1.7,1.5-2.1c1-0.5,1-0.7,1-1c0-0.3-0.2-0.6-0.7-0.6
			c-0.5,0-0.8,0.4-0.8,0.9h-1c0-0.9,0.6-1.8,1.8-1.8c1.2,0,1.7,0.8,1.7,1.5c0,1-0.7,1.3-1.5,1.8c-0.5,0.3-0.9,0.6-0.9,0.9H9601.4z"
			/>
	</g>
	<g class="st1">
		<path class="st0" d="M9599.6-11353.6c-1.2,0-1.8-0.8-1.9-1.7h1c0,0.5,0.3,0.8,0.9,0.8c0.6,0,0.9-0.3,0.9-0.7
			c0-0.4-0.3-0.7-0.8-0.7h-0.3v-0.8h0.2c0.6,0,0.8-0.3,0.8-0.6c0-0.4-0.3-0.6-0.7-0.6c-0.5,0-0.8,0.4-0.8,0.8h-1
			c0-0.9,0.6-1.7,1.7-1.7c1.1,0,1.7,0.7,1.7,1.4c0,0.4-0.2,0.8-0.7,1c0.6,0.2,0.8,0.7,0.8,1.2
			C9601.5-11354.5,9600.9-11353.6,9599.6-11353.6z"/>
	</g>
</g>
</svg>
