<?xml version="1.0" encoding="utf-8"?>
<!-- Generator: Adobe Illustrator 22.0.1, SVG Export Plug-In . SVG Version: 6.00 Build 0)  -->
<svg version="1.1" id="svg41" xmlns="http://www.w3.org/2000/svg" xmlns:xlink="http://www.w3.org/1999/xlink" x="0px" y="0px"
	 viewBox="0 0 23 23" style="enable-background:new 0 0 23 23;" xml:space="preserve">
<style type="text/css">
	.st0{fill:#FFFFFF;}
</style>
<title>color</title>
<g id="menu_icn_logic" transform="translate(1634.03 -5.889)">
	<path id="Path_161" class="st0" d="M-1632.4,20.8h2.6c1.5-0.1,2.8-1.1,3.3-2.6c1.1-2.6,3-7.3,6.1-7.3s3.5,0,3.5,0V8.3l4.1,4.3
		l-4.1,3.9v-2.8h-2.8c-1.5,0.4-2.7,1.4-3.2,2.8c-1.2,2.6-2.4,7-6.4,7.1c-1.8,0-3,0-3,0V20.8z"/>
	<path id="Path_162" class="st0" d="M-1632.4,11v2.8h3.1c0,0,1.8,0,2.8,2.4c0.4-1,0.9-1.9,1.5-2.8c0,0-2-2.3-4.2-2.3
		S-1632.4,11-1632.4,11z"/>
	<path id="Path_163" class="st0" d="M-1622.8,18.3c0,0,1.3,2.6,2.8,2.6h3.2v-2.6l4.2,4.1l-4.2,4.1v-2.8h-3.6c0,0-2,0-3.9-2.5
		C-1623.7,20.3-1623.2,19.3-1622.8,18.3z"/>
</g>
</svg>
