<?xml version="1.0" encoding="utf-8"?>
<!-- Generator: Adobe Illustrator 22.0.1, SVG Export Plug-In . SVG Version: 6.00 Build 0)  -->
<svg version="1.1" id="svg41" xmlns="http://www.w3.org/2000/svg" xmlns:xlink="http://www.w3.org/1999/xlink" x="0px" y="0px"
	 viewBox="0 0 23 23" style="enable-background:new 0 0 23 23;" xml:space="preserve">
<style type="text/css">
	.st0{fill:#FFFFFF;stroke:#FFFFFF;stroke-width:0.7;}
</style>
<title>color</title>
<g id="menu_icn_loops" transform="translate(-9080.903 10401.478)">
	<path id="Path_141" class="st0" d="M9085.3-10385.5c-0.9-1.3-1.9-2.5-2.8-3.8h1.9c0-2.2,0.9-4.4,2.5-5.9c1.1-1.1,2.4-1.8,3.9-2.1
		c2.7-0.6,5.6,0.2,7.6,2.2c-0.5,0.5-0.9,0.9-1.3,1.3c-2.4-2-4.9-2.4-7.7-0.9c-2,1.1-3.1,3.2-3.1,5.4h1.9
		C9087.2-10388,9086.2-10386.7,9085.3-10385.5z"/>
	<path id="Path_142" class="st0" d="M9098.9-10389.3h-1.9c1-1.3,1.9-2.5,2.8-3.8c1,1.3,1.9,2.5,2.8,3.8h-1.9c0,2.3-1,4.5-2.6,6
		c-1.1,1-2.4,1.7-3.8,2c-2.7,0.6-5.6-0.2-7.6-2.2l1.3-1.3c2.3,2,4.9,2.5,7.7,0.9C9097.7-10384.9,9098.9-10387,9098.9-10389.3z"/>
</g>
</svg>
