<?xml version="1.0" encoding="utf-8"?>
<!-- Generator: Adobe Illustrator 22.0.1, SVG Export Plug-In . SVG Version: 6.00 Build 0)  -->
<svg version="1.1" id="svg41" xmlns="http://www.w3.org/2000/svg" xmlns:xlink="http://www.w3.org/1999/xlink" x="0px" y="0px"
	 viewBox="0 0 23 23" style="enable-background:new 0 0 23 23;" xml:space="preserve">
<style type="text/css">
	.st0{fill:#FFFFFF;stroke:#FFFFFF;stroke-width:0.7;}
</style>
<title>color</title>
<g id="menu_icn_loops" transform="translate(-9080.903 10401.478)">
	<path id="Path_141" class="st0" d="M9084.5-10385.8c-1-1.4-2.1-2.7-3.1-4.2h2.1c0-2.4,1-4.8,2.7-6.5c1.2-1.2,2.6-2,4.3-2.3
		c3-0.7,6.1,0.2,8.3,2.4c-0.5,0.5-1,1-1.4,1.4c-2.6-2.2-5.4-2.6-8.4-1c-2.2,1.2-3.4,3.5-3.4,5.9h2.1
		C9086.5-10388.6,9085.4-10387.1,9084.5-10385.8z"/>
	<path id="Path_142" class="st0" d="M9099.4-10390h-2.1c1.1-1.4,2.1-2.7,3.1-4.2c1.1,1.4,2.1,2.7,3.1,4.2h-2.1
		c0,2.5-1.1,4.9-2.9,6.6c-1.2,1.1-2.6,1.9-4.2,2.2c-3,0.7-6.1-0.2-8.3-2.4l1.4-1.4c2.5,2.2,5.4,2.7,8.4,1
		C9098.1-10385.2,9099.4-10387.5,9099.4-10390z"/>
</g>
</svg>
