<?xml version="1.0" encoding="utf-8"?>
<!-- Generator: Adobe Illustrator 22.0.1, SVG Export Plug-In . SVG Version: 6.00 Build 0)  -->
<svg version="1.1" id="svg41" xmlns="http://www.w3.org/2000/svg" xmlns:xlink="http://www.w3.org/1999/xlink" x="0px" y="0px"
	 viewBox="0 0 23 23" style="enable-background:new 0 0 23 23;" xml:space="preserve">
<style type="text/css">
	.st0{fill:#FFFFFF;stroke:#FFFFFF;}
	.st1{fill:#FFFFFF;}
</style>
<title>color</title>
<g id="menu_icn_math" transform="translate(-9078.442 10583.172)">
	<path id="Path_153" class="st0" d="M9087.4-10564.7c-0.2,0.2-0.5,0.5-0.7,0.7l-2.2-2.2c-0.8,0.8-1.5,1.5-2.2,2.2
		c-0.2-0.2-0.5-0.5-0.7-0.7l2.2-2.2c-0.8-0.8-1.5-1.5-2.2-2.2c0.2-0.2,0.5-0.5,0.7-0.7l2.2,2.2l2.2-2.2c0.2,0.2,0.5,0.5,0.7,0.7
		l-2.2,2.2C9085.9-10566.1,9086.7-10565.4,9087.4-10564.7z"/>
	<path id="Path_154" class="st0" d="M9080.9-10575.6v-0.9h3.1v-3.1c0.3,0,0.6,0,0.9,0v3.1h3.1v0.9h-3.1v3.1h-1v-3.1H9080.9z"/>
	<path id="Path_155" class="st1" d="M9098.5-10567.3h-7.8v-1.7h7.8V-10567.3z"/>
	<path id="Path_156" class="st1" d="M9098.5-10565.6v1.7h-7.8v-1.7H9098.5z"/>
	<path id="Path_157" class="st1" d="M9098.5-10577v1.7h-7.8v-1.7H9098.5z"/>
</g>
</svg>
