<?xml version="1.0" encoding="utf-8"?>
<!-- Generator: Adobe Illustrator 22.0.1, SVG Export Plug-In . SVG Version: 6.00 Build 0)  -->
<svg version="1.1" id="svg41" xmlns="http://www.w3.org/2000/svg" xmlns:xlink="http://www.w3.org/1999/xlink" x="0px" y="0px"
	 viewBox="0 0 23 23" style="enable-background:new 0 0 23 23;" xml:space="preserve">
<style type="text/css">
	.st0{fill:#FFFFFF;stroke:#FFFFFF;}
	.st1{fill:#FFFFFF;}
</style>
<title>color</title>
<g id="menu_icn_math" transform="translate(-9078.442 10583.172)">
	<path id="Path_153" class="st0" d="M9087.2-10563.2c-0.2,0.2-0.6,0.6-0.8,0.8l-2.6-2.6c-1,1-1.8,1.8-2.6,2.6
		c-0.2-0.2-0.6-0.6-0.8-0.8l2.6-2.6c-1-1-1.8-1.8-2.6-2.6c0.2-0.2,0.6-0.6,0.8-0.8l2.6,2.6l2.6-2.6c0.2,0.2,0.6,0.6,0.8,0.8
		l-2.6,2.6C9085.4-10564.9,9086.3-10564,9087.2-10563.2z"/>
	<path id="Path_154" class="st0" d="M9079.3-10576.3v-1.1h3.7v-3.7c0.4,0,0.7,0,1.1,0v3.7h3.7v1.1h-3.7v3.7h-1.2v-3.7H9079.3z"/>
	<path id="Path_155" class="st1" d="M9100.5-10566.3h-9.4v-2h9.4V-10566.3z"/>
	<path id="Path_156" class="st1" d="M9100.5-10564.3v2h-9.4v-2H9100.5z"/>
	<path id="Path_157" class="st1" d="M9100.5-10578v2h-9.4v-2H9100.5z"/>
</g>
</svg>
