<?xml version="1.0" encoding="utf-8"?>
<!-- Generator: Adobe Illustrator 22.0.1, SVG Export Plug-In . SVG Version: 6.00 Build 0)  -->
<svg version="1.1" id="svg41" xmlns="http://www.w3.org/2000/svg" xmlns:xlink="http://www.w3.org/1999/xlink" x="0px" y="0px"
	 viewBox="0 0 23 23" style="enable-background:new 0 0 23 23;" xml:space="preserve">
<style type="text/css">
	.st0{fill:#FFFFFF;}
</style>
<title>color</title>
<g id="menu_icn_motor" transform="translate(-9078.587 10279.652)">
	<path id="Path_159" class="st0" d="M9095.2-10271.5c-0.8,0.8-1.7,1.7-2.5,2.5h6.4v-6.4l-2,2c-1.5-1.8-3.6-3-6-3.3
		c-2-0.3-4.1,0.2-5.8,1.3c-4.3,2.6-5.6,8.2-3,12.5s8.2,5.6,12.5,3c1.5-0.9,2.6-2.2,3.4-3.7c-0.8-0.3-1.6-0.7-2.4-1
		c-0.8,1.6-2.3,2.8-4,3.3c-1.3,0.4-2.7,0.3-4-0.2c-3.3-1.3-5-5-3.8-8.3c0.7-2,2.4-3.5,4.4-4
		C9091-10274.6,9093.7-10273.6,9095.2-10271.5z"/>
	<path id="Path_160" class="st0" d="M9088.2-10267.6c0,1.1,0.9,1.9,1.9,1.9s1.9-0.9,1.9-1.9c0-1.1-0.9-1.9-1.9-1.9
		C9089-10269.6,9088.2-10268.7,9088.2-10267.6C9088.2-10267.6,9088.2-10267.6,9088.2-10267.6z"/>
</g>
</svg>
