<?xml version="1.0" encoding="utf-8"?>
<!-- Generator: Adobe Illustrator 22.0.1, SVG Export Plug-In . SVG Version: 6.00 Build 0)  -->
<svg version="1.1" id="svg41" xmlns="http://www.w3.org/2000/svg" xmlns:xlink="http://www.w3.org/1999/xlink" x="0px" y="0px"
	 viewBox="0 0 23 23" style="enable-background:new 0 0 23 23;" xml:space="preserve">
<style type="text/css">
	.st0{fill:#FFFFFF;}
</style>
<title>color</title>
<path id="menu_icn_music" class="st0" d="M13.9,12.8c1.7,0.3,3.3,1.2,4.3,2.6c0.5,0,1,0,1,0s1.5-4.4-1.8-7.5s-9.7-3.1-12.1,0
	c-1.7,2.1-2.3,5-1.4,7.5c0.3,0,0.5,0,0.8,0c0,0,1.7-2.5,4.4-2.6C9,17.2,9,21,9,21c-1.9-0.4-3.5-1.6-4.4-3.4C2.6,17.2,1,15.4,1,13.2
	C1,6.7,5.9,3,11.5,3s10.8,4.3,10.4,10.2c-0.2,4.1-3.6,4.4-3.6,4.4c-0.8,1.8-2.4,3.1-4.3,3.4C13.9,16.5,13.9,12.8,13.9,12.8z"/>
</svg>
