<?xml version="1.0" encoding="utf-8"?>
<!-- Generator: Adobe Illustrator 22.0.1, SVG Export Plug-In . SVG Version: 6.00 Build 0)  -->
<svg version="1.1" id="svg41" xmlns="http://www.w3.org/2000/svg" xmlns:xlink="http://www.w3.org/1999/xlink" x="0px" y="0px"
	 viewBox="0 0 23 23" style="enable-background:new 0 0 23 23;" xml:space="preserve">
<style type="text/css">
	.st0{fill:#FFFFFF;}
</style>
<title>color</title>
<path class="st0" d="M22.2,20.2L17,15c1.1-1.5,1.8-3.3,1.8-5.3c0-5-4-9-9-9c-5,0-9,4-9,9c0,5,4,9,9,9c1.9,0,3.6-0.6,5.1-1.6l5.2,5.2
	L22.2,20.2z M9.8,15.7c-3.3,0-6-2.7-6-6s2.7-6,6-6s6,2.7,6,6S13.1,15.7,9.8,15.7z"/>
</svg>
