<?xml version="1.0" encoding="utf-8"?>
<!-- Generator: Adobe Illustrator 22.0.1, SVG Export Plug-In . SVG Version: 6.00 Build 0)  -->
<svg version="1.1" id="svg41" xmlns="http://www.w3.org/2000/svg" xmlns:xlink="http://www.w3.org/1999/xlink" x="0px" y="0px"
	 viewBox="0 0 23 23" style="enable-background:new 0 0 23 23;" xml:space="preserve">
<style type="text/css">
	.st0{fill:none;}
	.st1{fill:#FFFFFF;}
</style>
<title>color</title>
<g id="menu_icn_sensor" transform="translate(-9778 10128)">
	<g id="Path_170" transform="translate(697 95)">
		<path class="st0" d="M9092.5-10221.5c5.5,0,10,4.5,10,10s-4.5,10-10,10s-10-4.5-10-10S9087-10221.5,9092.5-10221.5z"/>
		<path class="st1" d="M9092.5-10204.5c3.9,0,7-3.1,7-7s-3.1-7-7-7s-7,3.1-7,7S9088.6-10204.5,9092.5-10204.5 M9092.5-10201.5
			c-5.5,0-10-4.5-10-10s4.5-10,10-10s10,4.5,10,10S9098-10201.5,9092.5-10201.5z"/>
	</g>
	<path id="Path_171" class="st1" d="M9789.5-10120.5c2.2,0,4,1.8,4,4s-1.8,4-4,4s-4-1.8-4-4S9787.3-10120.5,9789.5-10120.5z"/>
</g>
</svg>
