<svg id="svg7610" xmlns="http://www.w3.org/2000/svg" xmlns:xlink="http://www.w3.org/1999/xlink" viewBox="0 0 44.14 44.15">
  <defs>
    <linearGradient id="motor-linear-gradient" x1="-313.1" y1="551.59" x2="-313.1" y2="551.43" gradientTransform="matrix(44.14, 0, 0, -44.15, 13843.7, 24396.04)" gradientUnits="userSpaceOnUse">
      <stop offset="0" stop-color="#a8a9a8"/>
      <stop offset="1" stop-color="#545554"/>
    </linearGradient>
  </defs>
  <title>MediumMotor</title>
  <g id="Medium_Motor" data-name="Medium Motor">
    <g id="Group_4" data-name="Group 4">
      <path id="Path_1" data-name="Path 1" d="M4.07,1.5h39a2.36,2.36,0,0,1,2.57,2V43.82c0,1-1.1,1.82-2.57,1.82h-39c-1.47,0-2.57-.81-2.57-1.82V3.47A2.36,2.36,0,0,1,4.07,1.5Z" transform="translate(-1.5 -1.49)" style="fill: url(#motor-linear-gradient)"/>
    </g>
    <g id="Group_7" data-name="Group 7">
      <g id="g7596">
        <path id="Union_1-2" data-name="Union 1-2" d="M1.5,22.74a6.21,6.21,0,0,1,6.22-6.22h8.8V7.72A6.22,6.22,0,0,1,22.74,1.5H24.4a6.21,6.21,0,0,1,6.22,6.22v8.8h8.8a6.21,6.21,0,0,1,6.22,6.22V24.4a6.22,6.22,0,0,1-6.22,6.22h-8.8v8.8a6.22,6.22,0,0,1-6.22,6.22H22.74a6.23,6.23,0,0,1-6.22-6.22h0v-8.8H7.72A6.22,6.22,0,0,1,1.5,24.4h0Z" transform="translate(-1.5 -1.49)" style="fill: #a8a9a8"/>
      </g>
      <circle id="Ellipse_1" data-name="Ellipse 1" cx="37.77" cy="22.16" r="4.85" style="fill: #3c3c3c"/>
      <circle id="Ellipse_2" data-name="Ellipse 2" cx="6.37" cy="22.16" r="4.85" style="fill: #3c3c3c"/>
      <circle id="Ellipse_1-2" data-name="Ellipse 1-2" cx="22.15" cy="6.38" r="4.85" style="fill: #3c3c3c"/>
      <circle id="Ellipse_2-2" data-name="Ellipse 2-2" cx="22.15" cy="37.78" r="4.85" style="fill: #3c3c3c"/>
    </g>
    <g id="Ellipse_4" data-name="Ellipse 4">
      <circle id="ellipse7603" cx="22.3" cy="22.16" r="6.75" style="fill: #b72b1c"/>
      <circle id="ellipse7605" cx="22.3" cy="22.16" r="6.63" style="fill: none;stroke: #8b1104;stroke-width: 0.25px"/>
    </g>
    <path id="Hole" d="M23.9,26.72s.56-.86,1.18-.51,1.27.73,1.27.73a2.37,2.37,0,0,0,1.24-1.23c.63-1.1.49-1.57.49-1.57l-1.41-.81a.64.64,0,0,1-.32-.86l.06-.1.84-1.44a3.9,3.9,0,0,0-1.39-1.13,6,6,0,0,0-1.6-.59l-.83,1.44a.73.73,0,0,1-1,.24,11.15,11.15,0,0,0-1.32-.6s-.54.13-1.2,1.2-.51,1.6-.51,1.6l1.46.84a.64.64,0,0,1,.4.82.55.55,0,0,1-.08.15,11.25,11.25,0,0,1-.82,1.43A4.83,4.83,0,0,0,23.19,28C23.56,27.35,23.9,26.72,23.9,26.72Z" transform="translate(-1.5 -1.49)"/>
  </g>
</svg>
