<?xml version="1.0" encoding="utf-8"?>
<!-- Generator: Adobe Illustrator 27.0.1, SVG Export Plug-In . SVG Version: 6.00 Build 0)  -->
<svg version="1.1" xmlns="http://www.w3.org/2000/svg" xmlns:xlink="http://www.w3.org/1999/xlink" x="0px" y="0px"
	 viewBox="0 0 33.2 34" enable-background="new 0 0 33.2 34" xml:space="preserve">
<g id="bg" display="none">
	<rect x="0" display="inline" fill="#474747" width="33.2" height="34"/>
</g>
<g id="sensor">
	<g id="cant">
		<path fill="none" stroke="#FFFFFF" stroke-width="2.8" stroke-miterlimit="10" d="M1.5,17.3V5.7c0-1.7,1.3-3,3-3h24.2
			c1.7,0,3,1.3,3,3v11.6"/>
	</g>
	
		<radialGradient id="box_00000132798545940394839140000001110037563067644064_" cx="16.5353" cy="17.7988" r="17.1011" gradientUnits="userSpaceOnUse">
		<stop  offset="0" style="stop-color:#666666;stop-opacity:0"/>
		<stop  offset="0.1404" style="stop-color:#8D8D8D;stop-opacity:1.126710e-02"/>
		<stop  offset="0.4535" style="stop-color:#F0F0F0;stop-opacity:3.640837e-02"/>
		<stop  offset="0.4983" style="stop-color:#FFFFFF;stop-opacity:4.000000e-02"/>
		<stop  offset="0.6252" style="stop-color:#D7D7D7;stop-opacity:2.987791e-02"/>
		<stop  offset="1" style="stop-color:#666666;stop-opacity:0"/>
	</radialGradient>
	
		<path id="box" fill="#666666" stroke="url(#box_00000132798545940394839140000001110037563067644064_)" stroke-width="4" stroke-miterlimit="10" d="
		M28.6,32.9h-4.8c0,0-0.7-0.6-7.2-0.5s-7.4,0.5-7.4,0.5H4.4c-1.7,0-3-1.3-3-3V5.7c0-1.7,1.3-3,3-3h24.2c1.7,0,3,1.3,3,3v24.2
		C31.6,31.6,30.3,32.9,28.6,32.9z"/>
	<g id="main_sensor_part">
		<g>
			<defs>
				<path id="red_contur_00000140710294982444118710000005121874349319305374_" d="M24.1,17.4c0-4.3-3.4-7.5-7.5-7.5
					c-4.2,0-7.5,3.2-7.5,7.5c0,0.3,0,5.7,0,10c0,4.3,0.3,4.1,0.2,5.5c0.5-0.2,7.2-0.2,7.2-0.2s6.9-0.1,7.4,0.2
					c-0.1-1.5,0.1-1.2,0.2-5.4C24.1,26.2,24.1,17.7,24.1,17.4z"/>
			</defs>
			<clipPath id="red_contur_00000179648563540691576190000005762822834367635898_">
				<use xlink:href="#red_contur_00000140710294982444118710000005121874349319305374_"  overflow="visible"/>
			</clipPath>
			
				<rect id="bg_00000034064585226058829120000012488620380688124346_" x="8.3" y="8.2" clip-path="url(#red_contur_00000179648563540691576190000005762822834367635898_)" fill="#FF5F06" width="16.7" height="25.8"/>
			
				<radialGradient id="delimetr_bottom_00000122700281860773049670000018411823770497940373_" cx="16.2278" cy="21.3958" r="10.8203" gradientTransform="matrix(1 0 0 0.447 0 11.8318)" gradientUnits="userSpaceOnUse">
				<stop  offset="0" style="stop-color:#000000;stop-opacity:0.3"/>
				<stop  offset="0.5935" style="stop-color:#000000;stop-opacity:4.240200e-02"/>
				<stop  offset="0.6912" style="stop-color:#000000;stop-opacity:0"/>
			</radialGradient>
			
				<polygon id="delimetr_bottom" opacity="0.6" clip-path="url(#red_contur_00000179648563540691576190000005762822834367635898_)" fill="url(#delimetr_bottom_00000122700281860773049670000018411823770497940373_)" points="
				7.1,21.5 26.1,21.5 26.1,27.8 7.1,27.8 			"/>
			
				<linearGradient id="delimetr_top_00000062157530585129745400000014998621911632084142_" gradientUnits="userSpaceOnUse" x1="16.5773" y1="14.4601" x2="16.5773" y2="15.7593" gradientTransform="matrix(1 0 0 -1 0 36)">
				<stop  offset="0" style="stop-color:#A8AAA8;stop-opacity:0"/>
				<stop  offset="1" style="stop-color:#FFFFFF;stop-opacity:0.2"/>
			</linearGradient>
			
				<polygon id="delimetr_top" clip-path="url(#red_contur_00000179648563540691576190000005762822834367635898_)" fill="url(#delimetr_top_00000062157530585129745400000014998621911632084142_)" points="
				8.1,20.2 25,20.2 25,21.5 8.1,21.5 			"/>
			
				<radialGradient id="top_shadow_00000150093820298256601480000013683638551646431418_" cx="16.8503" cy="4.7159" r="11.8227" gradientUnits="userSpaceOnUse">
				<stop  offset="0" style="stop-color:#000000;stop-opacity:0.5"/>
				<stop  offset="1" style="stop-color:#FF5F06;stop-opacity:0.5"/>
			</radialGradient>
			
				<rect id="top_shadow" x="6.3" y="9.5" clip-path="url(#red_contur_00000179648563540691576190000005762822834367635898_)" fill="url(#top_shadow_00000150093820298256601480000013683638551646431418_)" width="20.6" height="8.4"/>
			
				<radialGradient id="bottom_00000016772550113503339870000016114410159680162182_" cx="16.6291" cy="34.5179" r="8.0645" fx="21.3946" fy="41.0237" gradientTransform="matrix(1 -5.524353e-03 2.944020e-03 0.5329 -0.1014 16.2149)" gradientUnits="userSpaceOnUse">
				<stop  offset="0" style="stop-color:#A03900"/>
				<stop  offset="0.1798" style="stop-color:#A53B00"/>
				<stop  offset="0.402" style="stop-color:#B44001"/>
				<stop  offset="0.6464" style="stop-color:#CE4803"/>
				<stop  offset="0.905" style="stop-color:#F05305"/>
				<stop  offset="1" style="stop-color:#FF5806"/>
			</radialGradient>
			
				<path id="bottom" clip-path="url(#red_contur_00000179648563540691576190000005762822834367635898_)" fill="url(#bottom_00000016772550113503339870000016114410159680162182_)" d="
				M26.6,35.5H7.3c0,0,2.1-4.1,4-5.3s3-1.1,5.4-1.1s3.4,0,5.1,1C23.4,31.1,26.6,35.5,26.6,35.5z"/>
		</g>
		<circle id="photoresistor_bg" fill="#420000" cx="16.6" cy="18.3" r="2.4"/>
		<circle id="photoresistor" fill="#F1F1F1" cx="16.6" cy="18.2" r="2.2"/>
		<circle id="led_bg" fill="#540000" cx="16.6" cy="23.4" r="2.2"/>
		<circle id="led" fill="#F2AFA5" cx="16.6" cy="23.4" r="2.1"/>
	</g>
</g>
</svg>
