<svg xmlns="http://www.w3.org/2000/svg" width="371.7" height="418.7" viewBox="0 0 98.3 110.8" id="svg8">
  <g id="layer1" transform="translate(0 -186.2)">
    <rect id="rect90-3" width="72.7" height="9.6" x="12.1" y="186.5" rx="2.1" fill="#666" stroke="#000" stroke-width=".5"/>
    <rect id="rect90" width="73.1" height="9.6" x="12.2" y="287.1" rx="2.1" stroke="#000" stroke-width=".5"/>
    <path d="M14.3 193.2c-1.1 0-2.1 1-2.1 2.1v15.5H2.4c-1.2 0-2.1 1-2.1 2.1v73.7c0 1.1 1 2.1 2.1 2.1h9.8v.6c0 1.2 1 2.1 2.1 2.1h68.3c1.2 0 2.2-1 2.2-2.1v-.6h11.1c1.2 0 2.2-1 2.2-2.1v-73.7c0-1.1-1-2.1-2.2-2.1H84.8v-15.5c0-1.2-1-2.1-2.2-2.1z" id="rect10" fill="#fff" stroke="#000" stroke-width="1.1"/>
    <path d="M31 197.9c7.3 0 7.7 8.2 7.7 9.3v17.4c0 1.2-1 2.2-2.2 2.2H25.7c-1.2 0-2.2-1-2.2-2.2v-17c0-1.1.2-9.7 7.5-9.7z" id="topleft" fill="#ccc" stroke="#000" stroke-width="1.1"/>
    <path d="M65.5 197.9c7.3 0 7.7 8.2 7.7 9.3v17.4c0 1.2-1 2.2-2.2 2.2H60.2c-1.2 0-2.1-1-2.1-2.2v-17c0-1.1.2-9.7 7.4-9.7z" id="topright" fill="#ccc" stroke="#000" stroke-width="1.1"/>
    <path d="M65.7 266.3c-7.3 0-7.6-8.2-7.6-9.4v-17.4c0-1.2 1-2.2 2.1-2.2H71c1.2 0 2.2 1 2.2 2.2v17c0 1.2-.2 9.8-7.5 9.8z" id="bottomright" fill="#ccc" stroke="#000" stroke-width="1.1"/>
    <path d="M31.2 266.3c-7.3 0-7.7-8.2-7.7-9.4v-17.4c0-1.2 1-2.2 2.2-2.2h10.8c1.2 0 2.2 1 2.2 2.2v17c0 1.2-.3 9.8-7.5 9.8z" id="bottomleft" fill="#ccc" stroke="#000" stroke-width="1.1"/>
    <path d="M27.5 273.6l40.1.1c1.2 0 5.4 6.3 5.4 7.5v5.8c0 1.1-1 2.1-2.2 2.1H25.5c-1.2 0-2.1-1-2.1-2.1v-5.5c0-1.2 3-7.9 4.1-7.9z" id="center" fill="#b3b3b3" stroke="#000" stroke-width="1.1"/>
    <rect id="rect107" width="15.1" height="3.2" x="23.1" y="231.1" ry="1.3" fill="#247aff" stroke-width=".5"/>
    <rect id="rect107-1" width="15.1" height="3.2" x="58.2" y="231.1" ry="1.3" fill="#ff242b" stroke-width=".5"/>
    <circle id="path941" cx="49.2" cy="263.3" r="2.5" fill="#ff242b" stroke-width=".5"/>
    <circle id="path943" cx="49.2" cy="263.3" r="4.5" fill="none" stroke="#949494" stroke-width=".5"/>
  </g>
</svg>
