<svg xmlns="http://www.w3.org/2000/svg" width="371.7" height="418.7" viewBox="0 0 98.3 110.8" id="svg8">
  <g id="layer1" transform="translate(0 -186.2)" stroke-width=".5">
    <g id="g939" transform="translate(-44.5 129.7)">
      <rect rx="2.1" y="56.7" x="56.6" height="9.6" width="72.7" id="rect90-3" fill="#666" stroke="#000"/>
      <rect rx="2.1" y="157.4" x="56.7" height="9.6" width="73.1" id="rect90" stroke="#000"/>
      <path id="rect10" d="M58.8 63.4c-1.1 0-2.1 1-2.1 2.2V81h-9.8c-1.2 0-2.1 1-2.1 2.2v73.6c0 1.2 1 2.2 2.1 2.2h9.8v.5c0 1.2 1 2.2 2.1 2.2h68.3c1.2 0 2.2-1 2.2-2.2v-.5h11.1c1.2 0 2.2-1 2.2-2.2V83.2c0-1.2-1-2.2-2.2-2.2h-11.1V65.6c0-1.2-1-2.2-2.2-2.2z" fill="#fff" stroke="#000"/>
      <path id="topLeft" d="M75.5 68.1c7.3 0 7.7 8.2 7.7 9.4v17.4c0 1.2-1 2.1-2.2 2.1H70.2C69 97 68 96 68 95V78c0-1.2.2-9.8 7.5-9.8z" fill="#ccc" stroke="#000"/>
      <path id="rect12-8" d="M110 68.1c7.3 0 7.7 8.2 7.7 9.4v17.4c0 1.2-1 2.1-2.2 2.1h-10.8c-1.2 0-2.1-1-2.1-2.1v-17c0-1.2.2-9.8 7.4-9.8z" fill="#ccc" stroke="#000"/>
      <path id="bottomRight" d="M110.2 136.5c-7.3 0-7.6-8.2-7.6-9.4v-17.3c0-1.2 1-2.2 2.1-2.2h10.8c1.2 0 2.2 1 2.2 2.2v17c0 1.1-.2 9.7-7.5 9.7z" fill="#ccc" stroke="#000"/>
      <path id="bottomLeft" d="M75.7 136.5c-7.3 0-7.7-8.2-7.7-9.4v-17.3c0-1.2 1-2.2 2.2-2.2H81c1.2 0 2.2 1 2.2 2.2v17c0 1.1-.3 9.7-7.5 9.7z" fill="#ccc" stroke="#000"/>
      <path id="rect84" d="M72 143.9h40.1c1.2 0 5.4 6.4 5.4 7.6v5.7c0 1.2-1 2.2-2.2 2.2H70c-1.2 0-2.1-1-2.1-2.2v-5.4c0-1.2 3-8 4.1-8z" fill="#b3b3b3" stroke="#000"/>
      <rect ry="1.3" y="101.4" x="67.6" height="3.2" width="15.1" id="rect107" fill="#247aff"/>
      <rect ry="1.3" y="101.4" x="102.7" height="3.2" width="15.1" id="rect107-1" fill="#ff242b"/>
    </g>
    <circle id="path941" cx="49.2" cy="263.3" r="2.5" fill="#ff242b"/>
    <circle id="path943" cx="49.2" cy="263.3" r="4.5" fill="none" stroke="#949494"/>
  </g>
</svg>
