<?xml version="1.0" encoding="utf-8"?>
<!-- Generator: Adobe Illustrator 22.0.1, SVG Export Plug-In . SVG Version: 6.00 Build 0)  -->
<svg version="1.1" id="svg41" xmlns="http://www.w3.org/2000/svg" xmlns:xlink="http://www.w3.org/1999/xlink" x="0px" y="0px"
	 viewBox="0 0 23 23" style="enable-background:new 0 0 23 23;" xml:space="preserve">
<style type="text/css">
	.st0{fill:#FFFFFF;}
	.st1{fill:none;}
	.st2{fill:none;stroke:#FFFFFF;}
</style>
<title>color</title>
<g id="menu_icn_savedisc" transform="translate(-8886 12201.056)">
	<path id="Path_116" class="st0" d="M8887.3-12189.6v-9.5c0-0.7,0.1-0.8,0.8-0.8h4.5c0.7,0,0.8,0.1,0.8,0.8v4.6
		c0,0.6,0.1,0.7,0.7,0.7h6.8c0.6,0,0.7-0.1,0.7-0.7v-4.7c0-0.6,0.1-0.7,0.7-0.7c1.4,0,1.4,0,2.3,0.9c1,1,1.9,1.9,2.9,2.9
		c0.2,0.2,0.3,0.5,0.3,0.8v15.2c0,0.6-0.1,0.8-0.7,0.8H8888c-0.6,0-0.7-0.1-0.7-0.8C8887.3-12183.3,8887.3-12186.5,8887.3-12189.6z
		 M8897.6-12181.5h7.4c0.7,0,0.8-0.1,0.8-0.8v-8.7c0-0.6-0.1-0.8-0.8-0.8h-14.9c-0.6,0-0.8,0.1-0.8,0.8v8.7c0,0.7,0.1,0.8,0.8,0.8
		H8897.6z"/>
	<path id="Path_117" class="st0" d="M8900.2-12197.9c0,0.5,0,1,0,1.5c0,0.5-0.2,0.6-0.6,0.6c-0.3,0-0.7,0-0.9,0s-0.6-0.1-0.6-0.5
		v-0.1v-2.9c0-0.2,0.1-0.5,0.5-0.6c0,0,0,0,0.1,0c0.3,0,0.7,0,1,0c0.3,0,0.6,0.2,0.6,0.5c0,0,0,0,0,0.1
		C8900.2-12198.9,8900.2-12198.3,8900.2-12197.9z"/>
	<g id="Rectangle_166" transform="translate(1.445 6.558)">
		<rect x="8887.5" y="-12199" class="st1" width="17.4" height="11.6"/>
		<rect x="8888.1" y="-12198.5" class="st2" width="16.3" height="10.5"/>
	</g>
</g>
</svg>
