<?xml version="1.0" encoding="utf-8"?>
<!-- Generator: Adobe Illustrator 22.0.1, SVG Export Plug-In . SVG Version: 6.00 Build 0)  -->
<svg version="1.1" id="svg41" xmlns="http://www.w3.org/2000/svg" xmlns:xlink="http://www.w3.org/1999/xlink" x="0px" y="0px"
	 viewBox="0 0 23 23" style="enable-background:new 0 0 23 23;" xml:space="preserve">
<style type="text/css">
	.st0{fill:#FFFFFF;}
	.st1{fill:none;}
	.st2{fill:none;stroke:#FFFFFF;}
</style>
<title>color</title>
<g id="menu_icn_savedisc" transform="translate(-8886 12201.056)">
	<path id="Path_116" class="st0" d="M8888.4-12189.1v-8.4c0-0.6,0.1-0.7,0.7-0.7h4c0.6,0,0.7,0.1,0.7,0.7v4.1c0,0.5,0.1,0.6,0.6,0.6
		h6c0.5,0,0.6-0.1,0.6-0.6v-4.2c0-0.5,0.1-0.6,0.6-0.6c1.2,0,1.2,0,2,0.8c0.9,0.9,1.7,1.7,2.6,2.6c0.2,0.2,0.3,0.4,0.3,0.7v13.5
		c0,0.5-0.1,0.7-0.6,0.7h-16.9c-0.5,0-0.6-0.1-0.6-0.7C8888.4-12183.5,8888.4-12186.3,8888.4-12189.1z M8897.5-12181.9h6.6
		c0.6,0,0.7-0.1,0.7-0.7v-7.7c0-0.5-0.1-0.7-0.7-0.7h-13.2c-0.5,0-0.7,0.1-0.7,0.7v7.7c0,0.6,0.1,0.7,0.7,0.7H8897.5z"/>
	<path id="Path_117" class="st0" d="M8899.8-12196.4c0,0.4,0,0.9,0,1.3c0,0.4-0.2,0.5-0.5,0.5c-0.3,0-0.6,0-0.8,0
		c-0.2,0-0.5-0.1-0.5-0.4c0,0,0-0.1,0-0.1v-2.6c0-0.2,0.1-0.4,0.4-0.5c0,0,0,0,0.1,0c0.3,0,0.6,0,0.9,0c0.3,0,0.5,0.2,0.5,0.4
		c0,0,0,0,0,0.1C8899.8-12197.3,8899.8-12196.8,8899.8-12196.4z"/>
	<g id="Rectangle_166" transform="translate(1.445 6.558)">
		<rect x="8888.4" y="-12198.2" class="st1" width="15.4" height="10.3"/>
		<rect x="8888.9" y="-12197.7" class="st2" width="14.4" height="9.3"/>
	</g>
</g>
</svg>
