<?xml version="1.0" encoding="utf-8"?>
<!-- Generator: Adobe Illustrator 22.0.1, SVG Export Plug-In . SVG Version: 6.00 Build 0)  -->
<svg version="1.1" id="svg41" xmlns="http://www.w3.org/2000/svg" xmlns:xlink="http://www.w3.org/1999/xlink" x="0px" y="0px"
	 viewBox="0 0 23 23" style="enable-background:new 0 0 23 23;" xml:space="preserve">
<style type="text/css">
	.st0{fill:#FFFFFF;}
</style>
<title>color</title>
<g id="menu_icn_savedisc" transform="translate(-8886 12201.056)">
	<path id="Path_117" class="st0" d="M8900.4-12197.9c0,0.5,0,1,0,1.5c0,0.5-0.2,0.6-0.6,0.6c-0.3,0-0.7,0-0.9,0
		c-0.2,0-0.6-0.1-0.6-0.5v-0.1v-2.9c0-0.2,0.1-0.5,0.5-0.6c0,0,0,0,0.1,0c0.3,0,0.7,0,1,0c0.3,0,0.6,0.2,0.6,0.5c0,0,0,0,0,0.1
		C8900.4-12198.9,8900.4-12198.3,8900.4-12197.9z"/>
	<path class="st0" d="M8907.6-12196c-1-1-1.9-1.9-2.9-2.9c-0.9-0.9-0.9-0.9-2.3-0.9c-0.6,0-0.7,0.1-0.7,0.7v4.7
		c0,0.6-0.1,0.7-0.7,0.7h-6.8c-0.6,0-0.7-0.1-0.7-0.7v-4.6c0-0.7-0.1-0.8-0.8-0.8h-4.5c-0.7,0-0.8,0.1-0.8,0.8v9.5
		c0,3.2,0,6.3,0,9.6c0,0.7,0.1,0.8,0.7,0.8h19.1c0.6,0,0.7-0.2,0.7-0.8v-15.2C8908-12195.6,8907.8-12195.8,8907.6-12196z
		 M8905.4-12181.9h-15.3v-9.4h15.3V-12181.9z"/>
</g>
</svg>
