<?xml version="1.0" encoding="UTF-8" standalone="no"?>
<!-- Created with Inkscape (http://www.inkscape.org/) -->

<svg
   xmlns:dc="http://purl.org/dc/elements/1.1/"
   xmlns:cc="http://creativecommons.org/ns#"
   xmlns:rdf="http://www.w3.org/1999/02/22-rdf-syntax-ns#"
   xmlns:svg="http://www.w3.org/2000/svg"
   xmlns="http://www.w3.org/2000/svg"
   xmlns:sodipodi="http://sodipodi.sourceforge.net/DTD/sodipodi-0.dtd"
   xmlns:inkscape="http://www.inkscape.org/namespaces/inkscape"
   width="256.68237mm"
   height="256.68237mm"
   viewBox="0 0 256.68237 256.68237"
   version="1.1"
   id="svg8853"
   inkscape:version="0.92.1 r15371"
   sodipodi:docname="brickbuttons.svg"
   inkscape:export-filename="C:\Users\jhalleux\bitmap.png"
   inkscape:export-xdpi="11.874598"
   inkscape:export-ydpi="11.874598">
  <defs
     id="defs8847">
    <linearGradient
       id="linear-gradient-4"
       x1="28.287067"
       y1="53.631462"
       x2="28.287067"
       y2="3.3378232"
       gradientUnits="userSpaceOnUse"
       gradientTransform="matrix(4.5371664,0,0,3.3819467,4.7045157,7.0563355)">
      <stop
         offset="0"
         stop-color="#6a6a6a"
         id="stop8176" />
      <stop
         offset="0.522"
         stop-color="#8ce300"
         id="stop8178" />
      <stop
         offset="1"
         stop-color="#6a6a6a"
         id="stop8180" />
    </linearGradient>
  </defs>
  <sodipodi:namedview
     id="base"
     pagecolor="#ffffff"
     bordercolor="#666666"
     borderopacity="1.0"
     inkscape:pageopacity="0.0"
     inkscape:pageshadow="2"
     inkscape:zoom="0.35"
     inkscape:cx="-82.030812"
     inkscape:cy="187.27864"
     inkscape:document-units="mm"
     inkscape:current-layer="layer1"
     showgrid="false"
     fit-margin-top="0"
     fit-margin-left="0"
     fit-margin-right="0"
     fit-margin-bottom="0"
     inkscape:window-width="1920"
     inkscape:window-height="1137"
     inkscape:window-x="-8"
     inkscape:window-y="-8"
     inkscape:window-maximized="1" />
  <metadata
     id="metadata8850">
    <rdf:RDF>
      <cc:Work
         rdf:about="">
        <dc:format>image/svg+xml</dc:format>
        <dc:type
           rdf:resource="http://purl.org/dc/dcmitype/StillImage" />
        <dc:title></dc:title>
      </cc:Work>
    </rdf:RDF>
  </metadata>
  <g
     inkscape:label="Layer 1"
     inkscape:groupmode="layer"
     id="layer1"
     transform="translate(-4.695057,58.29823)">
    <g
       id="g9431"
       transform="translate(3.9780427e-6,-32.677281)">
      <path
         style="fill:#6a6a6a;stroke-width:3.91719985"
         inkscape:connector-curvature="0"
         d="M 106.30882,198.38022 C 84.431262,177.26258 50.453467,142.52878 50.453467,142.52878 v -7.12931 H 37.087971 a 32.381533,32.381533 0 1 1 0,-64.763062 H 50.457376 V 63.503186 L 105.71341,7.0563355 h 55.25994 c 25.02699,25.5048885 55.25994,55.2599395 55.25994,55.2599395 v 8.320133 h 12.77398 a 32.381533,32.381533 0 0 1 0,64.763062 h -12.77398 v 7.13323 c -29.43384,30.27603 -54.66454,55.85144 -54.66454,55.85144 z"
         class="cls-7"
         data-name="Union 4"
         id="Union_4" />
      <path
         inkscape:connector-curvature="0"
         style="fill:url(#linear-gradient-4);stroke-width:3.91719985"
         d="M 106.30882,198.38022 C 84.431262,177.26258 50.453467,142.52878 50.453467,142.52878 v -7.12931 H 37.087971 a 32.381533,32.381533 0 1 1 0,-64.763062 H 50.457376 V 63.503186 L 105.71731,7.0563355 h 55.25604 c 25.02699,25.5048885 55.25994,55.2599395 55.25994,55.2599395 v 8.320133 h 12.77398 a 32.381533,32.381533 0 0 1 0,64.763062 h -12.77398 v 7.13323 c -29.43384,30.27603 -54.66454,55.85144 -54.66454,55.85144 z"
         class="cls-8"
         id="light" />
      <path
         style="fill:#a8a9a8;stroke-width:3.91719985"
         inkscape:connector-curvature="0"
         d="m 36.492567,78.357208 h 40.69971 V 126.48393 H 36.492567 A 24.063359,24.063359 0 0 1 12.429199,102.42057 v 0 A 24.063359,24.063359 0 0 1 36.492567,78.357208 Z"
         class="cls-9"
         data-name="Rectangle 23"
         id="Rectangle_23" />
      <path
         style="fill:#a8a9a8;stroke-width:3.91719985"
         inkscape:connector-curvature="0"
         d="M 229.00727,126.48784 H 188.30756 V 78.361126 h 40.69971 a 24.063359,24.063359 0 0 1 24.06335,24.063354 v 0 a 24.063359,24.063359 0 0 1 -24.06335,24.06336 z"
         class="cls-9"
         data-name="Rectangle 24"
         id="Rectangle_24" />
      <path
         style="fill:#3c3c3c;stroke-width:3.91719985"
         inkscape:connector-curvature="0"
         d="m 109.27806,78.357208 h 46.9398 a 1.782326,1.782326 0 0 1 1.78233,1.782326 V 124.7016 a 1.782326,1.782326 0 0 1 -1.78233,1.78233 h -46.9398 a 1.782326,1.782326 0 0 1 -1.78233,-1.78233 V 80.139534 a 1.782326,1.782326 0 0 1 1.78233,-1.782326 z"
         class="cls-4"
         data-name="Path 42"
         id="Path_42" />
      <path
         style="fill:#a8a9a8;stroke-width:3.91719985"
         inkscape:connector-curvature="0"
         d="m 108.09114,15.967966 49.90905,-0.59542 37.43276,38.619675 -15.44943,15.449437 V 97.367379 H 165.7249 V 81.306861 A 11.978797,11.978797 0 0 0 153.84012,69.422075 c -11.59883,-0.184102 -43.37516,0 -43.37516,0 A 9.6676495,9.6676495 0 0 0 100.36251,79.520618 V 97.347793 H 86.103905 V 69.422075 L 70.654464,53.97264 Z"
         class="cls-9"
         data-name="Path 15"
         id="Path_15" />
      <path
         style="fill:#a8a9a8;stroke-width:3.91719985"
         inkscape:connector-curvature="0"
         d="M 157.78865,189.01028 108.18908,189.38233 70.654464,150.794 86.323259,135.4895 v -28.08625 h 14.101921 v 16.11144 a 12.006218,12.006218 0 0 0 11.85346,11.9788 c 11.59882,0.1841 43.13227,0 43.13227,0 a 10.18472,10.18472 0 0 0 10.38059,-10.38058 v -17.70966 h 14.39179 v 28.08632 l 15.3045,15.3045 z"
         class="cls-9"
         data-name="Path 16"
         id="Path_16-2" />
    </g>
  </g>
</svg>
