<svg xmlns="http://www.w3.org/2000/svg" xmlns:xlink="http://www.w3.org/1999/xlink" viewBox="1549 6115.496 110.729 170.038">
  <defs>
    <style>
      .cls-1 {
        fill: url(#linear-gradient);
      }

      .cls-2 {
        fill: #f2f2f2;
      }

      .cls-3 {
        fill: url(#linear-gradient-2);
      }

      .cls-4 {
        fill: #3c3c3c;
      }

      .cls-5 {
        fill: #a0b5a6;
      }

      .cls-6 {
        fill: url(#linear-gradient-3);
      }

      .cls-7 {
        fill: #6a6a6a;
      }

      .cls-8 {
        fill: url(#linear-gradient-4);
      }

      .cls-9 {
        fill: #a8a9a8;
      }

      .cls-10 {
        fill: #9a9a9a;
      }

      .cls-11 {
        fill: url(#linear-gradient-5);
      }

      .cls-12 {
        fill: gray;
      }

      .cls-13 {
        fill: #fff;
      }

      .cls-14 {
        clip-path: url(#clip-path);
      }

      .cls-15 {
        fill: #ffed00;
      }

      .cls-16 {
        fill: #b72b1c;
      }

      .cls-17 {
        fill: #1d1d1b;
      }
    </style>
    <linearGradient id="linear-gradient" x1="0.5" y1="0.942" x2="0.5" y2="1.018" gradientUnits="objectBoundingBox">
      <stop offset="0" stop-color="#f2f2f2"/>
      <stop offset="1" stop-color="#797979"/>
    </linearGradient>
    <linearGradient id="linear-gradient-2" x1="0.5" y1="0.924" x2="0.5" y2="0.948" gradientUnits="objectBoundingBox">
      <stop offset="0" stop-color="#a8a9a8"/>
      <stop offset="1" stop-color="gray"/>
    </linearGradient>
    <linearGradient id="linear-gradient-3" x1="0.5" y1="0.807" x2="0.5" y2="1" gradientUnits="objectBoundingBox">
      <stop offset="0" stop-color="#a8a9a8"/>
      <stop offset="1" stop-color="#545554"/>
    </linearGradient>
    <linearGradient id="linear-gradient-4" x1="0.5" y1="0.948" x2="0.5" y2="0.059" gradientUnits="objectBoundingBox">
      <stop offset="0" stop-color="#6a6a6a"/>
      <stop offset="0.522" stop-color="#8ce300"/>
      <stop offset="1" stop-color="#6a6a6a"/>
    </linearGradient>
    <linearGradient id="linear-gradient-5" x1="0.5" y1="0.363" x2="0.5" gradientUnits="objectBoundingBox">
      <stop offset="0" stop-color="#747474"/>
      <stop offset="1" stop-color="#3c3c3c"/>
    </linearGradient>
    <clipPath id="clip-path">
      <rect id="Rectangle_32" data-name="Rectangle 32" width="12.383" height="12.383"/>
    </clipPath>
  </defs>
  <g id="EV3" transform="translate(1346 5554)">
    <g id="brick" transform="translate(203 561.496)">
      <path id="Path_19" data-name="Path 19" class="cls-1" d="M1.972,0H108.758a1.972,1.972,0,0,1,1.972,1.972V104.965a1.972,1.972,0,0,1-1.972,1.972H1.972A1.972,1.972,0,0,1,0,104.965V1.972A1.972,1.972,0,0,1,1.972,0Z" transform="translate(0 31.702)"/>
      <path id="Path_20" data-name="Path 20" class="cls-2" d="M1.972,0H96.319a1.972,1.972,0,0,1,1.972,1.972V40.5a1.972,1.972,0,0,1-1.972,1.972H1.972A1.972,1.972,0,0,1,0,40.5V1.972A1.972,1.972,0,0,1,1.972,0Z" transform="translate(6.219 127.566)"/>
      <path id="Path_18" data-name="Path 18" class="cls-3" d="M1.972,0H98.14a1.972,1.972,0,0,1,1.972,1.972V77.207a1.972,1.972,0,0,1-1.972,1.972H1.972A1.972,1.972,0,0,1,0,77.207V1.972A1.972,1.972,0,0,1,1.972,0Z" transform="translate(5.309)"/>
      <path id="Path_17" data-name="Path 17" class="cls-4" d="M3.792,0H78.269a3.792,3.792,0,0,1,3.792,3.792V45.657a3.792,3.792,0,0,1-3.792,3.792H3.792A3.792,3.792,0,0,1,0,45.657V3.792A3.792,3.792,0,0,1,3.792,0Z" transform="translate(14.41 10.466)"/>
      <path id="Path_16" data-name="Path 16" class="cls-5" d="M2.73,0H65.983a2.73,2.73,0,0,1,2.73,2.73V43.078a2.73,2.73,0,0,1-2.73,2.73H2.73A2.73,2.73,0,0,1,0,43.078V2.73A2.73,2.73,0,0,1,2.73,0Z" transform="translate(21.236 12.438)"/>
      <path id="Path_21" data-name="Path 21" class="cls-6" d="M0,0H98.291V21.387a1.972,1.972,0,0,1-1.972,1.972H1.972A1.972,1.972,0,0,1,0,21.387Z" transform="translate(6.219 146.679)"/>
    </g>
    <g id="buttons" transform="translate(216.197 621.259)">
      <path id="Union_4" data-name="Union 4" class="cls-7" d="M25.938,48.842c-5.585-5.391-14.259-14.258-14.259-14.258V32.764H8.267a8.266,8.266,0,1,1,0-16.533h3.413V14.41L25.786,0H39.893C46.282,6.511,54,14.107,54,14.107v2.124h3.261a8.266,8.266,0,0,1,0,16.533H54v1.821c-7.514,7.729-13.955,14.258-13.955,14.258Z" transform="translate(9.556 25.331)"/>
      <path id="light" class="cls-8" d="M25.938,48.842c-5.585-5.391-14.259-14.258-14.259-14.258V32.764H8.267a8.266,8.266,0,1,1,0-16.533h3.413V14.41L25.787,0H39.893C46.282,6.511,54,14.107,54,14.107v2.124h3.261a8.266,8.266,0,0,1,0,16.533H54v1.821c-7.514,7.729-13.955,14.258-13.955,14.258Z" transform="translate(9.556 25.331)"/>
      <path id="Rectangle_23" data-name="Rectangle 23" class="cls-9" d="M6.143,0h10.39a0,0,0,0,1,0,0V12.286a0,0,0,0,1,0,0H6.143A6.143,6.143,0,0,1,0,6.143v0A6.143,6.143,0,0,1,6.143,0Z" transform="translate(11.528 43.533)"/>
      <path id="Rectangle_24" data-name="Rectangle 24" class="cls-9" d="M6.143,0h10.39a0,0,0,0,1,0,0V12.286a0,0,0,0,1,0,0H6.143A6.143,6.143,0,0,1,0,6.143v0A6.143,6.143,0,0,1,6.143,0Z" transform="translate(72.96 55.82) rotate(180)"/>
      <path id="Path_42" data-name="Path 42" class="cls-4" d="M.455,0H12.438a.455.455,0,0,1,.455.455V11.831a.455.455,0,0,1-.455.455H.455A.455.455,0,0,1,0,11.831V.455A.455.455,0,0,1,.455,0Z" transform="translate(35.797 43.533)"/>
      <path id="Path_15" data-name="Path 15" class="cls-9" d="M-98.892-1598.849l12.741-.152,9.556,9.859-3.944,3.944v7.129h-3.64v-4.1a3.058,3.058,0,0,0-3.034-3.034c-2.961-.047-11.073,0-11.073,0a2.468,2.468,0,0,0-2.579,2.578v4.551h-3.64v-7.129l-3.944-3.944Z" transform="translate(134.841 1626.455)"/>
      <path id="Path_16-2" data-name="Path 16" class="cls-9" d="M9.624.095,22.286,0l9.582,9.851-4,3.907v7.17h-3.6V16.815a3.065,3.065,0,0,0-3.026-3.058c-2.961-.047-11.011,0-11.011,0a2.6,2.6,0,0,0-2.65,2.65v4.521H3.907v-7.17L0,9.851Z" transform="translate(58.26 71.876) rotate(180)"/>
      <rect id="Rectangle_26" data-name="Rectangle 26" class="cls-4" width="3.034" height="13.803" transform="translate(40.803)"/>
      <rect id="Rectangle_10" data-name="Rectangle 10" class="cls-10" width="3.034" height="6.067" transform="translate(40.803 13.197)"/>
      <rect id="Rectangle_12" data-name="Rectangle 12" class="cls-11" width="3.034" height="6.219" transform="translate(40.803 13.197)"/>
      <rect id="Rectangle_11" data-name="Rectangle 11" class="cls-12" width="3.034" height="5.916" transform="translate(40.803 19.416)"/>
      <path id="Path_15-2" data-name="Path 15" class="cls-9" d="M0,0H23.663V5.714c-2.618,2.638-5.976,5.965-5.976,5.965H1.972A1.972,1.972,0,0,1,0,9.708Z" transform="translate(0 19.416)"/>
    </g>
    <g id="LEGO_logo" data-name="LEGO logo" transform="translate(289.475 711.071)">
      <rect id="Rectangle_31" data-name="Rectangle 31" class="cls-13" width="12.208" height="12.208" transform="translate(0.087 0.087)"/>
      <g id="Group_15" data-name="Group 15">
        <g id="Group_10" data-name="Group 10" class="cls-14">
          <path id="Path_18-2" data-name="Path 18" class="cls-15" d="M.4,12.608H12.608V.4H.4ZM11.8,5.467a5.136,5.136,0,0,1-.24,1.179c-.437,1.267-.917,2.075-2.075,2.075a1.131,1.131,0,0,1-1.157-.7l-.044-.153L8.2,7.978A1.873,1.873,0,0,1,6.733,8.7a1.287,1.287,0,0,1-1.026-.437l-.066-.087-.066.066a1.589,1.589,0,0,1-1.157.415,1.317,1.317,0,0,1-.961-.371L3.37,8.262,3.3,8.327A1.556,1.556,0,0,1,2.191,8.7a.878.878,0,0,1-.961-.9A8.05,8.05,0,0,1,2.322,4.7a1.027,1.027,0,0,1,.917-.524.8.8,0,0,1,.568.175c.109.109.109.2.131.415l.022.284.153-.24a1.611,1.611,0,0,1,1.529-.655,1.05,1.05,0,0,1,.9.371l.044.087.066-.066a1.808,1.808,0,0,1,1.2-.393,1.52,1.52,0,0,1,1.114.371.762.762,0,0,1,.131.2l.066.109.087-.109a1.6,1.6,0,0,1,1.31-.568,1.258,1.258,0,0,1,.983.349,1.352,1.352,0,0,1,.262.961" transform="translate(-0.313 -0.313)"/>
        </g>
        <g id="Group_11" data-name="Group 11" class="cls-14">
          <path id="Path_19-2" data-name="Path 19" class="cls-16" d="M.4,12.608H12.608V.4H.4ZM12.149,5.947a6.83,6.83,0,0,1-.524,1.594,2.28,2.28,0,0,1-2.1,1.551,1.694,1.694,0,0,1-1.354-.546,2.194,2.194,0,0,1-1.485.546A1.764,1.764,0,0,1,5.6,8.742a2.182,2.182,0,0,1-1.223.349,1.781,1.781,0,0,1-1.026-.306,2.2,2.2,0,0,1-1.179.306A1.285,1.285,0,0,1,.815,7.847,8.327,8.327,0,0,1,1.994,4.506a1.407,1.407,0,0,1,1.245-.743c.59,0,.786.175.9.371A2.259,2.259,0,0,1,5.6,3.741a1.5,1.5,0,0,1,1,.328,2.393,2.393,0,0,1,1.2-.306,1.731,1.731,0,0,1,1.354.459,2.039,2.039,0,0,1,1.332-.437,1.566,1.566,0,0,1,1.376.611,1.8,1.8,0,0,1,.284,1.551" transform="translate(-0.313 -0.313)"/>
        </g>
        <g id="Group_12" data-name="Group 12" class="cls-14">
          <path id="Path_20-2" data-name="Path 20" class="cls-17" d="M0,12.383H12.383V0H0Zm12.208-.175H.175V.175H12.208Z"/>
        </g>
        <g id="Group_13" data-name="Group 13" class="cls-14">
          <path id="Path_21-2" data-name="Path 21" class="cls-17" d="M52.962,15.984V15.9h.066c.044,0,.066.022.066.044s-.022.044-.066.044Zm.2.175-.044-.066q-.033-.066-.066-.066h0a.094.094,0,0,0,.087-.087.08.08,0,0,0-.087-.087H52.9v.306h.066v-.131h.022c.022,0,.044,0,.044.022.022.022.022.044.044.066l.022.044Zm-.153-.393a.24.24,0,1,1-.24.24.258.258,0,0,1,.24-.24m0-.066a.306.306,0,1,0,.306.306.312.312,0,0,0-.306-.306" transform="translate(-41.191 -12.271)"/>
        </g>
        <g id="Group_14" data-name="Group 14" class="cls-14">
          <path id="Path_22" data-name="Path 22" class="cls-17" d="M13.189,17.122a1.713,1.713,0,0,0-1.376.611.557.557,0,0,0-.153-.218A1.442,1.442,0,0,0,10.5,17.1a1.858,1.858,0,0,0-1.245.415A1.089,1.089,0,0,0,8.3,17.1a1.68,1.68,0,0,0-1.594.7.539.539,0,0,0-.153-.459.883.883,0,0,0-.633-.2,1.1,1.1,0,0,0-.983.568A8.8,8.8,0,0,0,3.8,20.878a.966.966,0,0,0,1.048.961,1.516,1.516,0,0,0,1.179-.393,1.316,1.316,0,0,0,1,.393,1.582,1.582,0,0,0,1.223-.459,1.378,1.378,0,0,0,1.092.459,1.913,1.913,0,0,0,1.529-.764,1.2,1.2,0,0,0,1.245.743c1.2,0,1.725-.83,2.162-2.118a4.449,4.449,0,0,0,.262-1.2,1.207,1.207,0,0,0-1.354-1.376M5.218,20.4c.611-.109.786.109.764.328-.066.611-.633.764-1.114.743a.626.626,0,0,1-.7-.59,8.208,8.208,0,0,1,1.07-2.97.709.709,0,0,1,.677-.393c.306,0,.371.153.371.328A14.253,14.253,0,0,1,5.218,20.4m2.009-.568c-.044.109-.109.349-.175.59a2.42,2.42,0,0,1,.611-.087c.306,0,.48.131.48.371,0,.59-.655.764-1.114.764a.845.845,0,0,1-.939-.83,6.135,6.135,0,0,1,.677-2.271,1.372,1.372,0,0,1,1.529-.9c.306,0,.677.131.677.437,0,.415-.349.568-.677.59a3.851,3.851,0,0,1-.5,0,3.871,3.871,0,0,0-.24.48c.633-.087.9.044.786.415-.153.5-.59.524-1.114.437m3.123-1.551a.472.472,0,0,0-.371.218,6.165,6.165,0,0,0-.633,1.725c-.044.284.087.349.218.349.218,0,.459-.24.546-.611,0,0-.415,0-.306-.371s.328-.437.677-.459c.7-.022.633.48.568.764a1.8,1.8,0,0,1-1.7,1.594.89.89,0,0,1-.983-.961,4.914,4.914,0,0,1,.393-1.551c.371-.874.764-1.485,1.769-1.485.59,0,1.07.218,1,.764a.658.658,0,0,1-.633.677c-.109,0-.524,0-.393-.415.022-.131.044-.24-.153-.24m3.756.743a7.171,7.171,0,0,1-.59,1.616,1.409,1.409,0,0,1-1.376.852c-.437,0-.939-.175-.939-.852A5.286,5.286,0,0,1,11.595,19c.306-.83.633-1.507,1.66-1.485,1.157,0,.939,1.048.852,1.507m-.852-.524a9.808,9.808,0,0,1-.633,1.856.328.328,0,0,1-.306.218c-.131,0-.175-.087-.2-.2a7.657,7.657,0,0,1,.7-1.944c.087-.131.175-.153.262-.131.175,0,.175.109.175.2" transform="translate(-2.969 -13.366)"/>
        </g>
      </g>
    </g>
    <g id="EV3_logo" data-name="EV3 logo" transform="translate(215.286 714.697)">
      <path id="Path_12" data-name="Path 12" class="cls-2" d="M72.066,1.849a.183.183,0,0,1,.191.164h0v.847A.153.153,0,0,1,72.094,3H70.071a.366.366,0,0,0-.383.328V4.473a.346.346,0,0,0,.383.3h2.023c.191,0,.164.137.164.137v.82c0,.082-.055.137-.164.137H68.677a.187.187,0,0,1-.191-.191V5.621a.391.391,0,0,0-.383-.383H66.983a.391.391,0,0,0-.383.383v1.64a.366.366,0,0,0,.383.328h6.751a.346.346,0,0,0,.383-.3V.4a.346.346,0,0,0-.383-.3H67.01a.346.346,0,0,0-.383.3V2.068a.387.387,0,0,0,.355.383H68.1a.362.362,0,0,0,.355-.355V2.041a.173.173,0,0,1,.191-.191h3.417Z" transform="translate(-48.397 -0.073)"/>
      <path id="Path_13" data-name="Path 13" class="cls-2" d="M39.03,0H37.445c-.246,0-.328.164-.437.383L35.067,4.756a.23.23,0,0,1-.191.109.206.206,0,0,1-.191-.137L32.744.383C32.635.164,32.525,0,32.279,0H30.667c-.355,0-.41.191-.3.41l3.2,6.724c.164.328.273.383.574.383h1.421a.546.546,0,0,0,.574-.383L39.358.41c.109-.219.027-.41-.328-.41" transform="translate(-22.029)"/>
      <path id="Path_14" data-name="Path 14" class="cls-2" d="M7.106,2.97a.346.346,0,0,1,.383.3V4.446a.346.346,0,0,1-.383.3H2.05c-.109,0-.191.055-.191.137h0V5.7h0c0,.082.082.137.191.137H7.106a.346.346,0,0,1,.383.3V7.288a.336.336,0,0,1-.355.3H.383A.346.346,0,0,1,0,7.288V.4A.346.346,0,0,1,.383.1H7.134a.319.319,0,0,1,.355.3V1.549a.319.319,0,0,1-.355.3H2.077c-.109,0-.219.027-.219.137v.847c0,.082.082.137.191.137Z" transform="translate(0 -0.073)"/>
    </g>
  </g>
</svg>
