<svg xmlns="http://www.w3.org/2000/svg" xmlns:xlink="http://www.w3.org/1999/xlink" viewBox="2030.391 6170.607 35.949 60.977">
  <defs>
    <style>
      .cls-1 {
        fill: #a8a9a8;
      }

      .cls-2 {
        clip-path: url(#clip-path);
      }

      .cls-3, .cls-9 {
        fill: #9a9a9a;
      }

      .cls-4 {
        fill: #f2f2f2;
      }

      .cls-5 {
        opacity: 0.6;
        fill: url(#linear-gradient);
      }

      .cls-6 {
        fill: url(#linear-gradient-2);
      }

      .cls-7 {
        fill: #b72b1c;
      }

      .cls-8, .cls-9 {
        stroke: none;
      }

      .cls-10 {
        filter: url(#Path_12);
      }
    </style>
    <clipPath id="clip-path">
      <path id="Union_7" data-name="Union 7" class="cls-1" d="M9.708,60.977a9.336,9.336,0,0,1-1.983-.455H3.489A1.972,1.972,0,0,1,1.517,58.55V54H.758A.758.758,0,0,1,0,53.241V6.978a.758.758,0,0,1,.758-.759h.759V1.972A1.972,1.972,0,0,1,3.489,0H16.143V.607h3.42V0H32.309a1.972,1.972,0,0,1,1.972,1.972V6.219h.91a.759.759,0,0,1,.759.759V53.241a.758.758,0,0,1-.759.758h-.91V58.55a1.972,1.972,0,0,1-1.972,1.972H28.168c-.17.3-1.911.455-2.229.455Z" transform="translate(0 0)"/>
    </clipPath>
    <filter id="Path_12" x="2030.408" y="6169.107" width="35.764" height="50.78" filterUnits="userSpaceOnUse">
      <feOffset input="SourceAlpha"/>
      <feGaussianBlur stdDeviation="0.5" result="blur"/>
      <feFlood flood-opacity="0.502"/>
      <feComposite operator="in" in2="blur"/>
      <feComposite in="SourceGraphic"/>
    </filter>
    <linearGradient id="linear-gradient" x1="0.5" x2="0.5" y2="1" gradientUnits="objectBoundingBox">
      <stop offset="0" stop-color="#fff" stop-opacity="0"/>
      <stop offset="1" stop-color="#404040"/>
    </linearGradient>
    <linearGradient id="linear-gradient-2" x1="0.5" x2="0.5" y2="1" gradientUnits="objectBoundingBox">
      <stop offset="0" stop-color="#fff"/>
      <stop offset="1" stop-color="gray"/>
    </linearGradient>
  </defs>
  <g id="gyro" transform="translate(1346 5554)">
    <g id="Group_16" data-name="Group 16" transform="translate(684.391 616.607)">
      <g id="Mask_Group_7" data-name="Mask Group 7" class="cls-2">
        <g id="Group_9" data-name="Group 9" transform="translate(0 0)">
          <path id="Path_29" data-name="Path 29" class="cls-1" d="M.758,0H35.191a.758.758,0,0,1,.758.758V47.022a.758.758,0,0,1-.758.758H.758A.758.758,0,0,1,0,47.022V.758A.758.758,0,0,1,.758,0Z" transform="translate(0 6.219)"/>
          <rect id="Rectangle_11" data-name="Rectangle 11" class="cls-3" width="5.764" height="15.775" transform="translate(15.017 0.607)"/>
          <g class="cls-10" transform="matrix(1, 0, 0, 1, -2030.39, -6170.61)">
            <path id="Path_12-2" data-name="Path 12" class="cls-1" d="M1.972,0H14.627V16.015l3.42-.251V0H30.792a1.972,1.972,0,0,1,1.972,1.972V45.809a1.972,1.972,0,0,1-1.972,1.972H1.972A1.972,1.972,0,0,1,0,45.809V1.972A1.972,1.972,0,0,1,1.972,0Z" transform="translate(2031.91 6170.61)"/>
          </g>
          <g id="hvid" transform="translate(1.517 29.578)">
            <g id="hvid-2" data-name="hvid">
              <path id="Path_57" data-name="Path 57" class="cls-4" d="M1.213,0H31.55a1.213,1.213,0,0,1,1.213,1.213V28.972a1.972,1.972,0,0,1-1.972,1.972H1.972A1.972,1.972,0,0,1,0,28.972V1.213A1.213,1.213,0,0,1,1.213,0Z"/>
              <path id="Path_59" data-name="Path 59" class="cls-5" d="M0,0H32.764V3.034a1.972,1.972,0,0,1-1.972,1.972H1.972A1.972,1.972,0,0,1,0,3.034Z" transform="translate(0 25.938)"/>
            </g>
            <g id="Path_1" data-name="Path 1" class="cls-6" transform="translate(17.936 29.123)">
              <path class="cls-8" d="M 6.484842300415039 2.150261163711548 L -9.745367050170898 2.150261163711548 C -9.881197929382324 2.150261163711548 -10.42391777038574 2.059520959854126 -10.99923706054688 1.911741018295288 C -11.64816379547119 1.745060086250305 -11.94092655181885 1.606477737426758 -12.04074192047119 1.530453562736511 L -10.79143714904785 0.4930610656738281 C -10.4883279800415 0.2401210516691208 -10.03675746917725 0.1250010579824448 -9.745367050170898 0.1250010579824448 L 6.484842300415039 0.1250010579824448 C 6.704952716827393 0.1250010579824448 6.880472660064697 0.2815810441970825 7.083712577819824 0.4628810584545135 C 7.13621711730957 0.5097187757492065 7.190473556518555 0.558122992515564 7.246545314788818 0.6043557524681091 L 8.565185546875 1.793610692024231 C 8.487010955810547 1.844063878059387 8.263081550598145 1.941919326782227 7.636922359466553 2.037711143493652 C 7.147042274475098 2.112651109695435 6.634262561798096 2.150261163711548 6.484842300415039 2.150261163711548 Z"/>
              <path class="cls-9" d="M 6.484842300415039 2.025261163711548 C 6.853602409362793 2.025261163711548 7.907188415527344 1.902673006057739 8.341010093688965 1.759757876396179 L 7.164894104003906 0.6990422606468201 C 7.107734203338623 0.6518229246139526 7.053245544433594 0.6032094955444336 7.000502586364746 0.5561610460281372 C 6.816342353820801 0.3918810486793518 6.657302379608154 0.250001072883606 6.484842300415039 0.250001072883606 L -9.745367050170898 0.250001072883606 C -10.01493740081787 0.250001072883606 -10.43213748931885 0.356031060218811 -10.71158790588379 0.5892210602760315 L -11.82516098022461 1.513905882835388 C -11.35192489624023 1.734651446342468 -10.04894733428955 2.025261163711548 -9.745367050170898 2.025261163711548 L 6.484842300415039 2.025261163711548 M 6.484842300415039 2.275261163711548 L -9.745367050170898 2.275261163711548 C -10.08045768737793 2.275261163711548 -12.20312786102295 1.83790111541748 -12.20312786102295 1.502811074256897 L -10.87129783630371 0.3968910574913025 C -10.55266761779785 0.1310010552406311 -10.08045768737793 1.058692987498944e-06 -9.745367050170898 1.058692987498944e-06 L 6.484842300415039 1.058692987498944e-06 C 6.819932460784912 1.058692987498944e-06 7.054842472076416 0.2847210466861725 7.328142642974854 0.5096210837364197 L 8.727852821350098 1.771991014480591 C 8.727852821350098 2.107081174850464 6.819932460784912 2.275261163711548 6.484842300415039 2.275261163711548 Z"/>
            </g>
          </g>
          <g id="red_things" data-name="red things" transform="translate(4.551 8.494)">
            <ellipse id="red_dot" data-name="red dot" class="cls-7" cx="3.034" cy="3.034" rx="3.034" ry="3.034" transform="translate(10.315 5.916)"/>
            <path id="red_arrow_1" data-name="red arrow 1" class="cls-7" d="M3122.963-1932.135s-3.9-5.13-.759-10.77c.232.143.682.347.91.455.645.367.74-.309.607-.758-.3-.948-1.214-3.792-1.214-3.792l-3.792,1.062a1.446,1.446,0,0,0-.455.152c-.2.125-.369.4,0,.607l1.062.607s-4.526,6.652,1.062,14.258C3121.982-1931.454,3122.963-1932.135,3122.963-1932.135Z" transform="translate(-3117.592 1947)"/>
            <path id="red_arrow_2" data-name="red arrow 2" class="cls-7" d="M3118.4-1932.135s3.9-5.13.758-10.77c-.231.143-.681.347-.91.455-.645.367-.741-.309-.607-.758.3-.948,1.213-3.792,1.213-3.792l3.792,1.062a1.446,1.446,0,0,1,.455.152c.2.125.368.4,0,.607l-1.062.607s4.526,6.652-1.062,14.258C3119.383-1931.454,3118.4-1932.135,3118.4-1932.135Z" transform="translate(-3097.107 1947)"/>
          </g>
        </g>
      </g>
    </g>
  </g>
</svg>
