<?xml version="1.0" encoding="UTF-8" standalone="no"?>
<svg
   xmlns:dc="http://purl.org/dc/elements/1.1/"
   xmlns:cc="http://creativecommons.org/ns#"
   xmlns:rdf="http://www.w3.org/1999/02/22-rdf-syntax-ns#"
   xmlns:svg="http://www.w3.org/2000/svg"
   xmlns="http://www.w3.org/2000/svg"
   xmlns:sodipodi="http://sodipodi.sourceforge.net/DTD/sodipodi-0.dtd"
   xmlns:inkscape="http://www.inkscape.org/namespaces/inkscape"
   viewBox="2135.306 6140.141 153.634 153.634"
   version="1.1"
   id="svg7024"
   sodipodi:docname="Large Motor.svg"
   width="153.634"
   height="153.634"
   inkscape:version="0.92.1 r15371"
   inkscape:export-filename="C:\gh\pxt-ev3\libs\core\jres\icons\motorLarge-icon.png"
   inkscape:export-xdpi="74.983398"
   inkscape:export-ydpi="74.983398">
  <metadata
     id="metadata7028">
    <rdf:RDF>
      <cc:Work
         rdf:about="">
        <dc:format>image/svg+xml</dc:format>
        <dc:type
           rdf:resource="http://purl.org/dc/dcmitype/StillImage" />
        <dc:title></dc:title>
      </cc:Work>
    </rdf:RDF>
  </metadata>
  <sodipodi:namedview
     pagecolor="#ffffff"
     bordercolor="#666666"
     borderopacity="1"
     objecttolerance="10"
     gridtolerance="10"
     guidetolerance="10"
     inkscape:pageopacity="0"
     inkscape:pageshadow="2"
     inkscape:window-width="1600"
     inkscape:window-height="837"
     id="namedview7026"
     showgrid="false"
     inkscape:zoom="1.5361183"
     inkscape:cx="39.260502"
     inkscape:cy="76.817001"
     inkscape:window-x="-8"
     inkscape:window-y="-8"
     inkscape:window-maximized="1"
     inkscape:current-layer="svg7024" />
  <defs
     id="defs6971">
    <style
       id="style6897">
      .cls-1 {
        fill: #a8a9a8;
      }

      .cls-2 {
        clip-path: url(#clip-path);
      }

      .cls-3 {
        fill: #fff;
      }

      .cls-4 {
        clip-path: url(#clip-path-2);
      }

      .cls-5 {
        fill: #f2f2f2;
      }

      .cls-6 {
        clip-path: url(#clip-path-3);
      }

      .cls-7 {
        fill: #6a6a6a;
      }

      .cls-8 {
        fill: #9a9a9a;
      }

      .cls-9 {
        fill: #b72b1c;
      }

      .cls-10 {
        fill: #3c3c3c;
      }

      .cls-11 {
        fill: #242424;
      }

      .cls-12 {
        filter: url(#rød);
      }

      .cls-13 {
        filter: url(#Path_4);
      }

      .cls-14 {
        filter: url(#Path_1-2);
      }

      .cls-15 {
        filter: url(#Path_2);
      }

      .cls-16 {
        filter: url(#Path_1);
      }

      .cls-17 {
        filter: url(#Path_34);
      }
    </style>
    <clipPath
       id="clip-path">
      <path
         id="Union_6"
         data-name="Union 6"
         class="cls-1"
         d="M 0,136.571 A 17.07,17.07 0 0 1 14.122,119.759 L 13.757,119.371 13.747,83.6 c 0,-0.419 0.142,-0.4 0.392,-0.673 L 25.043,72.4 V 62.372 l -0.75,-0.775 V 60.8 H 17.5 a 4,4 0 0 1 -4,-4 V 30.978 a 4,4 0 0 1 4,-4 h 6.793 V 18.8 a 5.784,5.784 0 0 1 5.784,-5.784 h 6.508 V 5.446 A 4,4 0 0 1 39.477,1.6 v -1 A 0.607,0.607 0 0 1 40.084,0 h 26.262 a 0.607,0.607 0 0 1 0.607,0.607 v 1.282 a 4,4 0 0 1 2.169,3.557 v 7.569 h 3.615 A 5.784,5.784 0 0 1 78.521,18.8 V 48.44 C 68.153,62.5 60.394,72.305 60.394,72.305 H 59.8 c 0,0 -7.092,-0.053 -13.682,-0.1 l 0.034,11.8 h 6.882 a 4,4 0 0 1 4,4 v 25.826 a 4,4 0 0 1 -4,4 h -6.785 l 0.034,11.775 c 0,0.838 -0.155,0.838 -0.462,1.137 l -10.415,10.099 -0.212,0.191 A 1.518,1.518 0 0 1 33.6,140.8 17.067,17.067 0 0 1 0,136.571 Z"
         inkscape:connector-curvature="0"
         style="fill:#a8a9a8" />
    </clipPath>
    <filter
       id="Path_34"
       x="2168.8911"
       y="6138.5869"
       width="38.536999"
       height="21.907"
       filterUnits="userSpaceOnUse">
      <feOffset
         input="SourceAlpha"
         id="feOffset6901" />
      <feGaussianBlur
         stdDeviation="1"
         result="blur"
         id="feGaussianBlur6903" />
      <feFlood
         flood-opacity="0.502"
         id="feFlood6905" />
      <feComposite
         operator="in"
         in2="blur"
         id="feComposite6907"
         result="result1" />
      <feComposite
         in="SourceGraphic"
         in2="result1"
         id="feComposite6909" />
    </filter>
    <filter
       id="Path_1"
       x="2146.053"
       y="6207.1338"
       width="38.536999"
       height="77.177002"
       filterUnits="userSpaceOnUse">
      <feOffset
         input="SourceAlpha"
         id="feOffset6912" />
      <feGaussianBlur
         stdDeviation="1"
         result="blur-2"
         id="feGaussianBlur6914" />
      <feFlood
         flood-opacity="0.502"
         id="feFlood6916" />
      <feComposite
         operator="in"
         in2="blur-2"
         id="feComposite6918"
         result="result1" />
      <feComposite
         in="SourceGraphic"
         in2="result1"
         id="feComposite6920" />
    </filter>
    <filter
       id="Path_2"
       x="2157.3491"
       y="6198.8062"
       width="27.028999"
       height="28.403"
       filterUnits="userSpaceOnUse">
      <feOffset
         input="SourceAlpha"
         id="feOffset6923" />
      <feGaussianBlur
         stdDeviation="1"
         result="blur-3"
         id="feGaussianBlur6925" />
      <feFlood
         flood-opacity="0.502"
         id="feFlood6927" />
      <feComposite
         operator="in"
         in2="blur-3"
         id="feComposite6929"
         result="result1" />
      <feComposite
         in="SourceGraphic"
         in2="result1"
         id="feComposite6931" />
    </filter>
    <filter
       id="Path_1-2"
       x="2156.6001"
       y="6150.1548"
       width="60.229"
       height="65.290001"
       filterUnits="userSpaceOnUse">
      <feOffset
         input="SourceAlpha"
         id="feOffset6934" />
      <feGaussianBlur
         stdDeviation="1"
         result="blur-4"
         id="feGaussianBlur6936" />
      <feFlood
         flood-opacity="0.502"
         id="feFlood6938" />
      <feComposite
         operator="in"
         in2="blur-4"
         id="feComposite6940"
         result="result1" />
      <feComposite
         in="SourceGraphic"
         in2="result1"
         id="feComposite6942" />
    </filter>
    <clipPath
       id="clip-path-2">
      <path
         id="Path_9"
         data-name="Path 9"
         class="cls-1"
         d="m 5.784,0 h 42.66 a 5.784,5.784 0 0 1 5.784,5.784 v 29.64 C 43.86,49.487 36.1,59.29 36.1,59.29 h -0.595 c 0,0 -19.462,-0.147 -23.864,-0.147 A 2.28,2.28 0 0 1 9.263,58.158 L 0,48.582 V 5.784 A 5.784,5.784 0 0 1 5.784,0 Z"
         inkscape:connector-curvature="0"
         style="fill:#a8a9a8" />
    </clipPath>
    <filter
       id="Path_4"
       x="2162.384"
       y="6155.2168"
       width="48.66"
       height="54.444"
       filterUnits="userSpaceOnUse">
      <feOffset
         input="SourceAlpha"
         id="feOffset6947" />
      <feGaussianBlur
         stdDeviation="1"
         result="blur-5"
         id="feGaussianBlur6949" />
      <feFlood
         flood-opacity="0.502"
         id="feFlood6951" />
      <feComposite
         operator="in"
         in2="blur-5"
         id="feComposite6953"
         result="result1" />
      <feComposite
         in="SourceGraphic"
         in2="result1"
         id="feComposite6955" />
    </filter>
    <clipPath
       id="clip-path-3">
      <path
         id="Path_10"
         data-name="Path 10"
         class="cls-1"
         d="M 5.784,0 H 36.875 A 5.784,5.784 0 0 1 42.66,5.784 V 28.032 C 34.013,39.3 27.1,48.444 27.1,48.444 H 5.784 A 5.784,5.784 0 0 1 0,42.66 V 5.784 A 5.784,5.784 0 0 1 5.784,0 Z"
         inkscape:connector-curvature="0"
         style="fill:#a8a9a8" />
    </clipPath>
    <filter
       id="rød"
       x="2132.3059"
       y="6256.646"
       width="40.129002"
       height="40.129002"
       filterUnits="userSpaceOnUse">
      <feOffset
         input="SourceAlpha"
         id="feOffset6960" />
      <feGaussianBlur
         stdDeviation="1"
         result="blur-6"
         id="feGaussianBlur6962" />
      <feFlood
         flood-opacity="0.502"
         id="feFlood6964" />
      <feComposite
         operator="in"
         in2="blur-6"
         id="feComposite6966"
         result="result1" />
      <feComposite
         in="SourceGraphic"
         in2="result1"
         id="feComposite6968" />
    </filter>
  </defs>
  <g
     id="Large_Motor"
     data-name="Large Motor"
     transform="translate(1383.553,5554.0014)">
    <g
       id="Mask_Group_6"
       data-name="Mask Group 6"
       class="cls-2"
       transform="translate(789.306,586.141)"
       clip-path="url(#clip-path)">
      <g
         id="Large_motor-2"
         data-name="Large motor"
         transform="translate(-1.623)">
        <path
           id="Path_45"
           data-name="Path 45"
           class="cls-1"
           d="m 5.461,0 h 5.612 a 5.461,5.461 0 0 1 5.461,5.461 v 22.9 a 5.461,5.461 0 0 1 -5.461,5.461 H 5.461 A 5.461,5.461 0 0 1 0,28.365 V 5.461 A 5.461,5.461 0 0 1 5.461,0 Z"
           transform="translate(42.123,84.012)"
           inkscape:connector-curvature="0"
           style="fill:#a8a9a8" />
        <circle
           id="Ellipse_2"
           data-name="Ellipse 2"
           class="cls-3"
           cx="3.7920001"
           cy="3.7920001"
           transform="translate(49.555,85.528)"
           r="3.7920001"
           style="fill:#ffffff" />
        <circle
           id="Ellipse_1"
           data-name="Ellipse 1"
           class="cls-3"
           cx="3.7920001"
           cy="3.7920001"
           transform="translate(49.555,108.736)"
           r="3.7920001"
           style="fill:#ffffff" />
        <path
           id="Path_36"
           data-name="Path 36"
           class="cls-1"
           d="m 0.607,0 h 26.262 a 0.607,0.607 0 0 1 0.607,0.607 V 5.9 A 0.607,0.607 0 0 1 26.869,6.507 H 0.607 A 0.607,0.607 0 0 1 0,5.9 V 0.607 A 0.607,0.607 0 0 1 0.607,0 Z"
           transform="translate(41.1)"
           inkscape:connector-curvature="0"
           style="fill:#a8a9a8" />
        <g
           class="cls-17"
           transform="translate(-2133.68,-6140.14)"
           id="g6978"
           style="filter:url(#Path_34)">
          <path
             id="Path_34-2"
             data-name="Path 34"
             class="cls-1"
             d="M 0.607,0 H 31.93 a 0.607,0.607 0 0 1 0.607,0.607 V 15.3 A 0.607,0.607 0 0 1 31.93,15.907 H 0.607 A 0.607,0.607 0 0 1 0,15.3 V 0.607 A 0.607,0.607 0 0 1 0.607,0 Z"
             transform="translate(2171.89,6141.59)"
             inkscape:connector-curvature="0"
             style="fill:#a8a9a8" />
        </g>
        <path
           id="Path_2-2"
           data-name="Path 2"
           class="cls-3"
           d="m 5610.158,939.234 a 4.151,4.151 0 0 1 -2.342,0.705 5.131,5.131 0 0 1 -2.988,-0.705 c -1.257,-0.931 -1.229,0.1 -1.229,0.1 v 1.8 c 0,0.45 0.553,0.846 1.229,0.459 0.676,-0.387 1,-0.581 1,-0.581 0,0 0.361,-0.184 0.361,0.335 v 2.62 c 0,0 0.021,0.786 -0.73,0.768 -0.751,-0.018 -1.38,0 -1.38,0 0,0 -0.293,0.248 -0.293,1.385 0,1.137 0.293,1.322 0.293,1.322 h 1.38 c 0,0 0.73,-0.024 0.73,0.649 v 1.3 c 0,0 0.227,0.359 1.169,0.306 a 3.6,3.6 0 0 0 1.4,-0.306 v -1.3 a 0.67,0.67 0 0 1 0.66,-0.649 c 0.631,-0.01 1.257,0 1.257,0 0,0 0.252,-0.191 0.287,-1.322 0.035,-1.131 -0.287,-1.385 -0.287,-1.385 h -1.257 c 0,0 -0.805,-0.052 -0.817,-0.768 -0.012,-0.716 0,-2.62 0,-2.62 0,0 -0.047,-0.515 0.332,-0.335 0.379,0.18 1.215,0.581 1.215,0.581 0,0 0.83,0.407 0.814,-0.459 -0.016,-0.866 0,-1.8 0,-1.8 0,0 -0.072,-0.534 -0.804,-0.1 z"
           transform="translate(-5553.893,-845.301)"
           inkscape:connector-curvature="0"
           style="fill:#ffffff" />
        <path
           id="Path_3"
           data-name="Path 3"
           class="cls-3"
           d="m 5601.9,1015.336 a 0.83,0.83 0 0 1 1.2,-0.594 6.516,6.516 0 0 0 2.85,0.772 5.05,5.05 0 0 0 2.768,-0.772 c 0.829,-0.4 1.067,0.594 1.067,0.594 v 1.76 a 0.71,0.71 0 0 1 -1.067,0.561 5.791,5.791 0 0 0 -2.768,-0.837 7.06,7.06 0 0 0 -2.85,0.837 c 0,0 -1.178,0.239 -1.2,-0.561 -0.022,-0.8 0,-1.76 0,-1.76 z"
           transform="translate(-5552.485,-909.604)"
           inkscape:connector-curvature="0"
           style="fill:#ffffff" />
        <g
           class="cls-16"
           transform="translate(-2133.68,-6140.14)"
           id="g6983"
           style="filter:url(#Path_1)">
          <path
             id="Path_1-3"
             data-name="Path 1"
             class="cls-1"
             d="M 0.016,8.513 13.42,-4.416 31.991,-3.746 32.162,55.2 c 0,0.838 -0.155,0.838 -0.462,1.137 l -10.416,10.096 -0.212,0.19 c -0.584,0.4 -1.987,-0.115 -1.987,-0.952 L -0.364,44.961 -0.375,9.187 c 0,-0.419 0.142,-0.402 0.391,-0.674 z"
             transform="translate(2149.43,6214.55)"
             inkscape:connector-curvature="0"
             style="fill:#a8a9a8" />
        </g>
        <g
           class="cls-15"
           transform="translate(-2133.68,-6140.14)"
           id="g6986"
           style="filter:url(#Path_2)">
          <path
             id="Path_2-3"
             data-name="Path 2"
             class="cls-1"
             d="m 1484.037,521.285 v 17.253 c 0,0 0.019,0.845 0.3,1.121 0.281,0.276 3.516,3.626 3.516,3.626 a 1.566,1.566 0 0 0 1.157,0.4 c 0.758,-0.025 11.627,0 11.627,0 l 4.429,-4.7 v -7.963 l -10.662,-0.567 z"
             transform="translate(676.31,5680.52)"
             inkscape:connector-curvature="0"
             style="fill:#a8a9a8" />
        </g>
        <g
           id="Group_4"
           data-name="Group 4"
           transform="translate(15.123,26.978)">
          <path
             id="Path_44"
             data-name="Path 44"
             class="cls-1"
             d="m 5.461,0 h 5.612 a 5.461,5.461 0 0 1 5.461,5.461 v 22.9 a 5.461,5.461 0 0 1 -5.461,5.461 H 5.461 A 5.461,5.461 0 0 1 0,28.365 V 5.461 A 5.461,5.461 0 0 1 5.461,0 Z"
             inkscape:connector-curvature="0"
             style="fill:#a8a9a8" />
          <circle
             id="Ellipse_3"
             data-name="Ellipse 3"
             class="cls-3"
             cx="3.7920001"
             cy="3.7920001"
             transform="translate(1.062,1.517)"
             r="3.7920001"
             style="fill:#ffffff" />
          <circle
             id="Ellipse_4"
             data-name="Ellipse 4"
             class="cls-3"
             cx="3.7920001"
             cy="3.7920001"
             transform="translate(1.062,24.725)"
             r="3.7920001"
             style="fill:#ffffff" />
          <path
             id="Path_5"
             data-name="Path 5"
             class="cls-3"
             d="m 5610.158,939.234 a 4.151,4.151 0 0 1 -2.342,0.705 5.131,5.131 0 0 1 -2.988,-0.705 c -1.257,-0.931 -1.229,0.1 -1.229,0.1 v 1.8 c 0,0.45 0.553,0.846 1.229,0.459 0.676,-0.387 1,-0.581 1,-0.581 0,0 0.361,-0.184 0.361,0.335 v 2.62 c 0,0 0.021,0.786 -0.73,0.768 -0.751,-0.018 -1.38,0 -1.38,0 0,0 -0.293,0.248 -0.293,1.385 0,1.137 0.293,1.322 0.293,1.322 h 1.38 c 0,0 0.73,-0.024 0.73,0.649 v 1.3 c 0,0 0.227,0.359 1.169,0.306 a 3.6,3.6 0 0 0 1.4,-0.306 v -1.3 a 0.67,0.67 0 0 1 0.66,-0.649 c 0.631,-0.01 1.257,0 1.257,0 0,0 0.252,-0.191 0.287,-1.322 0.035,-1.131 -0.287,-1.385 -0.287,-1.385 h -1.257 c 0,0 -0.805,-0.052 -0.817,-0.768 -0.012,-0.716 0,-2.62 0,-2.62 0,0 -0.047,-0.515 0.332,-0.335 0.379,0.18 1.215,0.581 1.215,0.581 0,0 0.83,0.407 0.814,-0.459 -0.016,-0.866 0,-1.8 0,-1.8 0,0 -0.072,-0.534 -0.804,-0.1 z"
             transform="translate(-5602.386,-929.312)"
             inkscape:connector-curvature="0"
             style="fill:#ffffff" />
          <path
             id="Path_6"
             data-name="Path 6"
             class="cls-3"
             d="m 5601.9,1015.336 a 0.83,0.83 0 0 1 1.2,-0.594 6.516,6.516 0 0 0 2.85,0.772 5.05,5.05 0 0 0 2.768,-0.772 c 0.829,-0.4 1.067,0.594 1.067,0.594 v 1.76 a 0.71,0.71 0 0 1 -1.067,0.561 5.791,5.791 0 0 0 -2.768,-0.837 7.06,7.06 0 0 0 -2.85,0.837 c 0,0 -1.178,0.239 -1.2,-0.561 -0.022,-0.8 0,-1.76 0,-1.76 z"
             transform="translate(-5600.979,-993.616)"
             inkscape:connector-curvature="0"
             style="fill:#ffffff" />
        </g>
        <g
           class="cls-14"
           transform="translate(-2133.68,-6140.14)"
           id="g6995"
           style="filter:url(#Path_1-2)">
          <path
             id="Path_1-4"
             data-name="Path 1"
             class="cls-1"
             d="m 5.784,0 h 42.66 a 5.784,5.784 0 0 1 5.784,5.784 v 29.64 C 43.86,49.487 36.1,59.29 36.1,59.29 h -0.595 c 0,0 -19.462,-0.147 -23.864,-0.147 A 2.28,2.28 0 0 1 9.263,58.158 L 0,48.582 V 5.784 A 5.784,5.784 0 0 1 5.784,0 Z"
             transform="translate(2159.6,6153.16)"
             inkscape:connector-curvature="0"
             style="fill:#a8a9a8" />
        </g>
        <g
           id="hvid"
           transform="translate(25.916,13.015)">
          <g
             id="Mask_Group_1"
             data-name="Mask Group 1"
             class="cls-4"
             clip-path="url(#clip-path-2)">
            <path
               id="hvid-2"
               data-name="hvid"
               class="cls-5"
               d="m 1498.578,449.051 7.155,7.37 23.789,31.08 v 14.857 l 13.063,-16.131 v -31.221 l -0.993,-7.691 z"
               transform="translate(-1487.315,-449.455)"
               inkscape:connector-curvature="0"
               style="fill:#f2f2f2" />
          </g>
        </g>
        <g
           class="cls-13"
           transform="translate(-2133.68,-6140.14)"
           id="g7001"
           style="filter:url(#Path_4)">
          <path
             id="Path_4-2"
             data-name="Path 4"
             class="cls-1"
             d="M 5.784,0 H 36.875 A 5.784,5.784 0 0 1 42.66,5.784 V 28.032 C 34.013,39.3 27.1,48.444 27.1,48.444 H 5.784 A 5.784,5.784 0 0 1 0,42.66 V 5.784 A 5.784,5.784 0 0 1 5.784,0 Z"
             transform="translate(2165.38,6158.22)"
             inkscape:connector-curvature="0"
             style="fill:#a8a9a8" />
        </g>
        <g
           id="Group_3"
           data-name="Group 3"
           transform="translate(31.7,18.38)">
          <g
             id="Mask_Group_2"
             data-name="Mask Group 2"
             class="cls-6"
             clip-path="url(#clip-path-3)">
            <path
               id="Union_1"
               data-name="Union 1"
               class="cls-7"
               d="M 14.461,28.56 V 1.085 a 1.085,1.085 0 1 1 2.169,0 V 28.56 a 1.085,1.085 0 1 1 -2.169,0 z m -3.615,0 V 1.085 a 1.085,1.085 0 1 1 2.169,0 V 28.56 a 1.085,1.085 0 1 1 -2.169,0 z m -3.615,0 V 1.085 a 1.085,1.085 0 1 1 2.169,0 V 28.56 a 1.085,1.085 0 1 1 -2.169,0 z m -3.615,0 V 1.085 a 1.085,1.085 0 1 1 2.169,0 V 28.56 a 1.085,1.085 0 1 1 -2.169,0 z M 0,28.56 V 1.085 a 1.085,1.085 0 1 1 2.169,0 V 28.56 A 1.085,1.085 0 1 1 0,28.56 Z"
               transform="translate(15.907,-5.365)"
               inkscape:connector-curvature="0"
               style="fill:#6a6a6a" />
          </g>
        </g>
        <circle
           id="Ellipse_1-2"
           data-name="Ellipse 1"
           class="cls-8"
           cx="2.2449999"
           cy="2.2449999"
           transform="translate(29.076,16.175)"
           r="2.2449999"
           style="fill:#9a9a9a" />
        <circle
           id="Ellipse_2-2"
           data-name="Ellipse 2"
           class="cls-8"
           cx="2.2449999"
           cy="2.2449999"
           transform="translate(57.744,66.686)"
           r="2.2449999"
           style="fill:#9a9a9a" />
        <g
           class="cls-12"
           transform="translate(-2133.68,-6140.14)"
           id="g7009">
          <circle
             id="rød-2"
             data-name="rød"
             class="cls-9"
             cx="17.063999"
             cy="17.063999"
             transform="translate(2135.31,6259.65)"
             r="17.063999"
             style="fill:#b72b1c" />
        </g>
        <g
           id="Group_2"
           data-name="Group 2"
           transform="matrix(0.966,0.259,-0.259,0.966,7.93,117.883)">
          <circle
             id="Ellipse_4-2"
             data-name="Ellipse 4"
             class="cls-10"
             cx="3.7920001"
             cy="3.7920001"
             transform="translate(11.528)"
             r="3.7920001"
             style="fill:#3c3c3c" />
          <circle
             id="Ellipse_7"
             data-name="Ellipse 7"
             class="cls-10"
             cx="3.7920001"
             cy="3.7920001"
             transform="translate(23.056,11.528)"
             r="3.7920001"
             style="fill:#3c3c3c" />
          <circle
             id="Ellipse_5"
             data-name="Ellipse 5"
             class="cls-10"
             cx="3.7920001"
             cy="3.7920001"
             transform="translate(11.528,23.056)"
             r="3.7920001"
             style="fill:#3c3c3c" />
          <circle
             id="Ellipse_6"
             data-name="Ellipse 6"
             class="cls-10"
             cx="3.7920001"
             cy="3.7920001"
             transform="translate(0,11.528)"
             r="3.7920001"
             style="fill:#3c3c3c" />
          <path
             id="Path_4-3"
             data-name="Path 4"
             class="cls-11"
             d="m 2.4,1.566 c 0,0 0.021,0.786 -0.73,0.768 -0.751,-0.018 -1.38,0 -1.38,0 0,0 -0.29,0.248 -0.29,1.385 0,1.137 0.294,1.322 0.294,1.322 h 1.38 c 0,0 0.73,-0.024 0.73,0.649 0,0.673 0,1.3 0,1.3 0,0 0.227,0.359 1.17,0.306 a 3.594,3.594 0 0 0 1.4,-0.306 v -1.3 a 0.67,0.67 0 0 1 0.66,-0.649 c 0.631,-0.01 1.257,0 1.257,0 0,0 0.253,-0.191 0.287,-1.322 C 7.212,2.588 6.891,2.333 6.891,2.333 H 5.638 c 0,0 -0.806,-0.052 -0.818,-0.768 A 12.478,12.478 0 0 1 4.884,0.305 2.9,2.9 0 0 0 2.529,0.213 C 2.45,0.819 2.4,1.566 2.4,1.566 Z"
             transform="rotate(-90,15.2715,3.5915)"
             inkscape:connector-curvature="0"
             style="fill:#242424" />
          <path
             id="Path_5-2"
             data-name="Path 5"
             class="cls-10"
             d="M 0.455,0.155 2.016,0 3.64,0.155 A 0.455,0.455 0 0 1 4.1,0.61 V 2.734 A 0.455,0.455 0 0 1 3.645,3.189 L 2.094,2.979 0.46,3.189 A 0.455,0.455 0 0 1 0,2.734 V 0.61 A 0.455,0.455 0 0 1 0.455,0.155 Z"
             transform="translate(13.241,8.084)"
             inkscape:connector-curvature="0"
             style="fill:#3c3c3c" />
          <path
             id="Path_7"
             data-name="Path 7"
             class="cls-10"
             d="M 0.455,0.155 2.016,0 3.64,0.155 A 0.455,0.455 0 0 1 4.1,0.61 V 2.734 A 0.455,0.455 0 0 1 3.645,3.189 L 2.094,2.979 0.46,3.189 A 0.455,0.455 0 0 1 0,2.734 V 0.61 A 0.455,0.455 0 0 1 0.455,0.155 Z"
             transform="rotate(-90,12.71,4.628)"
             inkscape:connector-curvature="0"
             style="fill:#3c3c3c" />
          <path
             id="Path_6-2"
             data-name="Path 6"
             class="cls-10"
             d="M 0.455,0.155 2.016,0 3.64,0.155 A 0.455,0.455 0 0 1 4.1,0.61 V 2.734 A 0.455,0.455 0 0 1 3.645,3.189 L 2.094,2.979 0.46,3.189 A 0.455,0.455 0 0 1 0,2.734 V 0.61 A 0.455,0.455 0 0 1 0.455,0.155 Z"
             transform="rotate(180,8.668,11.2485)"
             inkscape:connector-curvature="0"
             style="fill:#3c3c3c" />
          <path
             id="Path_8"
             data-name="Path 8"
             class="cls-10"
             d="M 0.455,0.155 2.016,0 3.64,0.155 A 0.455,0.455 0 0 1 4.1,0.61 V 2.734 A 0.455,0.455 0 0 1 3.645,3.189 L 2.094,2.979 0.46,3.189 A 0.455,0.455 0 0 1 0,2.734 V 0.61 A 0.455,0.455 0 0 1 0.455,0.155 Z"
             transform="rotate(90,4.6265,17.8685)"
             inkscape:connector-curvature="0"
             style="fill:#3c3c3c" />
        </g>
      </g>
    </g>
  </g>
</svg>
