<svg xmlns="http://www.w3.org/2000/svg" xmlns:xlink="http://www.w3.org/1999/xlink" viewBox="1827.391 6183.664 36.101 33.37">
  <defs>
    <style>
      .cls-1 {
        fill: #a8a9a8;
      }

      .cls-2 {
        clip-path: url(#clip-path);
      }

      .cls-3 {
        fill: url(#linear-gradient);
      }

      .cls-4 {
        fill: url(#linear-gradient-2);
      }

      .cls-5 {
        fill: #b72b1c;
        stroke: #8b1104;
        stroke-width: 0.25px;
      }

      .cls-6 {
        stroke: none;
      }

      .cls-7 {
        fill: none;
      }

      .cls-8 {
        filter: url(#Path_1);
      }
    </style>
    <clipPath id="clip-path">
      <path id="Union_3" data-name="Union 3" class="cls-1" d="M3.944,33.37c-1.069,0-1.972-.6-1.972-1.365v-4.4H1a1,1,0,0,1-1-1V7.371a1,1,0,0,1,1-1h.972V1.365C1.972.6,2.875,0,3.944,0H14.713V1.365h6.371V0H32.157c1.069,0,1.972.6,1.972,1.365V6.371H35.1a1,1,0,0,1,1,1V26.607a1,1,0,0,1-1,1h-.972V32c0,.761-.9,1.365-1.972,1.365Z"/>
    </clipPath>
    <linearGradient id="linear-gradient" x1="0.5" y1="0.91" x2="0.5" y2="1.046" gradientUnits="objectBoundingBox">
      <stop offset="0" stop-color="#a8a9a8"/>
      <stop offset="1" stop-color="#545554"/>
    </linearGradient>
    <filter id="Path_1" x="1826.363" y="6180.664" width="38.157" height="39.371" filterUnits="userSpaceOnUse">
      <feOffset input="SourceAlpha"/>
      <feGaussianBlur stdDeviation="1" result="blur"/>
      <feFlood flood-opacity="0.502"/>
      <feComposite operator="in" in2="blur"/>
      <feComposite in="SourceGraphic"/>
    </filter>
    <linearGradient id="linear-gradient-2" x1="0.949" y1="0.5" x2="0.056" y2="0.5" gradientUnits="objectBoundingBox">
      <stop offset="0" stop-color="#b72b1c"/>
      <stop offset="1" stop-color="#8b1104"/>
    </linearGradient>
  </defs>
  <g id="Touch_sensor" data-name="Touch sensor" transform="translate(1346 5554)">
    <g id="Group_8" data-name="Group 8" transform="translate(481.391 629.664)">
      <g id="Mask_Group_3" data-name="Mask Group 3" class="cls-2">
        <g id="Group_2" data-name="Group 2" transform="translate(0 0)">
          <path id="Path_27" data-name="Path 27" class="cls-1" d="M.758,0H35.342A.758.758,0,0,1,36.1.758V20.477a.758.758,0,0,1-.758.758H.758A.758.758,0,0,1,0,20.477V.758A.758.758,0,0,1,.758,0Z" transform="translate(0 6.371)"/>
          <g class="cls-8" transform="matrix(1, 0, 0, 1, -1827.39, -6183.66)">
            <path id="Path_1-2" data-name="Path 1" class="cls-3" d="M1.972,0h10.77V1.365h6.371V0H30.185c1.069,0,1.972.6,1.972,1.365v30.64c0,.761-.9,1.365-1.972,1.365H1.972C.9,33.371,0,32.766,0,32.005V1.365C0,.6.9,0,1.972,0Z" transform="translate(1829.36 6183.66)"/>
          </g>
          <rect id="Rectangle_2" data-name="Rectangle 2" width="0.758" height="6.067" transform="translate(34.584 9.404)"/>
          <rect id="Rectangle_5" data-name="Rectangle 5" width="0.758" height="6.067" transform="translate(0.91 9.404)"/>
          <rect id="Rectangle_3" data-name="Rectangle 3" width="0.758" height="6.067" transform="translate(34.584 18.05)"/>
          <rect id="Rectangle_4" data-name="Rectangle 4" width="0.758" height="6.067" transform="translate(0.91 18.05)"/>
        </g>
      </g>
    </g>
    <g id="Group_5" data-name="Group 5" transform="translate(485.942 633.835)">
      <rect id="Rectangle_6" data-name="Rectangle 6" class="cls-4" width="9.556" height="6.219" transform="translate(0 10.542)"/>
      <rect id="Rectangle_9" data-name="Rectangle 9" class="cls-4" width="9.556" height="6.219" transform="translate(16.609) rotate(90)"/>
      <rect id="Rectangle_7" data-name="Rectangle 7" class="cls-4" width="9.556" height="6.219" transform="translate(27 16.761) rotate(180)"/>
      <rect id="Rectangle_8" data-name="Rectangle 8" class="cls-4" width="9.556" height="6.219" transform="translate(10.39 27) rotate(-90)"/>
      <g id="Ellipse_1" data-name="Ellipse 1" class="cls-5" transform="translate(7.433 7.508)">
        <ellipse class="cls-6" cx="6.067" cy="6.067" rx="6.067" ry="6.067"/>
        <ellipse class="cls-7" cx="6.067" cy="6.067" rx="5.942" ry="5.942"/>
      </g>
      <path id="Hole" d="M5606.165,962.241s-.048.917-.69.925-1.312,0-1.312,0a2.123,2.123,0,0,0-.409,1.52c0,1.138.321,1.442.321,1.442h1.463a.58.58,0,0,1,.628.628v1.5a3.487,3.487,0,0,0,1.586.258,5.8,5.8,0,0,0,1.507-.258v-1.5a.655.655,0,0,1,.66-.628,9.594,9.594,0,0,0,1.3-.126s.356-.336.39-1.467-.317-1.477-.317-1.477h-1.522a.576.576,0,0,1-.685-.609,10.168,10.168,0,0,1,0-1.476,4.326,4.326,0,0,0-2.917,0C5606.149,961.6,5606.165,962.241,5606.165,962.241Z" transform="translate(-5594.196 -951.087)"/>
    </g>
  </g>
</svg>
