<?xml version="1.0" encoding="UTF-8" standalone="no"?>
<svg
   xmlns:dc="http://purl.org/dc/elements/1.1/"
   xmlns:cc="http://creativecommons.org/ns#"
   xmlns:rdf="http://www.w3.org/1999/02/22-rdf-syntax-ns#"
   xmlns:svg="http://www.w3.org/2000/svg"
   xmlns="http://www.w3.org/2000/svg"
   xmlns:xlink="http://www.w3.org/1999/xlink"
   xmlns:sodipodi="http://sodipodi.sourceforge.net/DTD/sodipodi-0.dtd"
   xmlns:inkscape="http://www.inkscape.org/namespaces/inkscape"
   viewBox="1827.391 6183.664 36.101 36.101003"
   version="1.1"
   id="svg4572"
   sodipodi:docname="Touch sensor.svg"
   width="36.101002"
   height="36.101002"
   inkscape:version="0.92.1 r15371"
   inkscape:export-filename="C:\gh\pxt-ev3\libs\core\jres\icons\touchSensor-icon.png"
   inkscape:export-xdpi="319.10471"
   inkscape:export-ydpi="319.10471">
  <metadata
     id="metadata4576">
    <rdf:RDF>
      <cc:Work
         rdf:about="">
        <dc:format>image/svg+xml</dc:format>
        <dc:type
           rdf:resource="http://purl.org/dc/dcmitype/StillImage" />
        <dc:title></dc:title>
      </cc:Work>
    </rdf:RDF>
  </metadata>
  <sodipodi:namedview
     pagecolor="#ffffff"
     bordercolor="#666666"
     borderopacity="1"
     objecttolerance="10"
     gridtolerance="10"
     guidetolerance="10"
     inkscape:pageopacity="0"
     inkscape:pageshadow="2"
     inkscape:window-width="1600"
     inkscape:window-height="837"
     id="namedview4574"
     showgrid="false"
     inkscape:zoom="7.0722208"
     inkscape:cx="18.050501"
     inkscape:cy="16.684999"
     inkscape:window-x="-8"
     inkscape:window-y="-8"
     inkscape:window-maximized="1"
     inkscape:current-layer="svg4572" />
  <defs
     id="defs4547">
    <style
       id="style4522">
      .cls-1 {
        fill: #a8a9a8;
      }

      .cls-2 {
        clip-path: url(#clip-path);
      }

      .cls-3 {
        fill: url(#linear-gradient);
      }

      .cls-4 {
        fill: url(#linear-gradient-2);
      }

      .cls-5 {
        fill: #b72b1c;
        stroke: #8b1104;
        stroke-width: 0.25px;
      }

      .cls-6 {
        stroke: none;
      }

      .cls-7 {
        fill: none;
      }

      .cls-8 {
        filter: url(#Path_1);
      }
    </style>
    <clipPath
       id="clip-path">
      <path
         id="Union_3"
         data-name="Union 3"
         class="cls-1"
         d="m 3.944,33.37 c -1.069,0 -1.972,-0.6 -1.972,-1.365 v -4.4 H 1 a 1,1 0 0 1 -1,-1 V 7.371 a 1,1 0 0 1 1,-1 H 1.972 V 1.365 C 1.972,0.6 2.875,0 3.944,0 h 10.769 v 1.365 h 6.371 V 0 h 11.073 c 1.069,0 1.972,0.6 1.972,1.365 V 6.371 H 35.1 a 1,1 0 0 1 1,1 v 19.236 a 1,1 0 0 1 -1,1 H 34.128 V 32 c 0,0.761 -0.9,1.365 -1.972,1.365 z"
         inkscape:connector-curvature="0"
         style="fill:#a8a9a8" />
    </clipPath>
    <linearGradient
       id="linear-gradient"
       x1="16.378942"
       y1="29.809677"
       x2="16.378942"
       y2="34.264748"
       gradientUnits="userSpaceOnUse"
       gradientTransform="scale(0.98165674,1.018686)">
      <stop
         offset="0"
         stop-color="#a8a9a8"
         id="stop4526" />
      <stop
         offset="1"
         stop-color="#545554"
         id="stop4528" />
    </linearGradient>
    <filter
       id="Path_1"
       x="1826.363"
       y="6180.6641"
       width="38.157001"
       height="39.370998"
       filterUnits="userSpaceOnUse">
      <feOffset
         input="SourceAlpha"
         id="feOffset4531" />
      <feGaussianBlur
         stdDeviation="1"
         result="blur"
         id="feGaussianBlur4533" />
      <feFlood
         flood-opacity="0.502"
         id="feFlood4535" />
      <feComposite
         operator="in"
         in2="blur"
         id="feComposite4537"
         result="result1" />
      <feComposite
         in="SourceGraphic"
         in2="result1"
         id="feComposite4539" />
    </filter>
    <linearGradient
       id="linear-gradient-2"
       x1="0.949"
       y1="0.5"
       x2="0.056000002"
       y2="0.5"
       gradientUnits="objectBoundingBox">
      <stop
         offset="0"
         stop-color="#b72b1c"
         id="stop4542" />
      <stop
         offset="1"
         stop-color="#8b1104"
         id="stop4544" />
    </linearGradient>
    <linearGradient
       inkscape:collect="always"
       xlink:href="#linear-gradient-2"
       id="linearGradient5121"
       gradientUnits="userSpaceOnUse"
       x1="7.315846"
       y1="3.8545027"
       x2="0.43170431"
       y2="3.8545027"
       gradientTransform="scale(1.2395892,0.80671886)" />
    <linearGradient
       inkscape:collect="always"
       xlink:href="#linear-gradient-2"
       id="linearGradient5123"
       gradientUnits="userSpaceOnUse"
       x1="7.315846"
       y1="3.8545027"
       x2="0.43170431"
       y2="3.8545027"
       gradientTransform="scale(1.2395892,0.80671886)" />
    <linearGradient
       inkscape:collect="always"
       xlink:href="#linear-gradient-2"
       id="linearGradient5125"
       gradientUnits="userSpaceOnUse"
       x1="7.315846"
       y1="3.8545027"
       x2="0.43170431"
       y2="3.8545027"
       gradientTransform="scale(1.2395892,0.80671886)" />
    <linearGradient
       inkscape:collect="always"
       xlink:href="#linear-gradient-2"
       id="linearGradient5127"
       gradientUnits="userSpaceOnUse"
       x1="7.315846"
       y1="3.8545027"
       x2="0.43170431"
       y2="3.8545027"
       gradientTransform="scale(1.2395892,0.80671886)" />
  </defs>
  <g
     id="Touch_sensor"
     data-name="Touch sensor"
     transform="translate(1346,5555.3655)">
    <g
       id="Group_8"
       data-name="Group 8"
       transform="translate(481.391,629.664)">
      <g
         id="Mask_Group_3"
         data-name="Mask Group 3"
         class="cls-2"
         clip-path="url(#clip-path)">
        <g
           id="Group_2"
           data-name="Group 2">
          <path
             id="Path_27"
             data-name="Path 27"
             class="cls-1"
             d="M 0.758,0 H 35.342 A 0.758,0.758 0 0 1 36.1,0.758 v 19.719 a 0.758,0.758 0 0 1 -0.758,0.758 H 0.758 A 0.758,0.758 0 0 1 0,20.477 V 0.758 A 0.758,0.758 0 0 1 0.758,0 Z"
             transform="translate(0,6.371)"
             inkscape:connector-curvature="0"
             style="fill:#a8a9a8" />
          <g
             class="cls-8"
             transform="translate(-1827.39,-6183.66)"
             id="g4551"
             style="filter:url(#Path_1)">
            <path
               id="Path_1-2"
               data-name="Path 1"
               class="cls-3"
               d="m 1.972,0 h 10.77 v 1.365 h 6.371 V 0 h 11.072 c 1.069,0 1.972,0.6 1.972,1.365 v 30.64 c 0,0.761 -0.9,1.365 -1.972,1.365 H 1.972 C 0.9,33.371 0,32.766 0,32.005 V 1.365 C 0,0.6 0.9,0 1.972,0 Z"
               transform="translate(1829.36,6183.66)"
               inkscape:connector-curvature="0"
               style="fill:url(#linear-gradient)" />
          </g>
          <rect
             id="Rectangle_2"
             data-name="Rectangle 2"
             width="0.75800002"
             height="6.0669999"
             transform="translate(34.584,9.404)"
             x="0"
             y="0" />
          <rect
             id="Rectangle_5"
             data-name="Rectangle 5"
             width="0.75800002"
             height="6.0669999"
             transform="translate(0.91,9.404)"
             x="0"
             y="0" />
          <rect
             id="Rectangle_3"
             data-name="Rectangle 3"
             width="0.75800002"
             height="6.0669999"
             transform="translate(34.584,18.05)"
             x="0"
             y="0" />
          <rect
             id="Rectangle_4"
             data-name="Rectangle 4"
             width="0.75800002"
             height="6.0669999"
             transform="translate(0.91,18.05)"
             x="0"
             y="0" />
        </g>
      </g>
    </g>
    <g
       id="Group_5"
       data-name="Group 5"
       transform="translate(485.942,633.835)">
      <rect
         id="Rectangle_6"
         data-name="Rectangle 6"
         class="cls-4"
         width="9.5559998"
         height="6.2189999"
         transform="translate(0,10.542)"
         x="0"
         y="0"
         style="fill:url(#linearGradient5121)" />
      <rect
         id="Rectangle_9"
         data-name="Rectangle 9"
         class="cls-4"
         width="9.5559998"
         height="6.2189999"
         transform="rotate(90,8.3045,8.3045)"
         x="0"
         y="0"
         style="fill:url(#linearGradient5123)" />
      <rect
         id="Rectangle_7"
         data-name="Rectangle 7"
         class="cls-4"
         width="9.5559998"
         height="6.2189999"
         transform="rotate(180,13.5,8.3805)"
         x="0"
         y="0"
         style="fill:url(#linearGradient5125)" />
      <rect
         id="Rectangle_8"
         data-name="Rectangle 8"
         class="cls-4"
         width="9.5559998"
         height="6.2189999"
         transform="rotate(-90,18.695,8.305)"
         x="0"
         y="0"
         style="fill:url(#linearGradient5127)" />
      <g
         id="Ellipse_1"
         data-name="Ellipse 1"
         class="cls-5"
         transform="translate(7.433,7.508)"
         style="fill:#b72b1c;stroke:#8b1104;stroke-width:0.25px">
        <circle
           class="cls-6"
           cx="6.0669999"
           cy="6.0669999"
           id="ellipse4564"
           r="6.0669999"
           style="stroke:none" />
        <circle
           class="cls-7"
           cx="6.0669999"
           cy="6.0669999"
           id="ellipse4566"
           r="5.9419999"
           style="fill:none" />
      </g>
      <path
         id="Hole"
         d="m 5606.165,962.241 c 0,0 -0.048,0.917 -0.69,0.925 -0.642,0.008 -1.312,0 -1.312,0 a 2.123,2.123 0 0 0 -0.409,1.52 c 0,1.138 0.321,1.442 0.321,1.442 h 1.463 a 0.58,0.58 0 0 1 0.628,0.628 v 1.5 a 3.487,3.487 0 0 0 1.586,0.258 5.8,5.8 0 0 0 1.507,-0.258 v -1.5 a 0.655,0.655 0 0 1 0.66,-0.628 9.594,9.594 0 0 0 1.3,-0.126 c 0,0 0.356,-0.336 0.39,-1.467 0.034,-1.131 -0.317,-1.477 -0.317,-1.477 h -1.522 a 0.576,0.576 0 0 1 -0.685,-0.609 10.168,10.168 0 0 1 0,-1.476 4.326,4.326 0 0 0 -2.917,0 c -0.019,0.627 0,1.268 0,1.268 z"
         transform="translate(-5594.196,-951.087)"
         inkscape:connector-curvature="0" />
    </g>
  </g>
</svg>
