<svg xmlns="http://www.w3.org/2000/svg" viewBox="-2186 6829.289 63 68.355">
  <defs>
    <style>
      .cls-1 {
        fill: #fff;
      }
    </style>
  </defs>
  <g id="trash" transform="translate(49 672)">
    <path id="Subtraction_2" data-name="Subtraction 2" class="cls-1" d="M-.5-603.645H-34a9.01,9.01,0,0,1-9-9v-42h-4a2,2,0,0,1-2-2v-2a2,2,0,0,1,2-2h12.82l3.919-7.542a5.256,5.256,0,0,1,1.332-1.9,7.7,7.7,0,0,1,5.481-1.9H-10.78s.083-.005.226-.005a8.02,8.02,0,0,1,2.9.565,5.812,5.812,0,0,1,3.3,3.249c1.682,4.051,3.219,7.508,3.235,7.542H12a2,2,0,0,1,2,2v2a2,2,0,0,1-2,2H8.5v42A9.01,9.01,0,0,1-.5-603.645Zm-7-46a1.5,1.5,0,0,0-1.5,1.5v32a1.5,1.5,0,0,0,1.5,1.5h3a1.5,1.5,0,0,0,1.5-1.5v-32a1.5,1.5,0,0,0-1.5-1.5Zm-11.5,0a1.5,1.5,0,0,0-1.5,1.5v32a1.5,1.5,0,0,0,1.5,1.5h3a1.5,1.5,0,0,0,1.5-1.5v-32a1.5,1.5,0,0,0-1.5-1.5Zm-11.5,0a1.5,1.5,0,0,0-1.5,1.5v32a1.5,1.5,0,0,0,1.5,1.5h3a1.5,1.5,0,0,0,1.5-1.5v-32a1.5,1.5,0,0,0-1.5-1.5Zm5.845-16.571-3.245,5.571H-7.517l-2.437-5.571Z" transform="translate(-2186 6829.29)"/>
  </g>
</svg>
