<svg id="svg41" xmlns="http://www.w3.org/2000/svg" viewBox="0 0 19.4 17.9">
  <title>color</title>
  <g id="WH-colorsensor">
    <g id="Group_4" data-name="Group 4">
      <path id="Subtraction_19" data-name="Subtraction 19" d="M17.6,19H2.4c-.6,0-1-.3-1-.7v-2.4H.7a.43.43,0,0,1-.4-.4V4.85a.43.43,0,0,1,.4-.4h.7V1.75c0-.4.5-.7,1-.7H17.6c.6,0,1,.3,1,.7v2.7h.7a.43.43,0,0,1,.4.4v10.6a.43.43,0,0,1-.4.4h-.7v2.4C18.7,18.65,18.2,19,17.6,19ZM10,3.25A5.09,5.09,0,0,0,6.4,12a2.2,2.2,0,0,0-.1.8,3.7,3.7,0,0,0,7.4,0,2.2,2.2,0,0,0-.1-.8,5.54,5.54,0,0,0,1.5-3.6A5,5,0,0,0,10,3.25Zm8.9,7.5v3.3h.4v-3.3Zm-18.1,0v3.3h.4v-3.3Zm18.1-4.6v3.3h.4V6.15ZM.8,6.15v3.3h.4V6.15Z" transform="translate(-0.3 -1.05)" style="fill: #fff"/>
      <path id="Subtraction_18" data-name="Subtraction 18" d="M10.1,15.65a2.9,2.9,0,0,1-2.9-2.9,4.25,4.25,0,0,1,.2-1.1,4.42,4.42,0,0,1-1.6-3.4,4.3,4.3,0,0,1,8.6,0,4.42,4.42,0,0,1-1.6,3.4,3.59,3.59,0,0,1,.2,1.1A3,3,0,0,1,10.1,15.65Zm0-4a1.1,1.1,0,1,0,1.1,1.1,1.27,1.27,0,0,0-1.1-1.1Zm0-5.1a2,2,0,1,0,2,2,2.15,2.15,0,0,0-2-2Z" transform="translate(-0.3 -1.05)" style="fill: #fff"/>
    </g>
  </g>
</svg>
