<svg id="svg41" xmlns="http://www.w3.org/2000/svg" viewBox="0 0 15.98 27.11">
  <title>gyro</title>
  <g id="WH-gyro">
    <g id="gyro_box_small" data-name="gyro box small">
      <path id="Subtraction_12" data-name="Subtraction 12" d="M22.76,30.35H15.55a4,4,0,0,1-.89-.2H12.78a.87.87,0,0,1-.87-.87v-2h-.34a.34.34,0,0,1-.34-.33V6.35A.34.34,0,0,1,11.57,6h.34V4.13a.87.87,0,0,1,.87-.88h5.63v.27h1.52V3.25H25.6a.87.87,0,0,1,.87.88V6h.41a.34.34,0,0,1,.34.34V26.92a.34.34,0,0,1-.34.33h-.41v2a.87.87,0,0,1-.87.87H23.76C23.68,30.28,22.91,30.35,22.76,30.35ZM15.44,7l-1.68.47a.68.68,0,0,0-.2.07.16.16,0,0,0-.1.14.14.14,0,0,0,.1.13L14,8.1a5.19,5.19,0,0,0-.7,1.9,5.77,5.77,0,0,0,1.17,4.44c.7-.51,1.14-.81,1.14-.81a5,5,0,0,1-.7-1.51,4.27,4.27,0,0,1,.37-3.28l.33.17h0l.06,0a.24.24,0,0,0,.14.05A.12.12,0,0,0,16,9a.43.43,0,0,0,0-.33L15.44,7Zm7.62,1.82h0a4.27,4.27,0,0,1,.36,3.32,5.09,5.09,0,0,1-.7,1.47l.11.08,1,.73A5.85,5.85,0,0,0,25,10a5.19,5.19,0,0,0-.7-1.9l.33-.19.14-.08a.15.15,0,0,0,.1-.12.18.18,0,0,0-.1-.15.68.68,0,0,0-.2-.07L22.92,7s-.08.28-.18.59-.28.87-.35,1.1a.42.42,0,0,0,0,.33.12.12,0,0,0,.1.05.33.33,0,0,0,.14,0l0,0,.37-.19Zm-3.87.81A1.35,1.35,0,1,0,20.54,11a1.35,1.35,0,0,0-1.35-1.35h0Z" transform="translate(-11.23 -3.25)" style="fill: #fff"/>
    </g>
  </g>
</svg>
