<?xml version="1.0" encoding="utf-8"?>
<!-- Generator: Adobe Illustrator 22.0.1, SVG Export Plug-In . SVG Version: 6.00 Build 0)  -->
<svg version="1.1"
	 id="svg41" inkscape:export-filename="C:\gh\pxt-ev3\libs\core\jres\icons\colorSensor-icon.png" inkscape:export-xdpi="319.10471" inkscape:export-ydpi="319.10471" inkscape:version="0.91 r13725" sodipodi:docname="touch.svg" xmlns:cc="http://creativecommons.org/ns#" xmlns:dc="http://purl.org/dc/elements/1.1/" xmlns:inkscape="http://www.inkscape.org/namespaces/inkscape" xmlns:rdf="http://www.w3.org/1999/02/22-rdf-syntax-ns#" xmlns:sodipodi="http://sodipodi.sourceforge.net/DTD/sodipodi-0.dtd" xmlns:svg="http://www.w3.org/2000/svg"
	 xmlns="http://www.w3.org/2000/svg" xmlns:xlink="http://www.w3.org/1999/xlink" x="0px" y="0px" viewBox="0 0 40 40"
	 style="enable-background:new 0 0 40 40;" xml:space="preserve">
<style type="text/css">
	.st0{fill:#FFFFFF;}
</style>
<sodipodi:namedview  bordercolor="#666666" borderopacity="1" fit-margin-bottom="0" fit-margin-left="0" fit-margin-right="0" fit-margin-top="0" gridtolerance="10" guidetolerance="10" id="namedview43" inkscape:current-layer="svg41" inkscape:cx="-15.45754" inkscape:cy="12.272499" inkscape:pageopacity="0" inkscape:pageshadow="2" inkscape:window-height="1005" inkscape:window-maximized="1" inkscape:window-width="1676" inkscape:window-x="4" inkscape:window-y="1" inkscape:zoom="7.072009" objecttolerance="10" pagecolor="#bf0b0b" showgrid="false">
	</sodipodi:namedview>
<g id="WH-touch_1_" transform="translate(3368.95,8196.4)">
	<path id="Subtraction_13_1_" inkscape:connector-curvature="0" class="st0" d="M-3334.7-8159.7h-29.3c-1.1,0-2.1-0.6-2.1-1.5v-4.5
		h-1.3c-0.4,0-0.8-0.4-0.8-0.8v-20.4c0-0.4,0.4-0.8,0.8-0.8h1.3v-5.3c0-0.8,0.9-1.5,2.1-1.5h11.1v1.5h6.6v-1.5h11.5
		c1.1,0,2.1,0.6,2.1,1.5v5.3h1.3c0.4,0,0.8,0.4,0.8,0.8v20.4c0,0.4-0.4,0.8-0.8,0.8h-1.3v4.5
		C-3332.7-8160.3-3333.6-8159.7-3334.7-8159.7L-3334.7-8159.7z M-3354.8-8172.6c0.6,0.9,1.3,1.5,2.1,2.1v8.5h6.4v-8.5
		c0.9-0.6,1.5-1.3,2.1-2.1h8.7v-6.4h-8.5c-0.6-0.9-1.3-1.7-2.3-2.3v-8.7h-6.4v8.7c-0.9,0.6-1.7,1.3-2.3,2.3h-8.5v6.4H-3354.8
		L-3354.8-8172.6z M-3332.3-8175.6v6.2h0.8v-6.2H-3332.3z M-3367.2-8175.6v6.2h0.8v-6.2H-3367.2z M-3332.3-8184.5v6.2h0.8v-6.2
		H-3332.3z M-3367.2-8184.5v6.2h0.8v-6.2H-3367.2z M-3349.5-8171.8c-0.6,0-0.9,0-1.3-0.2v-1.5c0-0.4-0.2-0.6-0.6-0.6l0,0h-1.5
		c-0.2-0.4-0.4-0.9-0.4-1.5c0-0.6,0-1.1,0.4-1.5h1.3c0.8,0,0.8-0.9,0.8-0.9l0,0c0-0.2,0-0.8,0-1.3c0.4-0.2,0.9-0.2,1.3-0.2
		c0.6,0,1.1,0,1.7,0.2c0,0.4,0,0.9,0,1.3l0,0v0.2c0,0.4,0.2,0.6,0.6,0.6c0,0,0,0,0.2,0l0,0h1.5c0.4,0.4,0.4,0.9,0.4,1.5
		s-0.2,1.1-0.4,1.5l0,0c-0.4,0-0.9,0.2-1.3,0.2c-0.4,0-0.8,0.2-0.8,0.6v1.5c-0.6,0.2-0.9,0.2-1.5,0.2
		C-3349.5-8171.8-3349.5-8171.8-3349.5-8171.8z"/>
</g>
</svg>
