<?xml version="1.0" encoding="UTF-8" standalone="no"?>
<!-- Created with Inkscape (http://www.inkscape.org/) -->

<svg
   xmlns:dc="http://purl.org/dc/elements/1.1/"
   xmlns:cc="http://creativecommons.org/ns#"
   xmlns:rdf="http://www.w3.org/1999/02/22-rdf-syntax-ns#"
   xmlns:svg="http://www.w3.org/2000/svg"
   xmlns="http://www.w3.org/2000/svg"
   xmlns:sodipodi="http://sodipodi.sourceforge.net/DTD/sodipodi-0.dtd"
   xmlns:inkscape="http://www.inkscape.org/namespaces/inkscape"
   width="70mm"
   height="70mm"
   viewBox="0 0 248.0315 248.0315"
   id="svg4488"
   version="1.1"
   inkscape:version="0.91 r13725"
   sodipodi:docname="animals.svg"
   inkscape:export-filename="/Users/sammysam/Work/pxt-ev3/libs/music/jres/icons/animals-icon.png"
   inkscape:export-xdpi="34.830002"
   inkscape:export-ydpi="34.830002">
  <defs
     id="defs4490">
    <clipPath
       clipPathUnits="userSpaceOnUse"
       id="clipPath98">
      <path
         d="m 0,2662.542 4880.569,0 L 4880.569,0 0,0 0,2662.542 Z"
         id="path100"
         inkscape:connector-curvature="0" />
    </clipPath>
    <clipPath
       clipPathUnits="userSpaceOnUse"
       id="clipPath122">
      <path
         d="m 0,2662.542 4880.569,0 L 4880.569,0 0,0 0,2662.542 Z"
         id="path124"
         inkscape:connector-curvature="0" />
    </clipPath>
  </defs>
  <sodipodi:namedview
     id="base"
     pagecolor="#2718ff"
     bordercolor="#666666"
     borderopacity="1.0"
     inkscape:pageopacity="0"
     inkscape:pageshadow="2"
     inkscape:zoom="0.7"
     inkscape:cx="-376.32914"
     inkscape:cy="-19.033229"
     inkscape:document-units="px"
     inkscape:current-layer="layer1"
     showgrid="false"
     fit-margin-top="0"
     fit-margin-left="0"
     fit-margin-right="0"
     fit-margin-bottom="0"
     inkscape:window-width="1676"
     inkscape:window-height="1005"
     inkscape:window-x="4"
     inkscape:window-y="1"
     inkscape:window-maximized="1" />
  <metadata
     id="metadata4493">
    <rdf:RDF>
      <cc:Work
         rdf:about="">
        <dc:format>image/svg+xml</dc:format>
        <dc:type
           rdf:resource="http://purl.org/dc/dcmitype/StillImage" />
        <dc:title />
      </cc:Work>
    </rdf:RDF>
  </metadata>
  <g
     inkscape:label="Layer 1"
     inkscape:groupmode="layer"
     id="layer1"
     transform="translate(-277.04342,-265.29748)">
    <g
       transform="matrix(1.25,0,0,-1.25,-2100.8925,2887.6972)"
       id="g118">
      <g
         id="g120"
         clip-path="url(#clipPath122)">
        <g
           id="g126"
           transform="translate(2017.1379,1954.1029)">
          <path
             d="m 0,0 c 12.851,-2.399 13.107,-2.587 12.519,-8.787 -0.943,-0.046 -1.918,-0.132 -2.893,-0.136 -14.5,-0.058 -29,-0.155 -43.5,-0.089 -1.649,0.007 -3.49,0.628 -4.9,1.512 -2.893,1.813 -5.926,2.095 -8.902,0.969 -7.461,-2.823 -14.82,-5.916 -22.211,-8.923 -0.548,-0.223 -1.034,-0.604 -1.533,-0.935 -5.548,-3.686 -5.96,-6.674 -1.609,-11.69 1.225,-1.413 2.468,-2.811 4.029,-4.588 -1.245,-0.328 -1.964,-0.669 -2.691,-0.686 -8.496,-0.191 -15.669,8.671 -13.199,16.707 0.705,2.294 2.514,4.578 4.43,6.087 2.3,1.813 5.269,2.767 7.924,4.139 4.427,2.286 9.051,4.275 13.203,6.986 7.84,5.118 12.762,12.245 14.707,21.674 1.404,6.806 3.486,13.583 6.171,19.994 7.904,18.87 22.119,30.122 42.379,33.585 3.248,0.555 6.498,1.124 9.714,1.839 4.047,0.899 5.915,3.286 5.274,7.363 -0.585,3.723 -1.815,7.339 -2.653,11.027 -1.013,4.461 -2.337,8.911 -2.747,13.436 -0.446,4.911 1.49,5.919 5.992,3.87 2.633,-1.199 5.222,-2.536 7.943,-3.487 4.145,-1.447 8.069,-0.97 11.407,2.179 1.962,1.85 3.809,3.846 5.912,5.519 2.664,2.12 5.794,1.074 6.407,-2.244 1.214,-6.574 2.348,-13.181 3.032,-19.824 0.196,-1.905 -0.763,-4.42 -2.059,-5.892 -3.638,-4.133 -4.21,-8.637 -2.95,-13.702 0.554,-2.224 1.048,-4.472 1.408,-6.736 C 51.821,61.539 49.211,55.296 43.769,49.963 32.731,39.146 31.093,25.806 33.795,11.417 c 0.989,-5.261 4.45,-9.076 8.021,-12.753 1.932,-1.989 2.758,-4.11 1.4,-6.76 -0.889,-1.734 -2.259,-2.588 -4.147,-2.094 -1.424,0.373 -2.94,0.833 -4.106,1.68 -6.867,4.983 -12.026,11.078 -12.636,20.061 -0.196,2.889 -0.986,5.593 -4.212,6.603 -3.326,1.042 -6.248,0.29 -8.201,-2.62 C 6.602,10.597 3.503,5.516 0,0"
             style="fill:#ffffff;fill-opacity:1;fill-rule:nonzero;stroke:none"
             id="path128"
             inkscape:connector-curvature="0" />
        </g>
        <g
           id="g130"
           transform="translate(1978.552,2047.5795)">
          <path
             d="m 0,0 c -0.348,-6.542 -5.815,-7.142 -5.815,-7.142 -1.215,-2.91 -3.873,-4.962 -6.996,-5.401 -0.033,7.213 -0.005,13.177 -0.005,13.177 2.81,-0.426 5.332,-1.963 6.996,-4.268 0.735,0.041 1.611,0 1.611,0 0,0 2.493,7.109 -2.865,12.154 -5.358,5.045 -15.685,5.048 -19.55,0 -2.816,-3.38 -3.688,-7.977 -2.305,-12.154 0.408,-0.075 0.827,-0.075 1.235,0 0,0 2.794,4.043 7.019,4.268 l 0,-13.177 c -3.047,0.623 -5.636,2.615 -7.019,5.401 -3.417,0.68 -5.891,3.66 -5.931,7.142 0.037,10.443 7.894,16.419 16.861,16.419 C -7.797,16.419 0.656,9.565 0,0 m -16.794,29.088 c -14.995,0 -27.151,-12.156 -27.151,-27.15 0,-14.995 12.156,-27.151 27.151,-27.151 14.995,0 27.15,12.156 27.15,27.151 0,14.994 -12.155,27.15 -27.15,27.15"
             style="fill:#ffffff;fill-opacity:1;fill-rule:nonzero;stroke:none"
             id="path132"
             inkscape:connector-curvature="0" />
        </g>
      </g>
    </g>
  </g>
</svg>
