<?xml version="1.0" encoding="UTF-8" standalone="no"?>
<!-- Created with Inkscape (http://www.inkscape.org/) -->

<svg
   xmlns:dc="http://purl.org/dc/elements/1.1/"
   xmlns:cc="http://creativecommons.org/ns#"
   xmlns:rdf="http://www.w3.org/1999/02/22-rdf-syntax-ns#"
   xmlns:svg="http://www.w3.org/2000/svg"
   xmlns="http://www.w3.org/2000/svg"
   xmlns:sodipodi="http://sodipodi.sourceforge.net/DTD/sodipodi-0.dtd"
   xmlns:inkscape="http://www.inkscape.org/namespaces/inkscape"
   width="70mm"
   height="70mm"
   viewBox="0 0 248.0315 248.0315"
   id="svg4488"
   version="1.1"
   inkscape:version="0.91 r13725"
   sodipodi:docname="colors.svg"
   inkscape:export-filename="/Users/sammysam/Work/pxt-ev3/libs/music/jres/icons/colors-icon.png"
   inkscape:export-xdpi="34.830002"
   inkscape:export-ydpi="34.830002">
  <defs
     id="defs4490">
    <clipPath
       clipPathUnits="userSpaceOnUse"
       id="clipPath98">
      <path
         d="m 0,2662.542 4880.569,0 L 4880.569,0 0,0 0,2662.542 Z"
         id="path100"
         inkscape:connector-curvature="0" />
    </clipPath>
  </defs>
  <sodipodi:namedview
     id="base"
     pagecolor="#2718ff"
     bordercolor="#666666"
     borderopacity="1.0"
     inkscape:pageopacity="0"
     inkscape:pageshadow="2"
     inkscape:zoom="0.7"
     inkscape:cx="-129.18628"
     inkscape:cy="-19.033229"
     inkscape:document-units="px"
     inkscape:current-layer="layer1"
     showgrid="false"
     fit-margin-top="0"
     fit-margin-left="0"
     fit-margin-right="0"
     fit-margin-bottom="0"
     inkscape:window-width="1676"
     inkscape:window-height="1005"
     inkscape:window-x="4"
     inkscape:window-y="1"
     inkscape:window-maximized="1" />
  <metadata
     id="metadata4493">
    <rdf:RDF>
      <cc:Work
         rdf:about="">
        <dc:format>image/svg+xml</dc:format>
        <dc:type
           rdf:resource="http://purl.org/dc/dcmitype/StillImage" />
        <dc:title />
      </cc:Work>
    </rdf:RDF>
  </metadata>
  <g
     inkscape:label="Layer 1"
     inkscape:groupmode="layer"
     id="layer1"
     transform="translate(-277.04342,-265.29748)">
    <g
       transform="matrix(1.25,0,0,-1.25,-1715.338,2910.8175)"
       id="g94">
      <g
         id="g96"
         clip-path="url(#clipPath98)">
        <g
           id="g102"
           transform="translate(1780.3923,1979.9672)">
          <path
             d="m 0,0 c -4.26,21.817 -9.354,43.277 -15.616,64.542 1.52,-1.196 1.911,-1.587 3.402,-2.819 C -4.136,55.052 1.883,46.592 6.547,37.119 9.516,31.087 11.34,24.736 11.063,17.958 10.956,15.337 10.367,12.732 9.951,10.128 9.864,9.584 9.613,9.051 9.362,8.551 7.005,3.864 4.842,1.6 0,0"
             style="fill:#ffffff;fill-opacity:1;fill-rule:nonzero;stroke:none"
             id="path104"
             inkscape:connector-curvature="0" />
        </g>
        <g
           id="g106"
           transform="translate(1742.9729,2104.834)">
          <path
             d="m 0,0 c 5.638,-5.627 10.679,-11.504 14.972,-18.011 3.499,-5.303 6.592,-10.815 8.489,-16.912 1.154,-3.707 1.925,-7.507 1.307,-11.409 -0.858,-5.417 -3.925,-9.443 -8.27,-12.594 -0.981,-0.711 -2.002,-1.367 -3.114,-2.122 0.39,-1.262 0.778,-2.533 1.177,-3.801 6.264,-19.951 11.186,-40.243 15.26,-60.743 1.774,-8.926 3.319,-17.898 4.985,-26.847 0.424,-2.279 -0.098,-4.344 -1.486,-6.131 -6.708,-8.633 -17.447,-9.729 -26.074,-3.801 -1.887,1.297 -2.887,3.205 -3.201,5.454 -1.631,11.682 -3.524,23.335 -4.799,35.055 -1.397,12.847 -2.318,25.75 -3.25,38.643 -0.451,6.228 -0.476,12.488 -0.638,18.735 -0.024,0.957 -0.282,1.461 -1.22,1.805 -3.192,1.171 -5.884,3.054 -8.112,5.673 -3.861,4.537 -4.489,9.935 -4.243,15.537 0.277,6.315 2.626,11.865 6.549,16.801 2.646,3.328 5.249,6.693 7.766,10.119 2.231,3.036 4.023,6.309 4.113,10.215 C 0.243,-2.958 0.083,-1.579 0,0"
             style="fill:#ffffff;fill-opacity:1;fill-rule:nonzero;stroke:none"
             id="path108"
             inkscape:connector-curvature="0" />
        </g>
        <g
           id="g110"
           transform="translate(1638.6975,2062.73)">
          <path
             d="m 0,0 c -0.348,-6.542 -5.816,-7.142 -5.816,-7.142 -1.214,-2.91 -3.873,-4.962 -6.996,-5.401 -0.032,7.213 -0.004,13.177 -0.004,13.177 2.81,-0.426 5.331,-1.963 6.995,-4.268 0.735,0.041 1.611,0 1.611,0 0,0 2.494,7.109 -2.864,12.154 -5.358,5.045 -15.686,5.048 -19.551,0 -2.815,-3.38 -3.687,-7.977 -2.304,-12.154 0.407,-0.075 0.827,-0.075 1.235,0 0,0 2.794,4.043 7.019,4.268 l 0,-13.177 c -3.047,0.623 -5.637,2.615 -7.019,5.401 -3.417,0.68 -5.891,3.66 -5.931,7.142 0.036,10.442 7.894,16.418 16.86,16.418 C -7.798,16.418 0.656,9.564 0,0 m -16.794,29.088 c -14.996,0 -27.151,-12.156 -27.151,-27.151 0,-14.994 12.155,-27.15 27.151,-27.15 14.994,0 27.15,12.156 27.15,27.15 0,14.995 -12.156,27.151 -27.15,27.151"
             style="fill:#ffffff;fill-opacity:1;fill-rule:nonzero;stroke:none"
             id="path112"
             inkscape:connector-curvature="0" />
        </g>
        <g
           id="g114"
           transform="translate(1699.2346,2029.5179)">
          <path
             d="m 0,0 c -3.111,-3.868 -7.408,-5.535 -12.202,-6.12 -0.821,-0.101 -1.655,-0.099 -2.565,-0.15 -5.208,0.144 -10.045,1.473 -13.871,5.396 -4.563,4.677 -4.551,11.567 0.014,16.242 3.243,3.321 7.295,4.826 11.819,5.244 4.264,0.395 8.347,-0.268 12.145,-2.303 2.832,-1.517 5.103,-3.625 6.365,-6.642 C 3.465,7.454 2.825,3.512 0,0 m -25.273,-66.367 c -3.344,-2.025 -7.063,-2.846 -12.238,-2.786 -4.011,0.125 -8.842,1.458 -12.683,5.355 -4.688,4.756 -4.714,11.787 -0.034,16.557 3.667,3.738 8.275,5.215 13.371,5.375 4.999,0.157 9.628,-0.996 13.595,-4.215 6.772,-5.492 6.527,-15.116 -2.011,-20.286 M -65.637,-8.87 c 3.668,3.451 8.172,4.64 13.133,4.745 4.945,-0.132 9.537,-1.375 13.216,-5.018 4.685,-4.639 4.687,-11.498 -0.006,-16.133 -3.773,-3.726 -8.484,-5.034 -13.612,-4.98 -4.732,0.049 -9.086,1.33 -12.655,4.643 -5.131,4.761 -5.173,11.946 -0.076,16.743 M 41.219,-82.11 c -1.734,10.652 -3.265,21.346 -4.537,32.065 -1.238,10.42 -2.245,20.875 -3.016,31.34 -0.669,9.083 -0.875,18.201 -1.257,27.305 -0.03,0.729 -0.224,1.135 -0.922,1.485 -7.246,3.638 -11.487,9.456 -12.401,17.549 -0.131,1.158 -0.669,1.395 -1.565,1.602 -8.743,2.016 -14.601,3.018 -23.573,2.996 -12.102,0.009 -23.944,-1.681 -35.415,-5.627 -0.317,-0.11 -0.63,-0.227 -0.946,-0.339 -3.957,-15.599 -18.088,-27.142 -34.919,-27.142 -0.721,0 -1.436,0.027 -2.146,0.069 -7.479,-11.151 -10.165,-23.651 -7.356,-37.526 2.209,-10.921 7.648,-20.221 15.07,-28.374 12.406,-13.626 27.977,-22.107 45.388,-27.509 9.027,-2.801 18.313,-4.273 27.692,-5.164 7.97,-0.758 15.943,-0.966 23.843,0.739 6.608,1.427 9.464,4.226 13.94,9.463 1.733,2.028 2.601,4.111 2.12,7.068"
             style="fill:#ffffff;fill-opacity:1;fill-rule:nonzero;stroke:none"
             id="path116"
             inkscape:connector-curvature="0" />
        </g>
      </g>
    </g>
  </g>
</svg>
