<?xml version="1.0" encoding="UTF-8" standalone="no"?>
<!-- Created with Inkscape (http://www.inkscape.org/) -->

<svg
   xmlns:dc="http://purl.org/dc/elements/1.1/"
   xmlns:cc="http://creativecommons.org/ns#"
   xmlns:rdf="http://www.w3.org/1999/02/22-rdf-syntax-ns#"
   xmlns:svg="http://www.w3.org/2000/svg"
   xmlns="http://www.w3.org/2000/svg"
   xmlns:sodipodi="http://sodipodi.sourceforge.net/DTD/sodipodi-0.dtd"
   xmlns:inkscape="http://www.inkscape.org/namespaces/inkscape"
   width="70mm"
   height="70mm"
   viewBox="0 0 248.0315 248.0315"
   id="svg4488"
   version="1.1"
   inkscape:version="0.91 r13725"
   sodipodi:docname="communication.svg"
   inkscape:export-filename="/Users/sammysam/Work/pxt-ev3/libs/music/jres/icons/communication-icon.png"
   inkscape:export-xdpi="34.830002"
   inkscape:export-ydpi="34.830002">
  <defs
     id="defs4490">
    <clipPath
       clipPathUnits="userSpaceOnUse"
       id="clipPath98">
      <path
         d="m 0,2662.542 4880.569,0 L 4880.569,0 0,0 0,2662.542 Z"
         id="path100"
         inkscape:connector-curvature="0" />
    </clipPath>
    <clipPath
       clipPathUnits="userSpaceOnUse"
       id="clipPath350">
      <path
         d="m 0,2662.542 4880.569,0 L 4880.569,0 0,0 0,2662.542 Z"
         id="path352"
         inkscape:connector-curvature="0" />
    </clipPath>
  </defs>
  <sodipodi:namedview
     id="base"
     pagecolor="#2718ff"
     bordercolor="#666666"
     borderopacity="1.0"
     inkscape:pageopacity="0"
     inkscape:pageshadow="2"
     inkscape:zoom="0.7"
     inkscape:cx="-376.32914"
     inkscape:cy="-19.033229"
     inkscape:document-units="px"
     inkscape:current-layer="layer1"
     showgrid="false"
     fit-margin-top="0"
     fit-margin-left="0"
     fit-margin-right="0"
     fit-margin-bottom="0"
     inkscape:window-width="1676"
     inkscape:window-height="1005"
     inkscape:window-x="4"
     inkscape:window-y="1"
     inkscape:window-maximized="1" />
  <metadata
     id="metadata4493">
    <rdf:RDF>
      <cc:Work
         rdf:about="">
        <dc:format>image/svg+xml</dc:format>
        <dc:type
           rdf:resource="http://purl.org/dc/dcmitype/StillImage" />
        <dc:title />
      </cc:Work>
    </rdf:RDF>
  </metadata>
  <g
     inkscape:label="Layer 1"
     inkscape:groupmode="layer"
     id="layer1"
     transform="translate(-277.04342,-265.29748)">
    <g
       transform="matrix(1.25,0,0,-1.25,-2844.1138,2903.3177)"
       id="g346">
      <g
         id="g348"
         clip-path="url(#clipPath350)">
        <g
           id="g354"
           transform="translate(2645.6692,2007.9222)">
          <path
             d="M 0,0 C -7.32,-0.015 -13.303,5.941 -13.312,13.253 -13.32,20.57 -7.365,26.534 -0.038,26.547 7.309,26.562 13.243,20.641 13.251,13.291 13.259,5.934 7.358,0.016 0,0 m -39.798,0 c -7.324,-0.052 -13.329,5.887 -13.35,13.202 -0.022,7.358 5.846,13.287 13.209,13.345 7.317,0.057 13.329,-5.888 13.35,-13.204 C -26.567,5.987 -32.443,0.052 -39.798,0 m -39.44,0 c -7.303,-0.042 -13.334,5.929 -13.362,13.229 -0.028,7.285 5.954,13.305 13.256,13.34 C -72,26.605 -66.061,20.7 -66.034,13.333 -66.007,5.947 -71.854,0.042 -79.238,0 M 36.901,36.552 c -0.003,1.559 -0.149,3.126 -0.35,4.674 -1.972,15.185 -14.606,26.72 -29.775,26.78 -26.69,0.105 -53.381,0.13 -80.072,0.03 0.27,-1.775 0.409,-3.592 0.409,-5.441 0,-19.896 -16.129,-36.026 -36.024,-36.026 -2.525,0 -4.987,0.263 -7.365,0.757 -0.007,-11.576 -0.008,-23.151 0.02,-34.727 0.004,-1.772 0.122,-3.572 0.441,-5.313 3.059,-16.713 16.377,-27.791 33.377,-27.811 9.769,-0.012 19.539,-0.002 29.308,-0.003 l 1.839,0 c -0.132,-0.621 -0.208,-1.097 -0.335,-1.557 -1.966,-7.115 -3.938,-14.228 -5.908,-21.342 -1.309,-4.725 -2.628,-9.448 -3.914,-14.179 -0.491,-1.811 -0.185,-3.451 1.375,-4.656 1.418,-1.096 2.994,-1.208 4.55,-0.365 0.794,0.43 1.481,1.07 2.185,1.653 15.882,13.142 31.765,26.284 47.623,39.454 0.895,0.744 1.782,1.031 2.926,1.015 3.507,-0.051 7.017,-0.052 10.523,0.022 3.655,0.076 7.207,0.838 10.491,2.415 12.322,5.917 18.376,16.024 18.628,29.445 0.282,15.054 0.075,30.117 0.048,45.175"
             style="fill:#ffffff;fill-opacity:1;fill-rule:nonzero;stroke:none"
             id="path356"
             inkscape:connector-curvature="0" />
        </g>
        <g
           id="g358"
           transform="translate(2553.552,2068.5796)">
          <path
             d="m 0,0 c -0.348,-6.542 -5.815,-7.142 -5.815,-7.142 -1.215,-2.91 -3.873,-4.962 -6.996,-5.401 -0.033,7.213 -0.004,13.177 -0.004,13.177 2.809,-0.426 5.331,-1.963 6.995,-4.268 0.734,0.041 1.611,0 1.611,0 0,0 2.493,7.109 -2.865,12.154 -5.358,5.045 -15.685,5.048 -19.55,0 -2.816,-3.38 -3.688,-7.977 -2.305,-12.154 0.408,-0.075 0.827,-0.075 1.235,0 0,0 2.794,4.043 7.019,4.268 l 0,-13.177 c -3.047,0.623 -5.637,2.615 -7.019,5.401 -3.416,0.68 -5.891,3.66 -5.93,7.142 0.036,10.442 7.894,16.418 16.859,16.418 C -7.798,16.418 0.656,9.564 0,0 m -16.794,29.088 c -14.995,0 -27.15,-12.156 -27.15,-27.151 0,-14.994 12.155,-27.15 27.15,-27.15 14.994,0 27.15,12.156 27.15,27.15 0,14.995 -12.156,27.151 -27.15,27.151"
             style="fill:#ffffff;fill-opacity:1;fill-rule:nonzero;stroke:none"
             id="path360"
             inkscape:connector-curvature="0" />
        </g>
      </g>
    </g>
  </g>
</svg>
