<?xml version="1.0" encoding="UTF-8" standalone="no"?>
<!-- Created with Inkscape (http://www.inkscape.org/) -->

<svg
   xmlns:dc="http://purl.org/dc/elements/1.1/"
   xmlns:cc="http://creativecommons.org/ns#"
   xmlns:rdf="http://www.w3.org/1999/02/22-rdf-syntax-ns#"
   xmlns:svg="http://www.w3.org/2000/svg"
   xmlns="http://www.w3.org/2000/svg"
   xmlns:sodipodi="http://sodipodi.sourceforge.net/DTD/sodipodi-0.dtd"
   xmlns:inkscape="http://www.inkscape.org/namespaces/inkscape"
   width="70mm"
   height="70mm"
   viewBox="0 0 248.0315 248.0315"
   id="svg4488"
   version="1.1"
   inkscape:version="0.91 r13725"
   sodipodi:docname="expressions.svg"
   inkscape:export-filename="/Users/sammysam/Work/pxt-ev3/libs/music/jres/icons/expressions-icon.png"
   inkscape:export-xdpi="34.830002"
   inkscape:export-ydpi="34.830002">
  <defs
     id="defs4490">
    <clipPath
       clipPathUnits="userSpaceOnUse"
       id="clipPath98">
      <path
         d="m 0,2662.542 4880.569,0 L 4880.569,0 0,0 0,2662.542 Z"
         id="path100"
         inkscape:connector-curvature="0" />
    </clipPath>
    <clipPath
       clipPathUnits="userSpaceOnUse"
       id="clipPath60">
      <path
         d="m 0,2662.542 4880.569,0 L 4880.569,0 0,0 0,2662.542 Z"
         id="path62"
         inkscape:connector-curvature="0" />
    </clipPath>
  </defs>
  <sodipodi:namedview
     id="base"
     pagecolor="#2718ff"
     bordercolor="#666666"
     borderopacity="1.0"
     inkscape:pageopacity="0"
     inkscape:pageshadow="2"
     inkscape:zoom="0.98994949"
     inkscape:cx="-142.31826"
     inkscape:cy="41.575924"
     inkscape:document-units="px"
     inkscape:current-layer="layer1"
     showgrid="false"
     fit-margin-top="0"
     fit-margin-left="0"
     fit-margin-right="0"
     fit-margin-bottom="0"
     inkscape:window-width="1676"
     inkscape:window-height="1005"
     inkscape:window-x="4"
     inkscape:window-y="1"
     inkscape:window-maximized="1" />
  <metadata
     id="metadata4493">
    <rdf:RDF>
      <cc:Work
         rdf:about="">
        <dc:format>image/svg+xml</dc:format>
        <dc:type
           rdf:resource="http://purl.org/dc/dcmitype/StillImage" />
        <dc:title />
      </cc:Work>
    </rdf:RDF>
  </metadata>
  <g
     inkscape:label="Layer 1"
     inkscape:groupmode="layer"
     id="layer1"
     transform="translate(-277.04342,-265.29748)">
    <g
       transform="matrix(0.97413611,0,0,-0.97413611,-1827.6604,2336.9603)"
       id="g56">
      <g
         id="g58"
         clip-path="url(#clipPath60)">
        <g
           id="g64"
           transform="translate(2384.9529,2017.6815)">
          <path
             d="m 0,0 c -1.714,0.451 -2.514,1.918 -3.269,3.579 -0.581,1.28 -1.26,2.586 -3.554,4.957 -3.184,3.208 -5.397,3.115 -9.004,3.279 -3.207,0.145 -4.617,1.318 -5.51,3.895 0.045,2.225 1.201,3.894 3.725,4.494 C -11.17,21.736 -6.029,19.046 -0.64,14.2 2.023,11.806 3.954,8.939 5.054,5.622 6.249,2.021 3.55,-0.935 0,0 m 24.409,39.626 c -5.068,6.681 -11.677,11.44 -18.941,15.375 -8.855,4.796 -18.282,8.034 -28.148,10.022 -11.477,2.313 -22.979,2.945 -34.513,0.466 -4.83,-1.038 -8.89,-2.951 -12.959,-5.842 -0.411,-0.292 -0.828,-0.688 -1.036,-1.133 -1.229,-2.64 -2.398,-5.309 -3.587,-7.968 -0.073,0.028 -1.246,-2.845 -2.698,-6.642 1.897,-1.536 3.302,-3.451 4.264,-6.044 2.727,-7.351 5.171,-14.771 7.14,-22.311 -0.02,0.68 0.103,1.411 0.423,2.201 2.48,6.14 7.65,8.775 14.72,10.364 3.495,0.784 6.95,0.699 10.292,-0.324 3.627,-1.11 4.475,-5.022 1.657,-7.375 -1.359,-1.137 -3.019,-0.94 -4.81,-0.594 -1.38,0.267 -2.838,0.47 -6.099,-0.028 -4.46,-0.739 -5.665,-2.597 -7.886,-5.443 -1.976,-2.531 -3.749,-3.002 -6.367,-2.239 -0.648,0.481 -1.146,1.04 -1.479,1.669 1.457,-5.828 2.628,-11.729 3.373,-17.738 0.905,-7.307 1.344,-14.561 1.298,-21.758 2.621,1.02 5.493,1.738 8.716,2.022 4.335,0.381 8.784,-0.21 11.197,-1.129 7.369,-2.826 11.595,-5.803 15.235,-9.303 4.623,-4.445 7.915,-9.246 10.666,-14.182 0.278,-0.498 0.563,-0.997 0.867,-1.491 0.685,-1.116 0.412,-2.047 -0.741,-2.472 -1.07,-0.394 -2.657,-0.027 -3.729,0.868 -0.178,0.149 -0.335,0.311 -0.494,0.471 -10.839,10.86 -27.343,16.759 -42.122,14.98 -0.916,-12.252 -3.382,-24.321 -7.643,-36.168 2.36,-2.485 5.062,-4.621 8.35,-6.341 9.484,-4.964 19.04,-4.073 28.507,0.033 6.883,2.986 12.899,7.336 18.303,12.498 16.833,16.08 27.834,35.69 34.603,57.788 3.87,12.633 5.564,25.639 6.424,38.799 0.231,3.529 -0.741,6.277 -2.783,8.969"
             style="fill:#ffffff;fill-opacity:1;fill-rule:nonzero;stroke:none"
             id="path66"
             inkscape:connector-curvature="0" />
        </g>
        <g
           id="g68"
           transform="translate(2304.2834,1978.8392)">
          <path
             d="m 0,0 c -1.893,-5.065 -4.079,-10.012 -6.982,-14.685 -3.189,-5.133 -7.155,-9.702 -12.507,-13.198 -4.592,-3 -9.72,-4.638 -12.753,-4.651 -9.271,-0.005 -15.157,1.979 -20.623,5.06 -6.942,3.913 -12.573,9.099 -17.668,14.786 -0.515,0.574 -1.038,1.144 -1.58,1.698 -1.221,1.25 -1.314,2.767 -0.228,4.04 1.008,1.18 2.902,1.536 4.454,0.828 0.258,-0.117 0.498,-0.268 0.741,-0.412 16.664,-9.94 37.563,-9.174 53.081,2.152 2.935,2.143 5.326,4.901 7.839,7.475 1.478,1.515 3.278,2.081 4.942,1.206 C 0.417,3.404 0.725,1.941 0,0 m -78.218,22.22 c -1.623,1.523 -2.091,3.498 -0.849,5.775 3.17,5.814 8.609,7.837 15.816,8.601 3.561,0.378 6.983,-0.105 10.186,-1.506 3.475,-1.52 3.867,-5.503 0.797,-7.517 -1.482,-0.972 -3.107,-0.586 -4.846,-0.035 -1.341,0.424 -2.766,0.792 -6.063,0.673 -4.514,-0.221 -5.925,-1.928 -8.46,-4.5 -2.253,-2.286 -4.069,-2.55 -6.581,-1.491 m 45.45,11.867 c 3.17,5.813 8.609,7.836 15.816,8.601 3.561,0.377 6.983,-0.105 10.185,-1.506 3.476,-1.52 3.868,-5.503 0.798,-7.517 -1.481,-0.972 -3.107,-0.586 -4.846,-0.036 -1.341,0.425 -2.766,0.792 -6.062,0.674 -4.515,-0.221 -5.926,-1.928 -8.46,-4.5 -2.254,-2.286 -4.069,-2.55 -6.582,-1.491 -1.623,1.522 -2.091,3.498 -0.849,5.775 M 12.963,32.609 C 11.339,45.721 7.577,58.285 2.99,70.65 c -1.23,3.316 -3.24,5.428 -6.203,7.052 -7.353,4.03 -15.329,5.677 -23.566,6.303 -10.042,0.764 -19.97,-0.129 -29.787,-2.342 -7.533,-1.697 -14.774,-4.073 -21.564,-7.49 0.408,-2.17 0.631,-4.405 0.631,-6.694 0,-14.204 -8.223,-26.482 -20.164,-32.349 0.247,-3.605 0.559,-7.311 0.905,-10.005 2.639,-20.573 9.695,-39.572 20.99,-56.978 6.423,-9.896 13.939,-18.788 23.78,-25.497 6.027,-4.108 11.956,-7.014 19.337,-7.469 10.684,-0.66 19.043,4.054 26.009,11.668 5.065,5.535 8.782,11.962 11.607,18.88 8.802,21.551 10.84,43.943 7.998,66.88"
             style="fill:#ffffff;fill-opacity:1;fill-rule:nonzero;stroke:none"
             id="path70"
             inkscape:connector-curvature="0" />
        </g>
        <g
           id="g72"
           transform="translate(2207.5535,2044.3802)">
          <path
             d="m 0,0 c -0.348,-6.542 -5.816,-7.142 -5.816,-7.142 -1.214,-2.91 -3.872,-4.962 -6.995,-5.401 -0.033,7.213 -0.005,13.177 -0.005,13.177 2.81,-0.426 5.331,-1.963 6.996,-4.268 0.734,0.041 1.611,0 1.611,0 0,0 2.493,7.109 -2.865,12.154 -5.358,5.045 -15.685,5.048 -19.551,0 -2.815,-3.38 -3.687,-7.977 -2.304,-12.154 0.408,-0.075 0.827,-0.075 1.235,0 0,0 2.794,4.043 7.019,4.268 l 0,-13.177 c -3.047,0.622 -5.637,2.615 -7.019,5.401 -3.417,0.68 -5.891,3.66 -5.931,7.142 0.037,10.443 7.894,16.419 16.861,16.419 C -7.798,16.419 0.656,9.565 0,0 m -16.794,29.088 c -14.995,0 -27.151,-12.156 -27.151,-27.151 0,-14.994 12.156,-27.15 27.151,-27.15 14.994,0 27.15,12.156 27.15,27.15 0,14.995 -12.156,27.151 -27.15,27.151"
             style="fill:#ffffff;fill-opacity:1;fill-rule:nonzero;stroke:none"
             id="path74"
             inkscape:connector-curvature="0" />
        </g>
      </g>
    </g>
  </g>
</svg>
