<?xml version="1.0" encoding="UTF-8" standalone="no"?>
<!-- Created with Inkscape (http://www.inkscape.org/) -->

<svg
   xmlns:dc="http://purl.org/dc/elements/1.1/"
   xmlns:cc="http://creativecommons.org/ns#"
   xmlns:rdf="http://www.w3.org/1999/02/22-rdf-syntax-ns#"
   xmlns:svg="http://www.w3.org/2000/svg"
   xmlns="http://www.w3.org/2000/svg"
   xmlns:sodipodi="http://sodipodi.sourceforge.net/DTD/sodipodi-0.dtd"
   xmlns:inkscape="http://www.inkscape.org/namespaces/inkscape"
   width="70mm"
   height="70mm"
   viewBox="0 0 248.0315 248.0315"
   id="svg4488"
   version="1.1"
   inkscape:version="0.91 r13725"
   sodipodi:docname="information.svg"
   inkscape:export-filename="/Users/sammysam/Work/pxt-ev3/libs/music/jres/icons/information-icon.png"
   inkscape:export-xdpi="34.830002"
   inkscape:export-ydpi="34.830002">
  <defs
     id="defs4490">
    <clipPath
       clipPathUnits="userSpaceOnUse"
       id="clipPath98">
      <path
         d="m 0,2662.542 4880.569,0 L 4880.569,0 0,0 0,2662.542 Z"
         id="path100"
         inkscape:connector-curvature="0" />
    </clipPath>
    <clipPath
       clipPathUnits="userSpaceOnUse"
       id="clipPath326">
      <path
         d="m 0,2662.542 4880.569,0 L 4880.569,0 0,0 0,2662.542 Z"
         id="path328"
         inkscape:connector-curvature="0" />
    </clipPath>
    <clipPath
       clipPathUnits="userSpaceOnUse"
       id="clipPath306">
      <path
         d="m 0,2662.542 4880.569,0 L 4880.569,0 0,0 0,2662.542 Z"
         id="path308"
         inkscape:connector-curvature="0" />
    </clipPath>
    <clipPath
       clipPathUnits="userSpaceOnUse"
       id="clipPath80">
      <path
         d="m 0,2662.542 4880.569,0 L 4880.569,0 0,0 0,2662.542 Z"
         id="path82"
         inkscape:connector-curvature="0" />
    </clipPath>
  </defs>
  <sodipodi:namedview
     id="base"
     pagecolor="#2718ff"
     bordercolor="#666666"
     borderopacity="1.0"
     inkscape:pageopacity="0"
     inkscape:pageshadow="2"
     inkscape:zoom="0.7"
     inkscape:cx="-623.472"
     inkscape:cy="-19.033229"
     inkscape:document-units="px"
     inkscape:current-layer="layer1"
     showgrid="false"
     fit-margin-top="0"
     fit-margin-left="0"
     fit-margin-right="0"
     fit-margin-bottom="0"
     inkscape:window-width="1676"
     inkscape:window-height="1005"
     inkscape:window-x="4"
     inkscape:window-y="1"
     inkscape:window-maximized="1" />
  <metadata
     id="metadata4493">
    <rdf:RDF>
      <cc:Work
         rdf:about="">
        <dc:format>image/svg+xml</dc:format>
        <dc:type
           rdf:resource="http://purl.org/dc/dcmitype/StillImage" />
        <dc:title />
      </cc:Work>
    </rdf:RDF>
  </metadata>
  <g
     inkscape:label="Layer 1"
     inkscape:groupmode="layer"
     id="layer1"
     transform="translate(-277.04342,-265.29748)">
    <g
       transform="matrix(1.25,0,0,-1.25,-4045.5446,2893.0624)"
       id="g76">
      <g
         id="g78"
         clip-path="url(#clipPath80)">
        <g
           id="g84"
           transform="translate(3570.8577,2080.2783)">
          <path
             d="m 0,0 c -17.199,0 -33.081,-5.625 -45.92,-15.127 1.907,-3.367 3.287,-7.068 4.029,-10.998 11.416,9.366 26.007,14.997 41.891,14.997 36.476,0 66.151,-29.675 66.151,-66.151 0,-36.476 -29.675,-66.151 -66.151,-66.151 -36.476,0 -66.15,29.675 -66.15,66.151 0,3.553 0.29,7.039 0.832,10.442 -3.605,-1.269 -7.47,-1.979 -11.496,-2.03 -0.3,-2.764 -0.464,-5.568 -0.464,-8.412 0,-42.68 34.598,-77.279 77.278,-77.279 42.681,0 77.279,34.599 77.279,77.279 C 77.279,-34.599 42.681,0 0,0"
             style="fill:#ffffff;fill-opacity:1;fill-rule:nonzero;stroke:none"
             id="path86"
             inkscape:connector-curvature="0" />
        </g>
        <path
           d="m 3576.645,1964.291 -12.77,0 0,60.096 12.77,0 0,-60.096 z m -13.53,76.016 c 0,2.282 0.625,4.039 1.875,5.271 1.25,1.23 3.033,1.847 5.352,1.847 2.245,0 3.993,-0.617 5.243,-1.847 1.25,-1.232 1.874,-2.989 1.874,-5.271 0,-2.173 -0.624,-3.885 -1.874,-5.135 -1.25,-1.25 -2.998,-1.874 -5.243,-1.874 -2.319,0 -4.102,0.624 -5.352,1.874 -1.25,1.25 -1.875,2.962 -1.875,5.135"
           style="fill:#ffffff;fill-opacity:1;fill-rule:nonzero;stroke:none"
           id="path88"
           inkscape:connector-curvature="0" />
        <g
           id="g90"
           transform="translate(3510.3733,2045.4877)">
          <path
             d="m 0,0 c -0.348,-6.542 -5.815,-7.142 -5.815,-7.142 -1.214,-2.91 -3.873,-4.963 -6.996,-5.402 -0.033,7.214 -0.004,13.178 -0.004,13.178 2.809,-0.426 5.331,-1.963 6.995,-4.268 0.735,0.041 1.611,0 1.611,0 0,0 2.493,7.109 -2.864,12.154 -5.359,5.045 -15.686,5.048 -19.551,0 -2.815,-3.381 -3.688,-7.978 -2.305,-12.154 0.408,-0.075 0.827,-0.075 1.236,0 0,0 2.793,4.043 7.018,4.268 l 0,-13.178 c -3.047,0.623 -5.636,2.616 -7.018,5.402 -3.417,0.68 -5.892,3.659 -5.931,7.142 0.036,10.442 7.894,16.419 16.86,16.419 C -7.797,16.419 0.656,9.565 0,0 m -16.794,29.088 c -14.995,0 -27.15,-12.156 -27.15,-27.151 0,-14.995 12.155,-27.15 27.15,-27.15 14.995,0 27.15,12.155 27.15,27.15 0,14.995 -12.155,27.151 -27.15,27.151"
             style="fill:#ffffff;fill-opacity:1;fill-rule:nonzero;stroke:none"
             id="path92"
             inkscape:connector-curvature="0" />
        </g>
      </g>
    </g>
  </g>
</svg>
