<?xml version="1.0" encoding="UTF-8" standalone="no"?>
<!-- Created with Inkscape (http://www.inkscape.org/) -->

<svg
   xmlns:dc="http://purl.org/dc/elements/1.1/"
   xmlns:cc="http://creativecommons.org/ns#"
   xmlns:rdf="http://www.w3.org/1999/02/22-rdf-syntax-ns#"
   xmlns:svg="http://www.w3.org/2000/svg"
   xmlns="http://www.w3.org/2000/svg"
   xmlns:sodipodi="http://sodipodi.sourceforge.net/DTD/sodipodi-0.dtd"
   xmlns:inkscape="http://www.inkscape.org/namespaces/inkscape"
   width="70mm"
   height="70mm"
   viewBox="0 0 248.0315 248.0315"
   id="svg4488"
   version="1.1"
   inkscape:version="0.91 r13725"
   sodipodi:docname="mechanical.svg"
   inkscape:export-filename="/Users/sammysam/Work/pxt-ev3/libs/music/jres/icons/mechanical-icon.png"
   inkscape:export-xdpi="34.830002"
   inkscape:export-ydpi="34.830002">
  <defs
     id="defs4490">
    <clipPath
       clipPathUnits="userSpaceOnUse"
       id="clipPath98">
      <path
         d="m 0,2662.542 4880.569,0 L 4880.569,0 0,0 0,2662.542 Z"
         id="path100"
         inkscape:connector-curvature="0" />
    </clipPath>
    <clipPath
       clipPathUnits="userSpaceOnUse"
       id="clipPath326">
      <path
         d="m 0,2662.542 4880.569,0 L 4880.569,0 0,0 0,2662.542 Z"
         id="path328"
         inkscape:connector-curvature="0" />
    </clipPath>
  </defs>
  <sodipodi:namedview
     id="base"
     pagecolor="#2718ff"
     bordercolor="#666666"
     borderopacity="1.0"
     inkscape:pageopacity="0"
     inkscape:pageshadow="2"
     inkscape:zoom="0.7"
     inkscape:cx="-376.32914"
     inkscape:cy="-19.033229"
     inkscape:document-units="px"
     inkscape:current-layer="layer1"
     showgrid="false"
     fit-margin-top="0"
     fit-margin-left="0"
     fit-margin-right="0"
     fit-margin-bottom="0"
     inkscape:window-width="1676"
     inkscape:window-height="1005"
     inkscape:window-x="4"
     inkscape:window-y="1"
     inkscape:window-maximized="1" />
  <metadata
     id="metadata4493">
    <rdf:RDF>
      <cc:Work
         rdf:about="">
        <dc:format>image/svg+xml</dc:format>
        <dc:type
           rdf:resource="http://purl.org/dc/dcmitype/StillImage" />
        <dc:title />
      </cc:Work>
    </rdf:RDF>
  </metadata>
  <g
     inkscape:label="Layer 1"
     inkscape:groupmode="layer"
     id="layer1"
     transform="translate(-277.04342,-265.29748)">
    <g
       transform="matrix(1.25,0,0,-1.25,-3494.8509,2934.6633)"
       id="g322">
      <g
         id="g324"
         clip-path="url(#clipPath326)">
        <g
           id="g330"
           transform="translate(3172.885,2015.1815)">
          <path
             d="m 0,0 c -0.015,9.108 -7.431,16.503 -16.497,16.449 -9.134,-0.054 -16.439,-7.401 -16.43,-16.522 0.01,-9.083 7.458,-16.509 16.502,-16.451 C -7.286,-16.467 0.015,-9.122 0,0 m -41.665,42.966 c 2.645,-2.554 5.268,-5.016 7.798,-7.568 0.76,-0.768 1.393,-0.857 2.364,-0.499 2.153,0.795 4.344,1.492 6.539,2.168 0.766,0.235 1.083,0.618 1.199,1.432 0.48,3.347 1.047,6.681 1.59,10.019 0.049,0.296 0.156,0.582 0.26,0.958 l 10.356,0 c 0.61,-3.466 1.261,-6.951 1.817,-10.452 0.176,-1.111 0.577,-1.709 1.746,-2.007 2.18,-0.557 4.314,-1.298 6.444,-2.033 0.759,-0.262 1.245,-0.156 1.808,0.436 2.541,2.67 5.133,5.293 7.761,7.988 2.97,-2.131 5.748,-4.121 8.631,-6.189 -1.228,-2.515 -2.238,-5.12 -3.702,-7.438 -1.63,-2.578 -1.541,-4.643 0.655,-6.771 0.952,-0.924 1.681,-2.101 2.399,-3.235 0.537,-0.85 1.125,-1.117 2.132,-0.939 2.988,0.529 6.009,0.879 8.988,1.451 1.334,0.255 1.999,0.1 2.401,-1.363 0.756,-2.751 1.755,-5.435 2.697,-8.277 C 30.147,9.545 28.095,8.451 26.042,7.358 24.894,6.748 23.769,6.085 22.587,5.547 21.728,5.155 21.38,4.652 21.421,3.667 c 0.096,-2.341 0.104,-4.688 0.046,-7.03 -0.023,-0.884 0.305,-1.3 1.055,-1.673 2.95,-1.467 5.852,-3.029 8.808,-4.482 0.849,-0.418 0.982,-0.827 0.682,-1.705 -0.977,-2.865 -1.853,-5.764 -2.804,-8.768 -2.187,0.294 -4.322,0.578 -6.457,0.869 -1.16,0.158 -2.364,0.179 -3.467,0.524 -1.737,0.544 -2.692,-0.13 -3.569,-1.563 -1.04,-1.697 -2.27,-3.282 -3.475,-4.872 -0.478,-0.631 -0.543,-1.113 -0.159,-1.847 1.708,-3.264 3.336,-6.568 5.051,-9.971 -2.756,-2.031 -5.506,-4.058 -8.372,-6.171 -0.64,0.605 -1.263,1.187 -1.876,1.778 -2.062,1.99 -4.144,3.959 -6.162,5.991 -0.577,0.582 -1.073,0.67 -1.817,0.406 -2.245,-0.799 -4.5,-1.573 -6.78,-2.262 -0.83,-0.251 -1.176,-0.667 -1.301,-1.498 -0.49,-3.259 -1.078,-6.502 -1.539,-9.765 -0.129,-0.911 -0.395,-1.262 -1.358,-1.244 -3.071,0.056 -6.143,0.021 -9.281,0.021 -0.647,3.653 -1.316,7.225 -1.886,10.813 -0.145,0.91 -0.507,1.339 -1.376,1.592 -2.247,0.651 -4.478,1.361 -6.691,2.12 -0.798,0.274 -1.315,0.182 -1.927,-0.45 -2.265,-2.338 -4.609,-4.6 -6.903,-6.909 -0.302,-0.304 -0.493,-0.72 -0.739,-1.091 -3.07,2.2 -5.852,4.192 -8.693,6.228 1.62,3.326 3.176,6.611 4.824,9.849 0.439,0.863 0.379,1.455 -0.207,2.205 -1.442,1.845 -2.813,3.747 -4.176,5.653 -0.42,0.588 -0.824,0.84 -1.607,0.706 -3.204,-0.551 -6.431,-0.975 -9.634,-1.531 -1.064,-0.184 -1.631,-0.073 -1.977,1.116 -0.832,2.861 -1.833,5.673 -2.793,8.585 3.25,1.726 6.402,3.45 9.605,5.072 0.956,0.484 1.27,1.07 1.226,2.114 -0.095,2.254 -0.1,4.514 -0.059,6.77 0.015,0.857 -0.26,1.318 -1.037,1.701 -2.914,1.44 -5.792,2.954 -8.682,4.444 -0.378,0.194 -0.746,0.407 -1.187,0.65 1.054,3.314 2.088,6.56 3.148,9.888 2.963,-0.413 5.875,-0.632 8.693,-1.268 2.465,-0.556 4.17,-0.206 5.377,2.212 0.727,1.457 1.843,2.729 2.855,4.028 0.522,0.671 0.576,1.191 0.166,1.971 -1.692,3.222 -3.297,6.49 -5.022,9.914 2.771,2.04 5.543,4.082 8.391,6.179"
             style="fill:#ffffff;fill-opacity:1;fill-rule:nonzero;stroke:none"
             id="path332"
             inkscape:connector-curvature="0" />
        </g>
        <g
           id="g334"
           transform="translate(3123.2981,2066.4429)">
          <path
             d="m 0,0 c 0.012,0.702 -0.113,1.092 -0.93,1.227 -1.837,0.301 -3.648,0.755 -5.48,1.099 -0.743,0.139 -1.209,0.426 -1.477,1.202 -0.466,1.349 -1.021,2.674 -1.644,3.958 -0.447,0.922 -0.412,1.637 0.209,2.494 1.211,1.67 2.291,3.436 3.333,5.02 -1.964,1.965 -3.797,3.8 -5.709,5.714 -1.747,-1.15 -3.569,-2.396 -5.448,-3.545 -0.4,-0.245 -1.077,-0.317 -1.518,-0.162 -1.591,0.563 -3.158,1.209 -4.683,1.932 -0.416,0.197 -0.823,0.733 -0.936,1.187 -0.471,1.892 -0.788,3.821 -1.262,5.711 -0.086,0.343 -0.63,0.8 -0.976,0.812 -2.081,0.077 -4.166,0.014 -6.249,0.052 -0.695,0.012 -0.988,-0.208 -1.112,-0.914 -0.008,-0.046 -0.018,-0.092 -0.026,-0.137 1.382,-3.824 2.138,-7.947 2.138,-12.248 0,-1.506 -0.103,-2.988 -0.283,-4.445 0.821,0.174 1.668,0.27 2.536,0.265 6.669,-0.034 12.076,-5.476 12.049,-12.128 -0.026,-6.581 -5.423,-11.963 -12.04,-12.011 -4.287,-0.03 -8.099,2.271 -10.258,5.697 -3.33,-4.121 -7.546,-7.496 -12.364,-9.827 -0.41,-0.635 -0.813,-1.261 -1.206,-1.857 1.949,-1.957 3.806,-3.822 5.715,-5.738 1.674,1.098 3.466,2.239 5.216,3.44 0.634,0.435 1.167,0.558 1.904,0.213 1.41,-0.662 2.853,-1.272 4.323,-1.782 0.783,-0.271 1.059,-0.748 1.198,-1.481 0.34,-1.787 0.773,-3.559 1.073,-5.353 0.134,-0.798 0.413,-1.095 1.251,-1.07 1.994,0.061 3.992,0.046 5.987,0.006 0.734,-0.015 1.065,0.183 1.2,0.966 0.332,1.92 0.743,3.829 1.211,5.721 0.102,0.415 0.496,0.899 0.883,1.08 1.49,0.695 3.011,1.344 4.566,1.871 0.515,0.174 1.284,0.118 1.743,-0.157 1.856,-1.109 3.638,-2.345 5.349,-3.469 1.92,1.922 3.782,3.785 5.715,5.719 -0.281,0.431 -0.644,0.965 -0.989,1.512 -0.989,1.571 -2.646,3.096 -2.771,4.735 -0.129,1.705 1.178,3.544 1.964,5.275 0.206,0.454 0.759,0.926 1.239,1.05 1.845,0.473 3.717,0.853 5.596,1.175 0.777,0.133 0.982,0.465 0.966,1.203 C -0.039,-3.993 -0.033,-1.996 0,0"
             style="fill:#ffffff;fill-opacity:1;fill-rule:nonzero;stroke:none"
             id="path336"
             inkscape:connector-curvature="0" />
        </g>
        <g
           id="g338"
           transform="translate(3076.2131,2015.0848)">
          <path
             d="m 0,0 c -6.57,0.075 -12.063,-5.21 -12.16,-11.701 -0.104,-6.837 5.139,-12.289 11.891,-12.366 6.706,-0.077 12.145,5.208 12.249,11.901 C 12.084,-5.543 6.701,-0.077 0,0 m -8.186,-41.016 c -2.477,1.059 -4.892,2.091 -7.348,3.141 0.445,2.224 0.923,4.335 1.258,6.468 0.084,0.529 -0.135,1.263 -0.485,1.673 -1.012,1.185 -2.19,2.228 -3.247,3.378 -0.521,0.567 -1,0.762 -1.803,0.588 -2.109,-0.457 -4.249,-0.778 -6.442,-1.165 -0.938,2.315 -1.877,4.549 -2.72,6.817 -0.1,0.269 0.218,0.87 0.512,1.08 1.519,1.081 3.07,2.121 4.658,3.099 0.722,0.445 0.976,0.966 0.945,1.8 -0.07,1.862 0.531,4.019 -0.223,5.507 -0.727,1.435 -2.813,2.182 -4.303,3.231 -0.53,0.372 -1.062,0.741 -1.692,1.18 0.971,2.291 1.899,4.564 2.923,6.794 0.117,0.255 0.788,0.43 1.154,0.366 1.836,-0.316 3.646,-0.786 5.486,-1.064 0.539,-0.082 1.283,0.128 1.696,0.48 1.22,1.039 2.376,2.168 3.44,3.366 0.356,0.401 0.566,1.142 0.492,1.678 -0.29,2.101 -0.721,4.182 -1.129,6.433 1.219,0.498 2.442,0.999 3.667,1.496 1.203,0.489 2.409,0.974 3.747,1.515 0.911,-1.364 1.932,-2.661 2.693,-4.097 0.91,-1.718 2.101,-2.647 4.101,-2.25 0.083,0.017 0.177,0.014 0.259,-0.004 2.957,-0.668 4.913,0.512 6.201,3.183 0.501,1.039 1.309,1.93 2.059,3.006 2.285,-0.975 4.558,-1.905 6.78,-2.943 0.267,-0.125 0.422,-0.864 0.353,-1.271 -0.312,-1.836 -0.77,-3.648 -1.068,-5.487 -0.074,-0.461 0.123,-1.08 0.413,-1.461 0.546,-0.721 1.367,-1.244 1.867,-1.987 1.426,-2.123 3.281,-2.449 5.58,-1.692 1.061,0.35 2.202,0.507 3.32,0.605 0.364,0.032 0.976,-0.306 1.121,-0.633 0.846,-1.898 1.588,-3.843 2.361,-5.774 0.096,-0.238 0.169,-0.484 0.299,-0.859 -1.784,-1.189 -3.558,-2.413 -5.381,-3.563 -0.659,-0.416 -0.951,-0.869 -0.925,-1.667 0.05,-1.561 0.032,-3.127 -0.045,-4.687 -0.039,-0.796 0.242,-1.264 0.897,-1.69 1.527,-0.993 2.986,-2.089 4.509,-3.09 0.603,-0.397 0.81,-0.733 0.476,-1.464 -0.953,-2.088 -1.816,-4.217 -2.777,-6.478 -2.02,0.404 -4.057,0.754 -6.063,1.236 -1.003,0.241 -1.706,0.07 -2.405,-0.706 -0.957,-1.062 -2.095,-1.963 -3.024,-3.047 -0.383,-0.446 -0.644,-1.215 -0.574,-1.791 0.218,-1.804 0.601,-3.59 0.959,-5.375 0.15,-0.751 -0.01,-1.175 -0.8,-1.463 -1.912,-0.697 -3.773,-1.535 -5.69,-2.223 -0.329,-0.118 -1.006,0.093 -1.212,0.377 -1.119,1.545 -2.092,3.195 -3.223,4.729 -0.323,0.438 -0.988,0.821 -1.527,0.867 -1.553,0.13 -3.123,0.036 -4.684,0.111 -0.784,0.038 -1.269,-0.209 -1.705,-0.873 -1.188,-1.807 -2.454,-3.563 -3.731,-5.4"
             style="fill:#ffffff;fill-opacity:1;fill-rule:nonzero;stroke:none"
             id="path340"
             inkscape:connector-curvature="0" />
        </g>
        <g
           id="g342"
           transform="translate(3072.2981,2077.9072)">
          <path
             d="m 0,0 c -0.348,-6.542 -5.816,-7.142 -5.816,-7.142 -1.214,-2.91 -3.873,-4.962 -6.996,-5.401 -0.033,7.213 -0.004,13.177 -0.004,13.177 2.809,-0.426 5.331,-1.963 6.995,-4.268 0.735,0.041 1.611,0 1.611,0 0,0 2.493,7.109 -2.864,12.154 -5.359,5.045 -15.686,5.048 -19.551,0 -2.815,-3.38 -3.687,-7.977 -2.305,-12.154 0.408,-0.075 0.828,-0.075 1.236,0 0,0 2.794,4.043 7.018,4.268 l 0,-13.177 c -3.047,0.623 -5.636,2.615 -7.018,5.401 -3.417,0.68 -5.892,3.66 -5.931,7.142 0.036,10.442 7.894,16.418 16.86,16.418 C -7.798,16.418 0.655,9.564 0,0 m -16.795,29.088 c -14.995,0 -27.15,-12.156 -27.15,-27.151 0,-14.994 12.155,-27.15 27.15,-27.15 14.995,0 27.15,12.156 27.15,27.15 0,14.995 -12.155,27.151 -27.15,27.151"
             style="fill:#ffffff;fill-opacity:1;fill-rule:nonzero;stroke:none"
             id="path344"
             inkscape:connector-curvature="0" />
        </g>
      </g>
    </g>
  </g>
</svg>
