<?xml version="1.0" encoding="UTF-8" standalone="no"?>
<!-- Created with Inkscape (http://www.inkscape.org/) -->

<svg
   xmlns:dc="http://purl.org/dc/elements/1.1/"
   xmlns:cc="http://creativecommons.org/ns#"
   xmlns:rdf="http://www.w3.org/1999/02/22-rdf-syntax-ns#"
   xmlns:svg="http://www.w3.org/2000/svg"
   xmlns="http://www.w3.org/2000/svg"
   xmlns:sodipodi="http://sodipodi.sourceforge.net/DTD/sodipodi-0.dtd"
   xmlns:inkscape="http://www.inkscape.org/namespaces/inkscape"
   width="70mm"
   height="70mm"
   viewBox="0 0 248.0315 248.0315"
   id="svg4488"
   version="1.1"
   inkscape:version="0.91 r13725"
   sodipodi:docname="movements.svg"
   inkscape:export-filename="/Users/sammysam/Work/pxt-ev3/libs/music/jres/icons/movements-icon.png"
   inkscape:export-xdpi="34.830002"
   inkscape:export-ydpi="34.830002">
  <defs
     id="defs4490">
    <clipPath
       clipPathUnits="userSpaceOnUse"
       id="clipPath98">
      <path
         d="m 0,2662.542 4880.569,0 L 4880.569,0 0,0 0,2662.542 Z"
         id="path100"
         inkscape:connector-curvature="0" />
    </clipPath>
    <clipPath
       clipPathUnits="userSpaceOnUse"
       id="clipPath326">
      <path
         d="m 0,2662.542 4880.569,0 L 4880.569,0 0,0 0,2662.542 Z"
         id="path328"
         inkscape:connector-curvature="0" />
    </clipPath>
    <clipPath
       clipPathUnits="userSpaceOnUse"
       id="clipPath306">
      <path
         d="m 0,2662.542 4880.569,0 L 4880.569,0 0,0 0,2662.542 Z"
         id="path308"
         inkscape:connector-curvature="0" />
    </clipPath>
  </defs>
  <sodipodi:namedview
     id="base"
     pagecolor="#2718ff"
     bordercolor="#666666"
     borderopacity="1.0"
     inkscape:pageopacity="0"
     inkscape:pageshadow="2"
     inkscape:zoom="0.7"
     inkscape:cx="-376.32914"
     inkscape:cy="-19.033229"
     inkscape:document-units="px"
     inkscape:current-layer="layer1"
     showgrid="false"
     fit-margin-top="0"
     fit-margin-left="0"
     fit-margin-right="0"
     fit-margin-bottom="0"
     inkscape:window-width="1676"
     inkscape:window-height="1005"
     inkscape:window-x="4"
     inkscape:window-y="1"
     inkscape:window-maximized="1" />
  <metadata
     id="metadata4493">
    <rdf:RDF>
      <cc:Work
         rdf:about="">
        <dc:format>image/svg+xml</dc:format>
        <dc:type
           rdf:resource="http://purl.org/dc/dcmitype/StillImage" />
        <dc:title />
      </cc:Work>
    </rdf:RDF>
  </metadata>
  <g
     inkscape:label="Layer 1"
     inkscape:groupmode="layer"
     id="layer1"
     transform="translate(-277.04342,-265.29748)">
    <g
       transform="matrix(1.25,0,0,-1.25,-3764.4453,2887.4891)"
       id="g302">
      <g
         id="g304"
         clip-path="url(#clipPath306)">
        <g
           id="g310"
           transform="translate(3352.3049,1999.0599)">
          <path
             d="m 0,0 -37.323,42.991 c 0.236,-1.668 0.366,-3.37 0.366,-5.103 0,-7.118 -2.073,-13.747 -5.636,-19.335 l 21.586,-24.864 -40.113,-42.94 c -3.77,-4.035 -3.555,-10.363 0.481,-14.134 1.928,-1.801 4.379,-2.692 6.825,-2.692 2.673,0 5.34,1.065 7.309,3.174 l 46.262,49.521 C 3.251,-9.642 3.356,-3.865 0,0"
             style="fill:#ffffff;fill-opacity:1;fill-rule:nonzero;stroke:none"
             id="path312"
             inkscape:connector-curvature="0" />
        </g>
        <g
           id="g314"
           transform="translate(3296.1165,2035.0106)">
          <path
             d="m 0,0 c -0.348,-6.542 -5.815,-7.142 -5.815,-7.142 -1.214,-2.91 -3.873,-4.963 -6.996,-5.402 -0.033,7.214 -0.004,13.178 -0.004,13.178 2.809,-0.426 5.331,-1.963 6.995,-4.268 0.735,0.041 1.611,0 1.611,0 0,0 2.493,7.109 -2.864,12.154 -5.359,5.045 -15.686,5.048 -19.551,0 -2.815,-3.381 -3.688,-7.978 -2.305,-12.154 0.408,-0.075 0.827,-0.075 1.236,0 0,0 2.793,4.043 7.018,4.268 l 0,-13.178 c -3.047,0.623 -5.636,2.616 -7.018,5.402 -3.417,0.68 -5.892,3.659 -5.931,7.142 0.036,10.442 7.894,16.418 16.86,16.418 C -7.797,16.418 0.656,9.564 0,0 m -16.794,29.088 c -14.995,0 -27.15,-12.156 -27.15,-27.151 0,-14.995 12.155,-27.15 27.15,-27.15 14.995,0 27.15,12.155 27.15,27.15 0,14.995 -12.155,27.151 -27.15,27.151"
             style="fill:#ffffff;fill-opacity:1;fill-rule:nonzero;stroke:none"
             id="path316"
             inkscape:connector-curvature="0" />
        </g>
        <g
           id="g318"
           transform="translate(3356.3713,1932.9828)">
          <path
             d="m 0,0 c -2.445,0 -4.896,0.892 -6.824,2.692 -4.036,3.771 -4.251,10.099 -0.482,14.134 l 40.114,42.941 -40.976,47.198 c -3.621,4.17 -3.176,10.486 0.995,14.106 4.17,3.622 10.486,3.178 14.107,-0.995 l 46.88,-53.999 c 3.357,-3.865 3.251,-9.641 -0.243,-13.382 L 7.31,3.174 C 5.341,1.065 2.674,0 0,0"
             style="fill:#ffffff;fill-opacity:1;fill-rule:nonzero;stroke:none"
             id="path320"
             inkscape:connector-curvature="0" />
        </g>
      </g>
    </g>
  </g>
</svg>
