<?xml version="1.0" encoding="UTF-8" standalone="no"?>
<!-- Created with Inkscape (http://www.inkscape.org/) -->

<svg
   xmlns:dc="http://purl.org/dc/elements/1.1/"
   xmlns:cc="http://creativecommons.org/ns#"
   xmlns:rdf="http://www.w3.org/1999/02/22-rdf-syntax-ns#"
   xmlns:svg="http://www.w3.org/2000/svg"
   xmlns="http://www.w3.org/2000/svg"
   xmlns:sodipodi="http://sodipodi.sourceforge.net/DTD/sodipodi-0.dtd"
   xmlns:inkscape="http://www.inkscape.org/namespaces/inkscape"
   width="70mm"
   height="70mm"
   viewBox="0 0 248.0315 248.0315"
   id="svg4488"
   version="1.1"
   inkscape:version="0.91 r13725"
   sodipodi:docname="numbers.svg"
   inkscape:export-filename="/Users/sammysam/Work/pxt-ev3/libs/music/jres/icons/numbers-icon.png"
   inkscape:export-xdpi="34.830002"
   inkscape:export-ydpi="34.830002">
  <defs
     id="defs4490">
    <clipPath
       clipPathUnits="userSpaceOnUse"
       id="clipPath98">
      <path
         d="m 0,2662.542 4880.569,0 L 4880.569,0 0,0 0,2662.542 Z"
         id="path100"
         inkscape:connector-curvature="0" />
    </clipPath>
    <clipPath
       clipPathUnits="userSpaceOnUse"
       id="clipPath122">
      <path
         d="m 0,2662.542 4880.569,0 L 4880.569,0 0,0 0,2662.542 Z"
         id="path124"
         inkscape:connector-curvature="0" />
    </clipPath>
    <clipPath
       clipPathUnits="userSpaceOnUse"
       id="clipPath138">
      <path
         d="m 0,2662.542 4880.569,0 L 4880.569,0 0,0 0,2662.542 Z"
         id="path140"
         inkscape:connector-curvature="0" />
    </clipPath>
  </defs>
  <sodipodi:namedview
     id="base"
     pagecolor="#2718ff"
     bordercolor="#666666"
     borderopacity="1.0"
     inkscape:pageopacity="0"
     inkscape:pageshadow="2"
     inkscape:zoom="1.4"
     inkscape:cx="33.67086"
     inkscape:cy="152.39534"
     inkscape:document-units="px"
     inkscape:current-layer="g4178"
     showgrid="false"
     fit-margin-top="0"
     fit-margin-left="0"
     fit-margin-right="0"
     fit-margin-bottom="0"
     inkscape:window-width="1676"
     inkscape:window-height="1005"
     inkscape:window-x="-9"
     inkscape:window-y="0"
     inkscape:window-maximized="0" />
  <metadata
     id="metadata4493">
    <rdf:RDF>
      <cc:Work
         rdf:about="">
        <dc:format>image/svg+xml</dc:format>
        <dc:type
           rdf:resource="http://purl.org/dc/dcmitype/StillImage" />
        <dc:title />
      </cc:Work>
    </rdf:RDF>
  </metadata>
  <g
     inkscape:label="Layer 1"
     inkscape:groupmode="layer"
     id="layer1"
     transform="translate(-277.04342,-265.29748)">
    <g
       transform="matrix(1.25,0,0,-1.25,-3827.4453,2281.0789)"
       id="g134">
      <g
         id="g136"
         clip-path="url(#clipPath138)">
        <g
           id="g142"
           transform="matrix(0.95667644,0,0,0.95667644,3511.7806,1622.5188)">
          <g
             transform="scale(1,-1)"
             style="font-style:normal;font-weight:normal;font-size:33.15932465px;line-height:125%;font-family:sans-serif;letter-spacing:0px;word-spacing:0px;fill:#000000;fill-opacity:1;stroke:none;stroke-width:1px;stroke-linecap:butt;stroke-linejoin:miter;stroke-opacity:1"
             id="text4167" />
        </g>
        <g
           id="g4178"
           transform="translate(0.33476913,-24.377094)">
          <path
             id="path4172"
             style="font-style:normal;font-weight:normal;font-size:93.26059723px;line-height:125%;font-family:sans-serif;letter-spacing:0px;word-spacing:0px;fill:#ffffff;fill-opacity:1;stroke:none;stroke-width:1px;stroke-linecap:butt;stroke-linejoin:miter;stroke-opacity:1"
             d="m -129.49327,130.11985 32.103871,0 0,7.74136 -43.169461,0 0,-7.74136 q 5.23681,-5.41895 14.25321,-14.52643 9.06194,-9.15302 11.38435,-11.79419 4.41713,-4.963577 6.14755,-8.378882 1.77596,-3.460842 1.77596,-6.785072 0,-5.418951 -3.82514,-8.834256 -3.77961,-3.415305 -9.88162,-3.415305 -4.32605,0 -9.15302,1.502734 -4.78142,1.502734 -10.24591,4.55374 l 0,-9.28963 q 5.55556,-2.231332 10.38253,-3.369767 4.82696,-1.138435 8.83425,-1.138435 10.56468,0 16.84884,5.282338 6.284162,5.282339 6.284162,14.116594 0,4.189441 -1.593809,7.969046 -1.548273,3.734066 -5.692173,8.834255 -1.13844,1.32058 -7.24045,7.65028 -6.10201,6.28417 -17.21314,17.62298 z"
             transform="matrix(0.9566764,0,0,-0.9566764,3511.7806,1622.5188)"
             inkscape:connector-curvature="0" />
          <path
             id="path4174"
             style="font-style:normal;font-weight:normal;font-size:93.26059723px;line-height:125%;font-family:sans-serif;letter-spacing:0px;word-spacing:0px;fill:#ffffff;fill-opacity:1;stroke:none;stroke-width:1px;stroke-linecap:butt;stroke-linejoin:miter;stroke-opacity:1"
             d="m -50.167113,101.2036 q 6.602923,1.41166 10.291452,5.87432 3.734067,4.46267 3.734067,11.02005 0,10.06377 -6.921685,15.5738 -6.921685,5.51002 -19.672157,5.51002 -4.280516,0 -8.834256,-0.86521 -4.508203,-0.81967 -9.335167,-2.50456 l 0,-8.87979 q 3.825142,2.23133 8.378882,3.36977 4.55374,1.13843 9.517316,1.13843 8.652107,0 13.160309,-3.4153 4.55374,-3.41531 4.55374,-9.92716 0,-6.01093 -4.234978,-9.3807 -4.189441,-3.41531 -11.703112,-3.41531 l -7.923508,0 0,-7.559204 8.287807,0 q 6.785073,0 10.382528,-2.686707 3.597454,-2.732244 3.597454,-7.832433 0,-5.236801 -3.734066,-8.014582 -3.68853,-2.823319 -10.610215,-2.823319 -3.779604,0 -8.105657,0.819673 -4.326053,0.819673 -9.517317,2.550094 l 0,-8.196732 q 5.236801,-1.457197 9.790541,-2.185795 4.599278,-0.728598 8.652106,-0.728598 10.473603,0 16.575614,4.781427 6.102012,4.735889 6.102012,12.841547 0,5.646637 -3.233155,9.562854 -3.233156,3.870679 -9.198555,5.373415 z"
             transform="matrix(0.9566764,0,0,-0.9566764,3511.7806,1622.5188)"
             inkscape:connector-curvature="0" />
          <g
             transform="matrix(0.7891314,0,0,0.7891314,3352.046,1573.2574)"
             id="g146">
            <path
               inkscape:connector-curvature="0"
               id="path148"
               style="fill:#ffffff;fill-opacity:1;fill-rule:nonzero;stroke:none"
               d="m 0,0 -18.637,-14.649 c -0.84,-6.455 -3.384,-12.372 -7.173,-17.286 l 2.958,-3.734 c 9.327,7.568 14.807,12.06 16.444,13.477 1.635,1.416 3.013,2.71 4.137,3.881 -0.391,-4.834 -0.585,-11.377 -0.585,-19.628 l 0,-69.141 17.211,0 L 14.355,0 0,0 Z" />
          </g>
          <g
             transform="matrix(0.7891314,0,0,0.7891314,3322.4112,1563.8678)"
             id="g150">
            <path
               inkscape:connector-curvature="0"
               id="path152"
               style="fill:#ffffff;fill-opacity:1;fill-rule:nonzero;stroke:none"
               d="m 0,0 c -0.348,-6.542 -5.815,-7.142 -5.815,-7.142 -1.215,-2.91 -3.873,-4.962 -6.997,-5.402 -0.033,7.214 -0.004,13.178 -0.004,13.178 2.809,-0.426 5.331,-1.963 6.996,-4.268 0.734,0.041 1.61,0 1.61,0 0,0 2.493,7.109 -2.864,12.154 -5.359,5.044 -15.686,5.047 -19.551,0 -2.815,-3.38 -3.687,-7.977 -2.304,-12.154 0.408,-0.075 0.827,-0.075 1.235,0 0,0 2.794,4.043 7.019,4.268 l 0,-13.178 c -3.048,0.623 -5.637,2.616 -7.019,5.402 -3.417,0.68 -5.892,3.66 -5.931,7.142 0.036,10.442 7.894,16.418 16.86,16.418 C -7.798,16.418 0.656,9.564 0,0 m -16.795,29.088 c -14.994,0 -27.15,-12.156 -27.15,-27.151 0,-14.995 12.156,-27.15 27.15,-27.15 14.995,0 27.15,12.155 27.15,27.15 0,14.995 -12.155,27.151 -27.15,27.151" />
          </g>
        </g>
      </g>
    </g>
  </g>
</svg>
